<?xml version="1.0" encoding="UTF-8" standalone="no"?><!-- Generator: Gravit.io --><svg xmlns="http://www.w3.org/2000/svg" xmlns:xlink="http://www.w3.org/1999/xlink" style="isolation:isolate" viewBox="0 0 496 512" width="496pt" height="512pt"><defs><clipPath id="_clipPath_MulvcBPhumFXJyRn6RDdcKewmQhWtwUY"><rect width="496" height="512"/></clipPath></defs><g clip-path="url(#_clipPath_MulvcBPhumFXJyRn6RDdcKewmQhWtwUY)"><path d=" M 248 8 C 111 8 0 119 0 256 C 0 393 111 504 248 504 C 385 504 496 393 496 256 C 496 119 385 8 248 8 Z  M 136 240 C 136 230.7 140.1 222.5 146.5 216.6 L 115.5 207.3 C 107 204.8 102.2 195.8 104.8 187.4 C 107.3 178.9 116.2 174.2 124.7 176.7 L 204.7 200.7 C 213.2 203.2 218 212.2 215.4 220.6 C 213.3 227.5 207 232 200.1 232 C 199.6 232 199 231.8 198.4 231.8 C 199.1 234.5 200.1 237.1 200.1 240 C 200.1 257.7 185.8 272 168.1 272 C 150.4 272 136 257.7 136 240 Z  M 304 394.2 C 276.2 360.8 219.8 360.8 191.9 394.2 C 178.4 410.5 153.7 390 167.3 373.7 C 187.3 349.7 216.7 335.9 247.9 335.9 C 279.1 335.9 308.5 349.7 328.5 373.7 C 342.3 390.2 317.4 410.3 304 394.2 Z  M 380.6 207.3 L 349.6 216.6 C 355.9 222.4 360.1 230.7 360.1 240 C 360.1 257.7 345.8 272 328.1 272 C 310.4 272 296.1 257.7 296.1 240 C 296.1 237.1 297 234.4 297.8 231.8 C 297.2 231.9 296.7 232 296.1 232 C 289.2 232 282.9 227.5 280.8 220.6 C 278.3 212.1 283.1 203.2 291.5 200.7 L 371.5 176.7 C 379.9 174.2 388.9 179 391.4 187.4 C 393.9 195.9 389.1 204.8 380.6 207.3 L 380.6 207.3 Z " fill="rgb(47,88,118)"/></g></svg>