<?xml version="1.0" encoding="UTF-8" standalone="no"?><!-- Generator: Gravit.io --><svg xmlns="http://www.w3.org/2000/svg" xmlns:xlink="http://www.w3.org/1999/xlink" style="isolation:isolate" viewBox="0 0 496 512" width="496pt" height="512pt"><defs><clipPath id="_clipPath_fnSvzPshvnj0EQ8Y074z7pdGG9EzH0xc"><rect width="496" height="512"/></clipPath></defs><g clip-path="url(#_clipPath_fnSvzPshvnj0EQ8Y074z7pdGG9EzH0xc)"><path d=" M 165.9 397.4 C 165.9 399.4 163.6 401 160.7 401 C 157.4 401.3 155.1 399.7 155.1 397.4 C 155.1 395.4 157.4 393.8 160.3 393.8 C 163.3 393.5 165.9 395.1 165.9 397.4 Z  M 134.8 392.9 C 134.1 394.9 136.1 397.2 139.1 397.8 C 141.7 398.8 144.7 397.8 145.3 395.8 C 145.9 393.8 144 391.5 141 390.6 C 138.4 389.9 135.5 390.9 134.8 392.9 Z  M 179 391.2 C 176.1 391.9 174.1 393.8 174.4 396.1 C 174.7 398.1 177.3 399.4 180.3 398.7 C 183.2 398 185.2 396.1 184.9 394.1 C 184.6 392.2 181.9 390.9 179 391.2 Z  M 244.8 8 C 106.1 8 0 113.3 0 252 C 0 362.9 69.8 457.8 169.5 491.2 C 182.3 493.5 186.8 485.6 186.8 479.1 C 186.8 472.9 186.5 438.7 186.5 417.7 C 186.5 417.7 116.5 432.7 101.8 387.9 C 101.8 387.9 90.4 358.8 74 351.3 C 74 351.3 51.1 335.6 75.6 335.9 C 75.6 335.9 100.5 337.9 114.2 361.7 C 136.1 400.3 172.8 389.2 187.1 382.6 C 189.4 366.6 195.9 355.5 203.1 348.9 C 147.2 342.7 90.8 334.6 90.8 238.4 C 90.8 210.9 98.4 197.1 114.4 179.5 C 111.8 173 103.3 146.2 117 111.6 C 137.9 105.1 186 138.6 186 138.6 C 206 133 227.5 130.1 248.8 130.1 C 270.1 130.1 291.6 133 311.6 138.6 C 311.6 138.6 359.7 105 380.6 111.6 C 394.3 146.3 385.8 173 383.2 179.5 C 399.2 197.2 409 211 409 238.4 C 409 334.9 350.1 342.6 294.2 348.9 C 303.4 356.8 311.2 371.8 311.2 395.3 C 311.2 429 310.9 470.7 310.9 478.9 C 310.9 485.4 315.5 493.3 328.2 491 C 428.2 457.8 496 362.9 496 252 C 496 113.3 383.5 8 244.8 8 Z  M 97.2 352.9 C 95.9 353.9 96.2 356.2 97.9 358.1 C 99.5 359.7 101.8 360.4 103.1 359.1 C 104.4 358.1 104.1 355.8 102.4 353.9 C 100.8 352.3 98.5 351.6 97.2 352.9 Z  M 86.4 344.8 C 85.7 346.1 86.7 347.7 88.7 348.7 C 90.3 349.7 92.3 349.4 93 348 C 93.7 346.7 92.7 345.1 90.7 344.1 C 88.7 343.5 87.1 343.8 86.4 344.8 Z  M 118.8 380.4 C 117.2 381.7 117.8 384.7 120.1 386.6 C 122.4 388.9 125.3 389.2 126.6 387.6 C 127.9 386.3 127.3 383.3 125.3 381.4 C 123.1 379.1 120.1 378.8 118.8 380.4 Z  M 107.4 365.7 C 105.8 366.7 105.8 369.3 107.4 371.6 C 109 373.9 111.7 374.9 113 373.9 C 114.6 372.6 114.6 370 113 367.7 C 111.6 365.4 109 364.4 107.4 365.7 Z " fill="rgb(47,88,118)"/></g></svg>