<?xml version="1.0" encoding="UTF-8" standalone="no"?><!-- Generator: Gravit.io --><svg xmlns="http://www.w3.org/2000/svg" xmlns:xlink="http://www.w3.org/1999/xlink" style="isolation:isolate" viewBox="0 0 512 512" width="512pt" height="512pt"><defs><clipPath id="_clipPath_im6mahsA1d6iit1H72AMNj5gp31fSMo3"><rect width="512" height="512"/></clipPath></defs><g clip-path="url(#_clipPath_im6mahsA1d6iit1H72AMNj5gp31fSMo3)"><path d=" M 512 176.001 C 512 273.203 433.202 352 336 352 C 324.78 352 313.81 350.938 303.173 348.931 L 279.161 375.945 C 274.607 381.069 268.078 384 261.223 384 L 224 384 L 224 424 C 224 437.255 213.255 448 200 448 L 160 448 L 160 488 C 160 501.255 149.255 512 136 512 L 24 512 C 10.745 512 0 501.255 0 488 L 0 409.941 C 0 403.576 2.529 397.471 7.029 392.97 L 168.831 231.168 C 163.108 213.814 160 195.271 160 176 C 160 78.798 238.797 0.001 335.999 0 C 433.488 -0.001 512 78.511 512 176.001 Z  M 336 128 C 336 154.51 357.49 176 384 176 C 410.51 176 432 154.51 432 128 C 432 101.49 410.51 80 384 80 C 357.49 80 336 101.49 336 128 Z " fill="rgb(47,88,118)"/></g></svg>