<?xml version="1.0" encoding="UTF-8" standalone="no"?><!-- Generator: Gravit.io --><svg xmlns="http://www.w3.org/2000/svg" xmlns:xlink="http://www.w3.org/1999/xlink" style="isolation:isolate" viewBox="0 0 448 512" width="448pt" height="512pt"><defs><clipPath id="_clipPath_WLHi3JzNhhzh7szDezxS9fceHKFtzjWw"><rect width="448" height="512"/></clipPath></defs><g clip-path="url(#_clipPath_WLHi3JzNhhzh7szDezxS9fceHKFtzjWw)"><path d=" M 286.17 419 C 276.229 419 268.17 427.059 268.17 437 C 268.17 446.941 276.229 455 286.17 455 C 296.111 455 304.17 446.941 304.17 437 C 304.17 427.059 296.111 419 286.17 419 Z  M 398.09 271.4 C 388.59 256.78 358.72 218.95 310.83 197.69 Q 301.73 193.63 292.45 190.42 C 300.675 170.314 300.192 147.697 291.117 127.96 C 282.042 108.223 265.187 93.134 244.57 86.29 C 232.16 82.19 221.24 80.29 212.16 80.52 C 211.56 78.52 210.27 69.52 221.56 45.52 L 198.66 32 L 193.18 39.56 C 184.49 51.62 176.26 63.11 168.84 74.45 C 166.116 73.807 163.343 73.388 160.55 73.2 C 119.02 70.75 121.55 70.87 119.49 70.87 C 68.88 70.87 68.74 122.99 68.74 116.75 L 66.38 153.43 C 64.77 180.43 86.13 203.64 114.01 205.28 L 122.94 205.82 C 105.959 215.497 90.385 227.455 76.65 241.36 C 14 304.66 14 374 14 429.77 L 14 463.41 L 37.32 433.61 C 40.446 446.733 45.344 459.369 51.88 471.17 C 57.66 481.3 66.75 480.62 71.52 478.5 C 75.73 476.63 81.52 471.58 75.27 458.39 C 67.28 441.61 61.962 423.683 59.51 405.26 L 106.33 345.43 L 81.67 419.54 C 139.9 377.14 239.05 357.78 317.92 380.95 C 352.12 391 385.37 381.64 402.66 357.11 C 403.38 356.11 403.86 354.95 404.51 353.89 C 406.31 363.261 407.248 372.778 407.31 382.32 C 407.31 405.62 403.62 435.25 392.43 463.96 C 389.91 470.42 394.19 478.46 401.03 479.7 C 408.45 481.27 416.36 476.6 419.4 468.55 C 429 443 434 414 434 382.32 C 434 343.74 421 304.86 398.09 271.4 Z  M 142.37 128.58 L 126.67 127.65 L 125.28 149.44 L 138.41 150.22 C 137.828 156.736 137.935 163.296 138.73 169.79 L 116.35 168.45 C 113.094 168.315 110.025 166.891 107.819 164.492 C 105.614 162.093 104.452 158.916 104.59 155.66 L 107 119 C 108 106.83 120.87 107.73 120.26 107.68 L 149.37 109.41 C 146.587 115.627 144.248 122.033 142.37 128.58 L 142.37 128.58 Z  M 290.79 300.76 C 286.393 304.168 280.102 303.558 276.44 299.37 L 266.76 287.88 L 232.34 314.88 C 228.938 317.555 224.034 317.079 221.21 313.8 L 205.43 295.16 C 202.949 291.934 203.548 287.307 206.77 284.82 L 241.34 257.64 L 227.2 240.9 L 210.11 254.35 C 206.872 256.874 202.228 256.436 199.52 253.35 C 199.52 253.35 195.8 248.93 195.72 248.82 C 193.246 245.586 193.859 240.958 197.09 238.48 L 214 225.19 C 214 225.19 195.49 203.19 195.4 203.05 C 193.849 201.041 193.161 198.497 193.487 195.979 C 193.813 193.462 195.128 191.177 197.14 189.63 C 201.504 186.182 207.81 186.786 211.44 191 L 292.53 287.32 C 294.082 289.333 294.771 291.88 294.445 294.401 C 294.118 296.921 292.804 299.209 290.79 300.76 L 290.79 300.76 Z  M 187.44 419 C 177.499 419 169.44 427.059 169.44 437 C 169.44 446.941 177.499 455 187.44 455 C 197.381 455 205.44 446.941 205.44 437 C 205.44 427.059 197.381 419 187.44 419 Z " fill="rgb(47,88,118)"/></g></svg>