<?xml version="1.0" encoding="UTF-8" standalone="no"?><!-- Generator: Gravit.io --><svg xmlns="http://www.w3.org/2000/svg" xmlns:xlink="http://www.w3.org/1999/xlink" style="isolation:isolate" viewBox="0 0 512 512" width="512pt" height="512pt"><defs><clipPath id="_clipPath_uUshB7OkzPJ9Fn7hX346TqMtyLPZs4Qr"><rect width="512" height="512"/></clipPath></defs><g clip-path="url(#_clipPath_uUshB7OkzPJ9Fn7hX346TqMtyLPZs4Qr)"><path d=" M 504 256 C 504 392.997 392.957 504 256 504 C 119.043 504 8 392.997 8 256 C 8 119.083 119.043 8 256 8 C 392.957 8 504 119.083 504 256 Z  M 262.655 90 C 208.158 90 173.4 112.957 146.106 153.758 C 142.57 159.044 143.753 166.173 148.821 170.016 L 183.52 196.326 C 188.725 200.273 196.141 199.334 200.185 194.204 C 218.049 171.546 230.298 158.407 257.488 158.407 C 277.917 158.407 303.186 171.555 303.186 191.365 C 303.186 206.341 290.823 214.032 270.652 225.341 C 247.128 238.528 216 254.941 216 296 L 216 300 C 216 306.627 221.373 312 228 312 L 284 312 C 290.627 312 296 306.627 296 300 L 296 298.667 C 296 270.205 379.186 269.02 379.186 192 C 379.186 133.998 319.021 90 262.655 90 L 262.655 90 Z  M 256 338 C 230.635 338 210 358.635 210 384 C 210 409.364 230.635 430 256 430 C 281.365 430 302 409.364 302 384 C 302 358.635 281.365 338 256 338 Z " fill="rgb(47,88,118)"/></g></svg>