<?xml version="1.0" encoding="UTF-8" standalone="no"?><!-- Generator: Gravit.io --><svg xmlns="http://www.w3.org/2000/svg" xmlns:xlink="http://www.w3.org/1999/xlink" style="isolation:isolate" viewBox="0 0 512 512" width="512pt" height="512pt"><defs><clipPath id="_clipPath_3xmVsFhAJC7XH2lUArqeB3uoj4ZVaz7a"><rect width="512" height="512"/></clipPath></defs><g clip-path="url(#_clipPath_3xmVsFhAJC7XH2lUArqeB3uoj4ZVaz7a)"><path d=" M 104 224 L 24 224 C 10.745 224 0 234.745 0 248 L 0 488 C 0 501.255 10.745 512 24 512 L 104 512 C 117.255 512 128 501.255 128 488 L 128 248 C 128 234.745 117.255 224 104 224 Z  M 64 472 C 50.745 472 40 461.255 40 448 C 40 434.745 50.745 424 64 424 C 77.255 424 88 434.745 88 448 C 88 461.255 77.255 472 64 472 Z  M 384 81.452 C 384 123.868 358.03 147.66 350.723 176 L 452.446 176 C 485.843 176 511.843 203.746 511.999 234.098 C 512.083 252.036 504.453 271.347 492.56 283.295 L 492.45 283.405 C 502.286 306.742 500.687 339.442 483.142 362.874 C 491.823 388.769 483.073 420.578 466.76 437.631 C 471.058 455.229 469.004 470.206 460.612 482.263 C 440.202 511.587 389.616 512 346.839 512 L 343.994 511.999 C 295.707 511.982 256.188 494.401 224.434 480.274 C 208.477 473.175 187.613 464.387 171.783 464.096 C 165.243 463.976 160 458.639 160 452.098 L 160 238.328 C 160 235.128 161.282 232.057 163.558 229.807 C 203.172 190.663 220.206 149.22 252.675 116.696 C 267.479 101.864 272.863 79.46 278.068 57.794 C 282.515 39.293 291.817 0 312 0 C 336 0 384 8 384 81.452 Z " fill="rgb(47,88,118)"/></g></svg>