<?xml version="1.0" encoding="UTF-8" standalone="no"?><!-- Generator: Gravit.io --><svg xmlns="http://www.w3.org/2000/svg" xmlns:xlink="http://www.w3.org/1999/xlink" style="isolation:isolate" viewBox="0 0 576 512" width="576pt" height="512pt"><defs><clipPath id="_clipPath_74jXTrFQ7tuVi4SVdVwg65YYzrFZvWzG"><rect width="576" height="512"/></clipPath></defs><g clip-path="url(#_clipPath_74jXTrFQ7tuVi4SVdVwg65YYzrFZvWzG)"><path d=" M 545 117.7 C 548.7 105.2 545 96 527.2 96 L 468.3 96 C 453.3 96 446.4 103.9 442.7 112.7 C 442.7 112.7 412.7 185.8 370.3 233.2 C 356.6 246.9 350.3 251.3 342.8 251.3 C 339.1 251.3 333.4 246.9 333.4 234.4 L 333.4 117.7 C 333.4 102.7 329.2 96 316.8 96 L 224.2 96 C 214.8 96 209.2 103 209.2 109.5 C 209.2 123.7 230.4 127 232.6 167 L 232.6 253.8 C 232.6 272.8 229.2 276.3 221.7 276.3 C 201.7 276.3 153.1 202.9 124.3 118.9 C 118.5 102.6 112.8 96 97.7 96 L 38.8 96 C 22 96 18.6 103.9 18.6 112.7 C 18.6 128.3 38.6 205.8 111.7 308.2 C 160.4 378.1 229 416 291.4 416 C 328.9 416 333.5 407.6 333.5 393.1 C 333.5 326.3 330.1 320 348.9 320 C 357.6 320 372.6 324.4 407.6 358.1 C 447.6 398.1 454.2 416 476.6 416 L 535.5 416 C 552.3 416 560.8 407.6 555.9 391 C 544.7 356.1 469 284.3 465.6 279.5 C 456.9 268.3 459.4 263.3 465.6 253.3 C 465.7 253.2 537.6 152 545 117.7 L 545 117.7 Z " fill="rgb(47,88,118)"/></g></svg>