<?xml version="1.0" encoding="UTF-8" standalone="no"?><!-- Generator: Gravit.io --><svg xmlns="http://www.w3.org/2000/svg" xmlns:xlink="http://www.w3.org/1999/xlink" style="isolation:isolate" viewBox="0 0 576 512" width="576pt" height="512pt"><defs><clipPath id="_clipPath_T73LhAUCachgCc8RE9WzEe3jPfgc3hZU"><rect width="576" height="512"/></clipPath></defs><g clip-path="url(#_clipPath_T73LhAUCachgCc8RE9WzEe3jPfgc3hZU)"><path d=" M 549.655 124.083 C 543.374 100.433 524.868 81.807 501.371 75.486 C 458.781 64 288 64 288 64 C 288 64 117.22 64 74.629 75.486 C 51.132 81.808 32.626 100.433 26.345 124.083 C 14.933 166.95 14.933 256.388 14.933 256.388 C 14.933 256.388 14.933 345.826 26.345 388.693 C 32.626 412.343 51.132 430.193 74.629 436.514 C 117.22 448 288 448 288 448 C 288 448 458.78 448 501.371 436.514 C 524.868 430.193 543.374 412.343 549.655 388.693 C 561.067 345.826 561.067 256.388 561.067 256.388 C 561.067 256.388 561.067 166.95 549.655 124.083 L 549.655 124.083 Z  M 232.145 337.591 L 232.145 175.185 L 374.884 256.39 L 232.145 337.591 L 232.145 337.591 Z " fill="rgb(47,88,118)"/></g></svg>