<?xml version="1.0" encoding="UTF-8"?>
<svg width="512px" height="512px" viewBox="0 0 512 512" xmlns="http://www.w3.org/2000/svg" xmlns:xlink="http://www.w3.org/1999/xlink" version="1.1">
 <!-- Generated by Pixelmator Pro 1.7.1 -->
 <path id="Путь" d="M256 416 C370.9 416 464 322.9 464 208 464 93.1 370.9 0 256 0 141.1 0 48 93.1 48 208 48 322.9 141.1 416 256 416 Z M233.8 97.4 L233.8 80.6 C233.8 71.4 241.2 64 250.4 64 L261.5 64 C270.7 64 278.1 71.4 278.1 80.6 L278.1 97.6 C293.6 98.4 308.6 103.7 321.1 113 326.7 117.1 327.3 125.3 322.3 130.1 L306 145.6 C302.2 149.3 296.5 149.4 292 146.6 286.6 143.2 280.6 141.5 274.2 141.5 L235.3 141.5 C226.3 141.5 219 149.7 219 159.8 219 168 224 175.3 231.1 177.4 L293.4 196.1 C319.1 203.8 337.1 228.5 337.1 256.2 337.1 290.2 310.7 317.7 278 318.6 L278 335.4 C278 344.6 270.6 352 261.4 352 L250.3 352 C241.1 352 233.7 344.6 233.7 335.4 L233.7 318.4 C218.2 317.6 203.2 312.3 190.7 303 185.1 298.9 184.5 290.7 189.5 285.9 L205.8 270.4 C209.6 266.7 215.3 266.6 219.8 269.4 225.2 272.8 231.2 274.5 237.6 274.5 L276.5 274.5 C285.5 274.5 292.8 266.3 292.8 256.2 292.8 248 287.8 240.7 280.7 238.6 L218.4 219.9 C192.7 212.2 174.7 187.5 174.7 159.8 174.8 125.8 201.1 98.3 233.8 97.4 Z M480 352 L447.5 352 C427.9 378 402.9 399.7 374.5 416 L438.3 416 C443.6 416 447.9 419.6 447.9 424 L447.9 440 C447.9 444.4 443.6 448 438.3 448 L73.6 448 C68.3 448 64 444.4 64 440 L64 424 C64 419.6 68.3 416 73.6 416 L137.4 416 C109 399.7 84.1 378 64.4 352 L32 352 C14.3 352 0 366.3 0 384 L0 480 C0 497.7 14.3 512 32 512 L480 512 C497.7 512 512 497.7 512 480 L512 384 C512 366.3 497.7 352 480 352 Z" fill="#000000" fill-opacity="1" stroke="none"/>
</svg>
