<?xml version="1.0" encoding="UTF-8" standalone="no"?><!-- Generator: Gravit.io --><svg xmlns="http://www.w3.org/2000/svg" xmlns:xlink="http://www.w3.org/1999/xlink" style="isolation:isolate" viewBox="0 0 496 512" width="496pt" height="512pt"><defs><clipPath id="_clipPath_04rQsp88URN9xSoxJLbrLa5vzFnuP5Xg"><rect width="496" height="512"/></clipPath></defs><g clip-path="url(#_clipPath_04rQsp88URN9xSoxJLbrLa5vzFnuP5Xg)"><path d=" M 336.5 160 C 322 70.7 287.8 8 248 8 C 208.2 8 174 70.7 159.5 160 L 336.5 160 L 336.5 160 Z  M 152 256 C 152 278.2 153.2 299.5 155.3 320 L 340.6 320 C 342.7 299.5 343.9 278.2 343.9 256 C 343.9 233.8 342.7 212.5 340.6 192 L 155.3 192 C 153.2 212.5 152 233.8 152 256 Z  M 476.7 160 C 448.1 92.1 390.2 39.6 318.7 18.4 C 343.1 52.2 359.9 103.1 368.7 160 L 476.7 160 L 476.7 160 Z  M 177.2 18.4 C 105.8 39.6 47.8 92.1 19.3 160 L 127.3 160 C 136 103.1 152.8 52.2 177.2 18.4 Z  M 487.4 192 L 372.7 192 C 374.8 213 376 234.5 376 256 C 376 277.5 374.8 299 372.7 320 L 487.3 320 C 492.8 299.5 495.9 278.2 495.9 256 C 495.9 233.8 492.8 212.5 487.4 192 Z  M 120 256 C 120 234.5 121.2 213 123.3 192 L 8.6 192 C 3.2 212.5 0 233.8 0 256 C 0 278.2 3.2 299.5 8.6 320 L 123.2 320 C 121.2 299 120 277.5 120 256 L 120 256 Z  M 159.5 352 C 174 441.3 208.2 504 248 504 C 287.8 504 322 441.3 336.5 352 L 159.5 352 L 159.5 352 Z  M 318.8 493.6 C 390.2 472.4 448.2 419.9 476.8 352 L 368.8 352 C 360 408.9 343.2 459.8 318.8 493.6 Z  M 19.3 352 C 47.9 419.9 105.8 472.4 177.3 493.6 C 152.9 459.8 136.1 408.9 127.3 352 L 19.3 352 L 19.3 352 Z " fill="rgb(47,88,118)"/></g></svg>