<?xml version="1.0" encoding="UTF-8" standalone="no"?><!-- Generator: Gravit.io --><svg xmlns="http://www.w3.org/2000/svg" xmlns:xlink="http://www.w3.org/1999/xlink" style="isolation:isolate" viewBox="0 0 496 512" width="496pt" height="512pt"><defs><clipPath id="_clipPath_MPDMis4C6IPPkRaqUdDfOLLivftgf49n"><rect width="496" height="512"/></clipPath></defs><g clip-path="url(#_clipPath_MPDMis4C6IPPkRaqUdDfOLLivftgf49n)"><path d=" M 248 8 C 111 8 0 119 0 256 C 0 393 111 504 248 504 C 385 504 496 393 496 256 C 496 119 385 8 248 8 Z  M 369.8 177.9 L 329.1 369.7 C 326.1 383.3 318 386.6 306.7 380.2 L 244.7 334.5 L 214.8 363.3 C 211.5 366.6 208.7 369.4 202.3 369.4 L 206.7 306.3 L 321.6 202.5 C 326.6 198.1 320.5 195.6 313.9 200 L 171.9 289.4 L 110.7 270.3 C 97.4 266.1 97.1 257 113.5 250.6 L 352.6 158.4 C 363.7 154.4 373.4 161.1 369.8 177.9 L 369.8 177.9 Z " fill="rgb(47,88,118)"/></g></svg>