<?xml version="1.0" encoding="UTF-8" standalone="no"?><!-- Generator: Gravit.io --><svg xmlns="http://www.w3.org/2000/svg" xmlns:xlink="http://www.w3.org/1999/xlink" style="isolation:isolate" viewBox="0 0 800 800" width="800pt" height="800pt"><defs><clipPath id="_clipPath_QPQ5gFkVO8zDNmlu1CK99DfyigLeK5th"><rect width="800" height="800"/></clipPath></defs><g clip-path="url(#_clipPath_QPQ5gFkVO8zDNmlu1CK99DfyigLeK5th)"><path d=" M 365.225 442.474 C 364.649 440.679 363.64 439.027 362.307 437.696 L 361.599 436.989 L 401 397.586 L 401 547.549 L 399.048 547.855 L 365.225 442.474 L 365.225 442.474 Z " fill="rgb(16,59,155)"/><path d=" M 366.177 442.168 L 400 547.549 L 400 400 L 363.013 436.987 C 364.444 438.417 365.54 440.185 366.177 442.168 Z " fill="rgb(16,59,155)"/><path d=" M 397.586 399 L 547.549 399 L 547.855 400.952 L 442.474 434.775 C 440.681 435.351 439.029 436.36 437.695 437.694 L 436.988 438.401 L 397.586 399 L 397.586 399 Z " fill="rgb(16,59,155)"/><path d=" M 436.987 436.987 C 438.419 435.555 440.185 434.46 442.168 433.823 L 547.549 400 L 400 400 L 436.987 436.987 L 436.987 436.987 Z " fill="rgb(16,59,155)"/><path d=" M 695.774 659.064 L 695.774 658.064 C 695.774 651.501 690.434 646.161 683.871 646.161 L 24.807 646.161 L 24.807 153.839 L 775.194 153.839 L 775.194 646.161 L 735.485 646.161 C 728.922 646.161 723.582 651.501 723.582 658.064 L 723.582 659.064 L 695.774 659.064 L 695.774 659.064 Z  M 400 198.328 C 394.806 198.328 390.251 201.65 388.665 206.593 L 344.425 344.425 L 206.594 388.665 C 201.65 390.252 198.328 394.807 198.328 400 C 198.328 405.194 201.65 409.749 206.593 411.335 L 344.425 455.575 L 388.665 593.406 C 390.251 598.35 394.806 601.672 400 601.672 C 405.194 601.672 409.749 598.351 411.335 593.406 L 455.575 455.575 L 593.406 411.335 C 598.35 409.749 601.672 405.193 601.672 400 C 601.672 394.807 598.351 390.251 593.406 388.665 L 455.575 344.425 L 411.335 206.594 C 409.749 201.65 405.194 198.328 400 198.328 Z  M 242.173 443.517 C 240.833 443.517 239.507 443.745 238.231 444.194 C 232.037 446.371 228.767 453.177 230.942 459.368 C 248.79 510.202 289.796 551.209 340.632 569.06 C 341.908 569.508 343.235 569.736 344.576 569.736 C 349.621 569.736 354.135 566.537 355.806 561.774 C 356.86 558.773 356.682 555.542 355.307 552.675 C 353.932 549.808 351.522 547.652 348.524 546.599 C 304.439 531.116 268.88 495.558 253.404 451.482 C 251.732 446.718 247.219 443.517 242.173 443.517 Z  M 557.83 443.514 C 552.783 443.514 548.269 446.714 546.599 451.478 C 531.12 495.557 495.562 531.115 451.48 546.595 C 445.287 548.771 442.018 555.579 444.194 561.772 C 445.868 566.534 450.381 569.734 455.424 569.734 C 456.765 569.734 458.092 569.506 459.367 569.058 C 510.201 551.209 551.207 510.203 569.057 459.367 C 571.234 453.177 567.965 446.369 561.772 444.19 C 560.497 443.741 559.17 443.514 557.83 443.514 Z  M 344.578 230.266 C 343.238 230.266 341.91 230.494 340.632 230.942 C 289.799 248.791 248.793 289.797 230.943 340.635 C 229.889 343.635 230.066 346.864 231.443 349.731 C 232.819 352.597 235.231 354.756 238.232 355.811 C 239.506 356.26 240.833 356.487 242.174 356.487 C 247.22 356.487 251.733 353.286 253.404 348.523 C 268.883 304.44 304.442 268.881 348.523 253.404 C 351.523 252.35 353.933 250.191 355.31 247.324 C 356.687 244.457 356.864 241.227 355.81 238.228 C 354.135 233.465 349.622 230.266 344.578 230.266 Z  M 455.424 230.263 C 450.378 230.263 445.864 233.463 444.194 238.225 C 443.14 241.226 443.317 244.457 444.693 247.323 C 446.069 250.189 448.479 252.347 451.48 253.4 C 495.564 268.88 531.123 304.439 546.599 348.518 C 548.271 353.282 552.784 356.483 557.829 356.483 C 559.169 356.483 560.495 356.255 561.77 355.807 C 564.771 354.753 567.181 352.594 568.558 349.728 C 569.935 346.862 570.113 343.632 569.059 340.633 C 551.21 289.798 510.205 248.791 459.37 230.939 C 458.092 230.491 456.765 230.263 455.424 230.263 Z " fill="rgb(16,59,155)"/><path d=" M 735.484 645.161 L 774.193 645.161 L 774.193 154.839 L 25.807 154.839 L 25.807 645.161 L 683.871 645.161 C 690.999 645.161 696.774 650.936 696.774 658.064 L 722.581 658.064 C 722.581 650.937 728.356 645.161 735.484 645.161 Z  M 443.25 237.894 C 445.608 231.172 452.974 227.634 459.701 229.996 C 510.82 247.947 552.055 289.183 570.003 340.302 C 572.365 347.025 568.826 354.388 562.103 356.751 C 560.69 357.248 559.247 357.484 557.83 357.484 C 552.503 357.484 547.519 354.162 545.656 348.851 C 530.279 305.056 494.948 269.725 451.149 254.345 C 444.423 251.984 440.888 244.619 443.25 237.894 Z  M 229.999 340.303 C 247.948 289.184 289.182 247.947 340.301 229.998 C 347.031 227.638 354.39 231.175 356.752 237.896 C 359.114 244.619 355.577 251.984 348.854 254.347 C 305.055 269.726 269.726 305.058 254.347 348.854 C 252.484 354.165 247.5 357.487 242.173 357.487 C 240.756 357.487 239.312 357.252 237.9 356.754 C 231.174 354.39 227.635 347.026 229.999 340.303 Z  M 356.75 562.104 C 354.887 567.413 349.901 570.735 344.576 570.735 C 343.158 570.735 341.715 570.5 340.301 570.003 C 289.182 552.052 247.947 510.816 229.999 459.699 C 227.637 452.975 231.176 445.612 237.899 443.25 C 244.617 440.886 251.987 444.427 254.348 451.15 C 269.725 494.945 305.056 530.272 348.855 545.655 C 355.577 548.014 359.112 555.379 356.75 562.104 Z  M 570.001 459.697 C 552.052 510.814 510.818 552.051 459.699 570.001 C 458.285 570.498 456.841 570.733 455.424 570.733 C 450.098 570.733 445.115 567.411 443.25 562.102 C 440.888 555.378 444.425 548.013 451.148 545.651 C 494.947 530.27 530.276 494.942 545.655 451.146 C 548.013 444.422 555.384 440.883 562.104 443.246 C 568.826 445.61 572.365 452.974 570.001 459.697 Z  M 593.712 412.287 L 456.37 456.37 L 412.287 593.712 C 410.574 599.052 405.607 602.672 400 602.672 C 394.394 602.672 389.426 599.052 387.713 593.712 L 343.63 456.37 L 206.288 412.287 C 200.948 410.574 197.328 405.607 197.328 400 C 197.328 394.393 200.948 389.426 206.288 387.712 L 343.63 343.63 L 387.713 206.288 C 389.426 200.948 394.394 197.328 400 197.328 C 405.607 197.328 410.574 200.948 412.287 206.288 L 456.37 343.63 L 593.712 387.713 C 599.052 389.427 602.672 394.394 602.672 400.001 C 602.672 405.607 599.051 410.574 593.712 412.287 Z " fill="rgb(16,59,155)"/><path d=" M 252.451 401 L 252.145 399.048 L 357.526 365.224 C 359.318 364.649 360.97 363.64 362.305 362.306 L 363.012 361.599 L 402.414 401 L 252.451 401 L 252.451 401 Z " fill="rgb(16,59,155)"/><path d=" M 357.832 366.176 L 252.451 400 L 400 400 L 363.013 363.013 C 361.581 364.444 359.814 365.54 357.832 366.176 Z " fill="rgb(16,59,155)"/><path d=" M 399 252.451 L 400.952 252.145 L 434.775 357.526 C 435.35 359.319 436.36 360.972 437.694 362.305 L 438.401 363.012 L 399 402.414 L 399 252.451 L 399 252.451 Z " fill="rgb(16,59,155)"/><path d=" M 433.823 357.832 L 400 252.451 L 400 400 L 436.987 363.013 C 435.557 361.583 434.46 359.816 433.823 357.832 Z " fill="rgb(16,59,155)"/><path d=" M 787.097 129.032 L 12.903 129.032 C 5.775 129.032 0 134.808 0 141.936 L 0 658.065 C 0 665.193 5.775 670.968 12.903 670.968 L 683.871 670.968 C 690.999 670.968 696.774 665.193 696.774 658.065 C 696.774 650.937 690.999 645.162 683.871 645.162 L 25.807 645.162 L 25.807 154.839 L 774.194 154.839 L 774.194 645.161 L 735.485 645.161 C 728.357 645.161 722.582 650.936 722.582 658.064 C 722.582 665.192 728.357 670.967 735.485 670.967 L 787.097 670.967 C 794.225 670.967 800 665.192 800 658.064 L 800 141.936 C 800 134.808 794.225 129.032 787.097 129.032 Z " fill="rgb(0,0,0)"/><path d=" M 897.291 129.032 L 14.709 129.032 C 6.584 129.032 0 134.808 0 141.936 L 0 658.065 C 0 665.193 6.584 670.968 14.709 670.968 L 779.613 670.968 C 787.739 670.968 794.322 665.193 794.322 658.065 C 794.322 650.937 787.739 645.162 779.613 645.162 L 29.42 645.162 L 29.42 154.839 L 882.581 154.839 L 882.581 645.161 L 838.453 645.161 C 830.327 645.161 823.743 650.936 823.743 658.064 C 823.743 665.192 830.327 670.967 838.453 670.967 L 897.291 670.967 C 905.416 670.967 912 665.192 912 658.064 L 912 141.936 C 912 134.808 905.416 129.032 897.291 129.032 Z " fill="rgb(0,0,0)"/><path d=" M 593.712 387.713 L 456.37 343.63 L 412.287 206.288 C 410.574 200.948 405.607 197.328 400 197.328 C 394.394 197.328 389.426 200.948 387.713 206.288 L 343.63 343.63 L 206.288 387.713 C 200.948 389.426 197.328 394.393 197.328 400 C 197.328 405.607 200.948 410.574 206.288 412.287 L 343.63 456.37 L 387.713 593.712 C 389.426 599.052 394.394 602.672 400 602.672 C 405.607 602.672 410.574 599.052 412.287 593.712 L 456.37 456.37 L 593.712 412.287 C 599.052 410.574 602.672 405.607 602.672 400 C 602.672 394.393 599.051 389.426 593.712 387.713 Z  M 442.168 433.823 C 440.186 434.46 438.419 435.555 436.987 436.987 L 400 400 L 400 547.549 L 366.177 442.168 C 365.54 440.186 364.445 438.417 363.015 436.987 L 400 400 L 252.451 400 L 357.832 366.176 C 359.814 365.54 361.581 364.444 363.013 363.012 L 400 400 L 400 252.451 L 433.823 357.832 C 434.46 359.814 435.556 361.583 436.986 363.013 L 400 400 L 547.549 400 L 442.168 433.823 L 442.168 433.823 Z " fill="rgb(255,255,255)"/><path d=" M 451.146 254.345 C 494.945 269.724 530.274 305.056 545.653 348.852 C 547.516 354.163 552.501 357.485 557.827 357.485 C 559.245 357.485 560.688 357.249 562.1 356.752 C 568.824 354.392 572.363 347.028 570 340.303 C 552.051 289.184 510.817 247.947 459.698 229.998 C 452.972 227.636 445.607 231.175 443.247 237.896 C 440.888 244.619 444.423 251.984 451.146 254.345 Z " fill="rgb(255,255,255)"/><path d=" M 237.897 356.75 C 239.31 357.247 240.753 357.483 242.171 357.483 C 247.497 357.483 252.481 354.161 254.344 348.85 C 269.721 305.055 305.052 269.724 348.851 254.344 C 355.575 251.984 359.112 244.618 356.749 237.893 C 354.389 231.171 347.03 227.634 340.299 229.995 C 289.179 247.946 247.944 289.181 229.997 340.3 C 227.635 347.026 231.174 354.39 237.897 356.75 Z " fill="rgb(255,255,255)"/><path d=" M 562.103 443.25 C 555.384 440.888 548.014 444.427 545.654 451.15 C 530.277 494.945 494.946 530.272 451.147 545.655 C 444.423 548.015 440.886 555.381 443.249 562.105 C 445.114 567.415 450.097 570.737 455.423 570.737 C 456.841 570.737 458.284 570.502 459.698 570.005 C 510.817 552.054 552.052 510.818 570 459.701 C 572.365 452.974 568.826 445.61 562.103 443.25 Z " fill="rgb(255,255,255)"/><path d=" M 348.854 545.653 C 305.055 530.272 269.726 494.943 254.347 451.148 C 251.988 444.424 244.618 440.884 237.898 443.248 C 231.175 445.608 227.636 452.972 229.998 459.697 C 247.947 510.814 289.181 552.051 340.299 570.001 C 341.714 570.498 343.157 570.733 344.574 570.733 C 349.899 570.733 354.885 567.411 356.748 562.102 C 359.112 555.379 355.577 548.014 348.854 545.653 Z " fill="rgb(255,255,255)"/></g></svg>