<?xml version="1.0" encoding="UTF-8"?>
<svg xmlns="http://www.w3.org/2000/svg" xmlns:xlink="http://www.w3.org/1999/xlink" width="247pt" height="168pt" viewBox="0 0 247 168" version="1.1">
<g id="surface1">
<path style=" stroke:none;fill-rule:nonzero;fill:rgb(6.27451%,23.137255%,60.784314%);fill-opacity:1;" d="M 112.761719 97.164062 C 112.585938 96.609375 112.273438 96.097656 111.863281 95.683594 L 111.644531 95.464844 L 123.808594 83.25 L 123.808594 129.734375 L 123.207031 129.828125 Z M 112.761719 97.164062 "/>
<path style=" stroke:none;fill-rule:nonzero;fill:rgb(6.27451%,23.137255%,60.784314%);fill-opacity:1;" d="M 113.058594 97.070312 L 123.5 129.734375 L 123.5 84 L 112.082031 95.464844 C 112.523438 95.90625 112.859375 96.457031 113.058594 97.070312 Z M 113.058594 97.070312 "/>
<path style=" stroke:none;fill-rule:nonzero;fill:rgb(6.27451%,23.137255%,60.784314%);fill-opacity:1;" d="M 122.753906 83.691406 L 169.054688 83.691406 L 169.148438 84.296875 L 136.613281 94.777344 C 136.058594 94.957031 135.550781 95.269531 135.136719 95.683594 L 134.921875 95.902344 Z M 122.753906 83.691406 "/>
<path style=" stroke:none;fill-rule:nonzero;fill:rgb(6.27451%,23.137255%,60.784314%);fill-opacity:1;" d="M 134.917969 95.464844 C 135.363281 95.019531 135.90625 94.679688 136.519531 94.484375 L 169.054688 84 L 123.5 84 Z M 134.917969 95.464844 "/>
<path style=" stroke:none;fill-rule:nonzero;fill:rgb(6.27451%,23.137255%,60.784314%);fill-opacity:1;" d="M 214.820312 164.300781 L 214.820312 163.992188 C 214.820312 161.957031 213.171875 160.300781 211.144531 160.300781 L 7.660156 160.300781 L 7.660156 7.699219 L 239.339844 7.699219 L 239.339844 160.300781 L 227.082031 160.300781 C 225.054688 160.300781 223.40625 161.957031 223.40625 163.992188 L 223.40625 164.300781 Z M 123.5 21.488281 C 121.894531 21.488281 120.488281 22.519531 120 24.050781 L 106.339844 66.773438 L 63.785156 80.488281 C 62.257812 80.976562 61.234375 82.390625 61.234375 84 C 61.234375 85.609375 62.257812 87.023438 63.785156 87.511719 L 106.339844 101.226562 L 120 143.949219 C 120.488281 145.480469 121.894531 146.511719 123.5 146.511719 C 125.105469 146.511719 126.511719 145.480469 127 143.949219 L 140.660156 101.226562 L 183.214844 87.511719 C 184.742188 87.023438 185.765625 85.609375 185.765625 84 C 185.765625 82.390625 184.742188 80.976562 183.214844 80.488281 L 140.660156 66.773438 L 127 24.050781 C 126.511719 22.519531 125.105469 21.488281 123.5 21.488281 Z M 74.769531 97.488281 C 74.355469 97.488281 73.949219 97.558594 73.554688 97.699219 C 71.640625 98.375 70.632812 100.484375 71.304688 102.402344 C 76.8125 118.160156 89.472656 130.871094 105.171875 136.402344 C 105.5625 136.542969 105.972656 136.613281 106.386719 136.613281 C 107.945312 136.613281 109.339844 135.621094 109.855469 134.144531 C 110.179688 133.214844 110.125 132.210938 109.699219 131.324219 C 109.277344 130.433594 108.53125 129.765625 107.605469 129.441406 C 93.996094 124.640625 83.015625 113.621094 78.238281 99.957031 C 77.722656 98.480469 76.328125 97.488281 74.769531 97.488281 Z M 172.230469 97.488281 C 170.671875 97.488281 169.277344 98.480469 168.761719 99.957031 C 163.984375 113.621094 153.003906 124.640625 139.394531 129.4375 C 137.480469 130.113281 136.472656 132.222656 137.144531 134.144531 C 137.660156 135.621094 139.054688 136.609375 140.613281 136.609375 C 141.027344 136.609375 141.4375 136.539062 141.828125 136.402344 C 157.523438 130.871094 170.183594 118.160156 175.695312 102.402344 C 176.367188 100.484375 175.359375 98.371094 173.445312 97.699219 C 173.054688 97.558594 172.644531 97.488281 172.230469 97.488281 Z M 106.386719 31.390625 C 105.976562 31.390625 105.566406 31.460938 105.171875 31.597656 C 89.476562 37.128906 76.816406 49.839844 71.304688 65.597656 C 70.976562 66.527344 71.03125 67.53125 71.457031 68.417969 C 71.882812 69.308594 72.628906 69.976562 73.554688 70.304688 C 73.949219 70.441406 74.355469 70.511719 74.769531 70.511719 C 76.328125 70.511719 77.722656 69.519531 78.238281 68.042969 C 83.019531 54.378906 93.996094 43.359375 107.605469 38.5625 C 108.53125 38.234375 109.277344 37.566406 109.703125 36.675781 C 110.128906 35.789062 110.183594 34.785156 109.855469 33.855469 C 109.339844 32.378906 107.945312 31.390625 106.386719 31.390625 Z M 140.613281 31.386719 C 139.054688 31.386719 137.660156 32.378906 137.144531 33.855469 C 136.820312 34.785156 136.875 35.789062 137.300781 36.675781 C 137.722656 37.5625 138.46875 38.234375 139.394531 38.558594 C 153.003906 43.359375 163.984375 54.378906 168.761719 68.042969 C 169.277344 69.519531 170.671875 70.511719 172.230469 70.511719 C 172.644531 70.511719 173.054688 70.441406 173.445312 70.300781 C 174.371094 69.976562 175.117188 69.304688 175.542969 68.417969 C 175.96875 67.527344 176.023438 66.527344 175.695312 65.597656 C 170.1875 49.839844 157.527344 37.128906 141.832031 31.597656 C 141.4375 31.457031 141.027344 31.386719 140.613281 31.386719 Z M 140.613281 31.386719 "/>
<path style=" stroke:none;fill-rule:nonzero;fill:rgb(6.27451%,23.137255%,60.784314%);fill-opacity:1;" d="M 227.082031 159.992188 L 239.03125 159.992188 L 239.03125 8.007812 L 7.96875 8.007812 L 7.96875 159.992188 L 211.144531 159.992188 C 213.347656 159.992188 215.128906 161.78125 215.128906 163.992188 L 223.097656 163.992188 C 223.097656 161.78125 224.878906 159.992188 227.082031 159.992188 Z M 136.851562 33.753906 C 137.582031 31.667969 139.855469 30.574219 141.933594 31.304688 C 157.714844 36.871094 170.445312 49.652344 175.988281 65.496094 C 176.71875 67.578125 175.625 69.863281 173.550781 70.59375 C 173.113281 70.75 172.667969 70.820312 172.230469 70.820312 C 170.585938 70.820312 169.046875 69.792969 168.472656 68.144531 C 163.722656 54.570312 152.816406 43.621094 139.292969 38.851562 C 137.214844 38.121094 136.125 35.835938 136.851562 33.753906 Z M 71.011719 65.496094 C 76.554688 49.652344 89.285156 36.871094 105.066406 31.304688 C 107.144531 30.574219 109.417969 31.671875 110.148438 33.753906 C 110.875 35.835938 109.785156 38.121094 107.707031 38.851562 C 94.1875 43.621094 83.277344 54.570312 78.53125 68.148438 C 77.953125 69.792969 76.414062 70.824219 74.769531 70.824219 C 74.332031 70.824219 73.886719 70.75 73.453125 70.59375 C 71.375 69.863281 70.28125 67.578125 71.011719 65.496094 Z M 110.148438 134.246094 C 109.570312 135.890625 108.03125 136.921875 106.386719 136.921875 C 105.949219 136.921875 105.503906 136.847656 105.066406 136.695312 C 89.285156 131.128906 76.554688 118.347656 71.011719 102.503906 C 70.28125 100.421875 71.375 98.136719 73.453125 97.40625 C 75.527344 96.671875 77.800781 97.769531 78.53125 99.855469 C 83.277344 113.429688 94.1875 124.378906 107.707031 129.148438 C 109.785156 129.878906 110.875 132.160156 110.148438 134.246094 Z M 175.988281 102.503906 C 170.445312 118.347656 157.714844 131.128906 141.933594 136.695312 C 141.496094 136.847656 141.050781 136.921875 140.613281 136.921875 C 138.96875 136.921875 137.429688 135.890625 136.851562 134.246094 C 136.125 132.160156 137.214844 129.878906 139.292969 129.144531 C 152.816406 124.378906 163.722656 113.429688 168.472656 99.851562 C 169.199219 97.769531 171.476562 96.671875 173.550781 97.40625 C 175.625 98.136719 176.71875 100.421875 175.988281 102.503906 Z M 183.308594 87.808594 L 140.902344 101.472656 L 127.292969 144.042969 C 126.765625 145.699219 125.230469 146.820312 123.5 146.820312 C 121.769531 146.820312 120.234375 145.699219 119.707031 144.042969 L 106.097656 101.472656 L 63.691406 87.808594 C 62.042969 87.277344 60.925781 85.738281 60.925781 84 C 60.925781 82.261719 62.042969 80.722656 63.691406 80.191406 L 106.097656 66.527344 L 119.707031 23.957031 C 120.234375 22.300781 121.769531 21.179688 123.5 21.179688 C 125.230469 21.179688 126.765625 22.300781 127.292969 23.957031 L 140.902344 66.527344 L 183.308594 80.191406 C 184.957031 80.722656 186.074219 82.261719 186.074219 84 C 186.074219 85.738281 184.957031 87.277344 183.308594 87.808594 Z M 183.308594 87.808594 "/>
<path style=" stroke:none;fill-rule:nonzero;fill:rgb(6.27451%,23.137255%,60.784314%);fill-opacity:1;" d="M 77.945312 84.308594 L 77.851562 83.703125 L 110.386719 73.222656 C 110.9375 73.042969 111.449219 72.730469 111.863281 72.316406 L 112.078125 72.097656 L 124.246094 84.308594 Z M 77.945312 84.308594 "/>
<path style=" stroke:none;fill-rule:nonzero;fill:rgb(6.27451%,23.137255%,60.784314%);fill-opacity:1;" d="M 110.480469 73.515625 L 77.945312 84 L 123.5 84 L 112.082031 72.535156 C 111.636719 72.980469 111.09375 73.320312 110.480469 73.515625 Z M 110.480469 73.515625 "/>
<path style=" stroke:none;fill-rule:nonzero;fill:rgb(6.27451%,23.137255%,60.784314%);fill-opacity:1;" d="M 123.191406 38.265625 L 123.792969 38.171875 L 134.238281 70.835938 C 134.414062 71.390625 134.726562 71.902344 135.136719 72.316406 L 135.355469 72.535156 L 123.191406 84.75 Z M 123.191406 38.265625 "/>
<path style=" stroke:none;fill-rule:nonzero;fill:rgb(6.27451%,23.137255%,60.784314%);fill-opacity:1;" d="M 133.941406 70.929688 L 123.5 38.265625 L 123.5 84 L 134.917969 72.535156 C 134.476562 72.09375 134.140625 71.542969 133.941406 70.929688 Z M 133.941406 70.929688 "/>
<path style=" stroke:none;fill-rule:nonzero;fill:rgb(0%,0%,0%);fill-opacity:1;" d="M 243.015625 0.0117188 L 3.984375 0.0117188 C 1.78125 0.0117188 0 1.800781 0 4.007812 L 0 163.992188 C 0 166.199219 1.78125 167.988281 3.984375 167.988281 L 211.144531 167.988281 C 213.347656 167.988281 215.128906 166.199219 215.128906 163.992188 C 215.128906 161.78125 213.347656 159.992188 211.144531 159.992188 L 7.96875 159.992188 L 7.96875 8.007812 L 239.03125 8.007812 L 239.03125 159.992188 L 227.082031 159.992188 C 224.878906 159.992188 223.097656 161.78125 223.097656 163.992188 C 223.097656 166.199219 224.878906 167.988281 227.082031 167.988281 L 243.015625 167.988281 C 245.21875 167.988281 247 166.199219 247 163.992188 L 247 4.007812 C 247 1.800781 245.21875 0.0117188 243.015625 0.0117188 Z M 243.015625 0.0117188 "/>
<path style=" stroke:none;fill-rule:nonzero;fill:rgb(0%,0%,0%);fill-opacity:1;" d="M 277.039062 0.0117188 L 4.542969 0.0117188 C 2.03125 0.0117188 0 1.800781 0 4.007812 L 0 163.992188 C 0 166.199219 2.03125 167.988281 4.542969 167.988281 L 240.707031 167.988281 C 243.214844 167.988281 245.246094 166.199219 245.246094 163.992188 C 245.246094 161.78125 243.214844 159.992188 240.707031 159.992188 L 9.082031 159.992188 L 9.082031 8.007812 L 272.496094 8.007812 L 272.496094 159.992188 L 258.871094 159.992188 C 256.363281 159.992188 254.332031 161.78125 254.332031 163.992188 C 254.332031 166.199219 256.363281 167.988281 258.871094 167.988281 L 277.039062 167.988281 C 279.546875 167.988281 281.578125 166.199219 281.578125 163.992188 L 281.578125 4.007812 C 281.578125 1.800781 279.546875 0.0117188 277.039062 0.0117188 Z M 277.039062 0.0117188 "/>
<path style=" stroke:none;fill-rule:nonzero;fill:rgb(100%,100%,100%);fill-opacity:1;" d="M 183.308594 80.191406 L 140.902344 66.527344 L 127.292969 23.957031 C 126.765625 22.300781 125.230469 21.179688 123.5 21.179688 C 121.769531 21.179688 120.234375 22.300781 119.707031 23.957031 L 106.097656 66.527344 L 63.691406 80.191406 C 62.042969 80.722656 60.925781 82.261719 60.925781 84 C 60.925781 85.738281 62.042969 87.277344 63.691406 87.808594 L 106.097656 101.472656 L 119.707031 144.042969 C 120.234375 145.699219 121.769531 146.820312 123.5 146.820312 C 125.230469 146.820312 126.765625 145.699219 127.292969 144.042969 L 140.902344 101.472656 L 183.308594 87.808594 C 184.957031 87.277344 186.074219 85.738281 186.074219 84 C 186.074219 82.261719 184.957031 80.722656 183.308594 80.191406 Z M 136.519531 94.484375 C 135.90625 94.679688 135.363281 95.019531 134.917969 95.464844 L 123.5 84 L 123.5 129.734375 L 113.058594 97.070312 C 112.859375 96.457031 112.523438 95.90625 112.082031 95.464844 L 123.5 84 L 77.945312 84 L 110.480469 73.515625 C 111.09375 73.320312 111.636719 72.980469 112.082031 72.535156 L 123.5 84 L 123.5 38.265625 L 133.941406 70.929688 C 134.140625 71.542969 134.476562 72.09375 134.917969 72.535156 L 123.5 84 L 169.054688 84 Z M 136.519531 94.484375 "/>
<path style=" stroke:none;fill-rule:nonzero;fill:rgb(100%,100%,100%);fill-opacity:1;" d="M 139.292969 38.851562 C 152.8125 43.621094 163.722656 54.570312 168.46875 68.144531 C 169.046875 69.792969 170.585938 70.820312 172.230469 70.820312 C 172.667969 70.820312 173.113281 70.75 173.546875 70.59375 C 175.625 69.863281 176.71875 67.582031 175.988281 65.496094 C 170.445312 49.652344 157.714844 36.871094 141.933594 31.304688 C 139.855469 30.574219 137.582031 31.671875 136.851562 33.753906 C 136.125 35.835938 137.214844 38.121094 139.292969 38.851562 Z M 139.292969 38.851562 "/>
<path style=" stroke:none;fill-rule:nonzero;fill:rgb(100%,100%,100%);fill-opacity:1;" d="M 73.449219 70.59375 C 73.886719 70.75 74.332031 70.820312 74.769531 70.820312 C 76.414062 70.820312 77.953125 69.792969 78.527344 68.144531 C 83.277344 54.570312 94.183594 43.621094 107.707031 38.851562 C 109.785156 38.121094 110.875 35.835938 110.144531 33.753906 C 109.417969 31.667969 107.144531 30.574219 105.066406 31.304688 C 89.285156 36.867188 76.550781 49.648438 71.011719 65.496094 C 70.28125 67.578125 71.375 69.863281 73.449219 70.59375 Z M 73.449219 70.59375 "/>
<path style=" stroke:none;fill-rule:nonzero;fill:rgb(100%,100%,100%);fill-opacity:1;" d="M 173.550781 97.40625 C 171.476562 96.671875 169.199219 97.769531 168.46875 99.855469 C 163.722656 113.429688 152.816406 124.378906 139.292969 129.148438 C 137.214844 129.878906 136.125 132.164062 136.851562 134.246094 C 137.429688 135.890625 138.96875 136.921875 140.613281 136.921875 C 141.050781 136.921875 141.496094 136.847656 141.933594 136.695312 C 157.714844 131.132812 170.445312 118.347656 175.988281 102.503906 C 176.71875 100.421875 175.625 98.136719 173.550781 97.40625 Z M 173.550781 97.40625 "/>
<path style=" stroke:none;fill-rule:nonzero;fill:rgb(100%,100%,100%);fill-opacity:1;" d="M 107.707031 129.148438 C 94.1875 124.378906 83.277344 113.429688 78.53125 99.855469 C 77.800781 97.769531 75.527344 96.671875 73.449219 97.40625 C 71.375 98.136719 70.28125 100.417969 71.011719 102.503906 C 76.554688 118.347656 89.285156 131.128906 105.066406 136.695312 C 105.503906 136.847656 105.949219 136.921875 106.386719 136.921875 C 108.03125 136.921875 109.570312 135.890625 110.144531 134.246094 C 110.875 132.160156 109.785156 129.878906 107.707031 129.148438 Z M 107.707031 129.148438 "/>
</g>
</svg>
