<?xml version="1.0" encoding="UTF-8" standalone="no"?><!-- Generator: Gravit.io --><svg xmlns="http://www.w3.org/2000/svg" xmlns:xlink="http://www.w3.org/1999/xlink" style="isolation:isolate" viewBox="0 0 465 465" width="465pt" height="465pt"><defs><clipPath id="_clipPath_kUAhNiuvx69EORGTfKNwROUcvMp1eye6"><rect width="465" height="465"/></clipPath></defs><g clip-path="url(#_clipPath_kUAhNiuvx69EORGTfKNwROUcvMp1eye6)"><g><path d=" M 225 232.531 L 225 214.322 L 207.699 219.944 C 211.645 226.061 217.784 230.633 225 232.531 Z " fill="rgb(61,180,234)"/><path d=" M 257.301 219.944 L 240 214.322 L 240 232.531 C 247.216 230.633 253.355 226.061 257.301 219.944 Z " fill="rgb(61,180,234)"/><path d=" M 209.672 185.339 C 205.505 190.427 203 196.926 203 204 C 203 204.565 203.02 205.125 203.051 205.683 L 220.365 200.057 L 209.672 185.339 L 209.672 185.339 Z " fill="rgb(61,180,234)"/><path d=" M 221.802 176.517 L 232.5 191.242 L 243.198 176.517 C 239.879 175.22 236.273 174.5 232.5 174.5 C 228.727 174.5 225.121 175.22 221.802 176.517 Z " fill="rgb(61,180,234)"/><path d=" M 261.949 205.683 C 261.98 205.125 262 204.565 262 204 C 262 196.926 259.495 190.427 255.328 185.339 L 244.634 200.057 L 261.949 205.683 L 261.949 205.683 Z " fill="rgb(61,180,234)"/><path d=" M 188.469 210.421 C 188.164 208.323 188 206.181 188 204 C 188 191.929 192.838 180.972 200.669 172.947 L 187.616 154.981 C 174.34 167.147 166 184.616 166 204 C 166 208.549 166.461 212.992 167.336 217.287 L 188.469 210.421 L 188.469 210.421 Z " fill="rgb(61,180,234)"/><path d=" M 277.384 154.981 L 264.331 172.947 C 272.162 180.972 277 191.929 277 204 C 277 206.181 276.835 208.323 276.531 210.421 L 297.665 217.287 C 298.539 212.992 299 208.549 299 204 C 299 184.616 290.66 167.147 277.384 154.981 Z " fill="rgb(61,180,234)"/><path d=" M 37.5 90 L 15 90 L 15 375 L 450 375 L 450 90 L 67.5 90 C 63.357 90 60 86.643 60 82.5 L 45 82.5 C 45 86.643 41.643 90 37.5 90 Z  M 184.596 138.065 C 184.837 137.889 185.087 137.735 185.341 137.592 C 198.663 128.104 214.935 122.499 232.5 122.499 C 250.066 122.499 266.338 128.103 279.66 137.593 C 279.914 137.736 280.163 137.89 280.404 138.065 C 280.615 138.218 280.816 138.38 281.006 138.551 C 301.011 153.417 314 177.218 314 204 C 314 212.725 312.607 221.127 310.057 229.015 C 310.04 229.072 310.029 229.128 310.011 229.185 C 309.994 229.238 309.966 229.284 309.948 229.335 C 299.266 261.905 268.595 285.5 232.5 285.5 C 196.405 285.5 165.734 261.905 155.052 229.335 C 155.034 229.283 155.006 229.237 154.989 229.185 C 154.971 229.128 154.96 229.072 154.943 229.015 C 152.393 221.127 151 212.725 151 204 C 151 177.218 163.989 153.417 183.994 138.552 C 184.184 138.381 184.385 138.219 184.596 138.065 Z  M 138.361 135.898 C 140.793 132.543 145.484 131.797 148.836 134.23 C 152.19 136.662 152.936 141.352 150.504 144.705 C 137.918 162.058 131.266 182.561 131.266 204 C 131.266 259.819 176.676 305.232 232.495 305.235 C 288.325 305.232 333.735 259.819 333.735 204 C 333.735 182.562 327.083 162.058 314.497 144.705 C 312.065 141.352 312.811 136.662 316.165 134.23 C 319.519 131.797 324.207 132.543 326.64 135.898 C 341.095 155.828 348.736 179.377 348.736 204 C 348.736 261.121 307.32 308.749 252.941 318.435 L 267.272 328.955 C 270.612 331.406 271.332 336.1 268.88 339.438 C 267.41 341.44 265.135 342.501 262.828 342.501 C 261.287 342.501 259.733 342.027 258.396 341.046 L 232.5 322.039 L 206.604 341.046 C 203.267 343.498 198.573 342.78 196.121 339.438 C 193.67 336.099 194.39 331.406 197.729 328.955 L 212.06 318.435 C 157.681 308.749 116.265 261.122 116.265 204 C 116.266 179.377 123.906 155.828 138.361 135.898 Z " fill="rgb(61,180,234)"/><path d=" M 225 247.855 C 211.146 245.492 199.459 236.71 193.116 224.682 L 171.996 231.544 C 181.498 252.33 201.39 267.401 224.999 270.065 L 224.999 247.855 L 225 247.855 Z " fill="rgb(61,180,234)"/><path d=" M 212.793 164.116 C 218.738 161.167 225.426 159.5 232.5 159.5 C 239.574 159.5 246.262 161.167 252.207 164.116 L 265.253 146.16 C 255.577 140.659 244.404 137.5 232.5 137.5 C 220.596 137.5 209.423 140.659 199.747 146.16 L 212.793 164.116 L 212.793 164.116 Z " fill="rgb(61,180,234)"/><path d=" M 271.884 224.683 C 265.541 236.711 253.854 245.493 240 247.856 L 240 270.066 C 263.609 267.403 283.501 252.332 293.003 231.545 L 271.884 224.683 L 271.884 224.683 Z " fill="rgb(61,180,234)"/><path d=" M 457.5 75 L 67.5 75 C 63.357 75 60 78.357 60 82.5 C 60 86.643 63.357 90 67.5 90 L 450 90 L 450 375 L 15 375 L 15 90 L 37.5 90 C 41.643 90 45 86.643 45 82.5 C 45 78.357 41.643 75 37.5 75 L 7.5 75 C 3.357 75 0 78.357 0 82.5 L 0 382.5 C 0 386.643 3.357 390 7.5 390 L 457.5 390 C 461.643 390 465 386.643 465 382.5 L 465 82.5 C 465 78.357 461.643 75 457.5 75 Z " fill="rgb(0,0,0)"/><path d=" M 456.548 75 L 17.065 75 C 12.396 75 8.613 78.357 8.613 82.5 C 8.613 86.643 12.396 90 17.065 90 L 448.097 90 L 448.097 375 L -42.097 375 L -42.097 90 L -16.742 90 C -12.073 90 -8.29 86.643 -8.29 82.5 C -8.29 78.357 -12.073 75 -16.742 75 L -50.548 75 C -55.217 75 -59 78.357 -59 82.5 L -59 382.5 C -59 386.643 -55.217 390 -50.548 390 L 456.548 390 C 461.217 390 465 386.643 465 382.5 L 465 82.5 C 465 78.357 461.217 75 456.548 75 Z " fill="rgb(0,0,0)"/><path d=" M 151 204 C 151 212.725 152.393 221.127 154.943 229.015 C 154.96 229.072 154.971 229.128 154.989 229.185 C 155.006 229.238 155.034 229.284 155.052 229.335 C 165.734 261.905 196.405 285.5 232.5 285.5 C 268.595 285.5 299.266 261.905 309.948 229.335 C 309.966 229.283 309.994 229.237 310.011 229.185 C 310.029 229.128 310.04 229.072 310.057 229.015 C 312.607 221.127 314 212.725 314 204 C 314 177.218 301.011 153.417 281.006 138.552 C 280.816 138.381 280.615 138.219 280.404 138.066 C 280.163 137.891 279.913 137.737 279.66 137.594 C 266.337 128.105 250.066 122.5 232.5 122.5 C 214.935 122.5 198.663 128.104 185.341 137.593 C 185.087 137.736 184.837 137.89 184.596 138.066 C 184.385 138.219 184.184 138.381 183.994 138.552 C 163.989 153.417 151 177.218 151 204 Z  M 187.616 154.981 L 200.669 172.947 C 192.838 180.972 188 191.929 188 204 C 188 206.181 188.165 208.323 188.469 210.421 L 167.335 217.287 C 166.461 212.992 166 208.549 166 204 C 166 184.616 174.34 167.147 187.616 154.981 Z  M 262 204 C 262 204.565 261.98 205.125 261.949 205.683 L 244.635 200.057 L 255.329 185.339 C 259.495 190.427 262 196.926 262 204 Z  M 203 204 C 203 196.926 205.505 190.427 209.672 185.339 L 220.366 200.057 L 203.052 205.683 C 203.02 205.125 203 204.565 203 204 Z  M 225 214.322 L 225 232.531 C 217.784 230.633 211.645 226.06 207.699 219.944 L 225 214.322 L 225 214.322 Z  M 240 214.322 L 257.301 219.944 C 253.355 226.06 247.217 230.632 240 232.531 L 240 214.322 L 240 214.322 Z  M 232.5 191.241 L 221.802 176.516 C 225.121 175.219 228.727 174.499 232.5 174.499 C 236.273 174.499 239.879 175.219 243.198 176.516 L 232.5 191.241 L 232.5 191.241 Z  M 171.997 231.545 L 193.117 224.683 C 199.46 236.711 211.147 245.493 225.001 247.856 L 225.001 270.066 C 201.391 267.402 181.499 252.331 171.997 231.545 Z  M 240 270.065 L 240 247.855 C 253.854 245.492 265.541 236.71 271.884 224.682 L 293.004 231.544 C 283.501 252.331 263.609 267.402 240 270.065 Z  M 299 204 C 299 208.549 298.539 212.992 297.664 217.287 L 276.53 210.421 C 276.835 208.323 276.999 206.181 276.999 204 C 276.999 191.929 272.161 180.972 264.33 172.947 L 277.383 154.981 C 290.66 167.147 299 184.616 299 204 Z  M 265.253 146.16 L 252.207 164.116 C 246.262 161.167 239.574 159.5 232.5 159.5 C 225.426 159.5 218.738 161.167 212.793 164.116 L 199.747 146.16 C 209.423 140.659 220.596 137.5 232.5 137.5 C 244.404 137.5 255.577 140.659 265.253 146.16 Z " fill="rgb(255,255,255)"/><path d=" M 212.061 318.435 L 197.73 328.955 C 194.39 331.406 193.67 336.1 196.122 339.438 C 198.574 342.781 203.268 343.499 206.605 341.046 L 232.501 322.039 L 258.397 341.046 C 259.734 342.027 261.288 342.501 262.829 342.501 C 265.136 342.501 267.411 341.439 268.881 339.438 C 271.332 336.099 270.612 331.406 267.273 328.955 L 252.942 318.435 C 307.321 308.749 348.737 261.122 348.737 204 C 348.737 179.377 341.096 155.828 326.641 135.898 C 324.208 132.544 319.52 131.797 316.166 134.23 C 312.812 136.662 312.066 141.352 314.498 144.705 C 327.084 162.058 333.736 182.561 333.736 204 C 333.736 259.819 288.326 305.232 232.507 305.235 C 176.677 305.232 131.267 259.819 131.267 204 C 131.267 182.562 137.919 162.058 150.505 144.705 C 152.937 141.352 152.191 136.662 148.837 134.23 C 145.485 131.797 140.794 132.542 138.362 135.898 C 123.907 155.828 116.266 179.377 116.266 204 C 116.266 261.121 157.682 308.749 212.061 318.435 Z " fill="rgb(255,255,255)"/></g></g></svg>