<?xml version="1.0" ?><svg id="Albania" style="enable-background:new 0 0 300 300;" version="1.1" viewBox="0 0 300 300" xml:space="preserve" xmlns="http://www.w3.org/2000/svg" xmlns:xlink="http://www.w3.org/1999/xlink"><g><polygon points="   273.822,116 273.924,116 273.842,80 34.076,80 34.191,116 34.089,116 34.213,192 34.111,192 34.225,228 273.89,228 273.808,192    273.911,192  " style="fill:#EE5281;stroke:#000000;stroke-width:8;stroke-linecap:round;stroke-linejoin:round;stroke-miterlimit:10;"/><path d="   M184.849,133.852l-15.898,12.365c-2.01,1.563-9.179-7.896-8.919-10.43c0.282-2.742,4.342-3.757,4.342-3.757   c1.111,0,2.022-0.134,2.77-0.352c2.722-0.795,2.817-4.657,0.183-5.705c-8.348-3.321-13.249,8.116-13.249,8.116   s-4.901-11.437-13.249-8.116c-2.635,1.048-2.539,4.909,0.183,5.705c0.747,0.218,1.658,0.352,2.77,0.352c0,0,4.06,1.015,4.342,3.757   c0.26,2.533-6.909,11.993-8.919,10.43l-15.898-12.365l4,27.01l19.564-3.089l-1.029,5.148l5.148,3.089l-8.238,8.238l11.327,15.445   l11.327-15.445l-8.238-8.238l5.148-3.089l-1.029-5.148l19.564,3.089L184.849,133.852z" style="stroke:#000000;stroke-width:8;stroke-linecap:round;stroke-linejoin:round;stroke-miterlimit:10;"/></g><g/><g/><g/><g/><g/><g/><g/><g/><g/><g/><g/><g/><g/><g/><g/></svg>