<?xml version="1.0" encoding="UTF-8"?>
<svg width="244px" height="156px" viewBox="0 0 244 156" xmlns="http://www.w3.org/2000/svg" xmlns:xlink="http://www.w3.org/1999/xlink" version="1.1">
 <!-- Generated by Pixelmator Pro 1.7 -->
 <g id="group">
  <path id="Путь" d="M239.767 4 L4 4 4.112 52 239.847 52 Z" fill="#26bbec" fill-opacity="1" stroke="#231f20" stroke-width="8" stroke-opacity="1" stroke-linejoin="round"/>
  <path id="Путь-1" d="M4 52 L4 104 4.869 104 4.747 52 Z" fill="#288eea" fill-opacity="1" stroke="none"/>
  <path id="Путь-2" d="M236 52 L235.831 52 235.919 104 236 104 Z" fill="#288eea" fill-opacity="1" stroke="#231f20" stroke-width="8" stroke-opacity="1" stroke-linejoin="round"/>
  <path id="Путь-3" d="M4 52 L4.122 105 240 105 239.913 52 Z" fill="#ffffff" fill-opacity="1" stroke="#231f20" stroke-width="8" stroke-opacity="1" stroke-linejoin="round"/>
  <path id="Путь-4" d="M131.782 79 C131.782 85.366 126.621 90.527 120.255 90.527 113.889 90.527 108.728 85.366 108.728 79 108.728 72.634 113.889 67.473 120.255 67.473 126.621 67.473 131.782 72.634 131.782 79 Z" fill="#feda38" fill-opacity="1" stroke="none"/>
  <path id="Путь-5" d="M4.112 152 L239.814 152 239.734 104 4 104 Z" fill="#26bbec" fill-opacity="1" stroke="#231f20" stroke-width="8" stroke-opacity="1" stroke-linejoin="round"/>
 </g>
 <g id="group-1"/>
 <g id="group-2"/>
 <g id="group-3"/>
 <g id="group-4"/>
 <g id="group-5"/>
 <g id="group-6"/>
 <g id="group-7"/>
 <g id="group-8"/>
 <g id="group-9"/>
 <g id="group-10"/>
 <g id="group-11"/>
 <g id="group-12"/>
 <g id="group-13"/>
 <g id="group-14"/>
 <g id="group-15"/>
</svg>
