<?xml version="1.0" ?><svg id="Australia" style="enable-background:new 0 0 300 300;" version="1.1" viewBox="0 0 300 300" xml:space="preserve" xmlns="http://www.w3.org/2000/svg" xmlns:xlink="http://www.w3.org/1999/xlink"><g><polygon points="   273.749,80 34,80 34.352,228 274,228  " style="fill:#288EEA;stroke:#000000;stroke-width:8;stroke-linecap:round;stroke-linejoin:round;stroke-miterlimit:10;"/><rect height="88" style="fill:#FFFFFF;stroke:#000000;stroke-width:8;stroke-linecap:round;stroke-linejoin:round;stroke-miterlimit:10;" width="40" x="94" y="80"/><rect height="156" style="fill:#FFFFFF;stroke:#000000;stroke-width:8;stroke-linecap:round;stroke-linejoin:round;stroke-miterlimit:10;" transform="matrix(8.892780e-11 1 -1 8.892780e-11 238 6)" width="36" x="98" y="44"/><polygon points="49.796,168 194,86.803 194,80    177.373,80 38,158.99 38.021,168  " style="fill:#EE5281;stroke:#000000;stroke-width:8;stroke-miterlimit:10;"/><polygon points="194,168 194,161.403 49.43,80    38.022,80 38,89.216 177.01,168  " style="fill:#EE5281;stroke:#000000;stroke-width:8;stroke-miterlimit:10;"/><rect height="14.9" style="fill:#EE5281;stroke:#000000;stroke-width:8;stroke-linecap:round;stroke-linejoin:round;stroke-miterlimit:10;" width="156" x="38" y="114.588"/><rect height="87.794" style="fill:#EE5281;stroke:#000000;stroke-width:8;stroke-linecap:round;stroke-linejoin:round;stroke-miterlimit:10;" width="18.45" x="105.05" y="80.206"/><line style="fill:none;stroke:#FFFFFF;stroke-width:8;stroke-linecap:round;stroke-linejoin:round;stroke-miterlimit:10;" x1="98" x2="98" y1="184" y2="208"/><line style="fill:none;stroke:#FFFFFF;stroke-width:8;stroke-linecap:round;stroke-linejoin:round;stroke-miterlimit:10;" x1="86" x2="110" y1="196" y2="196"/><rect height="8" style="fill:#FFFFFF;" width="8" x="222" y="100"/><rect height="8" style="fill:#FFFFFF;" width="8" x="250" y="132"/><rect height="8" style="fill:#FFFFFF;" width="8" x="242" y="156"/><rect height="12" style="fill:#FFFFFF;" width="12" x="222" y="184"/><rect height="8" style="fill:#FFFFFF;" width="8" x="214" y="140"/></g><g/><g/><g/><g/><g/><g/><g/><g/><g/><g/><g/><g/><g/><g/><g/></svg>