<?xml version="1.0" ?><svg id="Azerbaijan" style="enable-background:new 0 0 300 300;" version="1.1" viewBox="0 0 300 300" xml:space="preserve" xmlns="http://www.w3.org/2000/svg" xmlns:xlink="http://www.w3.org/1999/xlink"><g><polygon points="   271.842,80 32.076,80 32.19,128 271.924,128  " style="fill:#288EEA;stroke:#000000;stroke-width:8;stroke-linecap:round;stroke-linejoin:round;stroke-miterlimit:10;"/><polygon points="28.076,128 28.076,180 28.974,180 28.849,128  " style="fill:#288EEA;"/><polygon points="   32.076,128 32.2,181 271.911,181 271.822,128  " style="fill:#EE5281;stroke:#000000;stroke-width:8;stroke-linecap:round;stroke-linejoin:round;stroke-miterlimit:10;"/><polygon points="   32.19,228 271.889,228 271.808,180 32.076,180  " style="fill:#83D816;stroke:#000000;stroke-width:8;stroke-linecap:round;stroke-linejoin:round;stroke-miterlimit:10;"/><path d="   M145.851,185.784c-17.554,0-31.784-14.23-31.784-31.784s14.23-31.784,31.784-31.784c6.676,0,14.201,2.063,20.966,5.58   c-7.024-7.544-17.037-12.268-28.158-12.268c-21.248,0-38.473,17.225-38.473,38.473s17.225,38.473,38.473,38.473   c11.121,0,21.134-4.724,28.158-12.268C160.052,183.721,152.527,185.784,145.851,185.784z" style="fill:#FFFFFF;stroke:#000000;stroke-width:8;stroke-linecap:round;stroke-linejoin:round;stroke-miterlimit:10;"/><polygon points="   177.395,148.799 163.758,149.342 174.472,157.796 170.775,170.933 182.126,163.355 193.477,170.931 189.778,157.794    200.491,149.34 186.854,148.798 182.124,135.997  " style="fill:#FFFFFF;stroke:#000000;stroke-width:8;stroke-linecap:round;stroke-linejoin:round;stroke-miterlimit:10;"/></g><g/><g/><g/><g/><g/><g/><g/><g/><g/><g/><g/><g/><g/><g/><g/></svg>