<?xml version="1.0" ?><svg id="Burundi" style="enable-background:new 0 0 300 300;" version="1.1" viewBox="0 0 300 300" xml:space="preserve" xmlns="http://www.w3.org/2000/svg" xmlns:xlink="http://www.w3.org/1999/xlink"><g><polygon points="   271.88,80.076 271.88,80 36,80 152,156  " style="fill:#EE5281;stroke:#000000;stroke-width:8;stroke-linecap:round;stroke-linejoin:round;stroke-miterlimit:10;"/><polygon points="   36,80 36.169,152 36.021,152 36.199,228 42.105,228 152,156  " style="fill:#83D816;stroke:#000000;stroke-width:8;stroke-linecap:round;stroke-linejoin:round;stroke-miterlimit:10;"/><polygon points="   42.105,228 265.685,228 152,156  " style="fill:#EE5281;stroke:#000000;stroke-width:8;stroke-linecap:round;stroke-linejoin:round;stroke-miterlimit:10;"/><polygon points="   271.88,80.076 152,156 265.685,228 271.979,228 271.853,152 272,152  " style="fill:#83D816;stroke:#000000;stroke-width:8;stroke-linecap:round;stroke-linejoin:round;stroke-miterlimit:10;"/><polygon points="   152,156 142.78,149.959 36.178,219.168 36.199,228 42.105,228 59.303,228 161.214,161.836  " style="fill:#FFFFFF;stroke:#000000;stroke-width:8;stroke-linecap:round;stroke-linejoin:round;stroke-miterlimit:10;"/><polygon points="   152,156 140.165,163.754 239.121,228 265.685,228 271.979,228 271.975,225.485 158.555,151.849  " style="fill:#FFFFFF;stroke:#000000;stroke-width:8;stroke-linecap:round;stroke-linejoin:round;stroke-miterlimit:10;"/><polygon points="   152,152 142.78,158.041 36.178,88.832 36.199,80 42.105,80 59.303,80 161.214,146.164  " style="fill:#FFFFFF;stroke:#000000;stroke-width:8;stroke-linecap:round;stroke-linejoin:round;stroke-miterlimit:10;"/><polygon points="   152,152 140.165,144.246 239.121,80 265.685,80 271.979,80 271.975,82.515 158.555,156.151  " style="fill:#FFFFFF;stroke:#000000;stroke-width:8;stroke-linecap:round;stroke-linejoin:round;stroke-miterlimit:10;"/><circle cx="150" cy="154" r="41.468" style="fill:#FFFFFF;stroke:#000000;stroke-width:8;stroke-miterlimit:10;"/><rect height="12" style="fill:#EE5281;" width="12" x="144" y="136"/><rect height="12" style="fill:#EE5281;" width="12" x="160" y="156"/><rect height="12" style="fill:#EE5281;" width="12" x="128" y="156"/></g><g/><g/><g/><g/><g/><g/><g/><g/><g/><g/><g/><g/><g/><g/><g/></svg>