<?xml version="1.0" encoding="UTF-8"?>
<svg width="244px" height="156px" viewBox="0 0 244 156" xmlns="http://www.w3.org/2000/svg" xmlns:xlink="http://www.w3.org/1999/xlink" version="1.1">
 <!-- Generated by Pixelmator Pro 1.7 -->
 <g id="group">
  <path id="Путь" d="M239.88 4.076 L239.88 4 4 4 120 80 Z" fill="#ee5281" fill-opacity="1" stroke="#000000" stroke-width="8" stroke-opacity="1" stroke-linejoin="round"/>
  <path id="Путь-1" d="M4 4 L4.169 76 4.021 76 4.199 152 10.105 152 120 80 Z" fill="#83d816" fill-opacity="1" stroke="#000000" stroke-width="8" stroke-opacity="1" stroke-linejoin="round"/>
  <path id="Путь-2" d="M10.105 152 L233.685 152 120 80 Z" fill="#ee5281" fill-opacity="1" stroke="#000000" stroke-width="8" stroke-opacity="1" stroke-linejoin="round"/>
  <path id="Путь-3" d="M239.88 4.076 L120 80 233.685 152 239.979 152 239.853 76 240 76 Z" fill="#83d816" fill-opacity="1" stroke="#000000" stroke-width="8" stroke-opacity="1" stroke-linejoin="round"/>
  <path id="Путь-4" d="M120 80 L110.78 73.959 4.178 143.168 4.199 152 10.105 152 27.303 152 129.214 85.836 Z" fill="#ffffff" fill-opacity="1" stroke="#000000" stroke-width="8" stroke-opacity="1" stroke-linejoin="round"/>
  <path id="Путь-5" d="M120 80 L108.165 87.754 207.121 152 233.685 152 239.979 152 239.975 149.485 126.555 75.849 Z" fill="#ffffff" fill-opacity="1" stroke="#000000" stroke-width="8" stroke-opacity="1" stroke-linejoin="round"/>
  <path id="Путь-6" d="M120 76 L110.78 82.041 4.178 12.832 4.199 4 10.105 4 27.303 4 129.214 70.164 Z" fill="#ffffff" fill-opacity="1" stroke="#000000" stroke-width="8" stroke-opacity="1" stroke-linejoin="round"/>
  <path id="Путь-7" d="M120 76 L108.165 68.246 207.121 4 233.685 4 239.979 4 239.975 6.515 126.555 80.151 Z" fill="#ffffff" fill-opacity="1" stroke="#000000" stroke-width="8" stroke-opacity="1" stroke-linejoin="round"/>
  <path id="Путь-8" d="M159.468 78 C159.468 100.902 140.902 119.468 118 119.468 95.098 119.468 76.532 100.902 76.532 78 76.532 55.098 95.098 36.532 118 36.532 140.902 36.532 159.468 55.098 159.468 78 Z" fill="#ffffff" fill-opacity="1" stroke="#000000" stroke-width="8" stroke-opacity="1" stroke-linejoin="round"/>
  <path id="Путь-9" d="M112 60 L124 60 124 72 112 72 Z" fill="#ee5281" fill-opacity="1" stroke="none"/>
  <path id="Путь-10" d="M128 80 L140 80 140 92 128 92 Z" fill="#ee5281" fill-opacity="1" stroke="none"/>
  <path id="Путь-11" d="M96 80 L108 80 108 92 96 92 Z" fill="#ee5281" fill-opacity="1" stroke="none"/>
 </g>
 <g id="group-1"/>
 <g id="group-2"/>
 <g id="group-3"/>
 <g id="group-4"/>
 <g id="group-5"/>
 <g id="group-6"/>
 <g id="group-7"/>
 <g id="group-8"/>
 <g id="group-9"/>
 <g id="group-10"/>
 <g id="group-11"/>
 <g id="group-12"/>
 <g id="group-13"/>
 <g id="group-14"/>
 <g id="group-15"/>
</svg>
