<?xml version="1.0" encoding="UTF-8"?>
<svg width="248px" height="136px" viewBox="0 0 248 136" xmlns="http://www.w3.org/2000/svg" xmlns:xlink="http://www.w3.org/1999/xlink" version="1.1">
 <!-- Generated by Pixelmator Pro 1.7 -->
 <g id="group">
  <path id="Путь" d="M243.872 66.27 L243.75 4 92 4 4.646 4 4 4 4 132 4.997 132 92 132 244 132 Z" fill="#ee5281" fill-opacity="1" stroke="#000000" stroke-width="8" stroke-opacity="1" stroke-linejoin="round"/>
  <path id="Путь-1" d="M185.024 72 L185.024 98.828 185.024 100.018 202.585 111.872 218.976 100.018 218.976 98.828 218.976 72 Z" fill="#ffffff" fill-opacity="1" stroke="#000000" stroke-width="8" stroke-opacity="1" stroke-linejoin="round"/>
  <path id="Путь-2" d="M163.833 4 L4 4 4.235 92 164 92 Z" fill="#288eea" fill-opacity="1" stroke="#000000" stroke-width="8" stroke-opacity="1" stroke-linejoin="round"/>
  <path id="Путь-3" d="M64 4 L104 4 104 92 64 92 Z" fill="#ffffff" fill-opacity="1" stroke="#000000" stroke-width="8" stroke-opacity="1" stroke-linejoin="round"/>
  <path id="Путь-4" d="M164 28 L164 64 8 64 8 28 Z" fill="#ffffff" fill-opacity="1" stroke="#000000" stroke-width="8" stroke-opacity="1" stroke-linejoin="round"/>
  <path id="Путь-5" d="M19.796 92 L164 10.803 164 4 147.373 4 8 82.99 8.021 92 Z" fill="#ee5281" fill-opacity="1" stroke="#000000" stroke-width="8" stroke-opacity="1" stroke-linejoin="round"/>
  <path id="Путь-6" d="M164 92 L164 85.403 19.43 4 8.022 4 8 13.216 147.01 92 Z" fill="#ee5281" fill-opacity="1" stroke="#000000" stroke-width="8" stroke-opacity="1" stroke-linejoin="round"/>
  <path id="Путь-7" d="M8 38.588 L164 38.588 164 53.488 8 53.488 Z" fill="#ee5281" fill-opacity="1" stroke="#000000" stroke-width="8" stroke-opacity="1" stroke-linejoin="round"/>
  <path id="Путь-8" d="M75.05 4.206 L93.5 4.206 93.5 92 75.05 92 Z" fill="#ee5281" fill-opacity="1" stroke="#000000" stroke-width="8" stroke-opacity="1" stroke-linejoin="round"/>
 </g>
 <g id="group-1"/>
 <g id="group-2"/>
 <g id="group-3"/>
 <g id="group-4"/>
 <g id="group-5"/>
 <g id="group-6"/>
 <g id="group-7"/>
 <g id="group-8"/>
 <g id="group-9"/>
 <g id="group-10"/>
 <g id="group-11"/>
 <g id="group-12"/>
 <g id="group-13"/>
 <g id="group-14"/>
 <g id="group-15"/>
</svg>
