<?xml version="1.0" ?><svg id="Bermuda" style="enable-background:new 0 0 300 300;" version="1.1" viewBox="0 0 300 300" xml:space="preserve" xmlns="http://www.w3.org/2000/svg" xmlns:xlink="http://www.w3.org/1999/xlink"><g><polygon points="   273.872,152.27 273.75,90 122,90 34.646,90 34,90 34,218 34.997,218 122,218 274,218  " style="fill:#EE5281;stroke:#000000;stroke-width:8;stroke-linecap:round;stroke-linejoin:round;stroke-miterlimit:10;"/><polygon points="   215.024,158 215.024,184.828 215.024,186.018 232.585,197.872 248.976,186.018 248.976,184.828 248.976,158  " style="fill:#FFFFFF;stroke:#000000;stroke-width:8;stroke-linecap:round;stroke-linejoin:round;stroke-miterlimit:10;"/><polygon points="   193.833,90 34,90 34.235,178 194,178  " style="fill:#288EEA;stroke:#000000;stroke-width:8;stroke-linecap:round;stroke-linejoin:round;stroke-miterlimit:10;"/><rect height="88" style="fill:#FFFFFF;stroke:#000000;stroke-width:8;stroke-linecap:round;stroke-linejoin:round;stroke-miterlimit:10;" width="40" x="94" y="90"/><rect height="156" style="fill:#FFFFFF;stroke:#000000;stroke-width:8;stroke-linecap:round;stroke-linejoin:round;stroke-miterlimit:10;" transform="matrix(8.892780e-11 1 -1 8.892780e-11 248 16)" width="36" x="98" y="54"/><polygon points="49.796,178 194,96.803 194,90    177.373,90 38,168.99 38.021,178  " style="fill:#EE5281;stroke:#000000;stroke-width:8;stroke-miterlimit:10;"/><polygon points="194,178 194,171.403 49.43,90    38.022,90 38,99.216 177.01,178  " style="fill:#EE5281;stroke:#000000;stroke-width:8;stroke-miterlimit:10;"/><rect height="14.9" style="fill:#EE5281;stroke:#000000;stroke-width:8;stroke-linecap:round;stroke-linejoin:round;stroke-miterlimit:10;" width="156" x="38" y="124.588"/><rect height="87.794" style="fill:#EE5281;stroke:#000000;stroke-width:8;stroke-linecap:round;stroke-linejoin:round;stroke-miterlimit:10;" width="18.45" x="105.05" y="90.206"/></g><g/><g/><g/><g/><g/><g/><g/><g/><g/><g/><g/><g/><g/><g/><g/></svg>