<?xml version="1.0" ?><svg id="Bhutan" style="enable-background:new 0 0 300 300;" version="1.1" viewBox="0 0 300 300" xml:space="preserve" xmlns="http://www.w3.org/2000/svg" xmlns:xlink="http://www.w3.org/1999/xlink"><g><polygon points="   273.845,80 122.095,80 34.741,80 34.095,80 34.095,228 273.845,80.154  " style="fill:#FCAD3A;stroke:#000000;stroke-width:8;stroke-linecap:round;stroke-linejoin:round;stroke-miterlimit:10;"/><polygon points="   34.095,228 273.905,228 273.845,80.154  " style="fill:#EE5281;stroke:#000000;stroke-width:8;stroke-linecap:round;stroke-linejoin:round;stroke-miterlimit:10;"/><path d="   M81.477,197.134c-1.275-3.842,1.458-7.815,5.501-8.011c8.988-0.436,22.91-5.219,30.28-28.619   c11.452-36.359,50.341,9.979,42.919-20.571c-4.109-16.912,1.92-25.407,8.121-29.622c4.699-3.193,10.636-3.946,16.137-2.526   c6.739,1.739,18.013,4.871,27.93,8.693c5.039,1.942,7.253,7.853,4.831,12.68l0,0c-1.988,3.963-6.496,5.918-10.762,4.711   c-10.242-2.896-27.311-5.949-23.185,7.454c5.81,18.874-4.973,47.547-27.21,30.068c-18.642-14.653-21.285-9.536-27.325,7.302   c-9.06,25.257-30.531,24.701-42.647,22.516C83.908,200.819,82.168,199.216,81.477,197.134L81.477,197.134z" style="fill:#FFFFFF;stroke:#000000;stroke-width:8;stroke-linecap:round;stroke-linejoin:round;stroke-miterlimit:10;"/></g><g/><g/><g/><g/><g/><g/><g/><g/><g/><g/><g/><g/><g/><g/><g/></svg>