<?xml version="1.0" encoding="UTF-8"?>
<svg width="248px" height="156px" viewBox="0 0 248 156" xmlns="http://www.w3.org/2000/svg" xmlns:xlink="http://www.w3.org/1999/xlink" version="1.1">
 <!-- Generated by Pixelmator Pro 1.7 -->
 <g id="group">
  <path id="Путь" d="M243.845 4 L92.095 4 4.741 4 4.095 4 4.095 152 243.845 4.154 Z" fill="#fcad3a" fill-opacity="1" stroke="#000000" stroke-width="8" stroke-opacity="1" stroke-linejoin="round"/>
  <path id="Путь-1" d="M4.095 152 L243.905 152 243.845 4.154 Z" fill="#ee5281" fill-opacity="1" stroke="#000000" stroke-width="8" stroke-opacity="1" stroke-linejoin="round"/>
  <path id="Путь-2" d="M51.477 121.134 C50.202 117.292 52.935 113.319 56.978 113.123 65.966 112.687 79.888 107.904 87.258 84.504 98.71 48.145 137.599 94.483 130.177 63.933 126.068 47.021 132.097 38.526 138.298 34.311 142.997 31.118 148.934 30.365 154.435 31.785 161.174 33.524 172.448 36.656 182.365 40.478 187.404 42.42 189.618 48.331 187.196 53.158 185.208 57.121 180.7 59.076 176.434 57.869 166.192 54.973 149.123 51.92 153.249 65.323 159.059 84.197 148.276 112.87 126.039 95.391 107.397 80.738 104.754 85.855 98.714 102.693 89.654 127.95 68.183 127.394 56.067 125.209 53.908 124.819 52.168 123.216 51.477 121.134 Z" fill="#ffffff" fill-opacity="1" stroke="#000000" stroke-width="8" stroke-opacity="1" stroke-linejoin="round"/>
 </g>
 <g id="group-1"/>
 <g id="group-2"/>
 <g id="group-3"/>
 <g id="group-4"/>
 <g id="group-5"/>
 <g id="group-6"/>
 <g id="group-7"/>
 <g id="group-8"/>
 <g id="group-9"/>
 <g id="group-10"/>
 <g id="group-11"/>
 <g id="group-12"/>
 <g id="group-13"/>
 <g id="group-14"/>
 <g id="group-15"/>
</svg>
