<?xml version="1.0" encoding="UTF-8"?>
<svg xmlns="http://www.w3.org/2000/svg" xmlns:xlink="http://www.w3.org/1999/xlink" width="248pt" height="169pt" viewBox="0 0 248 169" version="1.1">
<g id="surface1">
<path style=" stroke:none;fill-rule:nonzero;fill:rgb(92.941176%,12.156863%,20.392157%);fill-opacity:1;" d="M 36.25 160.882812 L 7.691406 134.019531 L 7.691406 115.234375 L 10.695312 112.40625 C 11.496094 111.652344 12.542969 111.238281 13.640625 111.238281 C 14.828125 111.238281 15.972656 111.734375 16.785156 112.601562 C 18.414062 114.335938 18.324219 117.078125 16.59375 118.707031 L 10.296875 124.625 L 25.332031 138.769531 L 40.367188 124.625 L 7.691406 93.890625 L 7.691406 75.101562 L 10.695312 72.277344 C 11.496094 71.523438 12.542969 71.109375 13.640625 71.109375 C 14.828125 71.109375 15.972656 71.605469 16.785156 72.472656 C 17.574219 73.3125 17.988281 74.410156 17.949219 75.5625 C 17.914062 76.71875 17.433594 77.789062 16.59375 78.578125 L 10.296875 84.496094 L 25.332031 98.636719 L 40.367188 84.496094 L 7.691406 53.761719 L 7.691406 34.972656 L 10.691406 32.148438 C 11.496094 31.394531 12.542969 30.980469 13.640625 30.980469 C 14.828125 30.980469 15.972656 31.476562 16.785156 32.34375 C 17.574219 33.183594 17.988281 34.28125 17.949219 35.433594 C 17.914062 36.589844 17.433594 37.65625 16.59375 38.449219 L 10.296875 44.367188 L 25.332031 58.507812 L 40.367188 44.367188 L 7.691406 13.632812 L 7.691406 7.9375 L 14.230469 7.9375 L 25.332031 18.378906 L 36.4375 7.9375 L 42.976562 7.9375 L 42.976562 13.632812 L 31.632812 24.304688 L 42.976562 34.972656 L 42.976562 53.761719 L 31.632812 64.433594 L 42.976562 75.101562 L 42.976562 93.890625 L 31.632812 104.5625 L 42.976562 115.234375 L 42.976562 134.023438 L 31.632812 144.691406 L 42.976562 155.363281 L 42.976562 160.886719 L 36.25 160.886719 Z M 36.25 160.882812 "/>
<path style=" stroke:none;fill-rule:nonzero;fill:rgb(92.941176%,12.156863%,20.392157%);fill-opacity:1;" d="M 82.355469 111.445312 L 82.355469 111.136719 C 82.355469 109.097656 80.703125 107.4375 78.667969 107.4375 L 50.355469 107.4375 L 50.355469 7.9375 L 240.308594 7.9375 L 240.308594 107.4375 L 94.667969 107.4375 C 92.632812 107.4375 90.976562 109.097656 90.976562 111.136719 L 90.976562 111.445312 Z M 82.355469 111.445312 "/>
<path style=" stroke:none;fill-rule:nonzero;fill:rgb(14.509804%,57.254902%,27.058824%);fill-opacity:1;" d="M 50.355469 160.882812 L 50.355469 114.832031 L 78.667969 114.832031 C 80.703125 114.832031 82.355469 113.175781 82.355469 111.136719 L 82.355469 110.824219 L 90.976562 110.824219 L 90.976562 111.136719 C 90.976562 113.175781 92.632812 114.832031 94.667969 114.832031 L 240.308594 114.832031 L 240.308594 160.882812 Z M 50.355469 160.882812 "/>
<path style=" stroke:none;fill-rule:nonzero;fill:rgb(100%,100%,100%);fill-opacity:1;" d="M 36.558594 8.25 L 14.109375 8.25 L 25.332031 18.808594 Z M 36.558594 8.25 "/>
<path style=" stroke:none;fill-rule:nonzero;fill:rgb(100%,100%,100%);fill-opacity:1;" d="M 16.558594 32.554688 C 18.070312 34.171875 17.992188 36.707031 16.378906 38.222656 L 9.84375 44.367188 L 25.332031 58.933594 L 40.820312 44.367188 L 8 13.5 L 8 35.109375 L 10.90625 32.375 C 12.515625 30.859375 15.046875 30.941406 16.558594 32.554688 Z M 16.558594 32.554688 "/>
<path style=" stroke:none;fill-rule:nonzero;fill:rgb(100%,100%,100%);fill-opacity:1;" d="M 42.667969 35.109375 L 42.667969 13.5 L 31.179688 24.304688 Z M 42.667969 35.109375 "/>
<path style=" stroke:none;fill-rule:nonzero;fill:rgb(100%,100%,100%);fill-opacity:1;" d="M 42.667969 75.238281 L 42.667969 53.628906 L 31.179688 64.433594 Z M 42.667969 75.238281 "/>
<path style=" stroke:none;fill-rule:nonzero;fill:rgb(100%,100%,100%);fill-opacity:1;" d="M 16.558594 72.683594 C 18.070312 74.296875 17.992188 76.835938 16.378906 78.351562 L 9.84375 84.496094 L 25.332031 99.0625 L 40.820312 84.496094 L 8 53.628906 L 8 75.238281 L 10.90625 72.503906 C 12.515625 70.988281 15.046875 71.070312 16.558594 72.683594 Z M 16.558594 72.683594 "/>
<path style=" stroke:none;fill-rule:nonzero;fill:rgb(100%,100%,100%);fill-opacity:1;" d="M 42.667969 115.367188 L 42.667969 93.757812 L 31.179688 104.5625 Z M 42.667969 115.367188 "/>
<path style=" stroke:none;fill-rule:nonzero;fill:rgb(100%,100%,100%);fill-opacity:1;" d="M 16.558594 152.945312 C 18.074219 154.558594 17.992188 157.097656 16.382812 158.609375 L 14.292969 160.574219 L 36.371094 160.574219 L 8 133.886719 L 8 155.5 L 10.90625 152.765625 C 12.519531 151.25 15.050781 151.332031 16.558594 152.945312 Z M 16.558594 152.945312 "/>
<path style=" stroke:none;fill-rule:nonzero;fill:rgb(100%,100%,100%);fill-opacity:1;" d="M 16.558594 112.8125 C 18.070312 114.429688 17.992188 116.964844 16.378906 118.480469 L 9.84375 124.625 L 25.332031 139.195312 L 40.820312 124.625 L 8 93.757812 L 8 115.367188 L 10.90625 112.632812 C 12.515625 111.117188 15.046875 111.199219 16.558594 112.8125 Z M 16.558594 112.8125 "/>
<path style=" stroke:none;fill-rule:nonzero;fill:rgb(100%,100%,100%);fill-opacity:1;" d="M 42.667969 155.808594 L 42.667969 134.199219 L 31.179688 145.003906 Z M 42.667969 155.808594 "/>
<path style=" stroke:none;fill-rule:nonzero;fill:rgb(92.941176%,12.156863%,20.392157%);fill-opacity:1;" d="M 45.5 168.589844 C 45.878906 168.707031 46.273438 168.765625 46.667969 168.765625 C 47.0625 168.765625 47.460938 168.707031 47.839844 168.589844 Z M 45.5 168.589844 "/>
<path style=" stroke:none;fill-rule:nonzero;fill:rgb(92.941176%,12.156863%,20.392157%);fill-opacity:1;" d="M 42.667969 160.574219 L 42.667969 155.5 L 31.179688 144.691406 L 42.667969 133.886719 L 42.667969 115.367188 L 31.179688 104.5625 L 42.667969 93.757812 L 42.667969 75.238281 L 31.179688 64.433594 L 42.667969 53.628906 L 42.667969 35.109375 L 31.179688 24.304688 L 42.667969 13.5 L 42.667969 8.25 L 36.558594 8.25 L 25.332031 18.808594 L 14.109375 8.25 L 8 8.25 L 8 13.5 L 40.820312 44.367188 L 25.332031 58.933594 L 9.84375 44.367188 L 16.378906 38.222656 C 17.992188 36.707031 18.070312 34.171875 16.558594 32.554688 C 15.046875 30.941406 12.515625 30.859375 10.90625 32.375 L 8 35.109375 L 8 53.628906 L 40.820312 84.496094 L 25.332031 99.0625 L 9.84375 84.496094 L 16.378906 78.351562 C 17.992188 76.835938 18.070312 74.296875 16.558594 72.683594 C 15.046875 71.070312 12.515625 70.988281 10.90625 72.503906 L 8 75.238281 L 8 93.757812 L 40.820312 124.625 L 25.332031 139.195312 L 9.84375 124.625 L 16.378906 118.480469 C 17.992188 116.964844 18.070312 114.429688 16.558594 112.8125 C 15.046875 111.199219 12.515625 111.117188 10.90625 112.632812 L 8 115.367188 L 8 133.886719 L 36.371094 160.574219 Z M 42.667969 160.574219 "/>
<path style=" stroke:none;fill-rule:nonzero;fill:rgb(92.941176%,12.156863%,20.392157%);fill-opacity:1;" d="M 0.00390625 164.625 C -0.03125 165.652344 0.324219 166.691406 1.082031 167.503906 C 1.871094 168.34375 2.933594 168.765625 4 168.765625 C 4.394531 168.765625 4.785156 168.707031 5.167969 168.589844 L 4 168.589844 C 1.804688 168.589844 0.0273438 166.820312 0.00390625 164.625 Z M 0.00390625 164.625 "/>
<path style=" stroke:none;fill-rule:nonzero;fill:rgb(92.941176%,12.156863%,20.392157%);fill-opacity:1;" d="M 16.382812 158.609375 C 17.992188 157.097656 18.074219 154.558594 16.558594 152.945312 C 15.050781 151.332031 12.519531 151.25 10.90625 152.765625 L 8 155.5 L 8 160.574219 L 14.292969 160.574219 Z M 16.382812 158.609375 "/>
<path style=" stroke:none;fill-rule:nonzero;fill:rgb(92.941176%,12.156863%,20.392157%);fill-opacity:1;" d="M 0.539062 2.238281 C 0.570312 2.179688 0.605469 2.128906 0.636719 2.074219 C 0.605469 2.125 0.570312 2.183594 0.539062 2.238281 Z M 0.539062 2.238281 "/>
<path style=" stroke:none;fill-rule:nonzero;fill:rgb(92.941176%,12.156863%,20.392157%);fill-opacity:1;" d="M 0.359375 2.585938 C 0.386719 2.527344 0.414062 2.46875 0.445312 2.410156 C 0.414062 2.46875 0.386719 2.527344 0.359375 2.585938 Z M 0.359375 2.585938 "/>
<path style=" stroke:none;fill-rule:nonzero;fill:rgb(92.941176%,12.156863%,20.392157%);fill-opacity:1;" d="M 0.753906 1.902344 C 0.789062 1.851562 0.828125 1.804688 0.863281 1.757812 C 0.828125 1.804688 0.792969 1.851562 0.753906 1.902344 Z M 0.753906 1.902344 "/>
<path style=" stroke:none;fill-rule:nonzero;fill:rgb(92.941176%,12.156863%,20.392157%);fill-opacity:1;" d="M 0.214844 2.949219 C 0.238281 2.886719 0.257812 2.828125 0.28125 2.765625 C 0.257812 2.828125 0.238281 2.886719 0.214844 2.949219 Z M 0.214844 2.949219 "/>
<path style=" stroke:none;fill-rule:nonzero;fill:rgb(92.941176%,12.156863%,20.392157%);fill-opacity:1;" d="M 2.234375 0.648438 C 2.292969 0.621094 2.351562 0.589844 2.410156 0.5625 C 2.351562 0.589844 2.292969 0.621094 2.234375 0.648438 Z M 2.234375 0.648438 "/>
<path style=" stroke:none;fill-rule:nonzero;fill:rgb(92.941176%,12.156863%,20.392157%);fill-opacity:1;" d="M 1.082031 1.496094 C 1.058594 1.527344 1.035156 1.554688 1.011719 1.585938 C 1.046875 1.542969 1.085938 1.5 1.125 1.457031 C 1.113281 1.472656 1.097656 1.484375 1.082031 1.496094 Z M 1.082031 1.496094 "/>
<path style=" stroke:none;fill-rule:nonzero;fill:rgb(92.941176%,12.156863%,20.392157%);fill-opacity:1;" d="M 1.285156 1.300781 C 1.328125 1.261719 1.371094 1.21875 1.417969 1.179688 C 1.375 1.21875 1.332031 1.261719 1.285156 1.300781 Z M 1.285156 1.300781 "/>
<path style=" stroke:none;fill-rule:nonzero;fill:rgb(92.941176%,12.156863%,20.392157%);fill-opacity:1;" d="M 0.109375 3.328125 C 0.125 3.261719 0.140625 3.199219 0.15625 3.136719 C 0.140625 3.199219 0.125 3.261719 0.109375 3.328125 Z M 0.109375 3.328125 "/>
<path style=" stroke:none;fill-rule:nonzero;fill:rgb(92.941176%,12.156863%,20.392157%);fill-opacity:1;" d="M 1.574219 1.058594 C 1.628906 1.015625 1.679688 0.976562 1.734375 0.9375 C 1.679688 0.976562 1.628906 1.015625 1.574219 1.058594 Z M 1.574219 1.058594 "/>
<path style=" stroke:none;fill-rule:nonzero;fill:rgb(92.941176%,12.156863%,20.392157%);fill-opacity:1;" d="M 3.347656 0.289062 C 3.410156 0.28125 3.472656 0.269531 3.535156 0.261719 C 3.472656 0.269531 3.410156 0.28125 3.347656 0.289062 Z M 3.347656 0.289062 "/>
<path style=" stroke:none;fill-rule:nonzero;fill:rgb(92.941176%,12.156863%,20.392157%);fill-opacity:1;" d="M 0.0390625 3.71875 C 0.046875 3.652344 0.0546875 3.582031 0.0664062 3.519531 C 0.0546875 3.585938 0.046875 3.652344 0.0390625 3.71875 Z M 0.0390625 3.71875 "/>
<path style=" stroke:none;fill-rule:nonzero;fill:rgb(92.941176%,12.156863%,20.392157%);fill-opacity:1;" d="M 0.0078125 4.125 C 0.0078125 4.050781 0.0117188 3.976562 0.015625 3.90625 C 0.0117188 3.976562 0.0078125 4.050781 0.0078125 4.125 Z M 0.0078125 4.125 "/>
<path style=" stroke:none;fill-rule:nonzero;fill:rgb(92.941176%,12.156863%,20.392157%);fill-opacity:1;" d="M 3.726562 0.246094 C 3.796875 0.242188 3.867188 0.238281 3.9375 0.234375 C 3.867188 0.238281 3.796875 0.242188 3.726562 0.246094 Z M 3.726562 0.246094 "/>
<path style=" stroke:none;fill-rule:nonzero;fill:rgb(92.941176%,12.156863%,20.392157%);fill-opacity:1;" d="M 1.890625 0.839844 C 1.949219 0.804688 2.003906 0.765625 2.066406 0.734375 C 2.003906 0.765625 1.949219 0.804688 1.890625 0.839844 Z M 1.890625 0.839844 "/>
<path style=" stroke:none;fill-rule:nonzero;fill:rgb(92.941176%,12.156863%,20.392157%);fill-opacity:1;" d="M 2.972656 0.992188 C 3.03125 0.976562 3.089844 0.960938 3.148438 0.945312 C 3.089844 0.960938 3.03125 0.976562 2.972656 0.992188 Z M 2.972656 0.992188 "/>
<path style=" stroke:none;fill-rule:nonzero;fill:rgb(92.941176%,12.156863%,20.392157%);fill-opacity:1;" d="M 2.597656 0.488281 C 2.65625 0.46875 2.714844 0.445312 2.769531 0.425781 C 2.714844 0.445312 2.65625 0.46875 2.597656 0.488281 Z M 2.597656 0.488281 "/>
<path style=" stroke:none;fill-rule:nonzero;fill:rgb(92.941176%,12.156863%,20.392157%);fill-opacity:1;" d="M 94.667969 107.125 L 240 107.125 L 240 8.25 L 50.667969 8.25 L 50.667969 107.125 L 78.667969 107.125 C 80.875 107.125 82.667969 108.921875 82.667969 111.136719 L 90.667969 111.136719 C 90.667969 108.921875 92.457031 107.125 94.667969 107.125 Z M 94.667969 107.125 "/>
<path style=" stroke:none;fill-rule:nonzero;fill:rgb(14.509804%,57.254902%,27.058824%);fill-opacity:1;" d="M 94.667969 115.144531 C 92.457031 115.144531 90.667969 113.347656 90.667969 111.136719 L 82.667969 111.136719 C 82.667969 113.347656 80.875 115.144531 78.667969 115.144531 L 50.667969 115.144531 L 50.667969 160.574219 L 240 160.574219 L 240 115.144531 Z M 94.667969 115.144531 "/>
<path style=" stroke:none;fill-rule:nonzero;fill:rgb(0%,0%,0%);fill-opacity:1;" d="M 244 0.230469 L 4 0.230469 C 3.980469 0.230469 3.957031 0.234375 3.9375 0.234375 C 3.867188 0.238281 3.796875 0.242188 3.726562 0.246094 C 3.664062 0.25 3.597656 0.253906 3.535156 0.261719 C 3.472656 0.269531 3.410156 0.28125 3.347656 0.289062 C 3.28125 0.300781 3.214844 0.3125 3.148438 0.324219 C 3.089844 0.339844 3.03125 0.355469 2.972656 0.371094 C 2.90625 0.386719 2.839844 0.40625 2.773438 0.425781 C 2.714844 0.445312 2.65625 0.46875 2.601562 0.488281 C 2.535156 0.511719 2.472656 0.535156 2.410156 0.5625 C 2.351562 0.589844 2.292969 0.621094 2.234375 0.648438 C 2.175781 0.675781 2.121094 0.703125 2.066406 0.734375 C 2.003906 0.765625 1.949219 0.804688 1.890625 0.839844 C 1.839844 0.871094 1.785156 0.902344 1.734375 0.9375 C 1.679688 0.976562 1.628906 1.015625 1.578125 1.054688 C 1.523438 1.097656 1.472656 1.136719 1.421875 1.179688 C 1.375 1.21875 1.332031 1.261719 1.289062 1.300781 C 1.234375 1.351562 1.179688 1.402344 1.125 1.457031 C 1.085938 1.496094 1.050781 1.539062 1.011719 1.582031 C 0.960938 1.640625 0.914062 1.695312 0.867188 1.753906 C 0.828125 1.804688 0.792969 1.851562 0.757812 1.902344 C 0.714844 1.957031 0.675781 2.015625 0.640625 2.074219 C 0.605469 2.125 0.574219 2.179688 0.539062 2.234375 C 0.507812 2.292969 0.476562 2.351562 0.445312 2.410156 C 0.414062 2.46875 0.386719 2.527344 0.359375 2.585938 C 0.332031 2.644531 0.308594 2.707031 0.285156 2.765625 C 0.261719 2.824219 0.238281 2.886719 0.21875 2.949219 C 0.195312 3.011719 0.175781 3.074219 0.15625 3.136719 C 0.140625 3.199219 0.125 3.261719 0.109375 3.324219 C 0.09375 3.390625 0.0820312 3.453125 0.0703125 3.515625 C 0.0585938 3.582031 0.046875 3.652344 0.0390625 3.71875 C 0.03125 3.78125 0.0234375 3.839844 0.0195312 3.902344 C 0.0117188 3.976562 0.0078125 4.050781 0.0078125 4.121094 C 0.00390625 4.164062 0 4.199219 0 4.242188 L 0 164.582031 C 0 164.597656 0.00390625 164.613281 0.00390625 164.625 C 0.0273438 166.820312 1.804688 168.589844 4 168.589844 L 244 168.589844 C 246.210938 168.589844 248 166.796875 248 164.582031 L 248 4.242188 C 248 2.027344 246.210938 0.230469 244 0.230469 Z M 8 155.5 L 8 8.25 L 42.667969 8.25 L 42.667969 160.574219 L 8 160.574219 Z M 50.667969 160.574219 L 50.667969 115.144531 L 70.058594 115.367188 C 72.269531 115.367188 138.570312 113.347656 138.570312 111.136719 L 90.976562 110.824219 C 90.976562 108.609375 97.691406 107.4375 95.480469 107.4375 L 50.667969 107.125 L 50.667969 8.25 L 240 8.25 L 240 107.125 L 75.640625 107.4375 C 73.429688 107.4375 90.667969 108.921875 90.667969 111.136719 C 90.667969 113.347656 71.261719 115.367188 73.46875 115.367188 L 240 115.144531 L 240 160.574219 Z M 50.667969 160.574219 "/>
</g>
</svg>
