<?xml version="1.0" encoding="UTF-8" standalone="no"?><!-- Generator: Gravit.io --><svg xmlns="http://www.w3.org/2000/svg" xmlns:xlink="http://www.w3.org/1999/xlink" style="isolation:isolate" viewBox="0 0 799.999 799.999" width="799.999pt" height="799.999pt"><defs><clipPath id="_clipPath_om3tECwb8DW526hfFFB18iDaqmSAx54Z"><rect width="799.999" height="799.999"/></clipPath></defs><g clip-path="url(#_clipPath_om3tECwb8DW526hfFFB18iDaqmSAx54Z)"><g><path d=" M 116.934 645.877 L 24.807 559.406 L 24.807 498.927 L 34.495 489.831 C 37.083 487.403 40.461 486.065 44.007 486.065 C 47.834 486.065 51.53 487.665 54.149 490.454 C 59.396 496.045 59.116 504.861 53.526 510.108 L 33.219 529.165 L 81.72 574.688 L 130.222 529.165 L 24.807 430.228 L 24.807 369.749 L 34.495 360.658 C 37.083 358.23 40.461 356.892 44.008 356.892 C 47.835 356.892 51.53 358.492 54.148 361.282 C 56.69 363.989 58.024 367.525 57.907 371.237 C 57.789 374.949 56.233 378.393 53.525 380.934 L 33.219 399.989 L 81.72 445.51 L 130.222 399.989 L 24.807 301.055 L 24.807 240.577 L 34.494 231.486 C 37.082 229.057 40.46 227.719 44.007 227.719 C 47.834 227.719 51.53 229.319 54.147 232.109 C 56.689 234.817 58.024 238.352 57.906 242.064 C 57.788 245.776 56.232 249.219 53.524 251.76 L 33.221 270.814 L 81.721 316.333 L 130.221 270.814 L 24.807 171.889 L 24.807 153.554 L 45.905 153.554 L 81.721 187.166 L 117.537 153.554 L 138.635 153.554 L 138.635 171.889 L 102.038 206.236 L 138.635 240.58 L 138.635 301.058 L 102.038 335.403 L 138.635 369.751 L 138.635 430.229 L 102.037 464.579 L 138.635 498.929 L 138.635 559.408 L 102.037 593.758 L 138.635 628.109 L 138.635 645.88 L 116.934 645.88 L 116.934 645.877 Z " fill="rgb(237,31,52)"/><path d=" M 265.667 486.736 L 265.667 485.736 C 265.667 479.173 260.328 473.833 253.764 473.833 L 162.441 473.833 L 162.441 153.554 L 775.193 153.554 L 775.193 473.833 L 305.376 473.833 C 298.813 473.833 293.473 479.173 293.473 485.736 L 293.473 486.736 L 265.667 486.736 Z " fill="rgb(237,31,52)"/><path d=" M 162.441 645.877 L 162.441 497.64 L 253.764 497.64 C 260.327 497.64 265.667 492.3 265.667 485.737 L 265.667 484.737 L 293.474 484.737 L 293.474 485.737 C 293.474 492.3 298.814 497.64 305.377 497.64 L 775.194 497.64 L 775.194 645.877 L 162.441 645.877 Z " fill="rgb(37,146,69)"/><path d=" M 117.932 154.554 L 45.509 154.554 L 81.72 188.538 L 117.932 154.554 Z " fill="rgb(255,255,255)"/><path d=" M 53.417 232.795 C 58.294 237.993 58.035 246.158 52.839 251.033 L 31.759 270.816 L 81.72 317.707 L 131.681 270.816 L 25.807 171.456 L 25.807 241.011 L 35.178 232.216 C 40.377 227.337 48.542 227.6 53.417 232.795 Z " fill="rgb(255,255,255)"/><path d=" M 137.634 241.011 L 137.634 171.456 L 100.576 206.234 L 137.634 241.011 Z " fill="rgb(255,255,255)"/><path d=" M 137.634 370.182 L 137.634 300.624 L 100.576 335.402 L 137.634 370.182 Z " fill="rgb(255,255,255)"/><path d=" M 53.419 361.965 C 58.296 367.161 58.037 375.328 52.841 380.203 L 31.757 399.989 L 81.72 446.881 L 131.683 399.989 L 25.807 300.622 L 25.807 370.182 L 35.18 361.386 C 40.378 356.506 48.543 356.77 53.419 361.965 Z " fill="rgb(255,255,255)"/><path d=" M 137.634 499.359 L 137.634 429.795 L 100.575 464.577 L 137.634 499.359 Z " fill="rgb(255,255,255)"/><path d=" M 53.421 620.319 C 58.298 625.516 58.041 633.681 52.843 638.558 L 46.111 644.876 L 117.33 644.876 L 25.807 558.973 L 25.807 628.54 L 35.182 619.74 C 40.38 614.861 48.545 615.125 53.421 620.319 Z " fill="rgb(255,255,255)"/><path d=" M 53.419 491.139 C 58.296 496.336 58.038 504.501 52.841 509.379 L 31.757 529.165 L 81.72 576.06 L 131.683 529.165 L 25.806 429.795 L 25.806 499.358 L 35.179 490.559 C 40.378 485.682 48.543 485.945 53.419 491.139 Z " fill="rgb(255,255,255)"/><path d=" M 137.634 629.539 L 137.634 559.974 L 100.575 594.758 L 137.634 629.539 Z " fill="rgb(255,255,255)"/><path d=" M 146.773 670.683 C 148 671.057 149.266 671.251 150.536 671.251 C 151.816 671.251 153.096 671.06 154.328 670.683 L 146.773 670.683 Z " fill="rgb(237,31,52)"/><path d=" M 137.634 644.877 L 137.634 628.539 L 100.574 593.756 L 137.634 558.974 L 137.634 499.359 L 100.574 464.577 L 137.634 429.795 L 137.634 370.182 L 100.576 335.402 L 137.634 300.624 L 137.634 241.013 L 100.576 206.236 L 137.634 171.456 L 137.634 154.554 L 117.932 154.554 L 81.72 188.538 L 45.509 154.554 L 25.807 154.554 L 25.807 171.456 L 131.682 270.816 L 81.721 317.706 L 31.76 270.816 L 52.84 251.033 C 58.036 246.157 58.296 237.991 53.418 232.795 C 48.543 227.599 40.377 227.338 35.178 232.217 L 25.807 241.012 L 25.807 300.623 L 131.684 399.99 L 81.72 446.881 L 31.757 399.989 L 52.841 380.204 C 58.037 375.329 58.297 367.162 53.419 361.966 C 48.543 356.77 40.378 356.509 35.179 361.388 L 25.806 370.183 L 25.806 429.796 L 131.683 529.166 L 81.72 576.06 L 31.757 529.165 L 52.841 509.379 C 58.038 504.501 58.297 496.336 53.419 491.139 C 48.543 485.946 40.378 485.682 35.179 490.561 L 25.806 499.36 L 25.806 558.974 L 117.329 644.877 L 137.634 644.877 Z " fill="rgb(237,31,52)"/><path d=" M 0.007 657.923 C -0.101 661.228 1.051 664.575 3.494 667.179 C 6.035 669.885 9.466 671.251 12.907 671.251 C 14.175 671.251 15.441 671.057 16.668 670.683 L 12.904 670.683 C 5.824 670.683 0.084 664.981 0.007 657.923 Z " fill="rgb(237,31,52)"/><path d=" M 52.843 638.559 C 58.041 633.682 58.299 625.517 53.421 620.32 C 48.546 615.126 40.38 614.862 35.181 619.742 L 25.806 628.542 L 25.806 644.878 L 46.11 644.878 L 52.843 638.559 Z " fill="rgb(237,31,52)"/><path d=" M 1.739 135.201 C 1.843 135.022 1.949 134.847 2.059 134.675 C 1.948 134.846 1.843 135.023 1.739 135.201 Z " fill="rgb(237,31,52)"/><path d=" M 1.16 136.326 C 1.246 136.135 1.337 135.947 1.432 135.762 C 1.335 135.947 1.246 136.135 1.16 136.326 Z " fill="rgb(237,31,52)"/><path d=" M 2.438 134.122 C 2.551 133.964 2.668 133.806 2.789 133.652 C 2.668 133.806 2.553 133.964 2.438 134.122 Z " fill="rgb(237,31,52)"/><path d=" M 0.697 137.492 C 0.764 137.294 0.835 137.098 0.912 136.906 C 0.834 137.102 0.764 137.296 0.697 137.492 Z " fill="rgb(237,31,52)"/><path d=" M 7.202 130.089 C 7.391 129.994 7.58 129.896 7.775 129.812 C 7.582 129.895 7.393 129.995 7.202 130.089 Z " fill="rgb(237,31,52)"/><path d=" M 3.494 132.821 C 3.41 132.911 3.339 133.009 3.258 133.1 C 3.381 132.961 3.503 132.823 3.632 132.689 C 3.587 132.735 3.539 132.775 3.494 132.821 Z " fill="rgb(237,31,52)"/><path d=" M 4.148 132.19 C 4.289 132.059 4.428 131.925 4.576 131.801 C 4.43 131.925 4.291 132.059 4.148 132.19 Z " fill="rgb(237,31,52)"/><path d=" M 0.351 138.707 C 0.399 138.502 0.449 138.299 0.507 138.1 C 0.449 138.301 0.397 138.504 0.351 138.707 Z " fill="rgb(237,31,52)"/><path d=" M 5.084 131.402 C 5.251 131.275 5.416 131.144 5.59 131.024 C 5.417 131.144 5.252 131.275 5.084 131.402 Z " fill="rgb(237,31,52)"/><path d=" M 10.801 128.933 C 11.002 128.9 11.204 128.864 11.408 128.84 C 11.205 128.864 11.004 128.9 10.801 128.933 Z " fill="rgb(237,31,52)"/><path d=" M 0.122 139.97 C 0.15 139.753 0.182 139.536 0.22 139.323 C 0.181 139.538 0.15 139.753 0.122 139.97 Z " fill="rgb(237,31,52)"/><path d=" M 0.019 141.272 C 0.026 141.037 0.034 140.801 0.055 140.568 C 0.036 140.804 0.026 141.038 0.019 141.272 Z " fill="rgb(237,31,52)"/><path d=" M 12.021 128.792 C 12.247 128.777 12.472 128.761 12.701 128.758 C 12.473 128.761 12.246 128.777 12.021 128.792 Z " fill="rgb(237,31,52)"/><path d=" M 6.096 130.704 C 6.282 130.587 6.468 130.468 6.66 130.362 C 6.467 130.468 6.283 130.586 6.096 130.704 Z " fill="rgb(237,31,52)"/><path d=" M 9.593 131.191 C 9.779 131.141 9.963 131.087 10.152 131.048 C 9.965 131.09 9.779 131.143 9.593 131.191 Z " fill="rgb(237,31,52)"/><path d=" M 8.384 129.577 C 8.568 129.506 8.752 129.434 8.94 129.374 C 8.752 129.434 8.569 129.508 8.384 129.577 Z " fill="rgb(237,31,52)"/><path d=" M 305.376 472.833 L 774.193 472.833 L 774.193 154.554 L 163.441 154.554 L 163.441 472.833 L 253.764 472.833 C 260.891 472.833 266.667 478.61 266.667 485.736 L 292.474 485.736 C 292.473 478.61 298.249 472.833 305.376 472.833 Z " fill="rgb(237,31,52)"/><path d=" M 305.376 498.64 C 298.249 498.64 292.473 492.863 292.473 485.737 L 292.473 485.737 L 266.666 485.737 L 266.666 485.737 C 266.666 492.863 260.891 498.64 253.763 498.64 L 163.44 498.64 L 163.44 644.877 L 774.192 644.877 L 774.192 498.64 L 305.376 498.64 Z " fill="rgb(37,146,69)"/><path d=" M 787.097 128.748 L 12.903 128.748 C 12.834 128.748 12.769 128.756 12.7 128.758 C 12.471 128.761 12.246 128.777 12.02 128.792 C 11.815 128.806 11.611 128.818 11.409 128.84 C 11.204 128.864 11.003 128.9 10.802 128.933 C 10.585 128.969 10.366 129.002 10.153 129.048 C 9.964 129.09 9.78 129.143 9.594 129.191 C 9.376 129.25 9.156 129.303 8.942 129.373 C 8.753 129.433 8.57 129.507 8.386 129.576 C 8.183 129.652 7.976 129.724 7.777 129.81 C 7.581 129.894 7.394 129.993 7.204 130.087 C 7.022 130.176 6.838 130.262 6.662 130.36 C 6.47 130.466 6.286 130.585 6.098 130.702 C 5.929 130.807 5.757 130.91 5.594 131.022 C 5.42 131.143 5.255 131.273 5.088 131.4 C 4.918 131.531 4.746 131.66 4.581 131.799 C 4.435 131.924 4.293 132.057 4.153 132.188 C 3.977 132.352 3.802 132.513 3.635 132.687 C 3.506 132.819 3.384 132.959 3.261 133.098 C 3.101 133.279 2.943 133.461 2.793 133.65 C 2.671 133.803 2.556 133.962 2.442 134.12 C 2.312 134.301 2.184 134.483 2.064 134.672 C 1.952 134.844 1.847 135.021 1.744 135.198 C 1.637 135.382 1.534 135.568 1.436 135.759 C 1.341 135.945 1.25 136.132 1.164 136.323 C 1.077 136.513 0.994 136.708 0.916 136.904 C 0.84 137.097 0.768 137.293 0.701 137.491 C 0.632 137.69 0.568 137.893 0.51 138.098 C 0.453 138.297 0.402 138.5 0.354 138.705 C 0.306 138.908 0.263 139.113 0.225 139.321 C 0.185 139.534 0.154 139.751 0.127 139.968 C 0.101 140.166 0.077 140.365 0.06 140.567 C 0.041 140.799 0.031 141.035 0.024 141.271 C 0.016 141.399 0 141.523 0 141.65 L 0 657.779 C 0 657.828 0.007 657.874 0.007 657.923 C 0.085 664.982 5.824 670.683 12.903 670.683 L 16.667 670.683 L 146.773 670.683 L 154.327 670.683 L 787.096 670.683 C 794.224 670.683 799.999 664.906 799.999 657.78 L 799.999 141.65 C 800 134.524 794.225 128.748 787.097 128.748 Z  M 25.807 628.541 L 25.807 558.974 L 25.807 499.359 L 25.807 429.796 L 25.807 370.183 L 25.807 300.622 L 25.807 241.011 L 25.807 171.454 L 25.807 154.552 L 45.509 154.552 L 117.932 154.552 L 137.634 154.552 L 137.634 171.454 L 137.634 241.009 L 137.634 300.62 L 137.634 370.18 L 137.634 429.793 L 137.634 499.357 L 137.634 558.971 L 137.634 628.536 L 137.634 644.874 L 117.33 644.874 L 46.111 644.874 L 25.807 644.874 L 25.807 628.541 Z  M 163.441 644.877 L 163.441 498.64 L 226 499.36 C 233.127 499.36 447 492.863 447 485.737 L 293.473 484.737 C 293.473 477.611 315.128 473.833 308 473.833 L 163.441 472.834 L 163.441 154.554 L 774.193 154.554 L 774.193 472.833 L 244 473.833 C 236.873 473.833 292.473 478.61 292.473 485.736 L 292.473 485.736 C 292.473 492.862 229.873 499.357 237 499.357 L 774.193 498.639 L 774.193 644.876 L 163.441 644.877 L 163.441 644.877 Z " fill="rgb(0,0,0)"/></g></g></svg>