<?xml version="1.0" ?><svg id="Canada" style="enable-background:new 0 0 300 300;" version="1.1" viewBox="0 0 300 300" xml:space="preserve" xmlns="http://www.w3.org/2000/svg" xmlns:xlink="http://www.w3.org/1999/xlink"><g><polygon points="   274,228 222.164,228 222,80 273.836,80  " style="fill:#EE5281;stroke:#000000;stroke-width:8;stroke-linecap:round;stroke-linejoin:round;stroke-miterlimit:10;"/><polygon points="   86,228 34.164,228 34,80 85.836,80  " style="fill:#EE5281;stroke:#000000;stroke-width:8;stroke-linecap:round;stroke-linejoin:round;stroke-miterlimit:10;"/><polygon points="   222,228 86.429,228 86,80 221.571,80  " style="fill:#FFFFFF;stroke:#000000;stroke-width:8;stroke-linecap:round;stroke-linejoin:round;stroke-miterlimit:10;"/><polygon points="   202,160 194,152 200.243,135.811 182.605,138.805 179.944,131.487 166.64,142.796 171.296,118.182 163.313,121.841 154,106.208    144.687,121.841 136.704,118.182 141.36,142.796 128.056,131.487 125.395,138.805 107.757,135.811 114,152 106,160 132.38,172.732    130.052,180.05 154,176.723 177.948,180.05 175.62,172.732  " style="fill:#EE5281;stroke:#000000;stroke-width:8;stroke-linecap:round;stroke-linejoin:round;stroke-miterlimit:10;"/><line style="fill:none;stroke:#000000;stroke-width:8;stroke-linecap:round;stroke-linejoin:round;stroke-miterlimit:10;" x1="154" x2="154" y1="201.538" y2="178.582"/></g><g/><g/><g/><g/><g/><g/><g/><g/><g/><g/><g/><g/><g/><g/><g/></svg>