<?xml version="1.0" encoding="UTF-8"?>
<svg width="248px" height="156px" viewBox="0 0 248 156" xmlns="http://www.w3.org/2000/svg" xmlns:xlink="http://www.w3.org/1999/xlink" version="1.1">
 <!-- Generated by Pixelmator Pro 1.7 -->
 <g id="group">
  <path id="Путь" d="M244 152 L192.164 152 192 4 243.836 4 Z" fill="#ee5281" fill-opacity="1" stroke="#000000" stroke-width="8" stroke-opacity="1" stroke-linejoin="round"/>
  <path id="Путь-1" d="M56 152 L4.164 152 4 4 55.836 4 Z" fill="#ee5281" fill-opacity="1" stroke="#000000" stroke-width="8" stroke-opacity="1" stroke-linejoin="round"/>
  <path id="Путь-2" d="M192 152 L56.429 152 56 4 191.571 4 Z" fill="#ffffff" fill-opacity="1" stroke="#000000" stroke-width="8" stroke-opacity="1" stroke-linejoin="round"/>
  <path id="Путь-3" d="M172 84 L164 76 170.243 59.811 152.605 62.805 149.944 55.487 136.64 66.796 141.296 42.182 133.313 45.841 124 30.208 114.687 45.841 106.704 42.182 111.36 66.796 98.056 55.487 95.395 62.805 77.757 59.811 84 76 76 84 102.38 96.732 100.052 104.05 124 100.723 147.948 104.05 145.62 96.732 Z" fill="#ee5281" fill-opacity="1" stroke="#000000" stroke-width="8" stroke-opacity="1" stroke-linejoin="round"/>
  <path id="Путь-4" d="M124 125.538 L124 102.582" fill="none" stroke="#000000" stroke-width="8" stroke-opacity="1" stroke-linejoin="round"/>
 </g>
 <g id="group-1"/>
 <g id="group-2"/>
 <g id="group-3"/>
 <g id="group-4"/>
 <g id="group-5"/>
 <g id="group-6"/>
 <g id="group-7"/>
 <g id="group-8"/>
 <g id="group-9"/>
 <g id="group-10"/>
 <g id="group-11"/>
 <g id="group-12"/>
 <g id="group-13"/>
 <g id="group-14"/>
 <g id="group-15"/>
</svg>
