<?xml version="1.0" ?><svg id="Comoros" style="enable-background:new 0 0 300 300;" version="1.1" viewBox="0 0 300 300" xml:space="preserve" xmlns="http://www.w3.org/2000/svg" xmlns:xlink="http://www.w3.org/1999/xlink"><g><polygon points="   273.75,80 122,80 34.646,80 34,80 34,116 273.811,116  " style="fill:#FEDA38;stroke:#000000;stroke-width:8;stroke-linecap:round;stroke-linejoin:round;stroke-miterlimit:10;"/><polygon points="   34,228 34.997,228 122,228 274,228 273.946,192 34,192  " style="fill:#288EEA;stroke:#000000;stroke-width:8;stroke-linecap:round;stroke-linejoin:round;stroke-miterlimit:10;"/><polygon points="   273.872,152 273.811,116 34,116 34,156 273.878,156  " style="fill:#FFFFFF;stroke:#000000;stroke-width:8;stroke-linecap:round;stroke-linejoin:round;stroke-miterlimit:10;"/><polygon points="   34,152 34,192 273.946,192 273.878,152  " style="fill:#EE5281;stroke:#000000;stroke-width:8;stroke-linecap:round;stroke-linejoin:round;stroke-miterlimit:10;"/><polygon points="   34,80 162,152 34,228  " style="fill:#83D816;stroke:#000000;stroke-width:8;stroke-linecap:round;stroke-linejoin:round;stroke-miterlimit:10;"/><path d="   M66.031,152c0-10.755,7.296-20.117,18.087-25.063c-0.041,0-0.082-0.005-0.124-0.005c-17.101,0-30.964,11.223-30.964,25.068   c0,13.845,13.863,25.068,30.964,25.068c0.042,0,0.083-0.004,0.124-0.005C73.327,172.118,66.031,162.756,66.031,152z" style="fill:#FFFFFF;stroke:#000000;stroke-width:8;stroke-linecap:round;stroke-linejoin:round;stroke-miterlimit:10;"/></g><g/><g/><g/><g/><g/><g/><g/><g/><g/><g/><g/><g/><g/><g/><g/></svg>