<?xml version="1.0" encoding="UTF-8"?>
<svg width="248px" height="160px" viewBox="0 0 248 160" xmlns="http://www.w3.org/2000/svg" xmlns:xlink="http://www.w3.org/1999/xlink" version="1.1">
 <!-- Generated by Pixelmator Pro 1.7 -->
 <g id="group">
  <path id="Путь" d="M243.668 4 L4.081 4 4.433 156 243.919 156 Z" fill="#ee5281" fill-opacity="1" stroke="#000000" stroke-width="8" stroke-opacity="1" stroke-linejoin="round"/>
  <path id="Путь-1" d="M52.074 43.6 L69.217 44.282 55.748 54.909 60.396 71.423 46.128 61.898 31.858 71.421 36.508 54.908 23.041 44.279 40.183 43.599 46.13 27.506 Z" fill="#feda38" fill-opacity="1" stroke="#000000" stroke-width="8" stroke-opacity="1" stroke-linejoin="round"/>
  <path id="Путь-2" d="M72.081 80 L80.081 80 80.081 88 72.081 88 Z" fill="#feda38" fill-opacity="1" stroke="none"/>
  <path id="Путь-3" d="M88.081 60 L96.081 60 96.081 68 88.081 68 Z" fill="#feda38" fill-opacity="1" stroke="none"/>
  <path id="Путь-4" d="M88.081 36 L96.081 36 96.081 44 88.081 44 Z" fill="#feda38" fill-opacity="1" stroke="none"/>
  <path id="Путь-5" d="M72.081 16 L80.081 16 80.081 24 72.081 24 Z" fill="#feda38" fill-opacity="1" stroke="none"/>
 </g>
 <g id="group-1"/>
 <g id="group-2"/>
 <g id="group-3"/>
 <g id="group-4"/>
 <g id="group-5"/>
 <g id="group-6"/>
 <g id="group-7"/>
 <g id="group-8"/>
 <g id="group-9"/>
 <g id="group-10"/>
 <g id="group-11"/>
 <g id="group-12"/>
 <g id="group-13"/>
 <g id="group-14"/>
 <g id="group-15"/>
</svg>
