<?xml version="1.0" encoding="UTF-8"?>
<svg width="248px" height="156px" viewBox="0 0 248 156" xmlns="http://www.w3.org/2000/svg" xmlns:xlink="http://www.w3.org/1999/xlink" version="1.1">
 <!-- Generated by Pixelmator Pro 1.7 -->
 <g id="group">
  <path id="Путь" d="M243.75 4 L92 4 4.646 4 4 4 4 32 243.811 32 Z" fill="#288eea" fill-opacity="1" stroke="#000000" stroke-width="8" stroke-opacity="1" stroke-linejoin="round"/>
  <path id="Путь-1" d="M243.75 32 L92 32 4.646 32 4 32 4 64 243.811 64 Z" fill="#ffffff" fill-opacity="1" stroke="#000000" stroke-width="8" stroke-opacity="1" stroke-linejoin="round"/>
  <path id="Путь-2" d="M243.75 92 L92 92 4.646 92 4 92 4 124 243.811 124 Z" fill="#ffffff" fill-opacity="1" stroke="#000000" stroke-width="8" stroke-opacity="1" stroke-linejoin="round"/>
  <path id="Путь-3" d="M243.75 64 L92 64 4.646 64 4 64 4 92 243.811 92 Z" fill="#288eea" fill-opacity="1" stroke="#000000" stroke-width="8" stroke-opacity="1" stroke-linejoin="round"/>
  <path id="Путь-4" d="M4 152 L4.997 152 92 152 244 152 243.946 124 4 124 Z" fill="#288eea" fill-opacity="1" stroke="#000000" stroke-width="8" stroke-opacity="1" stroke-linejoin="round"/>
  <path id="Путь-5" d="M4 4 L132 76 4 152 Z" fill="#ee5281" fill-opacity="1" stroke="#000000" stroke-width="8" stroke-opacity="1" stroke-linejoin="round"/>
  <path id="Путь-6" d="M51.994 71.6 L69.136 72.282 55.667 82.909 60.316 99.423 46.047 89.898 31.777 99.421 36.427 82.908 22.96 72.279 40.103 71.599 46.049 55.506 Z" fill="#ffffff" fill-opacity="1" stroke="#000000" stroke-width="8" stroke-opacity="1" stroke-linejoin="round"/>
 </g>
 <g id="group-1"/>
 <g id="group-2"/>
 <g id="group-3"/>
 <g id="group-4"/>
 <g id="group-5"/>
 <g id="group-6"/>
 <g id="group-7"/>
 <g id="group-8"/>
 <g id="group-9"/>
 <g id="group-10"/>
 <g id="group-11"/>
 <g id="group-12"/>
 <g id="group-13"/>
 <g id="group-14"/>
 <g id="group-15"/>
</svg>
