<?xml version="1.0" ?><svg id="Cuba" style="enable-background:new 0 0 300 300;" version="1.1" viewBox="0 0 300 300" xml:space="preserve" xmlns="http://www.w3.org/2000/svg" xmlns:xlink="http://www.w3.org/1999/xlink"><g><polygon points="   273.75,80 122,80 34.646,80 34,80 34,108 273.811,108  " style="fill:#288EEA;stroke:#000000;stroke-width:8;stroke-linecap:round;stroke-linejoin:round;stroke-miterlimit:10;"/><polygon points="   273.75,108 122,108 34.646,108 34,108 34,140 273.811,140  " style="fill:#FFFFFF;stroke:#000000;stroke-width:8;stroke-linecap:round;stroke-linejoin:round;stroke-miterlimit:10;"/><polygon points="   273.75,168 122,168 34.646,168 34,168 34,200 273.811,200  " style="fill:#FFFFFF;stroke:#000000;stroke-width:8;stroke-linecap:round;stroke-linejoin:round;stroke-miterlimit:10;"/><polygon points="   273.75,140 122,140 34.646,140 34,140 34,168 273.811,168  " style="fill:#288EEA;stroke:#000000;stroke-width:8;stroke-linecap:round;stroke-linejoin:round;stroke-miterlimit:10;"/><polygon points="   34,228 34.997,228 122,228 274,228 273.946,200 34,200  " style="fill:#288EEA;stroke:#000000;stroke-width:8;stroke-linecap:round;stroke-linejoin:round;stroke-miterlimit:10;"/><polygon points="   34,80 162,152 34,228  " style="fill:#EE5281;stroke:#000000;stroke-width:8;stroke-linecap:round;stroke-linejoin:round;stroke-miterlimit:10;"/><polygon points="   81.994,147.6 99.136,148.282 85.667,158.909 90.316,175.423 76.047,165.898 61.777,175.421 66.427,158.908 52.96,148.279    70.103,147.599 76.049,131.506  " style="fill:#FFFFFF;stroke:#000000;stroke-width:8;stroke-linecap:round;stroke-linejoin:round;stroke-miterlimit:10;"/></g><g/><g/><g/><g/><g/><g/><g/><g/><g/><g/><g/><g/><g/><g/><g/></svg>