<?xml version="1.0" encoding="UTF-8"?>
<svg width="248px" height="160px" viewBox="0 0 248 160" xmlns="http://www.w3.org/2000/svg" xmlns:xlink="http://www.w3.org/1999/xlink" version="1.1">
 <!-- Generated by Pixelmator Pro 1.7 -->
 <g id="group">
  <path id="Путь" d="M243.588 4 L4 4 4.352 156 243.839 156 Z" fill="#288eea" fill-opacity="1" stroke="#000000" stroke-width="8" stroke-opacity="1" stroke-linejoin="round"/>
  <path id="Путь-1" d="M4 88 L244 88 244 124 4 124 Z" fill="#ffffff" fill-opacity="1" stroke="#000000" stroke-width="8" stroke-opacity="1" stroke-linejoin="round"/>
  <path id="Путь-2" d="M4 100 L244 100 244 112 4 112 Z" fill="#ee5281" fill-opacity="1" stroke="#000000" stroke-width="8" stroke-opacity="1" stroke-linejoin="round"/>
  <path id="Путь-3" d="M76 72 L84 72 84 80 76 80 Z" fill="#feda38" fill-opacity="1" stroke="none"/>
  <path id="Путь-4" d="M76 132 L84 132 84 140 76 140 Z" fill="#feda38" fill-opacity="1" stroke="none"/>
  <path id="Путь-5" d="M104 120 L112 120 112 128 104 128 Z" fill="#feda38" fill-opacity="1" stroke="none"/>
  <path id="Путь-6" d="M104 84 L112 84 112 92 104 92 Z" fill="#feda38" fill-opacity="1" stroke="none"/>
  <path id="Путь-7" d="M52 84 L60 84 60 92 52 92 Z" fill="#feda38" fill-opacity="1" stroke="none"/>
  <path id="Путь-8" d="M52 120 L60 120 60 128 52 128 Z" fill="#feda38" fill-opacity="1" stroke="none"/>
 </g>
 <g id="group-1"/>
 <g id="group-2"/>
 <g id="group-3"/>
 <g id="group-4"/>
 <g id="group-5"/>
 <g id="group-6"/>
 <g id="group-7"/>
 <g id="group-8"/>
 <g id="group-9"/>
 <g id="group-10"/>
 <g id="group-11"/>
 <g id="group-12"/>
 <g id="group-13"/>
 <g id="group-14"/>
 <g id="group-15"/>
</svg>
