<?xml version="1.0" ?><svg id="Algeria" style="enable-background:new 0 0 300 300;" version="1.1" viewBox="0 0 300 300" xml:space="preserve" xmlns="http://www.w3.org/2000/svg" xmlns:xlink="http://www.w3.org/1999/xlink"><g><polygon points="   36,80 36.353,228 156,228 156,80  " style="fill:#83D816;stroke:#000000;stroke-width:8;stroke-linecap:round;stroke-linejoin:round;stroke-miterlimit:10;"/><polygon points="   271.758,80 156,80 156,228 272,228  " style="fill:#FFFFFF;stroke:#000000;stroke-width:8;stroke-linecap:round;stroke-linejoin:round;stroke-miterlimit:10;"/><path d="   M167.76,192c-19.75,0-35.76-16.01-35.76-35.76s16.01-35.76,35.76-35.76c5.81,0,12.723,1.745,19.587,4.664   C179.366,117.037,168.275,112,156,112c-24.301,0-44,19.699-44,44s19.699,44,44,44c10.714,0,20.526-3.837,28.157-10.201   C178.368,191.24,172.669,192,167.76,192z" style="fill:#EE5281;stroke:#000000;stroke-width:8;stroke-linecap:round;stroke-linejoin:round;stroke-miterlimit:10;"/><polygon points="   180.261,166.247 189.325,175.722 191.333,162.764 203.146,157.072 191.442,151.158 189.679,138.165 180.438,147.468    167.536,145.13 173.528,156.793 167.317,168.341  " style="fill:#EE5281;stroke:#000000;stroke-width:8;stroke-linecap:round;stroke-linejoin:round;stroke-miterlimit:10;"/></g><g/><g/><g/><g/><g/><g/><g/><g/><g/><g/><g/><g/><g/><g/><g/></svg>