<?xml version="1.0" encoding="UTF-8"?>
<svg width="248px" height="156px" viewBox="0 0 248 156" xmlns="http://www.w3.org/2000/svg" xmlns:xlink="http://www.w3.org/1999/xlink" version="1.1">
 <!-- Generated by Pixelmator Pro 1.7 -->
 <g id="group">
  <path id="Путь" d="M243.842 4 L4.076 4 4.19 52 243.924 52 Z" fill="#83d816" fill-opacity="1" stroke="#000000" stroke-width="8" stroke-opacity="1" stroke-linejoin="round"/>
  <path id="Путь-1" d="M4.089 52 L4.213 105 243.911 105 243.822 52 Z" fill="#feda38" fill-opacity="1" stroke="#000000" stroke-width="8" stroke-opacity="1" stroke-linejoin="round"/>
  <path id="Путь-2" d="M4.225 152 L243.889 152 243.808 104 4.111 104 Z" fill="#ee5281" fill-opacity="1" stroke="#000000" stroke-width="8" stroke-opacity="1" stroke-linejoin="round"/>
  <path id="Путь-3" d="M176.076 78 C176.076 105.614 153.69 128 126.076 128 98.462 128 76.076 105.614 76.076 78 76.076 50.386 98.462 28 126.076 28 153.69 28 176.076 50.386 176.076 78 Z" fill="#288eea" fill-opacity="1" stroke="#000000" stroke-width="8" stroke-opacity="1" stroke-linejoin="round"/>
  <path id="Путь-4" d="M126.076 91.937 L143.313 103.443 137.697 83.494 153.966 70.656 133.258 69.833 126.076 50.393 118.894 69.833 98.186 70.656 114.456 83.494 108.839 103.443 Z" fill="#feda38" fill-opacity="1" stroke="#000000" stroke-width="8" stroke-opacity="1" stroke-linejoin="round"/>
 </g>
 <g id="group-1"/>
 <g id="group-2"/>
 <g id="group-3"/>
 <g id="group-4"/>
 <g id="group-5"/>
 <g id="group-6"/>
 <g id="group-7"/>
 <g id="group-8"/>
 <g id="group-9"/>
 <g id="group-10"/>
 <g id="group-11"/>
 <g id="group-12"/>
 <g id="group-13"/>
 <g id="group-14"/>
 <g id="group-15"/>
</svg>
