<?xml version="1.0" ?><svg id="Georgia" style="enable-background:new 0 0 300 300;" version="1.1" viewBox="0 0 300 300" xml:space="preserve" xmlns="http://www.w3.org/2000/svg" xmlns:xlink="http://www.w3.org/1999/xlink"><g><polygon points="   273.896,168 170,168 170,228 274,228  " style="fill:#FFFFFF;stroke:#000000;stroke-width:8;stroke-linecap:round;stroke-linejoin:round;stroke-miterlimit:10;"/><polygon points="   34,168 34,228 34.96,228 118.741,228 138,228 138,168  " style="fill:#FFFFFF;stroke:#000000;stroke-width:8;stroke-linecap:round;stroke-linejoin:round;stroke-miterlimit:10;"/><polygon points="   118.741,80 34.622,80 34,80 34,136 138,136 138,80  " style="fill:#FFFFFF;stroke:#000000;stroke-width:8;stroke-linecap:round;stroke-linejoin:round;stroke-miterlimit:10;"/><polygon points="   273.851,136 273.754,80 170,80 170,136  " style="fill:#FFFFFF;stroke:#000000;stroke-width:8;stroke-linecap:round;stroke-linejoin:round;stroke-miterlimit:10;"/><polygon points="   274,136 170,136 170,80 138,80 138,136 34,136 34,168 138,168 138,228 170,228 170,168 274,168  " style="fill:#EE5281;stroke:#000000;stroke-width:8;stroke-linecap:round;stroke-linejoin:round;stroke-miterlimit:10;"/><line style="fill:none;stroke:#EE5281;stroke-width:16;stroke-linecap:round;stroke-linejoin:round;stroke-miterlimit:10;" x1="222" x2="222" y1="192" y2="208"/><line style="fill:none;stroke:#EE5281;stroke-width:16;stroke-linecap:round;stroke-linejoin:round;stroke-miterlimit:10;" x1="214" x2="230" y1="200" y2="200"/><line style="fill:none;stroke:#EE5281;stroke-width:16;stroke-linecap:round;stroke-linejoin:round;stroke-miterlimit:10;" x1="222" x2="222" y1="100" y2="116"/><line style="fill:none;stroke:#EE5281;stroke-width:16;stroke-linecap:round;stroke-linejoin:round;stroke-miterlimit:10;" x1="214" x2="230" y1="108" y2="108"/><line style="fill:none;stroke:#EE5281;stroke-width:16;stroke-linecap:round;stroke-linejoin:round;stroke-miterlimit:10;" x1="86" x2="86" y1="192" y2="208"/><line style="fill:none;stroke:#EE5281;stroke-width:16;stroke-linecap:round;stroke-linejoin:round;stroke-miterlimit:10;" x1="78" x2="94" y1="200" y2="200"/><line style="fill:none;stroke:#EE5281;stroke-width:16;stroke-linecap:round;stroke-linejoin:round;stroke-miterlimit:10;" x1="86" x2="86" y1="100" y2="116"/><line style="fill:none;stroke:#EE5281;stroke-width:16;stroke-linecap:round;stroke-linejoin:round;stroke-miterlimit:10;" x1="78" x2="94" y1="108" y2="108"/></g><g/><g/><g/><g/><g/><g/><g/><g/><g/><g/><g/><g/><g/><g/><g/></svg>