<?xml version="1.0" ?><svg id="Greece" style="enable-background:new 0 0 300 300;" version="1.1" viewBox="0 0 300 300" xml:space="preserve" xmlns="http://www.w3.org/2000/svg" xmlns:xlink="http://www.w3.org/1999/xlink"><g><polygon points="   273.749,80 33.999,80 33.999,228 273.999,228  " style="fill:#FFFFFF;stroke:#000000;stroke-width:8;stroke-linecap:round;stroke-linejoin:round;stroke-miterlimit:10;"/><rect height="160" style="fill:#288EEA;stroke:#000000;stroke-width:8;stroke-linecap:round;stroke-linejoin:round;stroke-miterlimit:10;" transform="matrix(5.821103e-11 1 -1 5.821103e-11 284.0013 -104.0001)" width="19.999" x="184.001" y="10.001"/><rect height="160" style="fill:#288EEA;stroke:#000000;stroke-width:8;stroke-linecap:round;stroke-linejoin:round;stroke-miterlimit:10;" transform="matrix(5.784688e-11 1 -1 5.784688e-11 323.9989 -64)" width="19.999" x="184" y="49.999"/><rect height="240" style="fill:#288EEA;stroke:#000000;stroke-width:8;stroke-linecap:round;stroke-linejoin:round;stroke-miterlimit:10;" transform="matrix(8.586092e-11 1 -1 8.586092e-11 327.9989 20)" width="19.999" x="144" y="53.999"/><rect height="240" style="fill:#288EEA;stroke:#000000;stroke-width:8;stroke-linecap:round;stroke-linejoin:round;stroke-miterlimit:10;" transform="matrix(8.586092e-11 1 -1 8.586092e-11 371.9989 64)" width="19.999" x="144" y="97.999"/><rect height="80" style="fill:#288EEA;stroke:#000000;stroke-width:8;stroke-linecap:round;stroke-linejoin:round;stroke-miterlimit:10;" transform="matrix(6.669148e-12 1 -1 6.669148e-12 195.9995 48.0009)" width="84" x="32" y="82"/><polygon points="   113.999,112 81.999,112 81.999,80 65.999,80 65.999,112 33.999,112 33.999,128 65.999,128 65.999,164 81.999,164 81.999,128    113.999,128  " style="fill:#FFFFFF;stroke:#000000;stroke-width:8;stroke-linecap:round;stroke-linejoin:round;stroke-miterlimit:10;"/></g><g/><g/><g/><g/><g/><g/><g/><g/><g/><g/><g/><g/><g/><g/><g/></svg>