<?xml version="1.0" ?><svg id="Hong_x5F_Kong" style="enable-background:new 0 0 300 300;" version="1.1" viewBox="0 0 300 300" xml:space="preserve" xmlns="http://www.w3.org/2000/svg" xmlns:xlink="http://www.w3.org/1999/xlink"><g><polygon points="   273.845,80 122.095,80 34.741,80 34.095,80 34.095,228 273.905,228  " style="fill:#EE5281;stroke:#000000;stroke-width:8;stroke-linecap:round;stroke-linejoin:round;stroke-miterlimit:10;"/><path d="   M153.835,152.712c0,0-20.404-6.121-10.882-29.246c0,0,4.761-12.242,21.764-11.562c0,0-8.842,4.081-4.081,10.202   c4.761,6.121,2.04,10.202,2.04,10.202s-1.36,6.801-10.882,8.842C151.794,141.15,149.074,144.551,153.835,152.712z" style="fill:#FEDA38;stroke:#000000;stroke-width:8;stroke-linecap:round;stroke-linejoin:round;stroke-miterlimit:10;"/><circle cx="153.154" cy="122.786" r="2.721" style="fill:#EE5281;stroke:#000000;stroke-width:8;stroke-linecap:round;stroke-linejoin:round;stroke-miterlimit:10;"/><path d="   M153.835,152.712c0,0-20.404-6.121-10.882-29.246c0,0,4.761-12.242,21.764-11.562c0,0-8.842,4.081-4.081,10.202   c4.761,6.121,2.04,10.202,2.04,10.202s-1.36,6.801-10.882,8.842C151.794,141.15,149.074,144.551,153.835,152.712z" style="fill:#FFFFFF;stroke:#000000;stroke-width:8;stroke-linecap:round;stroke-linejoin:round;stroke-miterlimit:10;"/><path d="   M155.739,150.708c0,0,1.284-21.264,25.975-17.293c0,0,13.008,1.83,16.241,18.537c0,0-5.998-7.672-10.866-1.635   c-4.868,6.037-9.463,4.323-9.463,4.323s-6.932,0.234-11.1-8.567C166.526,146.073,162.593,144.204,155.739,150.708z" style="fill:#FFFFFF;stroke:#000000;stroke-width:8;stroke-linecap:round;stroke-linejoin:round;stroke-miterlimit:10;"/><path d="   M156.248,154.266c0,0,20.181-6.822,25.805,17.546c0,0,3.206,12.738-11.052,22.028c0,0,4.847-8.446-2.579-10.681   c-7.426-2.235-7.57-7.137-7.57-7.137s-2.828-6.333,3.754-13.509C164.606,162.512,164.856,158.164,156.248,154.266z" style="fill:#FFFFFF;stroke:#000000;stroke-width:8;stroke-linecap:round;stroke-linejoin:round;stroke-miterlimit:10;"/><path d="   M154.733,154.382c0,0,13.191,16.727-7.882,30.193c0,0-10.927,7.29-24.458-3.03c0,0,9.582,1.735,9.199-6.01s4.187-9.524,4.187-9.524   s5.019-4.788,13.986-0.991C149.765,165.021,153.945,163.798,154.733,154.382z" style="fill:#FFFFFF;stroke:#000000;stroke-width:8;stroke-linecap:round;stroke-linejoin:round;stroke-miterlimit:10;"/><path d="   M153.441,154.121c0,0-12.143,17.502-31.179,1.283c0,0-10.164-8.321-4.248-24.276c0,0,1.14,9.671,8.435,7.042   c7.295-2.629,10.332,1.222,10.332,1.222s6.045,3.401,5.034,13.087C141.815,152.477,144.205,156.118,153.441,154.121z" style="fill:#FFFFFF;stroke:#000000;stroke-width:8;stroke-linecap:round;stroke-linejoin:round;stroke-miterlimit:10;"/></g><g/><g/><g/><g/><g/><g/><g/><g/><g/><g/><g/><g/><g/><g/><g/></svg>