<?xml version="1.0" ?><svg id="Croatia" style="enable-background:new 0 0 300 300;" version="1.1" viewBox="0 0 300 300" xml:space="preserve" xmlns="http://www.w3.org/2000/svg" xmlns:xlink="http://www.w3.org/1999/xlink"><g><polygon points="   273.842,80 34.076,80 34.19,128 273.924,128  " style="fill:#EE5281;stroke:#000000;stroke-width:8;stroke-linecap:round;stroke-linejoin:round;stroke-miterlimit:10;"/><polygon points="   34.089,128 34.213,181 273.911,181 273.822,128  " style="fill:#FFFFFF;stroke:#000000;stroke-width:8;stroke-linecap:round;stroke-linejoin:round;stroke-miterlimit:10;"/><polygon points="   34.225,228 273.889,228 273.808,180 34.111,180  " style="fill:#288EEA;stroke:#000000;stroke-width:8;stroke-linecap:round;stroke-linejoin:round;stroke-miterlimit:10;"/><path d="   M162.05,204h-15.948c-13.269,0-24.026-10.757-24.026-24.026V148h64v31.974C186.076,193.243,175.32,204,162.05,204z" style="fill:#FFFFFF;stroke:#000000;stroke-width:8;stroke-linecap:round;stroke-linejoin:round;stroke-miterlimit:10;"/><polygon points="   175.41,103.285 164.743,123.643 154.076,103.285 143.41,123.643 132.743,103.285 122.076,123.643 122.076,148 186.076,148    186.076,123.643  " style="fill:#26BBEC;stroke:#000000;stroke-width:8;stroke-linecap:round;stroke-linejoin:round;stroke-miterlimit:10;"/><polygon points="   186.076,168 162.076,168 162.076,148 146.076,148 146.076,168 122.076,168 122.076,184 146.076,184 146.076,204 162.076,204    162.076,184 186.076,184  " style="fill:#EE5281;stroke:#000000;stroke-width:8;stroke-linecap:round;stroke-linejoin:round;stroke-miterlimit:10;"/></g><g/><g/><g/><g/><g/><g/><g/><g/><g/><g/><g/><g/><g/><g/><g/></svg>