<?xml version="1.0" ?><svg id="Iceland" style="enable-background:new 0 0 300 300;" version="1.1" viewBox="0 0 300 300" xml:space="preserve" xmlns="http://www.w3.org/2000/svg" xmlns:xlink="http://www.w3.org/1999/xlink"><g><polygon points="   273.872,152 273.75,80 122,80 34.646,80 34,80 34,228 34.997,228 122,228 274,228  " style="fill:#288EEA;stroke:#000000;stroke-width:8;stroke-linecap:round;stroke-linejoin:round;stroke-miterlimit:10;"/><polygon points="   134,80 122,80 86,80 86,128 34,128 34,175.661 86,175.661 86,228 122,228 134,228 134,175.661 273.912,175.661 273.872,152    273.831,128 134,128  " style="fill:#FFFFFF;stroke:#000000;stroke-width:8;stroke-linecap:round;stroke-linejoin:round;stroke-miterlimit:10;"/><polygon points="   274,144 118,144 118,80 102,80 102,144 34,144 34,160 102,160 102,228 118,228 118,160 274,160  " style="fill:#EE5281;stroke:#000000;stroke-width:8;stroke-linecap:round;stroke-linejoin:round;stroke-miterlimit:10;"/></g><g/><g/><g/><g/><g/><g/><g/><g/><g/><g/><g/><g/><g/><g/><g/></svg>