<?xml version="1.0" ?><svg id="Kenya" style="enable-background:new 0 0 300 300;" version="1.1" viewBox="0 0 300 300" xml:space="preserve" xmlns="http://www.w3.org/2000/svg" xmlns:xlink="http://www.w3.org/1999/xlink"><g><polygon points="   34.081,122 34.321,186 273.879,186 273.708,122  " style="fill:#EE5281;stroke:#000000;stroke-width:8;stroke-linecap:round;stroke-linejoin:round;stroke-miterlimit:10;"/><polygon points="   34.433,230 273.919,230 273.879,206 34.377,206  " style="fill:#83D816;stroke:#000000;stroke-width:8;stroke-linecap:round;stroke-linejoin:round;stroke-miterlimit:10;"/><polygon points="   273.668,78 34.081,78 34.136,102 273.708,102  " style="stroke:#000000;stroke-width:8;stroke-linecap:round;stroke-linejoin:round;stroke-miterlimit:10;"/><polygon points="   273.668,102 34.081,102 34.136,122 273.708,122  " style="fill:#FEDA38;stroke:#000000;stroke-width:8;stroke-linecap:round;stroke-linejoin:round;stroke-miterlimit:10;"/><polygon points="   273.668,186 34.081,186 34.136,206 273.708,206  " style="fill:#FEDA38;stroke:#000000;stroke-width:8;stroke-linecap:round;stroke-linejoin:round;stroke-miterlimit:10;"/><line style="fill:none;stroke:#FFFFFF;stroke-width:8;stroke-linecap:round;stroke-linejoin:round;stroke-miterlimit:10;" x1="182.081" x2="129.081" y1="110" y2="206"/><line style="fill:none;stroke:#FFFFFF;stroke-width:8;stroke-linecap:round;stroke-linejoin:round;stroke-miterlimit:10;" x1="182.081" x2="129.081" y1="206" y2="110"/><path d="   M174.374,154.017c0-0.005-0.001-0.01-0.001-0.015c-0.012-16.104-20.276-46.935-20.276-46.935s-20.264,30.832-20.276,46.935   c0,0.005-0.001,0.01-0.001,0.015c0,16.1,20.277,46.95,20.277,46.95S174.374,170.117,174.374,154.017z" style="fill:#EE5281;stroke:#000000;stroke-width:8;stroke-linecap:round;stroke-linejoin:round;stroke-miterlimit:10;"/></g><g/><g/><g/><g/><g/><g/><g/><g/><g/><g/><g/><g/><g/><g/><g/></svg>