<?xml version="1.0" ?><svg id="Cambodia" style="enable-background:new 0 0 300 300;" version="1.1" viewBox="0 0 300 300" xml:space="preserve" xmlns="http://www.w3.org/2000/svg" xmlns:xlink="http://www.w3.org/1999/xlink"><g><polygon points="   273.766,80 34,80 34.114,128 273.847,128  " style="fill:#288EEA;stroke:#000000;stroke-width:8;stroke-linecap:round;stroke-linejoin:round;stroke-miterlimit:10;"/><polygon points="   274,128 273.831,128 273.919,180 274,180  " style="fill:#288EEA;stroke:#000000;stroke-width:8;stroke-linecap:round;stroke-linejoin:round;stroke-miterlimit:10;"/><polygon points="   34.148,228 273.813,228 273.732,180 34.034,180  " style="fill:#288EEA;stroke:#000000;stroke-width:8;stroke-linecap:round;stroke-linejoin:round;stroke-miterlimit:10;"/><polygon points="   34.013,116 34.137,192 273.834,192 273.746,116  " style="fill:#EE5281;stroke:#000000;stroke-width:8;stroke-linecap:round;stroke-linejoin:round;stroke-miterlimit:10;"/><path d="   M176.893,145.436c0,0-3.362-13.446-6.723-10.085c-3.362,3.362-3.362,10.085-3.362,10.085h-10.085   c-3.362-20.169-10.085-20.169-13.446,0h-10.085c0,0,0-6.723-3.362-10.085c-3.362-3.362-6.723,10.085-6.723,10.085l-10.085,30.254   H150h36.977L176.893,145.436z" style="fill:#FFFFFF;stroke:#000000;stroke-width:8;stroke-linecap:round;stroke-linejoin:round;stroke-miterlimit:10;"/></g><g/><g/><g/><g/><g/><g/><g/><g/><g/><g/><g/><g/><g/><g/><g/></svg>