<?xml version="1.0" ?><svg id="Kiribati" style="enable-background:new 0 0 300 300;" version="1.1" viewBox="0 0 300 300" xml:space="preserve" xmlns="http://www.w3.org/2000/svg" xmlns:xlink="http://www.w3.org/1999/xlink"><g><rect height="168" style="fill:#EE5281;stroke:#000000;stroke-width:8;stroke-linecap:round;stroke-linejoin:round;stroke-miterlimit:10;" width="240" x="34" y="70"/><circle cx="154" cy="150" r="36" style="fill:#FEDA38;stroke:#000000;stroke-width:8;stroke-linecap:round;stroke-linejoin:round;stroke-miterlimit:10;"/><path d="   M274,157.235c-4.731,1.589-9.006,3.953-12.254,6.79c-15.118,13.203-29.803,16.974-51.522-1.877   c-18.34-15.918-35.967-5.082-49.842,3.538c-15.182,9.431-31.259,10.803-47.783-3.538c-13.514-11.729-34.103-7.163-44.454,1.877   C57.44,173.376,46.929,177.917,34,173.106v26.732c12.929,4.811,23.44,0.27,34.146-9.081c10.35-9.04,30.94-13.606,44.454-1.877   c16.523,14.342,32.601,12.969,47.783,3.538c13.875-8.619,31.501-19.456,49.842-3.538c21.719,18.851,36.404,15.081,51.522,1.877   c3.249-2.838,7.524-5.202,12.254-6.79V157.235z" style="fill:#FFFFFF;stroke:#000000;stroke-width:8;stroke-linecap:round;stroke-linejoin:round;stroke-miterlimit:10;"/><path d="   M274,173.943c-4.731,1.589-9.006,3.953-12.254,6.79c-15.118,13.203-29.803,16.974-51.522-1.877   c-18.34-15.918-35.967-5.082-49.842,3.538c-15.182,9.431-31.259,10.803-47.783-3.538c-13.514-11.729-34.103-7.163-44.454,1.877   C57.44,190.084,46.929,194.625,34,189.814v26.732c12.929,4.811,23.44,0.27,34.146-9.081c10.35-9.04,30.94-13.606,44.454-1.877   c16.523,14.342,32.601,12.969,47.783,3.538c13.875-8.619,31.501-19.456,49.842-3.538c21.719,18.851,36.404,15.081,51.522,1.877   c3.249-2.838,7.524-5.202,12.254-6.79V173.943z" style="fill:#288EEA;stroke:#000000;stroke-width:8;stroke-linecap:round;stroke-linejoin:round;stroke-miterlimit:10;"/><path d="   M274,190.651c-4.731,1.589-9.006,3.953-12.254,6.79c-15.118,13.203-29.803,16.974-51.522-1.877   c-18.34-15.918-35.967-5.082-49.842,3.538c-15.182,9.431-31.259,10.804-47.783-3.538c-13.514-11.729-34.103-7.163-44.454,1.877   C57.44,206.792,46.929,211.333,34,206.522v22.365h28.111c2.015-1.388,4.022-2.955,6.035-4.713   c10.35-9.04,30.94-13.606,44.454-1.877c3.206,2.783,6.394,4.944,9.563,6.59h32.586c1.89-0.897,3.77-1.895,5.634-3.052   c13.875-8.619,31.501-19.456,49.842-3.538c3.067,2.663,5.975,4.806,8.78,6.59h36.708c2.015-1.388,4.022-2.955,6.035-4.713   c3.249-2.838,7.524-5.202,12.254-6.79V190.651z" style="fill:#FFFFFF;stroke:#000000;stroke-width:8;stroke-linecap:round;stroke-linejoin:round;stroke-miterlimit:10;"/><path d="   M274,238v-13.67v-16.972c-4.731,1.589-9.006,3.953-12.254,6.79c-15.118,13.203-29.803,16.974-51.522-1.877   c-18.34-15.918-35.967-5.082-49.842,3.538c-15.182,9.431-31.259,10.804-47.783-3.538c-13.514-11.729-34.103-7.163-44.454,1.877   C57.44,223.499,46.929,228.04,34,223.229v9.974V238H274z" style="fill:#288EEA;stroke:#000000;stroke-width:8;stroke-linecap:round;stroke-linejoin:round;stroke-miterlimit:10;"/></g><g/><g/><g/><g/><g/><g/><g/><g/><g/><g/><g/><g/><g/><g/><g/></svg>