<?xml version="1.0" encoding="UTF-8"?>
<svg width="248px" height="156px" viewBox="0 0 248 156" xmlns="http://www.w3.org/2000/svg" xmlns:xlink="http://www.w3.org/1999/xlink" version="1.1">
 <!-- Generated by Pixelmator Pro 1.7 -->
 <g id="group">
  <path id="Путь" d="M243.822 52 L243.924 52 243.842 4 4.076 4 4.191 52 4.089 52 4.211 104 4.111 104 4.225 152 243.89 152 243.81 105 243.911 105 Z" fill="#ffffff" fill-opacity="1" stroke="#000000" stroke-width="8" stroke-opacity="1" stroke-linejoin="round"/>
  <path id="Путь-1" d="M138.491 72.092 C138.491 72.092 129.476 71.272 125.378 77.829 121.28 84.386 116.363 86.844 116.363 86.844 93.779 92.759 89.54 77.507 89.296 66.316 87.465 70.749 86.449 75.603 86.449 80.697 86.449 101.518 103.328 118.397 124.149 118.397 138.309 118.397 150.639 110.586 157.083 99.042 161.204 71.388 138.491 72.092 138.491 72.092 Z" fill="#26bbec" fill-opacity="1" stroke="#000000" stroke-width="8" stroke-opacity="1" stroke-linejoin="round"/>
  <path id="Путь-2" d="M124.149 42.997 C108.422 42.997 94.949 52.631 89.296 66.316 89.541 77.507 93.78 92.759 116.363 86.844 116.363 86.844 121.28 84.385 125.378 77.829 129.476 71.272 138.491 72.092 138.491 72.092 138.491 72.092 161.204 71.388 157.083 99.042 160.114 93.611 161.849 87.358 161.849 80.697 161.849 59.876 144.97 42.997 124.149 42.997 Z" fill="#ee5281" fill-opacity="1" stroke="#000000" stroke-width="8" stroke-opacity="1" stroke-linejoin="round"/>
  <path id="Путь-3" d="M62.801 57.437 L79.268 32.617" fill="none" stroke="#000000" stroke-width="8" stroke-opacity="1" stroke-linejoin="round"/>
  <path id="Путь-4" d="M49.691 50.304 L66.158 25.483" fill="none" stroke="#000000" stroke-width="8" stroke-opacity="1" stroke-linejoin="round"/>
  <path id="Путь-5" d="M182.801 133.437 L199.268 108.617" fill="none" stroke="#000000" stroke-width="8" stroke-opacity="1" stroke-linejoin="round"/>
  <path id="Путь-6" d="M169.691 126.304 L186.158 101.483" fill="none" stroke="#000000" stroke-width="8" stroke-opacity="1" stroke-linejoin="round"/>
  <path id="Путь-7" d="M62.801 101.483 L79.268 126.304" fill="none" stroke="#000000" stroke-width="8" stroke-opacity="1" stroke-linejoin="round"/>
  <path id="Путь-8" d="M49.691 108.617 L66.158 133.437" fill="none" stroke="#000000" stroke-width="8" stroke-opacity="1" stroke-linejoin="round"/>
  <path id="Путь-9" d="M182.801 25.483 L199.268 50.304" fill="none" stroke="#000000" stroke-width="8" stroke-opacity="1" stroke-linejoin="round"/>
  <path id="Путь-10" d="M169.691 32.617 L186.158 57.437" fill="none" stroke="#000000" stroke-width="8" stroke-opacity="1" stroke-linejoin="round"/>
 </g>
 <g id="group-1"/>
 <g id="group-2"/>
 <g id="group-3"/>
 <g id="group-4"/>
 <g id="group-5"/>
 <g id="group-6"/>
 <g id="group-7"/>
 <g id="group-8"/>
 <g id="group-9"/>
 <g id="group-10"/>
 <g id="group-11"/>
 <g id="group-12"/>
 <g id="group-13"/>
 <g id="group-14"/>
 <g id="group-15"/>
</svg>
