<?xml version="1.0" ?><svg id="Cayman_x5F_Islands" style="enable-background:new 0 0 300 300;" version="1.1" viewBox="0 0 300 300" xml:space="preserve" xmlns="http://www.w3.org/2000/svg" xmlns:xlink="http://www.w3.org/1999/xlink"><g><polygon points="   273.749,80 34,80 34.352,228 274,228  " style="fill:#288EEA;stroke:#000000;stroke-width:8;stroke-linecap:round;stroke-linejoin:round;stroke-miterlimit:10;"/><path d="   M217.266,167.534v15.446c0,0,5.149,11.585,16.734,15.446c0,0,11.585-3.862,16.734-14.159v-16.734H217.266z" style="fill:#FFFFFF;stroke:#000000;stroke-width:8;stroke-linecap:round;stroke-linejoin:round;stroke-miterlimit:10;"/><rect height="16.734" style="fill:#EE5281;stroke:#000000;stroke-width:8;stroke-linecap:round;stroke-linejoin:round;stroke-miterlimit:10;" width="33.467" x="217.266" y="151.534"/><polygon points="   194,96 138,96 138,80 90,80 90,96 38,96 38,148 90,148 90,168 138,168 138,148 194,148  " style="fill:#FFFFFF;stroke:#000000;stroke-width:8;stroke-linecap:round;stroke-linejoin:round;stroke-miterlimit:10;"/><polygon points="49.796,168 194,86.803 194,80    177.373,80 38,158.99 38.021,168  " style="fill:#EE5281;stroke:#000000;stroke-width:8;stroke-miterlimit:10;"/><polygon points="194,168 194,161.403 49.43,80    38.022,80 38,89.216 177.01,168  " style="fill:#EE5281;stroke:#000000;stroke-width:8;stroke-miterlimit:10;"/><rect height="12" style="fill:#EE5281;stroke:#000000;stroke-width:8;stroke-linecap:round;stroke-linejoin:round;stroke-miterlimit:10;" width="156" x="38" y="116"/><rect height="87.794" style="fill:#EE5281;stroke:#000000;stroke-width:8;stroke-linecap:round;stroke-linejoin:round;stroke-miterlimit:10;" width="16" x="106" y="80.206"/></g><g/><g/><g/><g/><g/><g/><g/><g/><g/><g/><g/><g/><g/><g/><g/></svg>