<?xml version="1.0" encoding="UTF-8" standalone="no"?><!-- Generator: Gravit.io --><svg xmlns="http://www.w3.org/2000/svg" xmlns:xlink="http://www.w3.org/1999/xlink" style="isolation:isolate" viewBox="0 0 800 800" width="800pt" height="800pt"><defs><clipPath id="_clipPath_PdcEqsNkEOdCY9RePAPLwXrfmoJ1XaqU"><rect width="800" height="800"/></clipPath></defs><g clip-path="url(#_clipPath_PdcEqsNkEOdCY9RePAPLwXrfmoJ1XaqU)"><path d=" M 114.682 268.241 L 98.82 286.446 L 114.682 304.652 L 130.544 286.446 L 114.682 268.241 Z " fill="rgb(61,180,234)"/><path d=" M 114.682 343.938 L 98.82 362.144 L 114.682 380.349 L 130.544 362.144 L 114.682 343.938 Z " fill="rgb(61,180,234)"/><path d=" M 114.682 495.334 L 98.82 513.543 L 114.682 531.751 L 130.544 513.543 L 114.682 495.334 Z " fill="rgb(61,180,234)"/><path d=" M 114.682 419.632 L 98.82 437.839 L 114.682 456.047 L 130.544 437.839 L 114.682 419.632 Z " fill="rgb(61,180,234)"/><path d=" M 644.161 659.064 L 644.161 658.064 C 644.161 651.501 638.821 646.161 632.258 646.161 L 24.807 646.161 L 24.807 153.839 L 775.194 153.839 L 775.194 646.161 L 683.872 646.161 C 677.309 646.161 671.969 651.501 671.969 658.064 L 671.969 659.064 L 644.161 659.064 L 644.161 659.064 Z  M 138.681 597.066 C 140.943 599.663 144.216 601.152 147.661 601.152 C 150.533 601.152 153.308 600.112 155.475 598.224 C 160.424 593.911 160.943 586.377 156.632 581.429 L 130.468 551.397 L 156.632 521.364 C 160.515 516.907 160.515 510.184 156.632 505.727 L 130.468 475.693 L 156.632 445.658 C 160.515 441.201 160.514 434.478 156.63 430.021 L 130.468 399.993 L 156.63 369.965 C 160.515 365.507 160.516 358.784 156.632 354.325 L 130.468 324.295 L 156.632 294.265 C 160.516 289.807 160.515 283.083 156.63 278.626 L 130.468 248.594 L 156.63 218.566 C 160.941 213.616 160.423 206.082 155.475 201.771 C 153.307 199.881 150.532 198.841 147.66 198.841 C 144.215 198.841 140.943 200.33 138.683 202.926 L 114.681 230.474 L 90.679 202.926 C 88.418 200.33 85.146 198.842 81.7 198.842 C 78.828 198.842 76.054 199.882 73.887 201.771 C 71.489 203.86 70.048 206.758 69.829 209.93 C 69.61 213.102 70.642 216.169 72.731 218.566 L 98.893 248.594 L 72.73 278.623 C 68.846 283.081 68.845 289.805 72.728 294.263 L 98.892 324.293 L 72.728 354.323 C 68.845 358.781 68.846 365.505 72.73 369.963 L 98.892 399.991 L 72.73 430.019 C 68.846 434.476 68.845 441.199 72.728 445.656 L 98.892 475.691 L 72.728 505.724 C 68.846 510.181 68.846 516.904 72.728 521.363 L 98.892 551.395 L 72.728 581.43 C 68.418 586.379 68.937 593.913 73.885 598.225 C 76.053 600.113 78.829 601.153 81.699 601.153 C 85.144 601.153 88.417 599.664 90.679 597.067 L 114.679 569.518 L 138.681 597.066 L 138.681 597.066 Z  M 575.971 334.667 C 569.408 334.667 564.068 340.007 564.068 346.57 C 564.068 399.406 521.083 442.391 468.247 442.391 C 464.41 442.391 460.789 444.254 458.56 447.376 L 417.394 505.009 C 413.579 510.349 414.82 517.798 420.16 521.613 C 422.194 523.063 424.583 523.83 427.068 523.83 C 430.911 523.83 434.536 521.967 436.765 518.845 L 474.485 466.036 L 474.964 466.01 C 516.48 463.699 553.233 440.415 573.279 403.723 L 573.564 403.202 L 619.588 403.202 C 626.151 403.202 631.491 397.862 631.491 391.299 C 631.491 384.736 626.151 379.396 619.588 379.396 L 583.265 379.396 L 583.611 378.132 C 585.304 371.951 586.503 365.637 587.173 359.365 L 587.269 358.471 L 655.718 358.471 C 662.282 358.471 667.623 353.132 667.623 346.57 C 667.623 340.007 662.283 334.667 655.72 334.667 L 575.971 334.667 L 575.971 334.667 Z  M 316.898 379.396 C 310.335 379.396 304.995 384.736 304.995 391.299 C 304.995 397.862 310.335 403.202 316.898 403.202 L 362.929 403.204 L 363.213 403.725 C 375.567 426.405 395.238 444.771 418.603 455.439 C 420.167 456.156 421.828 456.519 423.539 456.519 C 428.19 456.519 432.443 453.787 434.374 449.557 C 435.695 446.663 435.812 443.43 434.7 440.451 C 433.589 437.472 431.384 435.104 428.491 433.785 C 394.429 418.23 372.421 383.996 372.421 346.567 C 372.421 340.004 367.081 334.664 360.518 334.664 L 280.769 334.664 C 274.206 334.664 268.866 340.004 268.866 346.567 C 268.866 353.13 274.206 358.47 280.769 358.47 L 349.212 358.47 L 349.309 359.363 C 349.987 365.629 351.194 371.943 352.896 378.13 L 353.244 379.395 L 316.898 379.395 L 316.898 379.396 Z  M 468.244 276.171 C 429.427 276.171 397.847 307.751 397.847 346.568 C 397.847 385.386 429.427 416.966 468.244 416.966 C 507.061 416.966 538.642 385.385 538.642 346.568 C 538.643 307.751 507.062 276.171 468.244 276.171 Z " fill="rgb(61,180,234)"/><path d=" M 683.871 645.161 L 774.193 645.161 L 774.193 154.839 L 25.807 154.839 L 25.807 645.161 L 632.258 645.161 C 639.386 645.161 645.161 650.938 645.161 658.064 L 670.968 658.064 C 670.968 650.938 676.743 645.161 683.871 645.161 Z  M 468.244 275.171 C 507.613 275.171 539.642 307.2 539.642 346.568 C 539.642 385.937 507.613 417.966 468.244 417.966 C 428.876 417.966 396.847 385.936 396.847 346.568 C 396.847 307.2 428.876 275.171 468.244 275.171 Z  M 157.387 580.772 C 162.068 586.145 161.507 594.294 156.133 598.978 C 153.688 601.108 150.667 602.152 147.662 602.152 C 144.061 602.152 140.479 600.653 137.928 597.723 L 114.682 571.039 L 91.435 597.723 C 88.884 600.652 85.302 602.152 81.701 602.152 C 78.694 602.152 75.676 601.108 73.23 598.978 C 67.857 594.296 67.296 586.147 71.976 580.772 L 97.567 551.394 L 71.976 522.018 C 67.744 517.159 67.744 509.924 71.976 505.066 L 97.567 475.69 L 71.976 446.312 C 67.744 441.454 67.744 434.219 71.978 429.361 L 97.567 399.989 L 71.978 370.618 C 67.744 365.759 67.744 358.523 71.976 353.665 L 97.567 324.292 L 71.976 294.919 C 67.744 290.061 67.744 282.825 71.978 277.966 L 97.567 248.595 L 71.978 219.224 C 67.295 213.851 67.855 205.702 73.23 201.018 C 78.601 196.336 86.754 196.897 91.434 202.27 L 114.683 228.952 L 137.931 202.27 C 142.611 196.894 150.764 196.336 156.135 201.018 C 161.508 205.699 162.069 213.849 157.387 219.224 L 131.798 248.595 L 157.387 277.97 C 161.621 282.828 161.621 290.065 157.389 294.923 L 131.798 324.296 L 157.389 353.669 C 161.621 358.527 161.621 365.764 157.387 370.622 L 131.798 399.993 L 157.387 429.364 C 161.621 434.222 161.621 441.457 157.389 446.315 L 131.798 475.693 L 157.389 505.07 C 161.621 509.928 161.621 517.163 157.389 522.021 L 131.798 551.397 L 157.387 580.772 L 157.387 580.772 Z  M 316.898 404.203 C 309.77 404.203 303.995 398.426 303.995 391.3 C 303.995 384.174 309.77 378.397 316.898 378.397 L 351.931 378.397 C 350.236 372.234 349.011 365.914 348.314 359.472 L 280.769 359.472 C 273.641 359.472 267.866 353.695 267.866 346.569 C 267.866 339.443 273.641 333.666 280.769 333.666 L 360.518 333.666 C 367.646 333.666 373.421 339.443 373.421 346.569 C 373.421 383.609 395.2 417.485 428.906 432.877 C 435.389 435.836 438.245 443.49 435.284 449.975 C 433.118 454.719 428.437 457.522 423.539 457.522 C 421.746 457.522 419.924 457.147 418.188 456.352 C 393.98 445.298 374.613 426.746 362.335 404.206 L 316.897 404.206 L 316.897 404.203 L 316.898 404.203 Z  M 655.718 359.472 L 588.167 359.472 C 587.476 365.948 586.256 372.265 584.576 378.397 L 619.589 378.397 C 626.717 378.397 632.492 384.174 632.492 391.3 C 632.492 398.426 626.717 404.203 619.589 404.203 L 574.157 404.203 C 554.694 439.826 517.809 464.628 475.019 467.009 L 437.578 519.427 C 435.06 522.952 431.094 524.831 427.067 524.831 C 424.471 524.831 421.852 524.05 419.578 522.428 C 413.78 518.285 412.437 510.227 416.58 504.429 L 457.746 446.796 C 460.167 443.404 464.079 441.392 468.246 441.392 C 520.531 441.392 563.067 398.854 563.067 346.571 C 563.067 339.445 568.842 333.668 575.97 333.668 L 655.719 333.668 C 662.847 333.668 668.622 339.445 668.622 346.571 C 668.622 353.697 662.844 359.472 655.718 359.472 Z " fill="rgb(61,180,234)"/><path d=" M 787.097 129.032 L 12.903 129.032 C 5.775 129.032 0 134.81 0 141.936 L 0 658.065 C 0 665.191 5.775 670.968 12.903 670.968 L 632.257 670.968 C 639.385 670.968 680 665.191 680 658.065 C 680 650.939 703.128 645.161 696 645.161 L 25.807 645.162 L 25.807 154.839 L 774.194 154.839 L 774.194 645.161 L 683.872 645.161 C 676.744 645.161 670.969 650.938 670.969 658.064 C 670.969 665.19 615.872 670.968 623 670.968 L 787.098 670.967 C 794.226 670.967 800.001 665.19 800.001 658.064 L 800.001 141.936 C 800 134.81 794.225 129.032 787.097 129.032 Z " fill="rgb(0,0,0)"/><path d=" M 468.244 417.967 C 507.613 417.967 539.642 385.937 539.642 346.569 C 539.642 307.201 507.613 275.172 468.244 275.172 C 428.876 275.172 396.847 307.201 396.847 346.569 C 396.847 385.937 428.876 417.967 468.244 417.967 Z " fill="rgb(255,224,0)"/><path d=" M 418.188 456.35 C 419.925 457.143 421.746 457.52 423.539 457.52 C 428.437 457.52 433.118 454.717 435.284 449.972 C 438.245 443.49 435.389 435.835 428.906 432.874 C 395.2 417.482 373.421 383.606 373.421 346.567 C 373.421 339.441 367.646 333.664 360.518 333.664 L 280.769 333.664 C 273.641 333.664 267.866 339.441 267.866 346.567 C 267.866 353.693 273.641 359.47 280.769 359.47 L 348.314 359.47 C 349.011 365.911 350.238 372.232 351.931 378.395 L 316.898 378.395 C 309.77 378.395 303.995 384.172 303.995 391.298 C 303.995 398.424 309.77 404.201 316.898 404.201 L 362.336 404.201 C 374.615 426.742 393.98 445.296 418.188 456.35 Z " fill="rgb(255,224,0)"/><path d=" M 655.718 333.666 L 575.969 333.666 C 568.841 333.666 563.066 339.443 563.066 346.569 C 563.066 398.855 520.529 441.39 468.245 441.39 C 464.078 441.39 460.168 443.404 457.745 446.794 L 416.579 504.427 C 412.436 510.227 413.78 518.284 419.578 522.426 C 421.85 524.05 424.471 524.829 427.066 524.829 C 431.094 524.829 435.059 522.95 437.577 519.426 L 475.018 467.007 C 517.809 464.626 554.691 439.824 574.156 404.201 L 619.588 404.201 C 626.716 404.201 632.491 398.424 632.491 391.298 C 632.491 384.172 626.716 378.395 619.588 378.395 L 584.575 378.395 C 586.255 372.263 587.474 365.946 588.166 359.47 L 655.717 359.47 C 662.845 359.47 668.62 353.693 668.62 346.567 C 668.62 339.441 662.844 333.666 655.718 333.666 Z " fill="rgb(255,224,0)"/><path d=" M 157.387 505.066 L 131.796 475.69 L 157.387 446.312 C 161.619 441.454 161.619 434.219 157.385 429.361 L 131.796 399.989 L 157.385 370.618 C 161.619 365.759 161.619 358.523 157.387 353.665 L 131.796 324.292 L 157.387 294.919 C 161.619 290.061 161.619 282.825 157.385 277.966 L 131.796 248.595 L 157.385 219.224 C 162.068 213.851 161.508 205.702 156.133 201.018 C 150.762 196.336 142.609 196.896 137.929 202.27 L 114.681 228.952 L 91.432 202.27 C 86.753 196.897 78.599 196.336 73.228 201.018 C 67.855 205.699 67.294 213.849 71.976 219.224 L 97.565 248.595 L 71.979 277.97 C 67.745 282.828 67.745 290.065 71.977 294.923 L 97.568 324.296 L 71.977 353.669 C 67.745 358.527 67.745 365.764 71.979 370.622 L 97.568 399.993 L 71.979 429.364 C 67.745 434.222 67.745 441.457 71.977 446.315 L 97.568 475.693 L 71.977 505.066 C 67.745 509.924 67.745 517.159 71.977 522.018 L 97.568 551.394 L 71.977 580.772 C 67.296 586.145 67.857 594.294 73.231 598.978 C 75.677 601.108 78.695 602.152 81.702 602.152 C 85.303 602.152 88.885 600.652 91.436 597.723 L 114.683 571.039 L 137.929 597.723 C 140.481 600.653 144.062 602.152 147.663 602.152 C 150.668 602.152 153.69 601.108 156.134 598.978 C 161.507 594.296 162.068 586.147 157.388 580.772 L 131.797 551.394 L 157.388 522.018 C 161.619 517.159 161.619 509.925 157.387 505.066 Z  M 98.82 286.446 L 114.682 268.24 L 130.544 286.446 L 114.682 304.652 L 98.82 286.446 L 98.82 286.446 Z  M 98.82 362.144 L 114.682 343.938 L 130.544 362.144 L 114.682 380.35 L 98.82 362.144 L 98.82 362.144 Z  M 98.82 437.839 L 114.682 419.634 L 130.544 437.839 L 114.682 456.047 L 98.82 437.839 L 98.82 437.839 Z  M 98.82 513.543 L 114.682 495.336 L 130.544 513.543 L 114.682 531.751 L 98.82 513.543 L 98.82 513.543 Z " fill="rgb(255,224,0)"/></g></svg>