<?xml version="1.0" ?><svg id="Liberia" style="enable-background:new 0 0 300 300;" version="1.1" viewBox="0 0 300 300" xml:space="preserve" xmlns="http://www.w3.org/2000/svg" xmlns:xlink="http://www.w3.org/1999/xlink"><g><polygon points="   273.749,84 34,84 34,224 274,224  " style="fill:#FFFFFF;stroke:#000000;stroke-width:8;stroke-linecap:round;stroke-linejoin:round;stroke-miterlimit:10;"/><rect height="179.999" style="fill:#EE5281;stroke:#000000;stroke-width:8;stroke-linecap:round;stroke-linejoin:round;stroke-miterlimit:10;" transform="matrix(6.548699e-11 1 -1 6.548699e-11 278.0013 -90)" width="19.999" x="174.001" y="4.001"/><rect height="179.999" style="fill:#EE5281;stroke:#000000;stroke-width:8;stroke-linecap:round;stroke-linejoin:round;stroke-miterlimit:10;" transform="matrix(6.548699e-11 1 -1 6.548699e-11 317.9984 -49.9995)" width="19.999" x="174" y="44"/><rect height="239.998" style="fill:#EE5281;stroke:#000000;stroke-width:8;stroke-linecap:round;stroke-linejoin:round;stroke-miterlimit:10;" transform="matrix(8.731664e-11 1 -1 8.731664e-11 328.0027 19.9998)" width="19.999" x="144.002" y="54.002"/><rect height="239.998" style="fill:#EE5281;stroke:#000000;stroke-width:8;stroke-linecap:round;stroke-linejoin:round;stroke-miterlimit:10;" transform="matrix(8.749872e-11 1 -1 8.749872e-11 367.9993 60.0008)" width="19.999" x="144" y="94.001"/><rect height="60" style="fill:#288EEA;stroke:#000000;stroke-width:8;stroke-linecap:round;stroke-linejoin:round;stroke-miterlimit:10;" transform="matrix(7.275774e-12 1 -1 7.275774e-12 177.9996 50.0004)" width="60" x="34" y="84"/><line style="fill:none;stroke:#FFFFFF;stroke-width:8;stroke-linecap:round;stroke-linejoin:round;stroke-miterlimit:10;" x1="62" x2="62" y1="104" y2="120"/><line style="fill:none;stroke:#FFFFFF;stroke-width:8;stroke-linecap:round;stroke-linejoin:round;stroke-miterlimit:10;" x1="54" x2="70" y1="112" y2="112"/></g><g/><g/><g/><g/><g/><g/><g/><g/><g/><g/><g/><g/><g/><g/><g/></svg>