<?xml version="1.0" ?><svg id="Macedonia" style="enable-background:new 0 0 300 300;" version="1.1" viewBox="0 0 300 300" xml:space="preserve" xmlns="http://www.w3.org/2000/svg" xmlns:xlink="http://www.w3.org/1999/xlink"><g><polygon points="   273.845,80 122.095,80 34.741,80 34.095,80 34.095,228 273.905,228  " style="fill:#EE5281;stroke:#000000;stroke-width:8;stroke-linecap:round;stroke-linejoin:round;stroke-miterlimit:10;"/><path d="   M158.095,124.67c2.855,0,5.608,0.415,8.236,1.131L178.822,80h-41.455l12.491,45.801C152.487,125.085,155.239,124.67,158.095,124.67   z" style="fill:#FEDA38;stroke:#000000;stroke-width:8;stroke-linecap:round;stroke-linejoin:round;stroke-miterlimit:10;"/><path d="M138.196,131.802L95.599,80H34.741h-0.646   v0.222l97.294,59.458C133.217,136.693,135.504,134.018,138.196,131.802z" style="fill:#FEDA38;stroke:#000000;stroke-width:8;stroke-miterlimit:10;"/><path d="   M126.765,156c0-1.663,0.167-3.284,0.417-4.877l-93.087-14.687v39.127l93.087-14.687C126.932,159.284,126.765,157.663,126.765,156z" style="fill:#FEDA38;stroke:#000000;stroke-width:8;stroke-linecap:round;stroke-linejoin:round;stroke-miterlimit:10;"/><path d="   M130.953,171.604l-96.859,55.685V228h61.487l41.991-48.363C134.943,177.352,132.703,174.641,130.953,171.604z" style="fill:#FEDA38;stroke:#000000;stroke-width:8;stroke-linecap:round;stroke-linejoin:round;stroke-miterlimit:10;"/><path d="   M158.095,187.33c-2.855,0-5.608-0.415-8.236-1.131L138.458,228h39.273l-11.4-41.801C163.703,186.915,160.95,187.33,158.095,187.33z   " style="fill:#FEDA38;stroke:#000000;stroke-width:8;stroke-linecap:round;stroke-linejoin:round;stroke-miterlimit:10;"/><path d="M273.905,226.773l-89.104-54.453   c-1.829,2.986-4.116,5.662-6.807,7.878L217.301,228h56.604L273.905,226.773z" style="fill:#FEDA38;stroke:#000000;stroke-width:8;stroke-miterlimit:10;"/><path d="   M189.425,156c0,1.663-0.167,3.284-0.417,4.877l84.876,13.391l-0.015-36.534l-84.861,13.389   C189.257,152.716,189.425,154.337,189.425,156z" style="fill:#FEDA38;stroke:#000000;stroke-width:8;stroke-linecap:round;stroke-linejoin:round;stroke-miterlimit:10;"/><path d="   M185.236,140.396l88.612-50.944L273.845,80h-49.764l-45.464,52.363C181.246,134.648,183.486,137.359,185.236,140.396z" style="fill:#FEDA38;stroke:#000000;stroke-width:8;stroke-linecap:round;stroke-linejoin:round;stroke-miterlimit:10;"/><circle cx="158.095" cy="156" r="18.549" style="fill:#FEDA38;stroke:#000000;stroke-width:8;stroke-linecap:round;stroke-linejoin:round;stroke-miterlimit:10;"/></g><g/><g/><g/><g/><g/><g/><g/><g/><g/><g/><g/><g/><g/><g/><g/></svg>