<?xml version="1.0" encoding="UTF-8"?>
<svg width="248px" height="160px" viewBox="0 0 248 160" xmlns="http://www.w3.org/2000/svg" xmlns:xlink="http://www.w3.org/1999/xlink" version="1.1">
 <!-- Generated by Pixelmator Pro 1.7 -->
 <g id="group">
  <path id="Путь" d="M243.624 25.76 L50.769 156 243.839 156 Z" fill="#83d816" fill-opacity="1" stroke="#000000" stroke-width="8" stroke-opacity="1" stroke-linejoin="round"/>
  <path id="Путь-1" d="M198.341 4 L4 4 4.303 134.712 Z" fill="#288eea" fill-opacity="1" stroke="#000000" stroke-width="8" stroke-opacity="1" stroke-linejoin="round"/>
  <path id="Путь-2" d="M243.968 34.214 L244 4 185.708 4 4.094 126.649 4 156 63.631 156 Z" fill="#feda38" fill-opacity="1" stroke="#000000" stroke-width="8" stroke-opacity="1" stroke-linejoin="round"/>
  <path id="Путь-3" d="M4.836 156 L33.545 156 243.605 14.142 243.588 4 215.564 4 4.813 146.325 Z" fill="#ee5281" fill-opacity="1" stroke="#000000" stroke-width="8" stroke-opacity="1" stroke-linejoin="round"/>
  <path id="Путь-4" d="M64.441 42 C64.441 52.037 56.304 60.174 46.267 60.174 36.23 60.174 28.093 52.037 28.093 42 28.093 31.963 36.23 23.826 46.267 23.826 56.304 23.826 64.441 31.963 64.441 42 Z" fill="#feda38" fill-opacity="1" stroke="#000000" stroke-width="8" stroke-opacity="1" stroke-linejoin="round"/>
 </g>
 <g id="group-1"/>
 <g id="group-2"/>
 <g id="group-3"/>
 <g id="group-4"/>
 <g id="group-5"/>
 <g id="group-6"/>
 <g id="group-7"/>
 <g id="group-8"/>
 <g id="group-9"/>
 <g id="group-10"/>
 <g id="group-11"/>
 <g id="group-12"/>
 <g id="group-13"/>
 <g id="group-14"/>
 <g id="group-15"/>
</svg>
