<?xml version="1.0" ?><svg id="Panama" style="enable-background:new 0 0 300 300;" version="1.1" viewBox="0 0 300 300" xml:space="preserve" xmlns="http://www.w3.org/2000/svg" xmlns:xlink="http://www.w3.org/1999/xlink"><g><polygon points="   273.871,154 154.083,154 154.083,230 273.896,230 273.815,194 273.917,194  " style="fill:#FFFFFF;stroke:#000000;stroke-width:8;stroke-linecap:round;stroke-linejoin:round;stroke-miterlimit:10;"/><polygon points="   34.121,154 34.186,194 34.083,194 34.198,230 154.08,230 154.08,154  " style="fill:#26BBEC;stroke:#000000;stroke-width:8;stroke-linecap:round;stroke-linejoin:round;stroke-miterlimit:10;"/><polygon points="   215.223,204.027 227.808,210.55 225.33,196.593 235.423,186.64 221.383,184.683 215.036,172.009 208.837,184.756 194.822,186.876    205.03,196.711 202.715,210.696  " style="fill:#EE5281;stroke:#000000;stroke-width:8;stroke-linecap:round;stroke-linejoin:round;stroke-miterlimit:10;"/><polygon points="   34.129,78 154.614,78 154.614,154 34.104,154 34.185,118 34.083,118  " style="fill:#FFFFFF;stroke:#000000;stroke-width:8;stroke-linecap:round;stroke-linejoin:round;stroke-miterlimit:10;"/><polygon points="   273.879,78 273.814,118 273.917,118 273.802,154 154.083,154 154.083,78  " style="fill:#EE5281;stroke:#000000;stroke-width:8;stroke-linecap:round;stroke-linejoin:round;stroke-miterlimit:10;"/><polygon points="   93.473,128.027 80.889,134.55 83.366,120.593 73.274,110.64 87.313,108.683 93.66,96.009 99.859,108.756 113.875,110.876    103.667,120.711 105.981,134.696  " style="fill:#26BBEC;stroke:#000000;stroke-width:8;stroke-linecap:round;stroke-linejoin:round;stroke-miterlimit:10;"/></g><g/><g/><g/><g/><g/><g/><g/><g/><g/><g/><g/><g/><g/><g/><g/></svg>