<?xml version="1.0" encoding="UTF-8"?>
<svg width="248px" height="160px" viewBox="0 0 248 160" xmlns="http://www.w3.org/2000/svg" xmlns:xlink="http://www.w3.org/1999/xlink" version="1.1">
 <!-- Generated by Pixelmator Pro 1.7 -->
 <g id="group">
  <path id="Путь" d="M243.871 80 L124.083 80 124.083 156 243.896 156 243.815 120 243.917 120 Z" fill="#ffffff" fill-opacity="1" stroke="#000000" stroke-width="8" stroke-opacity="1" stroke-linejoin="round"/>
  <path id="Путь-1" d="M4.121 80 L4.186 120 4.083 120 4.198 156 124.08 156 124.08 80 Z" fill="#26bbec" fill-opacity="1" stroke="#000000" stroke-width="8" stroke-opacity="1" stroke-linejoin="round"/>
  <path id="Путь-2" d="M185.223 130.027 L197.808 136.55 195.33 122.593 205.423 112.64 191.383 110.683 185.036 98.009 178.837 110.756 164.822 112.876 175.03 122.711 172.715 136.696 Z" fill="#ee5281" fill-opacity="1" stroke="#000000" stroke-width="8" stroke-opacity="1" stroke-linejoin="round"/>
  <path id="Путь-3" d="M4.129 4 L124.614 4 124.614 80 4.104 80 4.185 44 4.083 44 Z" fill="#ffffff" fill-opacity="1" stroke="#000000" stroke-width="8" stroke-opacity="1" stroke-linejoin="round"/>
  <path id="Путь-4" d="M243.879 4 L243.814 44 243.917 44 243.802 80 124.083 80 124.083 4 Z" fill="#ee5281" fill-opacity="1" stroke="#000000" stroke-width="8" stroke-opacity="1" stroke-linejoin="round"/>
  <path id="Путь-5" d="M63.473 54.027 L50.889 60.55 53.366 46.593 43.274 36.64 57.313 34.683 63.66 22.009 69.859 34.756 83.875 36.876 73.667 46.711 75.981 60.696 Z" fill="#26bbec" fill-opacity="1" stroke="#000000" stroke-width="8" stroke-opacity="1" stroke-linejoin="round"/>
 </g>
 <g id="group-1"/>
 <g id="group-2"/>
 <g id="group-3"/>
 <g id="group-4"/>
 <g id="group-5"/>
 <g id="group-6"/>
 <g id="group-7"/>
 <g id="group-8"/>
 <g id="group-9"/>
 <g id="group-10"/>
 <g id="group-11"/>
 <g id="group-12"/>
 <g id="group-13"/>
 <g id="group-14"/>
 <g id="group-15"/>
</svg>
