<?xml version="1.0" encoding="UTF-8"?>
<svg width="248px" height="160px" viewBox="0 0 248 160" xmlns="http://www.w3.org/2000/svg" xmlns:xlink="http://www.w3.org/1999/xlink" version="1.1">
 <!-- Generated by Pixelmator Pro 1.7 -->
 <g id="group">
  <path id="Путь" d="M243.705 25.76 L243.669 4 234.845 4 16.316 156 50.459 156 243.919 156 Z" fill="#83d816" fill-opacity="1" stroke="#000000" stroke-width="8" stroke-opacity="1" stroke-linejoin="round"/>
  <path id="Путь-1" d="M198.329 4 L4.081 4 4.383 134.712 4.432 156 16.316 156 234.845 4 Z" fill="#288eea" fill-opacity="1" stroke="#000000" stroke-width="8" stroke-opacity="1" stroke-linejoin="round"/>
  <path id="Путь-2" d="M4.432 156 L33.2 156 243.685 14.142 243.669 4 215.587 4 4.41 146.325 Z" fill="#feda38" fill-opacity="1" stroke="#000000" stroke-width="8" stroke-opacity="1" stroke-linejoin="round"/>
  <path id="Путь-3" d="M83.757 28 L83.757 44" fill="none" stroke="#ffffff" stroke-width="8" stroke-opacity="1" stroke-linejoin="round"/>
  <path id="Путь-4" d="M75.741 36 L91.773 36" fill="none" stroke="#ffffff" stroke-width="8" stroke-opacity="1" stroke-linejoin="round"/>
  <path id="Путь-5" d="M35.66 28 L35.66 44" fill="none" stroke="#ffffff" stroke-width="8" stroke-opacity="1" stroke-linejoin="round"/>
  <path id="Путь-6" d="M27.644 36 L43.676 36" fill="none" stroke="#ffffff" stroke-width="8" stroke-opacity="1" stroke-linejoin="round"/>
  <path id="Путь-7" d="M59.708 60 L59.708 76" fill="none" stroke="#ffffff" stroke-width="8" stroke-opacity="1" stroke-linejoin="round"/>
  <path id="Путь-8" d="M51.692 68 L67.725 68" fill="none" stroke="#ffffff" stroke-width="8" stroke-opacity="1" stroke-linejoin="round"/>
 </g>
 <g id="group-1"/>
 <g id="group-2"/>
 <g id="group-3"/>
 <g id="group-4"/>
 <g id="group-5"/>
 <g id="group-6"/>
 <g id="group-7"/>
 <g id="group-8"/>
 <g id="group-9"/>
 <g id="group-10"/>
 <g id="group-11"/>
 <g id="group-12"/>
 <g id="group-13"/>
 <g id="group-14"/>
 <g id="group-15"/>
</svg>
