<?xml version="1.0" ?><svg id="Seychelles" style="enable-background:new 0 0 300 300;" version="1.1" viewBox="0 0 300 300" xml:space="preserve" xmlns="http://www.w3.org/2000/svg" xmlns:xlink="http://www.w3.org/1999/xlink"><g><rect height="148" style="fill:#288EEA;stroke:#000000;stroke-width:8;stroke-linecap:round;stroke-linejoin:round;stroke-miterlimit:10;" width="240" x="33" y="80"/><polygon points="31,226 33.892,225.512 33.891,224.9  " style="fill:none;"/><polygon points="33,228 33.895,227.162 33.894,226.428  " style="fill:none;"/><polygon points="   272.841,134.032 272.75,80 216.596,80 193.646,80 191.091,80 37,224  " style="fill:#EE5281;stroke:#000000;stroke-width:8;stroke-linecap:round;stroke-linejoin:round;stroke-miterlimit:10;"/><polygon points="35.001,224.479 34.469,225.415 36.045,225.148 37.966,223.351  " style="fill:#EE5281;"/><polygon points="   36.045,225.148 272.928,185.193 272.841,134.032 37.966,223.351  " style="fill:#FFFFFF;stroke:#000000;stroke-width:8;stroke-linecap:round;stroke-linejoin:round;stroke-miterlimit:10;"/><polygon points="   37.966,223.351 191.091,80 117.091,80 35.001,224.479  " style="fill:#FEDA38;stroke:#000000;stroke-width:8;stroke-linecap:round;stroke-linejoin:round;stroke-miterlimit:10;"/><polygon points="34.469,225.415 33.894,226.428 33.895,227.162 36.045,225.148  " style="fill:#EE5281;"/><polygon points="   36.045,225.148 33.895,227.162 33.896,228 89.404,228 113,228 193.896,228 217,228 273,228 272.928,185.193 189.844,199.207  " style="fill:#83D816;stroke:#000000;stroke-width:8;stroke-linecap:round;stroke-linejoin:round;stroke-miterlimit:10;"/></g><g/><g/><g/><g/><g/><g/><g/><g/><g/><g/><g/><g/><g/><g/><g/></svg>