<?xml version="1.0" encoding="UTF-8"?>
<svg width="248px" height="156px" viewBox="0 0 248 156" xmlns="http://www.w3.org/2000/svg" xmlns:xlink="http://www.w3.org/1999/xlink" version="1.1">
 <!-- Generated by Pixelmator Pro 1.7 -->
 <g id="group">
  <path id="Путь" d="M4 4 L244 4 244 152 4 152 Z" fill="#288eea" fill-opacity="1" stroke="#000000" stroke-width="8" stroke-opacity="1" stroke-linejoin="round"/>
  <path id="Путь-1" d="M2 150 L4.892 149.512 4.891 148.9 Z" fill="none" stroke="none"/>
  <path id="Путь-2" d="M4 152 L4.895 151.162 4.894 150.428 Z" fill="none" stroke="none"/>
  <path id="Путь-3" d="M243.841 58.032 L243.75 4 187.596 4 164.646 4 162.091 4 8 148 Z" fill="#ee5281" fill-opacity="1" stroke="#000000" stroke-width="8" stroke-opacity="1" stroke-linejoin="round"/>
  <path id="Путь-4" d="M6.001 148.479 L5.469 149.415 7.045 149.148 8.966 147.351 Z" fill="#ee5281" fill-opacity="1" stroke="none"/>
  <path id="Путь-5" d="M7.045 149.148 L243.928 109.193 243.841 58.032 8.966 147.351 Z" fill="#ffffff" fill-opacity="1" stroke="#000000" stroke-width="8" stroke-opacity="1" stroke-linejoin="round"/>
  <path id="Путь-6" d="M8.966 147.351 L162.091 4 88.091 4 6.001 148.479 Z" fill="#feda38" fill-opacity="1" stroke="#000000" stroke-width="8" stroke-opacity="1" stroke-linejoin="round"/>
  <path id="Путь-7" d="M5.469 149.415 L4.894 150.428 4.895 151.162 7.045 149.148 Z" fill="#ee5281" fill-opacity="1" stroke="none"/>
  <path id="Путь-8" d="M7.045 149.148 L4.895 151.162 4.896 152 60.404 152 84 152 164.896 152 188 152 244 152 243.928 109.193 160.844 123.207 Z" fill="#83d816" fill-opacity="1" stroke="#000000" stroke-width="8" stroke-opacity="1" stroke-linejoin="round"/>
 </g>
 <g id="group-1"/>
 <g id="group-2"/>
 <g id="group-3"/>
 <g id="group-4"/>
 <g id="group-5"/>
 <g id="group-6"/>
 <g id="group-7"/>
 <g id="group-8"/>
 <g id="group-9"/>
 <g id="group-10"/>
 <g id="group-11"/>
 <g id="group-12"/>
 <g id="group-13"/>
 <g id="group-14"/>
 <g id="group-15"/>
</svg>
