<?xml version="1.0" encoding="UTF-8"?>
<svg width="248px" height="156px" viewBox="0 0 248 156" xmlns="http://www.w3.org/2000/svg" xmlns:xlink="http://www.w3.org/1999/xlink" version="1.1">
 <!-- Generated by Pixelmator Pro 1.7 -->
 <g id="group">
  <path id="Путь" d="M243.842 4 L4.076 4 4.19 52 243.924 52 Z" fill="#ffffff" fill-opacity="1" stroke="#000000" stroke-width="8" stroke-opacity="1" stroke-linejoin="round"/>
  <path id="Путь-1" d="M4.076 52 L4.2 105 243.911 105 243.822 52 Z" fill="#288eea" fill-opacity="1" stroke="#000000" stroke-width="8" stroke-opacity="1" stroke-linejoin="round"/>
  <path id="Путь-2" d="M4.19 152 L243.89 152 243.808 104 4.076 104 Z" fill="#ee5281" fill-opacity="1" stroke="#000000" stroke-width="8" stroke-opacity="1" stroke-linejoin="round"/>
  <path id="Путь-3" d="M109.518 99.81 C112.268 96.004 114.594 91.672 116.077 86.729 L116.077 36 44.077 36 44.077 86.729 C45.522 91.544 47.761 95.789 50.417 99.524 62.529 91.59 84.194 83.265 109.518 99.81 Z" fill="#ee5281" fill-opacity="1" stroke="#000000" stroke-width="8" stroke-opacity="1" stroke-linejoin="round"/>
  <path id="Путь-4" d="M50.416 99.525 C61.518 115.138 80.076 121.647 80.076 121.647 80.076 121.647 98.393 115.21 109.517 99.811 84.194 83.265 62.529 91.59 50.416 99.525 Z" fill="#288eea" fill-opacity="1" stroke="#000000" stroke-width="8" stroke-opacity="1" stroke-linejoin="round"/>
  <path id="Путь-5" d="M80.076 48 L80.076 88" fill="none" stroke="#ffffff" stroke-width="8" stroke-opacity="1" stroke-linejoin="round"/>
  <path id="Путь-6" d="M64.076 56 L96.076 56" fill="none" stroke="#ffffff" stroke-width="8" stroke-opacity="1" stroke-linejoin="round"/>
  <path id="Путь-7" d="M64.076 72 L96.076 72" fill="none" stroke="#ffffff" stroke-width="8" stroke-opacity="1" stroke-linejoin="round"/>
 </g>
 <g id="group-1"/>
 <g id="group-2"/>
 <g id="group-3"/>
 <g id="group-4"/>
 <g id="group-5"/>
 <g id="group-6"/>
 <g id="group-7"/>
 <g id="group-8"/>
 <g id="group-9"/>
 <g id="group-10"/>
 <g id="group-11"/>
 <g id="group-12"/>
 <g id="group-13"/>
 <g id="group-14"/>
 <g id="group-15"/>
</svg>
