<?xml version="1.0" ?><svg id="Slovakia" style="enable-background:new 0 0 300 300;" version="1.1" viewBox="0 0 300 300" xml:space="preserve" xmlns="http://www.w3.org/2000/svg" xmlns:xlink="http://www.w3.org/1999/xlink"><g><polygon points="   273.842,80 34.076,80 34.19,128 273.924,128  " style="fill:#FFFFFF;stroke:#000000;stroke-width:8;stroke-linecap:round;stroke-linejoin:round;stroke-miterlimit:10;"/><polygon points="   34.076,128 34.2,181 273.911,181 273.822,128  " style="fill:#288EEA;stroke:#000000;stroke-width:8;stroke-linecap:round;stroke-linejoin:round;stroke-miterlimit:10;"/><polygon points="   34.19,228 273.89,228 273.808,180 34.076,180  " style="fill:#EE5281;stroke:#000000;stroke-width:8;stroke-linecap:round;stroke-linejoin:round;stroke-miterlimit:10;"/><path d="   M139.518,175.81c2.75-3.806,5.076-8.138,6.559-13.081V112h-72v50.729c1.445,4.815,3.684,9.06,6.34,12.795   C92.529,167.59,114.194,159.265,139.518,175.81z" style="fill:#EE5281;stroke:#000000;stroke-width:8;stroke-linecap:round;stroke-linejoin:round;stroke-miterlimit:10;"/><path d="   M80.416,175.525c11.102,15.613,29.66,22.122,29.66,22.122s18.317-6.437,29.441-21.836   C114.194,159.265,92.529,167.59,80.416,175.525z" style="fill:#288EEA;stroke:#000000;stroke-width:8;stroke-linecap:round;stroke-linejoin:round;stroke-miterlimit:10;"/><line style="fill:none;stroke:#FFFFFF;stroke-width:8;stroke-linecap:round;stroke-linejoin:round;stroke-miterlimit:10;" x1="110.076" x2="110.076" y1="124" y2="164"/><line style="fill:none;stroke:#FFFFFF;stroke-width:8;stroke-linecap:round;stroke-linejoin:round;stroke-miterlimit:10;" x1="94.076" x2="126.076" y1="132" y2="132"/><line style="fill:none;stroke:#FFFFFF;stroke-width:8;stroke-linecap:round;stroke-linejoin:round;stroke-miterlimit:10;" x1="94.076" x2="126.076" y1="148" y2="148"/></g><g/><g/><g/><g/><g/><g/><g/><g/><g/><g/><g/><g/><g/><g/><g/></svg>