<?xml version="1.0" ?><svg id="Sao_x5F_Tome_x5F_and_x5F_Principe" style="enable-background:new 0 0 300 300;" version="1.1" viewBox="0 0 300 300" xml:space="preserve" xmlns="http://www.w3.org/2000/svg" xmlns:xlink="http://www.w3.org/1999/xlink"><g><polygon points="   273.843,80 34.739,80 34.853,128 273.924,128  " style="fill:#83D816;stroke:#000000;stroke-width:8;stroke-linecap:round;stroke-linejoin:round;stroke-miterlimit:10;"/><polygon points="   34.887,228 273.89,228 273.809,180 34.773,180  " style="fill:#83D816;stroke:#000000;stroke-width:8;stroke-linecap:round;stroke-linejoin:round;stroke-miterlimit:10;"/><polygon points="   34.752,120 34.875,188 273.911,188 273.823,120  " style="fill:#FEDA38;stroke:#000000;stroke-width:8;stroke-linecap:round;stroke-linejoin:round;stroke-miterlimit:10;"/><polygon points="   164.295,149.351 176.32,149.829 166.872,157.284 170.133,168.868 160.124,162.186 150.114,168.867 153.376,157.283    143.929,149.827 155.954,149.35 160.125,138.061  " style="stroke:#000000;stroke-width:8;stroke-linecap:round;stroke-linejoin:round;stroke-miterlimit:10;"/><polygon points="   228.295,149.351 240.32,149.829 230.872,157.284 234.133,168.868 224.124,162.186 214.114,168.867 217.376,157.283    207.929,149.827 219.954,149.35 224.125,138.061  " style="stroke:#000000;stroke-width:8;stroke-linecap:round;stroke-linejoin:round;stroke-miterlimit:10;"/><polygon points="   34.076,80 90.076,152 34.076,228  " style="fill:#EE5281;stroke:#000000;stroke-width:8;stroke-linecap:round;stroke-linejoin:round;stroke-miterlimit:10;"/></g><g/><g/><g/><g/><g/><g/><g/><g/><g/><g/><g/><g/><g/><g/><g/></svg>