<?xml version="1.0" ?><svg id="Swaziland" style="enable-background:new 0 0 300 300;" version="1.1" viewBox="0 0 300 300" xml:space="preserve" xmlns="http://www.w3.org/2000/svg" xmlns:xlink="http://www.w3.org/1999/xlink"><g><polygon points="   34.081,102 34.321,206 273.879,206 273.708,102  " style="fill:#EE5281;stroke:#000000;stroke-width:8;stroke-linecap:round;stroke-linejoin:round;stroke-miterlimit:10;"/><polygon points="   34.433,230 273.919,230 273.879,206 34.377,206  " style="fill:#288EEA;stroke:#000000;stroke-width:8;stroke-linecap:round;stroke-linejoin:round;stroke-miterlimit:10;"/><polygon points="   273.668,78 34.081,78 34.136,102 273.708,102  " style="fill:#288EEA;stroke:#000000;stroke-width:8;stroke-linecap:round;stroke-linejoin:round;stroke-miterlimit:10;"/><polygon points="   273.668,102 34.081,102 34.136,114 273.708,114  " style="fill:#FEDA38;stroke:#000000;stroke-width:8;stroke-linecap:round;stroke-linejoin:round;stroke-miterlimit:10;"/><polygon points="   273.668,194 34.081,194 34.136,206 273.708,206  " style="fill:#FEDA38;stroke:#000000;stroke-width:8;stroke-linecap:round;stroke-linejoin:round;stroke-miterlimit:10;"/><path d="   M101.281,154.017c0,0,34.684,20.264,52.799,20.276v-40.552C135.965,133.752,101.281,154.017,101.281,154.017z" style="stroke:#000000;stroke-width:8;stroke-linecap:round;stroke-linejoin:round;stroke-miterlimit:10;"/><path d="   M206.913,154.017c0,0-34.704-20.277-52.816-20.277c-0.005,0-0.011,0.001-0.017,0.001v40.552c0.005,0,0.011,0.001,0.017,0.001   C172.209,174.293,206.913,154.017,206.913,154.017z" style="fill:#FFFFFF;stroke:#000000;stroke-width:8;stroke-linecap:round;stroke-linejoin:round;stroke-miterlimit:10;"/></g><g/><g/><g/><g/><g/><g/><g/><g/><g/><g/><g/><g/><g/><g/><g/></svg>