<?xml version="1.0" ?><svg id="Turkmenistan" style="enable-background:new 0 0 300 300;" version="1.1" viewBox="0 0 300 300" xml:space="preserve" xmlns="http://www.w3.org/2000/svg" xmlns:xlink="http://www.w3.org/1999/xlink"><g><polygon points="   273.668,78 34.081,78 34.433,230 273.919,230  " style="fill:#83D816;stroke:#000000;stroke-width:8;stroke-linecap:round;stroke-linejoin:round;stroke-miterlimit:10;"/><rect height="152" style="fill:#EE5281;stroke:#000000;stroke-width:8;stroke-linecap:round;stroke-linejoin:round;stroke-miterlimit:10;" width="36" x="58.081" y="78"/><path d="   M173.446,103.523c-1.528-1.168-3.137-2.148-4.787-3.004c10.441,11.342,11.583,28.86,1.896,41.529   c-9.687,12.669-26.892,16.158-40.574,9.054c1.259,1.368,2.626,2.664,4.154,3.832c14.197,10.855,34.506,8.147,45.361-6.05   C190.351,134.687,187.642,114.378,173.446,103.523z" style="fill:#FFFFFF;stroke:#000000;stroke-width:8;stroke-linecap:round;stroke-linejoin:round;stroke-miterlimit:10;"/><rect height="8" style="fill:#FFFFFF;" transform="matrix(0.5928 -0.8053 0.8053 0.5928 -53.1753 140.6714)" width="8" x="108.524" y="118.922"/><rect height="8" style="fill:#FFFFFF;" transform="matrix(0.5928 -0.8053 0.8053 0.5928 -22.1163 147.4446)" width="8" x="130.752" y="91.593"/><rect height="8" style="fill:#FFFFFF;" transform="matrix(0.5928 -0.8053 0.8053 0.5928 -38.8418 151.1776)" width="8" x="126.081" y="110"/><rect height="8" style="fill:#FFFFFF;" transform="matrix(0.5928 -0.8053 0.8053 0.5928 -55.5673 154.9107)" width="8" x="121.41" y="128.407"/><rect height="8" style="fill:#FFFFFF;" transform="matrix(0.5928 -0.8053 0.8053 0.5928 -24.5083 161.6839)" width="8" x="143.637" y="101.078"/></g><g/><g/><g/><g/><g/><g/><g/><g/><g/><g/><g/><g/><g/><g/><g/></svg>