<?xml version="1.0" encoding="UTF-8"?>
<svg width="248px" height="160px" viewBox="0 0 248 160" xmlns="http://www.w3.org/2000/svg" xmlns:xlink="http://www.w3.org/1999/xlink" version="1.1">
 <!-- Generated by Pixelmator Pro 1.7 -->
 <g id="group">
  <path id="Путь" d="M243.668 4 L4.081 4 4.433 156 243.919 156 Z" fill="#83d816" fill-opacity="1" stroke="#000000" stroke-width="8" stroke-opacity="1" stroke-linejoin="round"/>
  <path id="Путь-1" d="M28.081 4 L64.081 4 64.081 156 28.081 156 Z" fill="#ee5281" fill-opacity="1" stroke="#000000" stroke-width="8" stroke-opacity="1" stroke-linejoin="round"/>
  <path id="Путь-2" d="M143.446 29.523 C141.918 28.355 140.309 27.375 138.659 26.519 149.1 37.861 150.242 55.379 140.555 68.048 130.868 80.717 113.663 84.206 99.981 77.102 101.24 78.47 102.607 79.766 104.135 80.934 118.332 91.789 138.641 89.081 149.496 74.884 160.351 60.687 157.642 40.378 143.446 29.523 Z" fill="#ffffff" fill-opacity="1" stroke="#000000" stroke-width="8" stroke-opacity="1" stroke-linejoin="round"/>
  <path id="Путь-3" d="M76.926 49.774 L81.668 43.332 88.11 48.074 83.368 54.516 Z" fill="#ffffff" fill-opacity="1" stroke="none"/>
  <path id="Путь-4" d="M99.153 22.446 L103.896 16.004 110.338 20.746 105.596 27.189 Z" fill="#ffffff" fill-opacity="1" stroke="none"/>
  <path id="Путь-5" d="M94.482 40.853 L99.224 34.41 105.667 39.153 100.924 45.595 Z" fill="#ffffff" fill-opacity="1" stroke="none"/>
  <path id="Путь-6" d="M89.811 59.259 L94.553 52.816 100.996 57.559 96.253 64.001 Z" fill="#ffffff" fill-opacity="1" stroke="none"/>
  <path id="Путь-7" d="M112.038 31.932 L116.78 25.49 123.223 30.232 118.48 36.674 Z" fill="#ffffff" fill-opacity="1" stroke="none"/>
 </g>
 <g id="group-1"/>
 <g id="group-2"/>
 <g id="group-3"/>
 <g id="group-4"/>
 <g id="group-5"/>
 <g id="group-6"/>
 <g id="group-7"/>
 <g id="group-8"/>
 <g id="group-9"/>
 <g id="group-10"/>
 <g id="group-11"/>
 <g id="group-12"/>
 <g id="group-13"/>
 <g id="group-14"/>
 <g id="group-15"/>
</svg>
