<?xml version="1.0" encoding="UTF-8"?>
<svg width="512px" height="512px" viewBox="0 0 512 512" xmlns="http://www.w3.org/2000/svg" xmlns:xlink="http://www.w3.org/1999/xlink" version="1.1">
 <!-- Generated by Pixelmator Pro 1.7.1 -->
 <path id="Путь" d="M464 32 L344 32 334.6 13.3 C330.538 5.145 322.21 -0.007 313.1 0 L198.8 0 C189.707 -0.035 181.394 5.131 177.4 13.3 L168 32 48 32 C43.757 32 39.687 33.686 36.686 36.686 33.686 39.687 32 43.757 32 48 L32 80 C32 84.243 33.686 88.313 36.686 91.314 39.687 94.314 43.757 96 48 96 L464 96 C468.243 96 472.313 94.314 475.314 91.314 478.314 88.313 480 84.243 480 80 L480 48 C480 43.757 478.314 39.687 475.314 36.686 472.313 33.686 468.243 32 464 32 Z M85.2 467 C86.784 492.293 107.758 511.997 133.1 512 L378.9 512 C404.242 511.997 425.216 492.293 426.8 467 L448 128 64 128 Z" fill="#000000" fill-opacity="1" stroke="none"/>
</svg>
