<?xml version="1.0" encoding="UTF-8"?>
<svg width="512px" height="512px" viewBox="0 0 512 512" xmlns="http://www.w3.org/2000/svg" xmlns:xlink="http://www.w3.org/1999/xlink" version="1.1">
 <!-- Generated by Pixelmator Pro 1.7.1 -->
 <path id="Путь" d="M256 8 C119 8 8 119 8 256 8 393 119 504 256 504 393 504 504 393 504 256 504 119 393 8 256 8 Z M144 240 C144 230.7 148.1 222.5 154.5 216.6 L123.5 207.3 C115 204.8 110.2 195.8 112.8 187.4 115.3 178.9 124.2 174.2 132.7 176.7 L212.7 200.7 C221.2 203.2 226 212.2 223.4 220.6 221.3 227.5 215 232 208.1 232 207.6 232 207 231.8 206.4 231.8 207.1 234.5 208.1 237.1 208.1 240 208.1 257.7 193.8 272 176.1 272 158.4 272 144 257.7 144 240 Z M312 394.2 C284.2 360.8 227.8 360.8 199.9 394.2 186.4 410.5 161.7 390 175.3 373.7 195.3 349.7 224.7 335.9 255.9 335.9 287.1 335.9 316.5 349.7 336.5 373.7 350.3 390.2 325.4 410.3 312 394.2 Z M388.6 207.3 L357.6 216.6 C363.9 222.4 368.1 230.7 368.1 240 368.1 257.7 353.8 272 336.1 272 318.4 272 304.1 257.7 304.1 240 304.1 237.1 305 234.4 305.8 231.8 305.2 231.9 304.7 232 304.1 232 297.2 232 290.9 227.5 288.8 220.6 286.3 212.1 291.1 203.2 299.5 200.7 L379.5 176.7 C387.9 174.2 396.9 179 399.4 187.4 401.9 195.9 397.1 204.8 388.6 207.3 Z" fill="#000000" fill-opacity="1" stroke="none"/>
</svg>
