<?xml version="1.0" encoding="UTF-8"?>
<svg width="229px" height="156px" viewBox="0 0 229 156" xmlns="http://www.w3.org/2000/svg" xmlns:xlink="http://www.w3.org/1999/xlink" version="1.1">
 <!-- Generated by Pixelmator Pro 1.7.1 -->
 <g id="surface1">
  <path id="Путь" d="M104.544 90.224 C104.381 89.709 104.092 89.234 103.711 88.849 L103.508 88.646 114.786 77.304 114.786 120.468 114.228 120.555 Z M104.544 90.224" fill="#103b9b" fill-opacity="1" stroke="none"/>
  <path id="Путь-1" d="M104.82 90.137 L114.5 120.468 114.5 78 103.914 88.646 C104.323 89.056 104.635 89.567 104.82 90.137 Z M104.82 90.137" fill="#103b9b" fill-opacity="1" stroke="none"/>
  <path id="Путь-2" d="M113.808 77.713 L156.735 77.713 156.822 78.276 126.658 88.008 C126.143 88.174 125.673 88.465 125.289 88.849 L125.09 89.052 Z M113.808 77.713" fill="#103b9b" fill-opacity="1" stroke="none"/>
  <path id="Путь-3" d="M125.086 88.646 C125.499 88.232 126.002 87.917 126.571 87.735 L156.735 78 114.5 78 Z M125.086 88.646" fill="#103b9b" fill-opacity="1" stroke="none"/>
  <path id="Путь-4" d="M199.165 152.565 L199.165 152.278 C199.165 150.389 197.637 148.851 195.757 148.851 L7.102 148.851 7.102 7.149 221.898 7.149 221.898 148.851 210.534 148.851 C208.654 148.851 207.126 150.389 207.126 152.278 L207.126 152.565 Z M114.5 19.953 C113.012 19.953 111.708 20.911 111.255 22.333 L98.59 62.004 59.137 74.739 C57.721 75.193 56.772 76.506 56.772 78 56.772 79.494 57.721 80.807 59.137 81.261 L98.59 93.996 111.255 133.667 C111.708 135.089 113.012 136.047 114.5 136.047 115.988 136.047 117.292 135.089 117.745 133.667 L130.41 93.996 169.863 81.261 C171.279 80.807 172.228 79.494 172.228 78 172.228 76.506 171.279 75.193 169.863 74.739 L130.41 62.004 117.745 22.333 C117.292 20.911 115.988 19.953 114.5 19.953 Z M69.321 90.525 C68.937 90.525 68.56 90.59 68.194 90.721 66.42 91.348 65.485 93.307 66.108 95.088 71.215 109.72 82.952 121.523 97.508 126.659 97.87 126.79 98.25 126.855 98.634 126.855 100.079 126.855 101.372 125.934 101.85 124.563 102.15 123.699 102.1 122.767 101.705 121.944 101.314 121.117 100.622 120.497 99.764 120.196 87.146 115.738 76.966 105.505 72.537 92.817 72.059 91.446 70.766 90.525 69.321 90.525 Z M159.679 90.525 C158.234 90.525 156.941 91.446 156.463 92.817 152.034 105.505 141.854 115.738 129.236 120.192 127.462 120.819 126.527 122.778 127.15 124.563 127.628 125.934 128.921 126.852 130.366 126.852 130.75 126.852 131.13 126.786 131.492 126.659 146.044 121.523 157.782 109.72 162.892 95.088 163.515 93.307 162.58 91.345 160.806 90.721 160.443 90.59 160.063 90.525 159.679 90.525 Z M98.634 29.148 C98.254 29.148 97.873 29.214 97.508 29.341 82.956 34.477 71.218 46.28 66.108 60.912 65.804 61.775 65.855 62.708 66.25 63.531 66.644 64.358 67.336 64.978 68.194 65.283 68.56 65.41 68.937 65.475 69.321 65.475 70.766 65.475 72.059 64.554 72.537 63.183 76.97 50.495 87.146 40.262 99.764 35.808 100.622 35.503 101.314 34.883 101.709 34.056 102.103 33.233 102.154 32.3 101.85 31.437 101.372 30.066 100.079 29.148 98.634 29.148 Z M130.366 29.145 C128.921 29.145 127.628 30.066 127.15 31.437 126.85 32.3 126.9 33.233 127.295 34.056 127.686 34.879 128.378 35.503 129.236 35.804 141.854 40.262 152.034 50.495 156.463 63.183 156.941 64.554 158.234 65.475 159.679 65.475 160.063 65.475 160.443 65.41 160.806 65.279 161.664 64.978 162.356 64.354 162.75 63.531 163.145 62.704 163.196 61.775 162.892 60.912 157.785 46.28 146.048 34.477 131.496 29.341 131.13 29.21 130.75 29.145 130.366 29.145 Z M130.366 29.145" fill="#103b9b" fill-opacity="1" stroke="none"/>
  <path id="Путь-5" d="M210.534 148.564 L221.612 148.564 221.612 7.436 7.388 7.436 7.388 148.564 195.757 148.564 C197.8 148.564 199.451 150.225 199.451 152.278 L206.84 152.278 C206.84 150.225 208.491 148.564 210.534 148.564 Z M126.879 31.343 C127.556 29.406 129.664 28.39 131.59 29.069 146.221 34.237 158.024 46.106 163.163 60.818 163.84 62.751 162.826 64.873 160.903 65.551 160.498 65.696 160.085 65.762 159.679 65.762 158.155 65.762 156.728 64.808 156.195 63.277 151.791 50.672 141.68 40.505 129.142 36.076 127.215 35.398 126.205 33.276 126.879 31.343 Z M65.837 60.818 C70.976 46.106 82.779 34.237 97.41 29.069 99.336 28.39 101.444 29.41 102.121 31.343 102.795 33.276 101.785 35.398 99.858 36.076 87.324 40.505 77.209 50.672 72.808 63.281 72.272 64.808 70.845 65.765 69.321 65.765 68.915 65.765 68.502 65.696 68.1 65.551 66.174 64.873 65.16 62.751 65.837 60.818 Z M102.121 124.657 C101.585 126.184 100.159 127.142 98.634 127.142 98.228 127.142 97.815 127.073 97.41 126.931 82.779 121.763 70.976 109.894 65.837 95.182 65.16 93.249 66.174 91.127 68.1 90.449 70.023 89.767 72.131 90.786 72.808 92.723 77.209 105.328 87.324 115.495 99.858 119.924 101.785 120.602 102.795 122.72 102.121 124.657 Z M163.163 95.182 C158.024 109.894 146.221 121.763 131.59 126.931 131.185 127.073 130.772 127.142 130.366 127.142 128.841 127.142 127.415 126.184 126.879 124.657 126.205 122.72 127.215 120.602 129.142 119.92 141.68 115.495 151.791 105.328 156.195 92.719 156.869 90.786 158.98 89.767 160.903 90.449 162.826 91.127 163.84 93.249 163.163 95.182 Z M169.95 81.537 L130.634 94.225 118.017 133.754 C117.528 135.292 116.104 136.333 114.5 136.333 112.896 136.333 111.472 135.292 110.983 133.754 L98.366 94.225 59.05 81.537 C57.522 81.043 56.486 79.614 56.486 78 56.486 76.386 57.522 74.957 59.05 74.463 L98.366 61.775 110.983 22.246 C111.472 20.708 112.896 19.667 114.5 19.667 116.104 19.667 117.528 20.708 118.017 22.246 L130.634 61.775 169.95 74.463 C171.478 74.957 172.514 76.386 172.514 78 172.514 79.614 171.478 81.043 169.95 81.537 Z M169.95 81.537" fill="#103b9b" fill-opacity="1" stroke="none"/>
  <path id="Путь-6" d="M72.265 78.287 L72.178 77.724 102.342 67.992 C102.853 67.826 103.327 67.535 103.711 67.151 L103.91 66.948 115.192 78.287 Z M72.265 78.287" fill="#103b9b" fill-opacity="1" stroke="none"/>
  <path id="Путь-7" d="M102.429 68.265 L72.265 78 114.5 78 103.914 67.354 C103.501 67.768 102.998 68.083 102.429 68.265 Z M102.429 68.265" fill="#103b9b" fill-opacity="1" stroke="none"/>
  <path id="Путь-8" d="M114.214 35.532 L114.772 35.445 124.456 65.776 C124.619 66.291 124.908 66.766 125.289 67.151 L125.492 67.354 114.214 78.696 Z M114.214 35.532" fill="#103b9b" fill-opacity="1" stroke="none"/>
  <path id="Путь-9" d="M124.18 65.863 L114.5 35.532 114.5 78 125.086 67.354 C124.677 66.944 124.365 66.433 124.18 65.863 Z M124.18 65.863" fill="#103b9b" fill-opacity="1" stroke="none"/>
  <path id="Путь-10" d="M225.306 0.011 L3.694 0.011 C1.651 0.011 0 1.672 0 3.722 L0 152.278 C0 154.328 1.651 155.989 3.694 155.989 L195.757 155.989 C197.8 155.989 199.451 154.328 199.451 152.278 199.451 150.225 197.8 148.564 195.757 148.564 L7.388 148.564 7.388 7.436 221.612 7.436 221.612 148.564 210.534 148.564 C208.491 148.564 206.84 150.225 206.84 152.278 206.84 154.328 208.491 155.989 210.534 155.989 L225.306 155.989 C227.349 155.989 229 154.328 229 152.278 L229 3.722 C229 1.672 227.349 0.011 225.306 0.011 Z M225.306 0.011" fill="#000000" fill-opacity="1" stroke="none"/>
  <path id="Путь-11" d="M256.85 0.011 L4.212 0.011 C1.883 0.011 -0 1.672 -0 3.722 L-0 152.278 C-0 154.328 1.883 155.989 4.212 155.989 L223.166 155.989 C225.491 155.989 227.374 154.328 227.374 152.278 227.374 150.225 225.491 148.564 223.166 148.564 L8.42 148.564 8.42 7.436 252.638 7.436 252.638 148.564 240.006 148.564 C237.681 148.564 235.798 150.225 235.798 152.278 235.798 154.328 237.681 155.989 240.006 155.989 L256.85 155.989 C259.175 155.989 261.058 154.328 261.058 152.278 L261.058 3.722 C261.058 1.672 259.175 0.011 256.85 0.011 Z M256.85 0.011" fill="#000000" fill-opacity="1" stroke="none"/>
  <path id="Путь-12" d="M169.95 74.463 L130.634 61.775 118.017 22.246 C117.528 20.708 116.104 19.667 114.5 19.667 112.896 19.667 111.472 20.708 110.983 22.246 L98.366 61.775 59.05 74.463 C57.522 74.957 56.486 76.386 56.486 78 56.486 79.614 57.522 81.043 59.05 81.537 L98.366 94.225 110.983 133.754 C111.472 135.292 112.896 136.333 114.5 136.333 116.104 136.333 117.528 135.292 118.017 133.754 L130.634 94.225 169.95 81.537 C171.478 81.043 172.514 79.614 172.514 78 172.514 76.386 171.478 74.957 169.95 74.463 Z M126.571 87.735 C126.002 87.917 125.499 88.232 125.086 88.646 L114.5 78 114.5 120.468 104.82 90.137 C104.635 89.567 104.323 89.056 103.914 88.646 L114.5 78 72.265 78 102.429 68.265 C102.998 68.083 103.501 67.768 103.914 67.354 L114.5 78 114.5 35.532 124.18 65.863 C124.365 66.433 124.677 66.944 125.086 67.354 L114.5 78 156.735 78 Z M126.571 87.735" fill="#ffffff" fill-opacity="1" stroke="none"/>
  <path id="Путь-13" d="M129.142 36.076 C141.676 40.505 151.791 50.672 156.192 63.277 156.728 64.808 158.155 65.762 159.679 65.762 160.085 65.762 160.498 65.696 160.9 65.551 162.826 64.873 163.84 62.755 163.163 60.818 158.024 46.106 146.221 34.237 131.59 29.069 129.664 28.39 127.556 29.41 126.879 31.343 126.205 33.276 127.215 35.398 129.142 36.076 Z M129.142 36.076" fill="#ffffff" fill-opacity="1" stroke="none"/>
  <path id="Путь-14" d="M68.097 65.551 C68.502 65.696 68.915 65.762 69.321 65.762 70.845 65.762 72.272 64.808 72.805 63.277 77.209 50.672 87.32 40.505 99.858 36.076 101.785 35.398 102.795 33.276 102.118 31.343 101.444 29.406 99.336 28.39 97.41 29.069 82.779 34.234 70.972 46.102 65.837 60.818 65.16 62.751 66.174 64.873 68.097 65.551 Z M68.097 65.551" fill="#ffffff" fill-opacity="1" stroke="none"/>
  <path id="Путь-15" d="M160.903 90.449 C158.98 89.767 156.869 90.786 156.192 92.723 151.791 105.328 141.68 115.495 129.142 119.924 127.215 120.602 126.205 122.724 126.879 124.657 127.415 126.184 128.841 127.142 130.366 127.142 130.772 127.142 131.185 127.073 131.59 126.931 146.221 121.766 158.024 109.894 163.163 95.182 163.84 93.249 162.826 91.127 160.903 90.449 Z M160.903 90.449" fill="#ffffff" fill-opacity="1" stroke="none"/>
  <path id="Путь-16" d="M99.858 119.924 C87.324 115.495 77.209 105.328 72.808 92.723 72.131 90.786 70.023 89.767 68.097 90.449 66.174 91.127 65.16 93.245 65.837 95.182 70.976 109.894 82.779 121.763 97.41 126.931 97.815 127.073 98.228 127.142 98.634 127.142 100.159 127.142 101.585 126.184 102.118 124.657 102.795 122.72 101.785 120.602 99.858 119.924 Z M99.858 119.924" fill="#ffffff" fill-opacity="1" stroke="none"/>
 </g>
</svg>
