<?xml version="1.0" encoding="UTF-8"?>
<svg xmlns="http://www.w3.org/2000/svg" xmlns:xlink="http://www.w3.org/1999/xlink" width="247pt" height="168pt" viewBox="0 0 247 168" version="1.1">
<g id="surface1">
<path style=" stroke:none;fill-rule:nonzero;fill:rgb(92.941176%,12.156863%,20.392157%);fill-opacity:1;" d="M 239.339844 7.699219 L 239.339844 160.300781 L 7.660156 160.300781 L 7.660156 36.003906 C 7.660156 33.972656 6.011719 32.316406 3.984375 32.316406 L 3.675781 32.316406 L 3.675781 23.695312 L 3.984375 23.695312 C 6.011719 23.695312 7.660156 22.042969 7.660156 20.007812 L 7.660156 7.699219 Z M 162.578125 73.09375 C 163.964844 73.09375 165.269531 72.554688 166.25 71.566406 C 167.230469 70.582031 167.769531 69.273438 167.769531 67.882812 C 167.769531 66.488281 167.230469 65.179688 166.25 64.195312 C 165.269531 63.210938 163.964844 62.667969 162.578125 62.667969 C 161.191406 62.667969 159.886719 63.210938 158.90625 64.195312 C 157.925781 65.179688 157.382812 66.488281 157.382812 67.882812 C 157.382812 69.273438 157.925781 70.582031 158.90625 71.566406 C 159.886719 72.554688 161.191406 73.09375 162.578125 73.09375 Z M 185.121094 80.394531 C 184.523438 80.003906 183.828125 79.796875 183.117188 79.796875 C 182.335938 79.796875 181.589844 80.039062 180.957031 80.5 C 179.734375 81.394531 179.175781 82.976562 179.566406 84.445312 L 183.265625 98.265625 L 172.183594 107.261719 C 171.007812 108.214844 170.53125 109.828125 171 111.269531 C 171.464844 112.714844 172.792969 113.738281 174.304688 113.816406 L 188.539062 114.554688 L 193.636719 127.917969 C 194.175781 129.332031 195.558594 130.285156 197.070312 130.285156 C 198.582031 130.285156 199.960938 129.332031 200.5 127.917969 L 205.597656 114.554688 L 219.832031 113.816406 C 221.34375 113.738281 222.671875 112.714844 223.140625 111.269531 C 223.605469 109.828125 223.128906 108.214844 221.953125 107.261719 L 210.871094 98.265625 L 214.570312 84.445312 C 214.960938 82.980469 214.402344 81.394531 213.179688 80.503906 C 212.546875 80.042969 211.800781 79.796875 211.019531 79.796875 C 210.304688 79.796875 209.613281 80.003906 209.015625 80.394531 L 197.066406 88.195312 Z M 149.957031 95.046875 C 152.300781 95.046875 154.359375 93.460938 154.96875 91.183594 C 155.324219 89.839844 155.140625 88.433594 154.449219 87.230469 C 153.753906 86.023438 152.636719 85.160156 151.296875 84.800781 C 150.855469 84.679688 150.402344 84.621094 149.949219 84.621094 C 147.605469 84.621094 145.542969 86.210938 144.9375 88.484375 C 144.195312 91.261719 145.84375 94.125 148.609375 94.871094 C 149.050781 94.988281 149.503906 95.046875 149.957031 95.046875 Z M 149.949219 120.398438 C 150.402344 120.398438 150.855469 120.335938 151.296875 120.21875 C 154.0625 119.472656 155.707031 116.609375 154.96875 113.835938 C 154.359375 111.558594 152.300781 109.96875 149.957031 109.96875 C 149.503906 109.96875 149.050781 110.03125 148.609375 110.148438 C 147.269531 110.507812 146.148438 111.371094 145.457031 112.578125 C 144.761719 113.78125 144.578125 115.1875 144.9375 116.53125 C 145.546875 118.808594 147.605469 120.398438 149.949219 120.398438 Z M 162.578125 142.351562 C 163.964844 142.351562 165.269531 141.808594 166.25 140.820312 C 167.230469 139.835938 167.769531 138.527344 167.769531 137.136719 C 167.769531 135.742188 167.230469 134.433594 166.25 133.449219 C 165.269531 132.464844 163.964844 131.921875 162.578125 131.921875 C 161.191406 131.921875 159.886719 132.464844 158.90625 133.449219 C 157.925781 134.433594 157.382812 135.742188 157.382812 137.136719 C 157.382812 138.527344 157.925781 139.835938 158.90625 140.820312 C 159.886719 141.808594 161.191406 142.351562 162.578125 142.351562 Z M 162.578125 142.351562 "/>
<path style=" stroke:none;fill-rule:nonzero;fill:rgb(92.941176%,12.156863%,20.392157%);fill-opacity:1;" d="M 7.96875 36.003906 L 7.96875 159.992188 L 239.03125 159.992188 L 239.03125 8.007812 L 7.96875 8.007812 L 7.96875 20.007812 C 7.96875 22.21875 6.183594 24.007812 3.984375 24.007812 L 3.984375 32.007812 C 6.183594 32.007812 7.96875 33.796875 7.96875 36.003906 Z M 171.988281 107.019531 L 182.914062 98.148438 L 179.269531 84.523438 C 178.839844 82.925781 179.4375 81.226562 180.773438 80.25 C 181.472656 79.742188 182.292969 79.488281 183.117188 79.488281 C 183.871094 79.488281 184.625 79.699219 185.289062 80.132812 L 197.066406 87.828125 L 208.847656 80.132812 C 210.230469 79.230469 212.027344 79.277344 213.363281 80.25 C 214.699219 81.226562 215.296875 82.925781 214.867188 84.523438 L 211.222656 98.152344 L 222.148438 107.019531 C 223.433594 108.0625 223.941406 109.789062 223.433594 111.367188 C 222.921875 112.941406 221.496094 114.039062 219.851562 114.125 L 205.816406 114.851562 L 200.789062 128.027344 C 200.199219 129.574219 198.71875 130.597656 197.070312 130.597656 C 195.417969 130.597656 193.9375 129.574219 193.347656 128.027344 L 188.324219 114.851562 L 174.289062 114.125 C 172.640625 114.039062 171.214844 112.941406 170.703125 111.367188 C 170.195312 109.789062 170.707031 108.0625 171.988281 107.019531 Z M 158.6875 63.976562 C 160.835938 61.820312 164.320312 61.820312 166.46875 63.976562 C 168.617188 66.132812 168.617188 69.628906 166.46875 71.785156 C 164.320312 73.945312 160.835938 73.945312 158.6875 71.785156 C 156.539062 69.628906 156.539062 66.132812 158.6875 63.976562 Z M 158.6875 133.230469 C 160.835938 131.074219 164.320312 131.074219 166.46875 133.230469 C 168.617188 135.386719 168.617188 138.882812 166.46875 141.042969 C 164.320312 143.199219 160.835938 143.199219 158.6875 141.042969 C 156.539062 138.882812 156.539062 135.386719 158.6875 133.230469 Z M 144.640625 88.40625 C 145.425781 85.460938 148.441406 83.710938 151.375 84.5 C 154.3125 85.289062 156.050781 88.316406 155.265625 91.265625 C 154.480469 94.210938 151.460938 95.957031 148.527344 95.167969 C 145.59375 94.378906 143.851562 91.351562 144.640625 88.40625 Z M 148.527344 109.851562 C 151.460938 109.058594 154.480469 110.808594 155.265625 113.753906 C 156.050781 116.699219 154.3125 119.726562 151.375 120.519531 C 148.441406 121.308594 145.425781 119.558594 144.640625 116.613281 C 143.851562 113.667969 145.59375 110.636719 148.527344 109.851562 Z M 148.527344 109.851562 "/>
<path style=" stroke:none;fill-rule:nonzero;fill:rgb(0%,0%,0%);fill-opacity:1;" d="M 7.96875 20.007812 L 7.96875 8.007812 L 239.03125 8.007812 L 239.03125 159.992188 L 7.96875 159.992188 L 7.96875 36.003906 C 7.96875 33.796875 6.183594 32.007812 3.984375 32.007812 C 1.78125 32.007812 0 33.796875 0 36.003906 L 0 163.992188 C 0 166.199219 1.78125 167.988281 3.984375 167.988281 L 243.015625 167.988281 C 245.214844 167.988281 247 166.199219 247 163.992188 L 247 4.007812 C 247 1.800781 245.214844 0.0117188 243.015625 0.0117188 L 3.984375 0.0117188 C 1.785156 0.0117188 0 1.800781 0 4.007812 L 0 20.007812 C 0 22.214844 1.785156 24.007812 3.984375 24.007812 C 6.183594 24.007812 7.96875 22.21875 7.96875 20.007812 Z M 7.96875 20.007812 "/>
<path style=" stroke:none;fill-rule:nonzero;fill:rgb(92.941176%,12.156863%,20.392157%);fill-opacity:1;" d="M 7.660156 160.300781 L 7.660156 7.699219 L 239.339844 7.699219 L 239.339844 131.992188 C 239.339844 134.027344 240.988281 135.683594 243.015625 135.683594 L 243.324219 135.683594 L 243.324219 144.300781 L 243.015625 144.300781 C 240.988281 144.300781 239.339844 145.957031 239.339844 147.992188 L 239.339844 160.300781 Z M 84.421875 94.90625 C 83.035156 94.90625 81.730469 95.445312 80.75 96.433594 C 79.769531 97.417969 79.230469 98.726562 79.230469 100.117188 C 79.230469 101.511719 79.769531 102.820312 80.75 103.804688 C 81.730469 104.789062 83.035156 105.332031 84.421875 105.332031 C 85.808594 105.332031 87.113281 104.789062 88.09375 103.804688 C 89.074219 102.820312 89.617188 101.511719 89.617188 100.117188 C 89.617188 98.726562 89.074219 97.417969 88.09375 96.433594 C 87.113281 95.445312 85.808594 94.90625 84.421875 94.90625 Z M 61.878906 87.605469 C 62.476562 87.996094 63.171875 88.203125 63.882812 88.203125 C 64.664062 88.203125 65.410156 87.960938 66.042969 87.496094 C 67.265625 86.605469 67.824219 85.023438 67.433594 83.554688 L 63.734375 69.734375 L 74.816406 60.738281 C 75.992188 59.785156 76.46875 58.171875 76 56.730469 C 75.535156 55.285156 74.207031 54.261719 72.695312 54.183594 L 58.460938 53.445312 L 53.363281 40.082031 C 52.824219 38.667969 51.441406 37.714844 49.929688 37.714844 C 48.417969 37.714844 47.039062 38.667969 46.5 40.082031 L 41.402344 53.445312 L 27.167969 54.183594 C 25.65625 54.261719 24.328125 55.285156 23.859375 56.730469 C 23.394531 58.171875 23.871094 59.785156 25.046875 60.738281 L 36.128906 69.734375 L 32.429688 83.554688 C 32.039062 85.019531 32.597656 86.605469 33.820312 87.496094 C 34.453125 87.957031 35.199219 88.203125 35.980469 88.203125 C 36.695312 88.203125 37.386719 87.996094 37.984375 87.605469 L 49.933594 79.800781 Z M 97.042969 72.949219 C 94.699219 72.949219 92.640625 74.539062 92.03125 76.816406 C 91.675781 78.160156 91.859375 79.566406 92.550781 80.769531 C 93.246094 81.976562 94.363281 82.839844 95.703125 83.199219 C 96.144531 83.316406 96.597656 83.378906 97.050781 83.378906 C 99.394531 83.378906 101.457031 81.789062 102.0625 79.515625 C 102.804688 76.738281 101.15625 73.875 98.390625 73.128906 C 97.949219 73.011719 97.496094 72.949219 97.042969 72.949219 Z M 97.050781 47.601562 C 96.597656 47.601562 96.144531 47.664062 95.703125 47.78125 C 92.9375 48.527344 91.292969 51.390625 92.03125 54.164062 C 92.640625 56.441406 94.699219 58.03125 97.042969 58.03125 C 97.496094 58.03125 97.949219 57.96875 98.390625 57.851562 C 99.730469 57.492188 100.851562 56.628906 101.542969 55.421875 C 102.238281 54.21875 102.421875 52.8125 102.0625 51.46875 C 101.453125 49.191406 99.394531 47.601562 97.050781 47.601562 Z M 84.421875 25.648438 C 83.035156 25.648438 81.730469 26.191406 80.75 27.175781 C 79.769531 28.160156 79.230469 29.472656 79.230469 30.863281 C 79.230469 32.257812 79.769531 33.566406 80.75 34.550781 C 81.730469 35.535156 83.035156 36.078125 84.421875 36.078125 C 85.808594 36.078125 87.113281 35.535156 88.09375 34.550781 C 89.074219 33.566406 89.617188 32.257812 89.617188 30.863281 C 89.617188 29.472656 89.074219 28.160156 88.09375 27.175781 C 87.113281 26.191406 85.808594 25.648438 84.421875 25.648438 Z M 84.421875 25.648438 "/>
<path style=" stroke:none;fill-rule:nonzero;fill:rgb(92.941176%,12.156863%,20.392157%);fill-opacity:1;" d="M 239.03125 131.992188 L 239.03125 8.007812 L 7.96875 8.007812 L 7.96875 159.992188 L 239.03125 159.992188 L 239.03125 147.992188 C 239.03125 145.78125 240.816406 143.992188 243.015625 143.992188 L 243.015625 135.992188 C 240.816406 135.992188 239.03125 134.203125 239.03125 131.992188 Z M 75.011719 60.980469 L 64.085938 69.851562 L 67.730469 83.476562 C 68.160156 85.074219 67.5625 86.773438 66.226562 87.75 C 65.527344 88.257812 64.707031 88.511719 63.882812 88.511719 C 63.128906 88.511719 62.375 88.296875 61.710938 87.867188 L 49.933594 80.171875 L 38.152344 87.867188 C 36.769531 88.769531 34.972656 88.722656 33.636719 87.75 C 32.300781 86.773438 31.703125 85.074219 32.132812 83.472656 L 35.777344 69.847656 L 24.851562 60.980469 C 23.566406 59.9375 23.058594 58.207031 23.566406 56.632812 C 24.078125 55.058594 25.503906 53.960938 27.148438 53.875 L 41.183594 53.148438 L 46.210938 39.972656 C 46.800781 38.425781 48.28125 37.402344 49.929688 37.402344 C 51.582031 37.402344 53.0625 38.425781 53.652344 39.972656 L 58.675781 53.148438 L 72.710938 53.875 C 74.359375 53.960938 75.785156 55.058594 76.296875 56.632812 C 76.804688 58.210938 76.292969 59.9375 75.011719 60.980469 Z M 88.3125 104.023438 C 86.164062 106.179688 82.679688 106.179688 80.53125 104.023438 C 78.382812 101.867188 78.382812 98.371094 80.53125 96.210938 C 82.679688 94.054688 86.164062 94.054688 88.3125 96.210938 C 90.460938 98.367188 90.460938 101.867188 88.3125 104.023438 Z M 88.3125 34.769531 C 86.164062 36.925781 82.679688 36.925781 80.53125 34.769531 C 78.382812 32.613281 78.382812 29.113281 80.53125 26.957031 C 82.679688 24.800781 86.164062 24.800781 88.3125 26.957031 C 90.460938 29.113281 90.460938 32.613281 88.3125 34.769531 Z M 102.359375 79.59375 C 101.574219 82.539062 98.558594 84.289062 95.625 83.5 C 92.6875 82.710938 90.949219 79.683594 91.734375 76.734375 C 92.519531 73.789062 95.539062 72.042969 98.472656 72.832031 C 101.40625 73.621094 103.148438 76.648438 102.359375 79.59375 Z M 98.472656 58.148438 C 95.539062 58.9375 92.519531 57.191406 91.734375 54.246094 C 90.949219 51.300781 92.6875 48.273438 95.625 47.480469 C 98.558594 46.691406 101.574219 48.441406 102.359375 51.386719 C 103.148438 54.332031 101.40625 57.363281 98.472656 58.148438 Z M 98.472656 58.148438 "/>
<path style=" stroke:none;fill-rule:nonzero;fill:rgb(0%,0%,0%);fill-opacity:1;" d="M 239.03125 147.992188 L 239.03125 159.992188 L 7.96875 159.992188 L 7.96875 8.007812 L 239.03125 8.007812 L 239.03125 131.992188 C 239.03125 134.203125 240.816406 135.992188 243.015625 135.992188 C 245.21875 135.992188 247 134.203125 247 131.992188 L 247 4.007812 C 247 1.800781 245.21875 0.0117188 243.015625 0.0117188 L 3.984375 0.0117188 C 1.785156 0.0078125 0 1.800781 0 4.007812 L 0 163.992188 C 0 166.199219 1.785156 167.988281 3.984375 167.988281 L 243.015625 167.988281 C 245.214844 167.988281 247 166.199219 247 163.992188 L 247 147.992188 C 247 145.78125 245.214844 143.992188 243.015625 143.992188 C 240.816406 143.992188 239.03125 145.78125 239.03125 147.992188 Z M 239.03125 147.992188 "/>
<path style=" stroke:none;fill-rule:nonzero;fill:rgb(92.941176%,12.156863%,20.392157%);fill-opacity:1;" d="M 246.671875 43.546875 L 399.453125 43.546875 L 399.453125 159.902344 L 275.011719 159.902344 C 272.972656 159.902344 271.316406 160.730469 271.316406 161.75 L 271.316406 161.902344 L 262.6875 161.902344 L 262.6875 161.75 C 262.6875 160.730469 261.03125 159.902344 258.992188 159.902344 L 246.671875 159.902344 Z M 312.144531 82.101562 C 312.144531 81.402344 311.601562 80.75 310.613281 80.253906 C 309.628906 79.761719 308.320312 79.492188 306.925781 79.492188 C 305.53125 79.492188 304.21875 79.761719 303.234375 80.253906 C 302.246094 80.75 301.703125 81.402344 301.703125 82.101562 C 301.703125 82.796875 302.246094 83.453125 303.234375 83.945312 C 304.21875 84.4375 305.53125 84.707031 306.925781 84.707031 C 308.320312 84.707031 309.628906 84.4375 310.613281 83.945312 C 311.601562 83.453125 312.144531 82.796875 312.144531 82.101562 Z M 319.453125 70.777344 C 319.058594 71.078125 318.855469 71.425781 318.855469 71.785156 C 318.855469 72.175781 319.097656 72.550781 319.558594 72.871094 C 320.453125 73.484375 322.039062 73.765625 323.507812 73.566406 L 337.34375 71.710938 L 346.351562 77.277344 C 347.304688 77.867188 348.917969 78.105469 350.363281 77.871094 C 351.8125 77.636719 352.835938 76.96875 352.914062 76.210938 L 353.652344 69.0625 L 367.03125 66.5 C 368.449219 66.230469 369.402344 65.535156 369.402344 64.777344 C 369.402344 64.019531 368.449219 63.324219 367.03125 63.054688 L 353.652344 60.492188 L 352.914062 53.34375 C 352.835938 52.585938 351.808594 51.917969 350.363281 51.683594 C 348.917969 51.449219 347.304688 51.6875 346.351562 52.28125 L 337.34375 57.847656 L 323.507812 55.988281 C 322.039062 55.789062 320.453125 56.070312 319.558594 56.6875 C 319.097656 57.003906 318.855469 57.378906 318.855469 57.769531 C 318.855469 58.128906 319.0625 58.476562 319.453125 58.777344 L 327.265625 64.777344 Z M 334.125 88.4375 C 334.125 87.261719 332.53125 86.226562 330.253906 85.921875 C 328.90625 85.742188 327.5 85.832031 326.292969 86.183594 C 325.085938 86.53125 324.222656 87.09375 323.863281 87.765625 C 323.746094 87.988281 323.683594 88.214844 323.683594 88.441406 C 323.683594 89.617188 325.273438 90.652344 327.554688 90.957031 C 330.332031 91.332031 333.199219 90.503906 333.945312 89.117188 C 334.0625 88.894531 334.125 88.664062 334.125 88.4375 Z M 359.503906 88.441406 C 359.503906 88.214844 359.441406 87.988281 359.324219 87.765625 C 358.578125 86.375 355.710938 85.550781 352.929688 85.921875 C 350.652344 86.226562 349.0625 87.261719 349.0625 88.4375 C 349.0625 88.664062 349.121094 88.894531 349.242188 89.113281 C 349.601562 89.789062 350.464844 90.351562 351.671875 90.699219 C 352.878906 91.046875 354.285156 91.140625 355.632812 90.957031 C 357.910156 90.652344 359.503906 89.617188 359.503906 88.441406 Z M 381.480469 82.101562 C 381.480469 81.402344 380.9375 80.75 379.953125 80.253906 C 378.964844 79.761719 377.65625 79.492188 376.261719 79.492188 C 374.867188 79.492188 373.554688 79.761719 372.570312 80.253906 C 371.582031 80.75 371.039062 81.402344 371.039062 82.101562 C 371.039062 82.796875 371.582031 83.453125 372.570312 83.945312 C 373.554688 84.4375 374.867188 84.707031 376.261719 84.707031 C 377.65625 84.707031 378.964844 84.4375 379.953125 83.945312 C 380.9375 83.453125 381.480469 82.796875 381.480469 82.101562 Z M 381.480469 82.101562 "/>
<path style=" stroke:none;fill-rule:nonzero;fill:rgb(92.941176%,12.156863%,20.392157%);fill-opacity:1;" d="M 275.011719 159.746094 L 399.144531 159.746094 L 399.144531 43.703125 L 246.980469 43.703125 L 246.980469 159.746094 L 258.992188 159.746094 C 261.207031 159.746094 262.996094 160.644531 262.996094 161.75 L 271.007812 161.75 C 271.007812 160.644531 272.800781 159.746094 275.011719 159.746094 Z M 346.109375 77.375 L 337.226562 71.886719 L 323.585938 73.71875 C 321.984375 73.933594 320.285156 73.632812 319.308594 72.960938 C 318.800781 72.609375 318.542969 72.199219 318.542969 71.785156 C 318.542969 71.40625 318.757812 71.027344 319.191406 70.695312 L 326.894531 64.777344 L 319.191406 58.863281 C 318.289062 58.167969 318.332031 57.265625 319.308594 56.59375 C 320.285156 55.925781 321.984375 55.625 323.589844 55.839844 L 337.230469 57.667969 L 346.109375 52.183594 C 347.152344 51.535156 348.882812 51.28125 350.460938 51.535156 C 352.039062 51.792969 353.136719 52.507812 353.222656 53.335938 L 353.953125 60.382812 L 367.140625 62.910156 C 368.691406 63.207031 369.714844 63.949219 369.714844 64.777344 C 369.714844 65.605469 368.691406 66.347656 367.140625 66.644531 L 353.953125 69.167969 L 353.222656 76.21875 C 353.136719 77.046875 352.039062 77.761719 350.460938 78.019531 C 348.882812 78.273438 347.152344 78.019531 346.109375 77.375 Z M 303.015625 84.054688 C 300.855469 82.976562 300.855469 81.226562 303.015625 80.144531 C 305.175781 79.066406 308.675781 79.066406 310.835938 80.144531 C 312.996094 81.226562 312.996094 82.976562 310.835938 84.054688 C 308.675781 85.132812 305.175781 85.132812 303.015625 84.054688 Z M 372.351562 84.054688 C 370.191406 82.976562 370.191406 81.226562 372.351562 80.144531 C 374.511719 79.066406 378.011719 79.066406 380.171875 80.144531 C 382.332031 81.226562 382.332031 82.976562 380.171875 84.054688 C 378.011719 85.132812 374.511719 85.132812 372.351562 84.054688 Z M 327.472656 91.109375 C 324.523438 90.714844 322.773438 89.199219 323.5625 87.726562 C 324.355469 86.25 327.386719 85.375 330.335938 85.773438 C 333.285156 86.167969 335.035156 87.679688 334.242188 89.15625 C 333.453125 90.628906 330.421875 91.503906 327.472656 91.109375 Z M 348.941406 89.15625 C 348.152344 87.679688 349.902344 86.167969 352.851562 85.773438 C 355.800781 85.375 358.832031 86.25 359.621094 87.726562 C 360.414062 89.199219 358.664062 90.714844 355.714844 91.109375 C 352.765625 91.503906 349.730469 90.628906 348.941406 89.15625 Z M 348.941406 89.15625 "/>
<path style=" stroke:none;fill-rule:nonzero;fill:rgb(0%,0%,0%);fill-opacity:1;" d="M 258.992188 159.746094 L 246.980469 159.746094 L 246.980469 43.703125 L 399.144531 43.703125 L 399.144531 159.746094 L 275.011719 159.746094 C 272.800781 159.746094 271.007812 160.644531 271.007812 161.75 C 271.007812 162.855469 272.800781 163.75 275.011719 163.75 L 403.148438 163.75 C 405.359375 163.75 407.152344 162.855469 407.152344 161.75 L 407.152344 41.703125 C 407.152344 40.597656 405.359375 39.699219 403.148438 39.699219 L 242.976562 39.699219 C 240.765625 39.699219 238.972656 40.597656 238.972656 41.703125 L 238.972656 161.746094 C 238.972656 162.851562 240.765625 163.75 242.976562 163.75 L 258.992188 163.75 C 261.207031 163.75 262.996094 162.851562 262.996094 161.746094 C 262.996094 160.644531 261.207031 159.746094 258.992188 159.746094 Z M 258.992188 159.746094 "/>
<path style=" stroke:none;fill-rule:nonzero;fill:rgb(100%,84.313725%,0%);fill-opacity:1;" d="M 73.628906 69.996094 L 89.085938 85.585938 L 103.667969 71.085938 C 125.84375 94.902344 149.101562 117.859375 171.109375 141.769531 C 174.414062 145.105469 179.792969 145.121094 183.125 141.8125 C 186.453125 138.5 186.472656 133.113281 183.164062 129.78125 C 159.546875 107.464844 135.855469 84.96875 112.226562 62.574219 L 131.867188 43.042969 L 104.542969 39.253906 Z M 73.628906 69.996094 "/>
<path style=" stroke:none;fill-rule:nonzero;fill:rgb(100%,84.313725%,0%);fill-opacity:1;" d="M 123.5 19.527344 C 136.21875 26.699219 145.875 36.992188 151.570312 47.753906 C 157.34375 58.660156 159.878906 70.042969 159.933594 79.148438 C 160.039062 97.8125 144.820312 112.941406 126.179688 112.941406 C 116.234375 112.941406 107.292969 108.636719 101.113281 101.78125 L 97.699219 104.664062 C 97.117188 104.4375 96.5 104.324219 95.875 104.324219 C 94.375 104.324219 92.953125 104.984375 91.984375 106.128906 C 89.546875 106.449219 87.507812 108.136719 86.734375 110.472656 C 84.164062 115.632812 79.65625 119.679688 74.199219 121.535156 C 74.148438 121.550781 74.101562 121.574219 74.058594 121.597656 C 71.535156 122.523438 69.007812 124.195312 66.851562 126.359375 C 62.597656 130.65625 60.519531 136.15625 61.691406 140.015625 C 61.574219 140.351562 61.515625 140.703125 61.511719 141.054688 C 61.511719 142.839844 62.957031 144.28125 64.734375 144.28125 C 65.179688 144.28125 65.621094 144.1875 66.027344 144.007812 C 69.875 144.875 75.101562 142.738281 79.1875 138.625 C 81.503906 136.285156 83.238281 133.515625 84.089844 130.800781 C 85.988281 125.367188 90.070312 120.9375 95.253906 118.449219 C 95.378906 118.390625 95.476562 118.328125 95.566406 118.265625 C 97.304688 117.433594 98.578125 115.859375 99.03125 113.984375 C 106.984375 123.378906 118.90625 129.375 132.238281 129.691406 C 156.691406 130.265625 174.96875 112.246094 175.8125 86.328125 C 176.238281 73.285156 171.199219 56.46875 159.714844 42.675781 C 150.9375 32.136719 138.070312 23.382812 123.5 19.527344 Z M 123.5 19.527344 "/>
</g>
</svg>
