<?xml version="1.0" encoding="UTF-8"?>
<svg width="229px" height="156px" viewBox="0 0 229 156" xmlns="http://www.w3.org/2000/svg" xmlns:xlink="http://www.w3.org/1999/xlink" version="1.1">
 <!-- Generated by Pixelmator Pro 1.7.1 -->
 <g id="surface1">
  <path id="Путь" d="M221.898 7.149 L221.898 148.851 7.102 148.851 7.102 33.432 C7.102 31.546 5.574 30.008 3.694 30.008 L3.408 30.008 3.408 22.003 3.694 22.003 C5.574 22.003 7.102 20.468 7.102 18.579 L7.102 7.149 Z M150.73 67.873 C152.016 67.873 153.226 67.372 154.135 66.455 155.044 65.54 155.543 64.325 155.543 63.034 155.543 61.739 155.044 60.524 154.135 59.61 153.226 58.696 152.016 58.192 150.73 58.192 149.445 58.192 148.235 58.696 147.326 59.61 146.417 60.524 145.914 61.739 145.914 63.034 145.914 64.325 146.417 65.54 147.326 66.455 148.235 67.372 149.445 67.873 150.73 67.873 Z M171.63 74.652 C171.076 74.289 170.432 74.097 169.773 74.097 169.048 74.097 168.357 74.322 167.77 74.75 166.636 75.581 166.118 77.05 166.481 78.414 L169.91 91.247 159.636 99.6 C158.546 100.485 158.104 101.983 158.538 103.322 158.969 104.664 160.201 105.614 161.602 105.687 L174.799 106.372 179.526 118.781 C180.025 120.094 181.307 120.979 182.709 120.979 184.11 120.979 185.389 120.094 185.889 118.781 L190.615 106.372 203.812 105.687 C205.213 105.614 206.445 104.664 206.879 103.322 207.31 101.983 206.868 100.485 205.778 99.6 L195.504 91.247 198.934 78.414 C199.296 77.053 198.778 75.581 197.644 74.754 197.058 74.326 196.366 74.097 195.642 74.097 194.979 74.097 194.338 74.289 193.784 74.652 L182.705 81.896 Z M139.029 88.258 C141.202 88.258 143.111 86.785 143.675 84.67 144.005 83.423 143.835 82.117 143.194 81 142.549 79.879 141.513 79.077 140.271 78.744 139.862 78.631 139.442 78.577 139.022 78.577 136.849 78.577 134.937 80.053 134.375 82.164 133.687 84.743 135.215 87.402 137.78 88.095 138.189 88.203 138.609 88.258 139.029 88.258 Z M139.022 111.799 C139.442 111.799 139.862 111.741 140.271 111.632 142.835 110.939 144.36 108.28 143.675 105.705 143.111 103.59 141.202 102.114 139.029 102.114 138.609 102.114 138.189 102.172 137.78 102.281 136.537 102.614 135.498 103.416 134.857 104.537 134.212 105.654 134.042 106.96 134.375 108.208 134.94 110.322 136.849 111.799 139.022 111.799 Z M150.73 132.184 C152.016 132.184 153.226 131.679 154.135 130.762 155.044 129.848 155.543 128.633 155.543 127.341 155.543 126.046 155.044 124.831 154.135 123.917 153.226 123.003 152.016 122.499 150.73 122.499 149.445 122.499 148.235 123.003 147.326 123.917 146.417 124.831 145.914 126.046 145.914 127.341 145.914 128.633 146.417 129.848 147.326 130.762 148.235 131.679 149.445 132.184 150.73 132.184 Z M150.73 132.184" fill="#ed1f34" fill-opacity="1" stroke="none"/>
  <path id="Путь-1" d="M7.388 33.432 L7.388 148.564 221.612 148.564 221.612 7.436 7.388 7.436 7.388 18.579 C7.388 20.632 5.733 22.293 3.694 22.293 L3.694 29.722 C5.733 29.722 7.388 31.383 7.388 33.432 Z M159.455 99.375 L169.584 91.138 166.205 78.486 C165.807 77.003 166.361 75.425 167.6 74.518 168.248 74.046 169.008 73.811 169.773 73.811 170.472 73.811 171.171 74.006 171.786 74.409 L182.705 81.555 193.628 74.409 C194.91 73.571 196.576 73.615 197.815 74.518 199.053 75.425 199.607 77.003 199.209 78.486 L195.83 91.141 205.959 99.375 C207.151 100.344 207.622 101.947 207.151 103.412 206.677 104.874 205.355 105.893 203.83 105.973 L190.818 106.648 186.157 118.883 C185.61 120.319 184.237 121.269 182.709 121.269 181.177 121.269 179.804 120.319 179.258 118.883 L174.6 106.648 161.588 105.973 C160.06 105.893 158.738 104.874 158.263 103.412 157.792 101.947 158.267 100.344 159.455 99.375 Z M147.123 59.407 C149.115 57.405 152.346 57.405 154.337 59.407 156.329 61.409 156.329 64.655 154.337 66.658 152.346 68.664 149.115 68.664 147.123 66.658 145.131 64.655 145.131 61.409 147.123 59.407 Z M147.123 123.714 C149.115 121.712 152.346 121.712 154.337 123.714 156.329 125.716 156.329 128.963 154.337 130.968 152.346 132.971 149.115 132.971 147.123 130.968 145.131 128.963 145.131 125.716 147.123 123.714 Z M134.1 82.092 C134.828 79.357 137.624 77.732 140.344 78.464 143.067 79.197 144.679 82.008 143.951 84.747 143.223 87.482 140.423 89.103 137.703 88.37 134.984 87.638 133.368 84.826 134.1 82.092 Z M137.703 102.005 C140.423 101.269 143.223 102.894 143.951 105.629 144.679 108.364 143.067 111.175 140.344 111.911 137.624 112.644 134.828 111.019 134.1 108.284 133.368 105.549 134.984 102.734 137.703 102.005 Z M137.703 102.005" fill="#ed1f34" fill-opacity="1" stroke="none"/>
  <path id="Путь-2" d="M7.388 18.579 L7.388 7.436 221.612 7.436 221.612 148.564 7.388 148.564 7.388 33.432 C7.388 31.383 5.733 29.722 3.694 29.722 1.651 29.722 0 31.383 0 33.432 L0 152.278 C0 154.328 1.651 155.989 3.694 155.989 L225.306 155.989 C227.345 155.989 229 154.328 229 152.278 L229 3.722 C229 1.672 227.345 0.011 225.306 0.011 L3.694 0.011 C1.655 0.011 0 1.672 0 3.722 L0 18.579 C0 20.628 1.655 22.293 3.694 22.293 5.733 22.293 7.388 20.632 7.388 18.579 Z M7.388 18.579" fill="#000000" fill-opacity="1" stroke="none"/>
  <path id="Путь-3" d="M7.102 148.851 L7.102 7.149 221.898 7.149 221.898 122.564 C221.898 124.454 223.426 125.992 225.306 125.992 L225.592 125.992 225.592 133.994 225.306 133.994 C223.426 133.994 221.898 135.532 221.898 137.421 L221.898 148.851 Z M78.27 88.127 C76.984 88.127 75.774 88.628 74.865 89.545 73.956 90.46 73.457 91.675 73.457 92.966 73.457 94.261 73.956 95.476 74.865 96.39 75.774 97.304 76.984 97.808 78.27 97.808 79.555 97.808 80.765 97.304 81.674 96.39 82.583 95.476 83.086 94.261 83.086 92.966 83.086 91.675 82.583 90.46 81.674 89.545 80.765 88.628 79.555 88.127 78.27 88.127 Z M57.37 81.348 C57.924 81.711 58.568 81.903 59.227 81.903 59.952 81.903 60.643 81.678 61.23 81.246 62.364 80.419 62.882 78.95 62.519 77.586 L59.09 64.753 69.364 56.4 C70.454 55.515 70.896 54.017 70.462 52.678 70.031 51.336 68.799 50.386 67.398 50.313 L54.201 49.628 49.474 37.219 C48.975 35.906 47.693 35.021 46.291 35.021 44.89 35.021 43.611 35.906 43.111 37.219 L38.385 49.628 25.188 50.313 C23.787 50.386 22.555 51.336 22.121 52.678 21.69 54.017 22.132 55.515 23.222 56.4 L33.496 64.753 30.066 77.586 C29.704 78.947 30.222 80.419 31.356 81.246 31.942 81.674 32.634 81.903 33.358 81.903 34.021 81.903 34.662 81.711 35.216 81.348 L46.295 74.101 Z M89.971 67.739 C87.798 67.739 85.889 69.215 85.325 71.33 84.995 72.577 85.165 73.883 85.806 75 86.451 76.121 87.487 76.923 88.729 77.256 89.138 77.365 89.558 77.423 89.978 77.423 92.151 77.423 94.063 75.947 94.625 73.836 95.313 71.257 93.785 68.598 91.22 67.905 90.811 67.797 90.391 67.739 89.971 67.739 Z M89.978 44.201 C89.558 44.201 89.138 44.259 88.729 44.368 86.165 45.061 84.64 47.72 85.325 50.295 85.889 52.41 87.798 53.886 89.971 53.886 90.391 53.886 90.811 53.828 91.22 53.719 92.463 53.386 93.502 52.584 94.143 51.463 94.788 50.346 94.958 49.04 94.625 47.792 94.06 45.678 92.151 44.201 89.978 44.201 Z M78.27 23.816 C76.984 23.816 75.774 24.321 74.865 25.235 73.956 26.149 73.457 27.367 73.457 28.659 73.457 29.954 73.956 31.169 74.865 32.083 75.774 32.997 76.984 33.501 78.27 33.501 79.555 33.501 80.765 32.997 81.674 32.083 82.583 31.169 83.086 29.954 83.086 28.659 83.086 27.367 82.583 26.149 81.674 25.235 80.765 24.321 79.555 23.816 78.27 23.816 Z M78.27 23.816" fill="#ed1f34" fill-opacity="1" stroke="none"/>
  <path id="Путь-4" d="M221.612 122.564 L221.612 7.436 7.388 7.436 7.388 148.564 221.612 148.564 221.612 137.421 C221.612 135.368 223.267 133.707 225.306 133.707 L225.306 126.278 C223.267 126.278 221.612 124.617 221.612 122.564 Z M69.545 56.625 L59.416 64.862 62.795 77.514 C63.193 78.997 62.639 80.575 61.4 81.482 60.752 81.954 59.992 82.189 59.227 82.189 58.528 82.189 57.829 81.99 57.214 81.591 L46.295 74.445 35.372 81.591 C34.09 82.429 32.424 82.385 31.185 81.482 29.947 80.575 29.393 78.997 29.791 77.51 L33.17 64.859 23.041 56.625 C21.849 55.656 21.378 54.049 21.849 52.588 22.323 51.126 23.645 50.107 25.17 50.027 L38.182 49.352 42.843 37.117 C43.39 35.681 44.763 34.731 46.291 34.731 47.823 34.731 49.196 35.681 49.742 37.117 L54.4 49.352 67.412 50.027 C68.94 50.107 70.262 51.126 70.737 52.588 71.208 54.053 70.733 55.656 69.545 56.625 Z M81.877 96.593 C79.885 98.595 76.654 98.595 74.663 96.593 72.671 94.591 72.671 91.345 74.663 89.339 76.654 87.336 79.885 87.336 81.877 89.339 83.869 91.341 83.869 94.591 81.877 96.593 Z M81.877 32.286 C79.885 34.288 76.654 34.288 74.663 32.286 72.671 30.284 72.671 27.034 74.663 25.032 76.654 23.029 79.885 23.029 81.877 25.032 83.869 27.034 83.869 30.284 81.877 32.286 Z M94.9 73.908 C94.172 76.643 91.376 78.268 88.656 77.536 85.933 76.803 84.321 73.992 85.049 71.253 85.777 68.518 88.577 66.897 91.297 67.63 94.016 68.362 95.632 71.174 94.9 73.908 Z M91.297 53.995 C88.577 54.728 85.777 53.106 85.049 50.371 84.321 47.636 85.933 44.825 88.656 44.089 91.376 43.356 94.172 44.981 94.9 47.716 95.632 50.451 94.016 53.266 91.297 53.995 Z M91.297 53.995" fill="#ed1f34" fill-opacity="1" stroke="none"/>
  <path id="Путь-5" d="M221.612 137.421 L221.612 148.564 7.388 148.564 7.388 7.436 221.612 7.436 221.612 122.564 C221.612 124.617 223.267 126.278 225.306 126.278 227.349 126.278 229 124.617 229 122.564 L229 3.722 C229 1.672 227.349 0.011 225.306 0.011 L3.694 0.011 C1.655 0.007 0 1.672 0 3.722 L0 152.278 C0 154.328 1.655 155.989 3.694 155.989 L225.306 155.989 C227.345 155.989 229 154.328 229 152.278 L229 137.421 C229 135.368 227.345 133.707 225.306 133.707 223.267 133.707 221.612 135.368 221.612 137.421 Z M221.612 137.421" fill="#000000" fill-opacity="1" stroke="none"/>
  <path id="Путь-6" d="M228.696 40.436 L370.343 40.436 370.343 148.481 254.97 148.481 C253.08 148.481 251.544 149.25 251.544 150.196 L251.544 150.338 243.544 150.338 243.544 150.196 C243.544 149.25 242.009 148.481 240.118 148.481 L228.696 148.481 Z M289.397 76.237 C289.397 75.588 288.894 74.982 287.978 74.521 287.065 74.064 285.852 73.814 284.559 73.814 283.266 73.814 282.049 74.064 281.136 74.521 280.22 74.982 279.717 75.588 279.717 76.237 279.717 76.883 280.22 77.492 281.136 77.949 282.049 78.406 283.266 78.657 284.559 78.657 285.852 78.657 287.065 78.406 287.978 77.949 288.894 77.492 289.397 76.883 289.397 76.237 Z M296.173 65.722 C295.807 66.001 295.619 66.324 295.619 66.658 295.619 67.02 295.844 67.369 296.271 67.666 297.1 68.235 298.571 68.497 299.932 68.312 L312.76 66.589 321.111 71.758 C321.995 72.305 323.491 72.527 324.831 72.309 326.174 72.091 327.123 71.471 327.196 70.767 L327.88 64.129 340.284 61.75 C341.599 61.5 342.482 60.854 342.482 60.15 342.482 59.447 341.599 58.801 340.284 58.551 L327.88 56.171 327.196 49.533 C327.123 48.83 326.171 48.21 324.831 47.992 323.491 47.774 321.995 47.996 321.111 48.547 L312.76 53.716 299.932 51.989 C298.571 51.804 297.1 52.065 296.271 52.638 295.844 52.932 295.619 53.28 295.619 53.643 295.619 53.977 295.811 54.3 296.173 54.579 L303.416 60.15 Z M309.776 82.121 C309.776 81.029 308.298 80.068 306.187 79.785 304.937 79.618 303.634 79.701 302.515 80.028 301.395 80.35 300.595 80.873 300.262 81.497 300.153 81.703 300.095 81.914 300.095 82.124 300.095 83.216 301.569 84.177 303.684 84.46 306.259 84.808 308.917 84.039 309.609 82.752 309.718 82.545 309.776 82.331 309.776 82.121 Z M333.305 82.124 C333.305 81.914 333.247 81.703 333.139 81.497 332.447 80.205 329.789 79.44 327.21 79.785 325.099 80.068 323.625 81.029 323.625 82.121 323.625 82.331 323.679 82.545 323.791 82.748 324.125 83.376 324.925 83.898 326.044 84.221 327.163 84.544 328.467 84.631 329.716 84.46 331.828 84.177 333.305 83.216 333.305 82.124 Z M353.68 76.237 C353.68 75.588 353.177 74.982 352.264 74.521 351.348 74.064 350.135 73.814 348.842 73.814 347.549 73.814 346.332 74.064 345.419 74.521 344.503 74.982 344 75.588 344 76.237 344 76.883 344.503 77.492 345.419 77.949 346.332 78.406 347.549 78.657 348.842 78.657 350.135 78.657 351.348 78.406 352.264 77.949 353.177 77.492 353.68 76.883 353.68 76.237 Z M353.68 76.237" fill="#ed1f34" fill-opacity="1" stroke="none"/>
  <path id="Путь-7" d="M254.97 148.336 L370.057 148.336 370.057 40.581 228.982 40.581 228.982 148.336 240.118 148.336 C242.172 148.336 243.83 149.17 243.83 150.196 L251.258 150.196 C251.258 149.17 252.921 148.336 254.97 148.336 Z M320.887 71.848 L312.651 66.752 300.005 68.453 C298.52 68.653 296.945 68.373 296.039 67.749 295.568 67.423 295.329 67.042 295.329 66.658 295.329 66.306 295.529 65.954 295.93 65.646 L303.072 60.15 295.93 54.659 C295.094 54.013 295.134 53.175 296.039 52.551 296.945 51.931 298.52 51.652 300.008 51.851 L312.655 53.549 320.887 48.456 C321.854 47.854 323.458 47.618 324.921 47.854 326.384 48.093 327.402 48.757 327.482 49.526 L328.159 56.07 340.385 58.417 C341.823 58.692 342.772 59.381 342.772 60.15 342.772 60.919 341.823 61.609 340.385 61.884 L328.159 64.227 327.482 70.775 C327.402 71.544 326.384 72.207 324.921 72.447 323.458 72.682 321.854 72.447 320.887 71.848 Z M280.934 78.051 C278.931 77.05 278.931 75.425 280.934 74.42 282.936 73.419 286.181 73.419 288.184 74.42 290.187 75.425 290.187 77.05 288.184 78.051 286.181 79.052 282.936 79.052 280.934 78.051 Z M345.217 78.051 C343.214 77.05 343.214 75.425 345.217 74.42 347.219 73.419 350.464 73.419 352.467 74.42 354.47 75.425 354.47 77.05 352.467 78.051 350.464 79.052 347.219 79.052 345.217 78.051 Z M303.608 84.602 C300.874 84.235 299.251 82.828 299.983 81.46 300.718 80.089 303.529 79.277 306.263 79.647 308.997 80.013 310.62 81.417 309.884 82.788 309.153 84.155 306.343 84.968 303.608 84.602 Z M323.512 82.788 C322.781 81.417 324.403 80.013 327.138 79.647 329.872 79.277 332.682 80.089 333.414 81.46 334.149 82.828 332.527 84.235 329.792 84.602 327.058 84.968 324.244 84.155 323.512 82.788 Z M323.512 82.788" fill="#ed1f34" fill-opacity="1" stroke="none"/>
  <path id="Путь-8" d="M240.118 148.336 L228.982 148.336 228.982 40.581 370.057 40.581 370.057 148.336 254.97 148.336 C252.921 148.336 251.258 149.17 251.258 150.196 251.258 151.223 252.921 152.054 254.97 152.054 L373.769 152.054 C375.819 152.054 377.481 151.223 377.481 150.196 L377.481 38.724 C377.481 37.698 375.819 36.864 373.769 36.864 L225.27 36.864 C223.22 36.864 221.558 37.698 221.558 38.724 L221.558 150.193 C221.558 151.219 223.22 152.054 225.27 152.054 L240.118 152.054 C242.172 152.054 243.83 151.219 243.83 150.193 243.83 149.17 242.172 148.336 240.118 148.336 Z M240.118 148.336" fill="#000000" fill-opacity="1" stroke="none"/>
  <path id="Путь-9" d="M68.263 64.996 L82.594 79.473 96.113 66.008 C116.673 88.124 138.236 109.441 158.64 131.643 161.704 134.741 166.691 134.755 169.78 131.683 172.865 128.607 172.884 123.605 169.816 120.511 147.92 99.789 125.955 78.9 104.048 58.105 L122.257 39.968 96.924 36.45 Z M68.263 64.996" fill="#ffd700" fill-opacity="1" stroke="none"/>
  <path id="Путь-10" d="M114.5 18.133 C126.292 24.792 135.244 34.35 140.525 44.343 145.877 54.47 148.228 65.04 148.279 73.495 148.376 90.826 134.267 104.874 116.984 104.874 107.764 104.874 99.474 100.877 93.745 94.511 L90.579 97.188 C90.04 96.978 89.468 96.872 88.888 96.872 87.497 96.872 86.179 97.485 85.281 98.548 83.021 98.846 81.131 100.413 80.414 102.582 78.031 107.373 73.851 111.131 68.792 112.854 68.745 112.869 68.701 112.89 68.662 112.912 66.322 113.772 63.979 115.324 61.98 117.334 58.036 121.324 56.109 126.431 57.196 130.015 57.087 130.326 57.033 130.653 57.029 130.979 57.029 132.637 58.369 133.975 60.017 133.975 60.43 133.975 60.839 133.888 61.216 133.722 64.783 134.527 69.629 132.543 73.417 128.723 75.564 126.551 77.172 123.979 77.962 121.458 79.722 116.412 83.506 112.299 88.312 109.989 88.428 109.934 88.519 109.876 88.602 109.818 90.214 109.045 91.394 107.584 91.814 105.843 99.188 114.566 110.241 120.134 122.601 120.428 145.273 120.961 162.218 104.229 163 80.162 163.395 68.05 158.723 52.435 148.076 39.628 139.938 29.841 128.009 21.713 114.5 18.133 Z M114.5 18.133" fill="#ffd700" fill-opacity="1" stroke="none"/>
 </g>
</svg>
