<?xml version="1.0" encoding="UTF-8"?>
<svg xmlns="http://www.w3.org/2000/svg" xmlns:xlink="http://www.w3.org/1999/xlink" width="248pt" height="168pt" viewBox="0 0 248 168" version="1.1">
<g id="surface1">
<path style=" stroke:none;fill-rule:nonzero;fill:rgb(23.921569%,70.588235%,91.764706%);fill-opacity:1;" d="M 120 84.015625 L 120 74.304688 L 110.773438 77.304688 C 112.878906 80.566406 116.152344 83.003906 120 84.015625 Z M 120 84.015625 "/>
<path style=" stroke:none;fill-rule:nonzero;fill:rgb(23.921569%,70.588235%,91.764706%);fill-opacity:1;" d="M 137.226562 77.304688 L 128 74.304688 L 128 84.015625 C 131.847656 83.003906 135.121094 80.566406 137.226562 77.304688 Z M 137.226562 77.304688 "/>
<path style=" stroke:none;fill-rule:nonzero;fill:rgb(23.921569%,70.588235%,91.764706%);fill-opacity:1;" d="M 111.824219 58.847656 C 109.601562 61.5625 108.265625 65.027344 108.265625 68.800781 C 108.265625 69.101562 108.277344 69.398438 108.292969 69.699219 L 117.527344 66.695312 Z M 111.824219 58.847656 "/>
<path style=" stroke:none;fill-rule:nonzero;fill:rgb(23.921569%,70.588235%,91.764706%);fill-opacity:1;" d="M 118.292969 54.140625 L 124 61.996094 L 129.707031 54.140625 C 127.933594 53.449219 126.011719 53.066406 124 53.066406 C 121.988281 53.066406 120.066406 53.449219 118.292969 54.140625 Z M 118.292969 54.140625 "/>
<path style=" stroke:none;fill-rule:nonzero;fill:rgb(23.921569%,70.588235%,91.764706%);fill-opacity:1;" d="M 139.707031 69.699219 C 139.722656 69.398438 139.734375 69.101562 139.734375 68.800781 C 139.734375 65.027344 138.398438 61.5625 136.175781 58.847656 L 130.472656 66.695312 Z M 139.707031 69.699219 "/>
<path style=" stroke:none;fill-rule:nonzero;fill:rgb(23.921569%,70.588235%,91.764706%);fill-opacity:1;" d="M 100.515625 72.222656 C 100.355469 71.105469 100.265625 69.964844 100.265625 68.800781 C 100.265625 62.363281 102.847656 56.519531 107.023438 52.238281 L 100.0625 42.65625 C 92.980469 49.144531 88.535156 58.460938 88.535156 68.800781 C 88.535156 71.226562 88.777344 73.597656 89.246094 75.886719 Z M 100.515625 72.222656 "/>
<path style=" stroke:none;fill-rule:nonzero;fill:rgb(23.921569%,70.588235%,91.764706%);fill-opacity:1;" d="M 147.9375 42.65625 L 140.976562 52.238281 C 145.152344 56.519531 147.734375 62.363281 147.734375 68.800781 C 147.734375 69.964844 147.644531 71.105469 147.484375 72.222656 L 158.753906 75.886719 C 159.222656 73.597656 159.464844 71.226562 159.464844 68.800781 C 159.464844 58.460938 155.019531 49.144531 147.9375 42.65625 Z M 147.9375 42.65625 "/>
<path style=" stroke:none;fill-rule:nonzero;fill:rgb(23.921569%,70.588235%,91.764706%);fill-opacity:1;" d="M 20 8 L 8 8 L 8 160 L 240 160 L 240 8 L 36 8 C 33.789062 8 32 6.210938 32 4 L 24 4 C 24 6.210938 22.210938 8 20 8 Z M 98.453125 33.632812 C 98.578125 33.539062 98.714844 33.457031 98.847656 33.382812 C 105.953125 28.320312 114.632812 25.332031 124 25.332031 C 133.367188 25.332031 142.046875 28.320312 149.152344 33.382812 C 149.289062 33.460938 149.421875 33.542969 149.546875 33.632812 C 149.660156 33.714844 149.769531 33.800781 149.871094 33.894531 C 160.539062 41.824219 167.464844 54.515625 167.464844 68.800781 C 167.464844 73.453125 166.722656 77.933594 165.363281 82.140625 C 165.355469 82.171875 165.347656 82.203125 165.339844 82.230469 C 165.332031 82.261719 165.316406 82.285156 165.304688 82.3125 C 159.609375 99.683594 143.25 112.265625 124 112.265625 C 104.75 112.265625 88.390625 99.683594 82.695312 82.3125 C 82.683594 82.285156 82.667969 82.257812 82.660156 82.230469 C 82.652344 82.203125 82.644531 82.171875 82.636719 82.140625 C 81.277344 77.933594 80.535156 73.453125 80.535156 68.800781 C 80.535156 54.515625 87.460938 41.824219 98.128906 33.894531 C 98.230469 33.804688 98.339844 33.71875 98.453125 33.632812 Z M 73.792969 32.480469 C 75.089844 30.691406 77.589844 30.292969 79.378906 31.589844 C 81.167969 32.886719 81.566406 35.386719 80.269531 37.175781 C 73.554688 46.429688 70.007812 57.367188 70.007812 68.800781 C 70.007812 98.570312 94.226562 122.789062 123.996094 122.792969 C 153.773438 122.789062 177.992188 98.570312 177.992188 68.800781 C 177.992188 57.367188 174.445312 46.429688 167.730469 37.175781 C 166.433594 35.386719 166.832031 32.886719 168.621094 31.589844 C 170.410156 30.292969 172.910156 30.691406 174.207031 32.480469 C 181.917969 43.109375 185.992188 55.667969 185.992188 68.800781 C 185.992188 99.265625 163.902344 124.667969 134.902344 129.832031 L 142.546875 135.441406 C 144.328125 136.75 144.710938 139.253906 143.402344 141.035156 C 142.617188 142.101562 141.40625 142.667969 140.175781 142.667969 C 139.351562 142.667969 138.523438 142.414062 137.8125 141.890625 L 124 131.753906 L 110.1875 141.890625 C 108.410156 143.199219 105.90625 142.816406 104.597656 141.035156 C 103.289062 139.253906 103.675781 136.75 105.457031 135.441406 L 113.097656 129.832031 C 84.097656 124.667969 62.007812 99.265625 62.007812 68.800781 C 62.007812 55.667969 66.082031 43.109375 73.792969 32.480469 Z M 73.792969 32.480469 "/>
<path style=" stroke:none;fill-rule:nonzero;fill:rgb(23.921569%,70.588235%,91.764706%);fill-opacity:1;" d="M 120 92.1875 C 112.609375 90.929688 106.378906 86.246094 102.996094 79.832031 L 91.730469 83.488281 C 96.800781 94.574219 107.40625 102.613281 120 104.035156 Z M 120 92.1875 "/>
<path style=" stroke:none;fill-rule:nonzero;fill:rgb(23.921569%,70.588235%,91.764706%);fill-opacity:1;" d="M 113.488281 47.527344 C 116.660156 45.957031 120.226562 45.066406 124 45.066406 C 127.773438 45.066406 131.339844 45.957031 134.511719 47.527344 L 141.46875 37.953125 C 136.308594 35.019531 130.347656 33.332031 124 33.332031 C 117.652344 33.332031 111.691406 35.019531 106.53125 37.953125 Z M 113.488281 47.527344 "/>
<path style=" stroke:none;fill-rule:nonzero;fill:rgb(23.921569%,70.588235%,91.764706%);fill-opacity:1;" d="M 145.003906 79.832031 C 141.621094 86.246094 135.390625 90.929688 128 92.191406 L 128 104.035156 C 140.589844 102.613281 151.199219 94.578125 156.269531 83.492188 Z M 145.003906 79.832031 "/>
<path style=" stroke:none;fill-rule:nonzero;fill:rgb(0%,0%,0%);fill-opacity:1;" d="M 244 0 L 36 0 C 33.789062 0 32 1.789062 32 4 C 32 6.210938 33.789062 8 36 8 L 240 8 L 240 160 L 8 160 L 8 8 L 20 8 C 22.210938 8 24 6.210938 24 4 C 24 1.789062 22.210938 0 20 0 L 4 0 C 1.789062 0 0 1.789062 0 4 L 0 164 C 0 166.210938 1.789062 168 4 168 L 244 168 C 246.210938 168 248 166.210938 248 164 L 248 4 C 248 1.789062 246.210938 0 244 0 Z M 244 0 "/>
<path style=" stroke:none;fill-rule:nonzero;fill:rgb(0%,0%,0%);fill-opacity:1;" d="M 243.492188 0 L 9.101562 0 C 6.609375 0 4.59375 1.789062 4.59375 4 C 4.59375 6.210938 6.609375 8 9.101562 8 L 238.984375 8 L 238.984375 160 L -22.453125 160 L -22.453125 8 L -8.929688 8 C -6.4375 8 -4.421875 6.210938 -4.421875 4 C -4.421875 1.789062 -6.4375 0 -8.929688 0 L -26.957031 0 C -29.449219 0 -31.464844 1.789062 -31.464844 4 L -31.464844 164 C -31.464844 166.210938 -29.449219 168 -26.957031 168 L 243.492188 168 C 245.980469 168 248 166.210938 248 164 L 248 4 C 248 1.789062 245.980469 0 243.492188 0 Z M 243.492188 0 "/>
<path style=" stroke:none;fill-rule:nonzero;fill:rgb(100%,100%,100%);fill-opacity:1;" d="M 80.535156 68.800781 C 80.535156 73.453125 81.277344 77.933594 82.636719 82.140625 C 82.644531 82.171875 82.652344 82.203125 82.660156 82.230469 C 82.667969 82.261719 82.683594 82.285156 82.695312 82.3125 C 88.390625 99.683594 104.75 112.265625 124 112.265625 C 143.25 112.265625 159.609375 99.683594 165.304688 82.3125 C 165.316406 82.285156 165.332031 82.257812 165.339844 82.230469 C 165.347656 82.203125 165.355469 82.171875 165.363281 82.140625 C 166.722656 77.933594 167.464844 73.453125 167.464844 68.800781 C 167.464844 54.515625 160.539062 41.824219 149.871094 33.894531 C 149.769531 33.804688 149.660156 33.71875 149.546875 33.636719 C 149.421875 33.542969 149.285156 33.460938 149.152344 33.382812 C 142.046875 28.324219 133.367188 25.332031 124 25.332031 C 114.632812 25.332031 105.953125 28.320312 98.847656 33.382812 C 98.714844 33.460938 98.578125 33.542969 98.453125 33.636719 C 98.339844 33.71875 98.230469 33.804688 98.128906 33.894531 C 87.460938 41.824219 80.535156 54.515625 80.535156 68.800781 Z M 100.0625 42.65625 L 107.023438 52.238281 C 102.847656 56.519531 100.265625 62.363281 100.265625 68.800781 C 100.265625 69.964844 100.355469 71.105469 100.515625 72.222656 L 89.246094 75.886719 C 88.777344 73.597656 88.535156 71.226562 88.535156 68.800781 C 88.535156 58.460938 92.980469 49.144531 100.0625 42.65625 Z M 139.734375 68.800781 C 139.734375 69.101562 139.722656 69.398438 139.707031 69.699219 L 130.472656 66.695312 L 136.175781 58.847656 C 138.398438 61.5625 139.734375 65.027344 139.734375 68.800781 Z M 108.265625 68.800781 C 108.265625 65.027344 109.601562 61.5625 111.824219 58.847656 L 117.527344 66.695312 L 108.292969 69.699219 C 108.277344 69.398438 108.265625 69.101562 108.265625 68.800781 Z M 120 74.304688 L 120 84.015625 C 116.152344 83.003906 112.878906 80.566406 110.773438 77.304688 Z M 128 74.304688 L 137.226562 77.304688 C 135.121094 80.566406 131.847656 83.003906 128 84.015625 Z M 124 61.996094 L 118.292969 54.140625 C 120.066406 53.449219 121.988281 53.066406 124 53.066406 C 126.011719 53.066406 127.933594 53.449219 129.707031 54.140625 Z M 91.730469 83.492188 L 102.996094 79.832031 C 106.378906 86.246094 112.613281 90.929688 120 92.191406 L 120 104.035156 C 107.410156 102.613281 96.800781 94.578125 91.730469 83.492188 Z M 128 104.035156 L 128 92.1875 C 135.390625 90.929688 141.621094 86.246094 145.003906 79.832031 L 156.269531 83.488281 C 151.199219 94.578125 140.589844 102.613281 128 104.035156 Z M 159.464844 68.800781 C 159.464844 71.226562 159.222656 73.597656 158.753906 75.886719 L 147.484375 72.222656 C 147.644531 71.105469 147.734375 69.964844 147.734375 68.800781 C 147.734375 62.363281 145.152344 56.519531 140.976562 52.238281 L 147.9375 42.65625 C 155.019531 49.144531 159.464844 58.460938 159.464844 68.800781 Z M 141.46875 37.953125 L 134.511719 47.527344 C 131.339844 45.957031 127.773438 45.066406 124 45.066406 C 120.226562 45.066406 116.660156 45.957031 113.488281 47.527344 L 106.53125 37.953125 C 111.691406 35.019531 117.652344 33.332031 124 33.332031 C 130.347656 33.332031 136.308594 35.019531 141.46875 37.953125 Z M 141.46875 37.953125 "/>
<path style=" stroke:none;fill-rule:nonzero;fill:rgb(100%,100%,100%);fill-opacity:1;" d="M 113.097656 129.832031 L 105.457031 135.441406 C 103.675781 136.75 103.289062 139.253906 104.597656 141.035156 C 105.90625 142.816406 108.410156 143.199219 110.1875 141.890625 L 124 131.753906 L 137.8125 141.890625 C 138.523438 142.414062 139.355469 142.667969 140.175781 142.667969 C 141.40625 142.667969 142.621094 142.101562 143.402344 141.035156 C 144.710938 139.253906 144.328125 136.75 142.546875 135.441406 L 134.902344 129.832031 C 163.90625 124.667969 185.992188 99.265625 185.992188 68.800781 C 185.992188 55.667969 181.917969 43.109375 174.207031 32.480469 C 172.910156 30.691406 170.410156 30.292969 168.621094 31.589844 C 166.832031 32.886719 166.433594 35.386719 167.730469 37.175781 C 174.445312 46.429688 177.992188 57.367188 177.992188 68.800781 C 177.992188 98.570312 153.773438 122.789062 124.003906 122.792969 C 94.226562 122.789062 70.007812 98.570312 70.007812 68.800781 C 70.007812 57.367188 73.558594 46.429688 80.269531 37.175781 C 81.566406 35.386719 81.167969 32.886719 79.378906 31.589844 C 77.59375 30.292969 75.089844 30.6875 73.792969 32.480469 C 66.082031 43.109375 62.007812 55.667969 62.007812 68.800781 C 62.007812 99.265625 84.097656 124.667969 113.097656 129.832031 Z M 113.097656 129.832031 "/>
</g>
</svg>
