<?xml version="1.0" encoding="UTF-8"?>
<svg width="230px" height="156px" viewBox="0 0 230 156" xmlns="http://www.w3.org/2000/svg" xmlns:xlink="http://www.w3.org/1999/xlink" version="1.1">
 <!-- Generated by Pixelmator Pro 1.7.1 -->
 <g id="surface1">
  <path id="Путь" d="M111.29 78.015 L111.29 68.997 102.733 71.783 C104.686 74.812 107.722 77.075 111.29 78.015 Z M111.29 78.015" fill="#3db4ea" fill-opacity="1" stroke="none"/>
  <path id="Путь-1" d="M127.267 71.783 L118.71 68.997 118.71 78.015 C122.278 77.075 125.314 74.812 127.267 71.783 Z M127.267 71.783" fill="#3db4ea" fill-opacity="1" stroke="none"/>
  <path id="Путь-2" d="M103.708 54.644 C101.647 57.165 100.408 60.383 100.408 63.886 100.408 64.166 100.419 64.441 100.433 64.721 L108.997 61.931 Z M103.708 54.644" fill="#3db4ea" fill-opacity="1" stroke="none"/>
  <path id="Путь-3" d="M109.707 50.273 L115 57.568 120.293 50.273 C118.648 49.631 116.866 49.276 115 49.276 113.134 49.276 111.352 49.631 109.707 50.273 Z M109.707 50.273" fill="#3db4ea" fill-opacity="1" stroke="none"/>
  <path id="Путь-4" d="M129.567 64.721 C129.581 64.441 129.592 64.166 129.592 63.886 129.592 60.383 128.353 57.165 126.292 54.644 L121.003 61.931 Z M129.567 64.721" fill="#3db4ea" fill-opacity="1" stroke="none"/>
  <path id="Путь-5" d="M93.22 67.064 C93.072 66.027 92.988 64.967 92.988 63.886 92.988 57.909 95.383 52.482 99.256 48.507 L92.8 39.609 C86.232 45.634 82.109 54.285 82.109 63.886 82.109 66.139 82.334 68.341 82.769 70.466 Z M93.22 67.064" fill="#3db4ea" fill-opacity="1" stroke="none"/>
  <path id="Путь-6" d="M137.2 39.609 L130.744 48.507 C134.617 52.482 137.012 57.909 137.012 63.886 137.012 64.967 136.928 66.027 136.78 67.064 L147.231 70.466 C147.666 68.341 147.891 66.139 147.891 63.886 147.891 54.285 143.768 45.634 137.2 39.609 Z M137.2 39.609" fill="#3db4ea" fill-opacity="1" stroke="none"/>
  <path id="Путь-7" d="M18.548 7.429 L7.419 7.429 7.419 148.571 222.581 148.571 222.581 7.429 33.387 7.429 C31.337 7.429 29.677 5.767 29.677 3.714 L22.258 3.714 C22.258 5.767 20.599 7.429 18.548 7.429 Z M91.307 31.23 C91.423 31.143 91.55 31.067 91.673 30.998 98.263 26.297 106.313 23.523 115 23.523 123.687 23.523 131.737 26.297 138.327 30.998 138.454 31.071 138.577 31.147 138.693 31.23 138.798 31.307 138.899 31.386 138.993 31.473 148.887 38.837 155.31 50.622 155.31 63.886 155.31 68.206 154.622 72.367 153.361 76.273 153.354 76.302 153.347 76.331 153.339 76.357 153.332 76.386 153.318 76.408 153.307 76.433 148.025 92.563 132.853 104.247 115 104.247 97.147 104.247 81.975 92.563 76.693 76.433 76.682 76.408 76.668 76.382 76.661 76.357 76.653 76.331 76.646 76.302 76.639 76.273 75.378 72.367 74.69 68.206 74.69 63.886 74.69 50.622 81.113 38.837 91.007 31.473 91.101 31.39 91.202 31.31 91.307 31.23 Z M68.437 30.16 C69.64 28.499 71.958 28.129 73.618 29.333 75.277 30.538 75.646 32.859 74.444 34.52 68.216 43.113 64.927 53.27 64.927 63.886 64.927 91.53 87.388 114.018 114.996 114.022 142.612 114.018 165.073 91.53 165.073 63.886 165.073 53.27 161.784 43.113 155.556 34.52 154.354 32.859 154.723 30.538 156.382 29.333 158.042 28.129 160.36 28.499 161.563 30.16 168.714 40.03 172.493 51.692 172.493 63.886 172.493 92.175 152.006 115.763 125.111 120.558 L132.201 125.767 C133.853 126.982 134.208 129.307 132.994 130.961 132.266 131.951 131.143 132.477 130.002 132.477 129.237 132.477 128.469 132.242 127.81 131.756 L115 122.343 102.19 131.756 C100.542 132.971 98.22 132.615 97.006 130.961 95.792 129.307 96.151 126.982 97.803 125.767 L104.889 120.558 C77.994 115.763 57.507 92.175 57.507 63.886 57.507 51.692 61.286 40.03 68.437 30.16 Z M68.437 30.16" fill="#3db4ea" fill-opacity="1" stroke="none"/>
  <path id="Путь-8" d="M111.29 85.603 C104.436 84.435 98.658 80.086 95.521 74.13 L85.073 77.525 C89.775 87.819 99.611 95.284 111.29 96.604 Z M111.29 85.603" fill="#3db4ea" fill-opacity="1" stroke="none"/>
  <path id="Путь-9" d="M105.251 44.133 C108.193 42.674 111.5 41.847 115 41.847 118.5 41.847 121.807 42.674 124.749 44.133 L131.201 35.242 C126.415 32.518 120.887 30.951 115 30.951 109.113 30.951 103.585 32.518 98.799 35.242 Z M105.251 44.133" fill="#3db4ea" fill-opacity="1" stroke="none"/>
  <path id="Путь-10" d="M134.479 74.13 C131.342 80.086 125.564 84.435 118.71 85.606 L118.71 96.604 C130.386 95.284 140.225 87.823 144.927 77.528 Z M134.479 74.13" fill="#3db4ea" fill-opacity="1" stroke="none"/>
  <path id="Путь-11" d="M226.29 0 L33.387 0 C31.337 0 29.677 1.661 29.677 3.714 29.677 5.767 31.337 7.429 33.387 7.429 L222.581 7.429 222.581 148.571 7.419 148.571 7.419 7.429 18.548 7.429 C20.599 7.429 22.258 5.767 22.258 3.714 22.258 1.661 20.599 0 18.548 0 L3.71 0 C1.659 0 -0 1.661 -0 3.714 L-0 152.286 C-0 154.339 1.659 156 3.71 156 L226.29 156 C228.341 156 230 154.339 230 152.286 L230 3.714 C230 1.661 228.341 0 226.29 0 Z M226.29 0" fill="#000000" fill-opacity="1" stroke="none"/>
  <path id="Путь-12" d="M225.819 0 L8.441 0 C6.13 0 4.26 1.661 4.26 3.714 4.26 5.767 6.13 7.429 8.441 7.429 L221.639 7.429 221.639 148.571 -20.823 148.571 -20.823 7.429 -8.282 7.429 C-5.97 7.429 -4.101 5.767 -4.101 3.714 -4.101 1.661 -5.97 0 -8.282 0 L-25 0 C-27.312 0 -29.181 1.661 -29.181 3.714 L-29.181 152.286 C-29.181 154.339 -27.312 156 -25 156 L225.819 156 C228.127 156 230 154.339 230 152.286 L230 3.714 C230 1.661 228.127 0 225.819 0 Z M225.819 0" fill="#000000" fill-opacity="1" stroke="none"/>
  <path id="Путь-13" d="M74.69 63.886 C74.69 68.206 75.378 72.367 76.639 76.273 76.646 76.302 76.653 76.331 76.661 76.357 76.668 76.386 76.682 76.408 76.693 76.433 81.975 92.563 97.147 104.247 115 104.247 132.853 104.247 148.025 92.563 153.307 76.433 153.318 76.408 153.332 76.382 153.339 76.357 153.347 76.331 153.354 76.302 153.361 76.273 154.622 72.367 155.31 68.206 155.31 63.886 155.31 50.622 148.887 38.837 138.993 31.473 138.899 31.39 138.798 31.31 138.693 31.234 138.577 31.147 138.45 31.071 138.327 30.998 131.737 26.301 123.687 23.523 115 23.523 106.313 23.523 98.263 26.297 91.673 30.998 91.55 31.071 91.423 31.147 91.307 31.234 91.202 31.31 91.101 31.39 91.007 31.473 81.113 38.837 74.69 50.622 74.69 63.886 Z M92.8 39.609 L99.256 48.507 C95.383 52.482 92.988 57.909 92.988 63.886 92.988 64.967 93.072 66.027 93.22 67.064 L82.769 70.466 C82.334 68.341 82.109 66.139 82.109 63.886 82.109 54.285 86.232 45.634 92.8 39.609 Z M129.592 63.886 C129.592 64.166 129.581 64.441 129.567 64.721 L121.003 61.931 126.292 54.644 C128.353 57.165 129.592 60.383 129.592 63.886 Z M100.408 63.886 C100.408 60.383 101.647 57.165 103.708 54.644 L108.997 61.931 100.433 64.721 C100.419 64.441 100.408 64.166 100.408 63.886 Z M111.29 68.997 L111.29 78.015 C107.722 77.075 104.686 74.812 102.733 71.783 Z M118.71 68.997 L127.267 71.783 C125.314 74.812 122.278 77.075 118.71 78.015 Z M115 57.568 L109.707 50.273 C111.352 49.631 113.134 49.276 115 49.276 116.866 49.276 118.648 49.631 120.293 50.273 Z M85.073 77.528 L95.521 74.13 C98.658 80.086 104.44 84.435 111.29 85.606 L111.29 96.604 C99.614 95.284 89.775 87.823 85.073 77.528 Z M118.71 96.604 L118.71 85.603 C125.564 84.435 131.342 80.086 134.479 74.13 L144.927 77.525 C140.225 87.823 130.386 95.284 118.71 96.604 Z M147.891 63.886 C147.891 66.139 147.666 68.341 147.231 70.466 L136.78 67.064 C136.928 66.027 137.012 64.967 137.012 63.886 137.012 57.909 134.617 52.482 130.744 48.507 L137.2 39.609 C143.768 45.634 147.891 54.285 147.891 63.886 Z M131.201 35.242 L124.749 44.133 C121.807 42.674 118.5 41.847 115 41.847 111.5 41.847 108.193 42.674 105.251 44.133 L98.799 35.242 C103.585 32.518 109.113 30.951 115 30.951 120.887 30.951 126.415 32.518 131.201 35.242 Z M131.201 35.242" fill="#ffffff" fill-opacity="1" stroke="none"/>
  <path id="Путь-14" d="M104.889 120.558 L97.803 125.767 C96.151 126.982 95.792 129.307 97.006 130.961 98.22 132.615 100.542 132.971 102.19 131.756 L115 122.343 127.81 131.756 C128.469 132.242 129.241 132.477 130.002 132.477 131.143 132.477 132.27 131.951 132.994 130.961 134.208 129.307 133.853 126.982 132.201 125.767 L125.111 120.558 C152.01 115.763 172.493 92.175 172.493 63.886 172.493 51.692 168.714 40.03 161.563 30.16 160.36 28.499 158.042 28.129 156.382 29.333 154.723 30.538 154.354 32.859 155.556 34.52 161.784 43.113 165.073 53.27 165.073 63.886 165.073 91.53 142.612 114.018 115.004 114.022 87.388 114.018 64.927 91.53 64.927 63.886 64.927 53.27 68.22 43.113 74.444 34.52 75.646 32.859 75.277 30.538 73.618 29.333 71.962 28.129 69.64 28.496 68.437 30.16 61.286 40.03 57.507 51.692 57.507 63.886 57.507 92.175 77.994 115.763 104.889 120.558 Z M104.889 120.558" fill="#ffffff" fill-opacity="1" stroke="none"/>
 </g>
</svg>
