<?xml version="1.0" ?><svg style="enable-background:new 0 0 48 48;" version="1.1" viewBox="0 0 48 48" xml:space="preserve" xmlns="http://www.w3.org/2000/svg" xmlns:xlink="http://www.w3.org/1999/xlink"><g id="Icons"><path d="M38.28015,26.12097h-3.05859h-0.00073V17.3363c0-2.88605-2.33698-5.23572-5.23578-5.23572H19.59021   l1.92828,3.40961h8.46655c1.00885,0,1.81335,0.83008,1.81335,1.82611l0.00574,8.78467h-3.01587   c-0.58093,0-0.9483,0.6322-0.64929,1.13629l3.66516,6.33929l0.50409,0.87146l0.58099,1.01666   c0.28192,0.51263,1.00812,0.51263,1.30713,0l0.67493-1.17902l0.35028-0.60657l3.71649-6.44183   C39.21997,26.75317,38.86115,26.12097,38.28015,26.12097z" style="fill:#4AA0EC;"/><line style="fill:#4AA0EC;" x1="21.51849" x2="19.59021" y1="15.51022" y2="12.10061"/><path d="M26.48151,32.48975h-8.46655c-1.00885,0-1.81335-0.83002-1.81335-1.82611v-8.81488h3.01013   c0.58093,0,0.9483-0.6322,0.64929-1.13629l-3.66516-6.33929l-0.50409-0.87146l-0.58099-1.01666   c-0.28192-0.51263-1.00812-0.51263-1.30713,0l-0.67493,1.17902l-0.35028,0.60657l-3.71649,6.44183   c-0.28192,0.50409,0.0769,1.13629,0.6579,1.13629h3.05859h0.00073v8.81488c0,2.88605,2.33698,5.23572,5.23578,5.23572h10.39484   L26.48151,32.48975z" style="fill:#4AA0EC;"/><line style="fill:#4AA0EC;" x1="26.48151" x2="28.40979" y1="32.45955" y2="35.86916"/><path d="   M35.22158,26.12098h3.05859c0.58096,0,0.93979,0.63222,0.65785,1.13629l-3.71644,6.44183l-0.35028,0.60659l-0.67494,1.17901   c-0.29902,0.51262-1.02522,0.51262-1.30716,0l-0.58096-1.01668l-0.50407-0.87144l-3.66518-6.33931   c-0.29902-0.50407,0.06835-1.13629,0.64931-1.13629h3.01587" style="fill:none;stroke:#303030;stroke-width:0.7;stroke-linecap:round;stroke-linejoin:round;stroke-miterlimit:10;"/><path d="   M19.59021,12.10061h10.39485c2.89881,0,5.23574,2.3497,5.23574,5.23574v8.74276" style="fill:none;stroke:#303030;stroke-width:0.7;stroke-linecap:round;stroke-linejoin:round;stroke-miterlimit:10;"/><path d="   M21.51849,15.51022h8.46657c1.00884,0,1.81335,0.83006,1.81335,1.82612l0.00575,8.78464" style="fill:none;stroke:#303030;stroke-width:0.7;stroke-linecap:round;stroke-linejoin:round;stroke-miterlimit:10;"/><line style="fill:none;stroke:#303030;stroke-width:0.7;stroke-linecap:round;stroke-linejoin:round;stroke-miterlimit:10;" x1="21.51849" x2="19.59021" y1="15.51022" y2="12.10061"/><path d="   M12.77842,21.84879H9.71983c-0.58096,0-0.93979-0.63222-0.65785-1.13629l3.71644-6.44183l0.35029-0.60659l0.67494-1.17901   c0.29902-0.51261,1.02522-0.51261,1.30716,0l0.58096,1.01668l0.50407,0.87144l3.66518,6.33931   c0.29902,0.50407-0.06835,1.13629-0.64931,1.13629h-3.01587" style="fill:none;stroke:#303030;stroke-width:0.7;stroke-linecap:round;stroke-linejoin:round;stroke-miterlimit:10;"/><path d="   M12.77842,21.84879H9.71983c-0.58096,0-0.93979-0.63222-0.65785-1.13629l3.71644-6.44183l0.35029-0.60659l0.67494-1.17901   c0.29902-0.51261,1.02522-0.51261,1.30716,0l0.58096,1.01668l0.50407,0.87144l3.66518,6.33931   c0.29902,0.50407-0.06835,1.13629-0.64931,1.13629h-3.01587" style="fill:none;stroke:#303030;stroke-width:0.7;stroke-linecap:round;stroke-linejoin:round;stroke-miterlimit:10;"/><path d="   M28.40979,35.89939H18.01494c-2.89881,0-5.23574-2.3497-5.23574-5.23574V21.8523" style="fill:none;stroke:#303030;stroke-width:0.7;stroke-linecap:round;stroke-linejoin:round;stroke-miterlimit:10;"/><path d="   M26.48151,32.48978h-8.46657c-1.00884,0-1.81335-0.83006-1.81335-1.82612V21.8523" style="fill:none;stroke:#303030;stroke-width:0.7;stroke-linecap:round;stroke-linejoin:round;stroke-miterlimit:10;"/><line style="fill:none;stroke:#303030;stroke-width:0.7;stroke-linecap:round;stroke-linejoin:round;stroke-miterlimit:10;" x1="26.48151" x2="28.40979" y1="32.45955" y2="35.86916"/></g></svg>