<?xml version="1.0" ?><svg style="enable-background:new 0 0 48 48;" version="1.1" viewBox="0 0 48 48" xml:space="preserve" xmlns="http://www.w3.org/2000/svg" xmlns:xlink="http://www.w3.org/1999/xlink"><g id="Icons"><g id="Icons_14_"><g><path d="M37.43294,30.32385c-0.426-0.28-0.986-0.1704-1.266,0.2435l-1.1442,1.6799v-13.7556     c0-3.6641-2.9946-6.6464-6.6587-6.6464h-9.7263c-0.5112,0-0.9129,0.4138-0.9129,0.9129c0,0.5113,0.4017,0.913,0.9129,0.913     h9.7263c2.6659,0,4.8327,2.1668,4.8327,4.8205v13.7799l-1.1443-1.7042c-0.2921-0.4139-0.8521-0.5235-1.2782-0.2435     c-0.4138,0.2922-0.5234,0.8522-0.2434,1.2782l2.812,4.151c0.1704,0.2435,0.4625,0.4017,0.7547,0.4017     c0.3043,0,0.5965-0.1582,0.7669-0.4017l2.812-4.151C37.95644,31.17605,37.84684,30.61605,37.43294,30.32385z" style="fill:#4AA0EC;"/><path d="M29.36224,34.32875h-9.7141c-2.678,0-4.8449-2.1668-4.8449-4.8205v-13.792l1.1565,1.7164     c0.2799,0.4138,0.8399,0.5234,1.266,0.2434c0.4138-0.2921,0.5234-0.8521,0.2434-1.2782l-2.812-4.151     c-0.3408-0.499-1.1808-0.499-1.5094,0l-2.8241,4.151c-0.2801,0.4261-0.1705,0.9861,0.2434,1.2782     c0.1582,0.0974,0.3409,0.1583,0.5113,0.1583c0.3043,0,0.5843-0.1461,0.7669-0.4017l1.1321-1.6799v13.7555     c0,3.6641,2.9945,6.6465,6.6708,6.6465h9.7141c0.5112,0,0.913-0.4139,0.913-0.9129     C30.27524,34.73055,29.87344,34.32875,29.36224,34.32875z" style="fill:#4AA0EC;"/></g></g></g></svg>