<?xml version="1.0" encoding="UTF-8"?>
<svg width="248px" height="156px" viewBox="0 0 248 156" xmlns="http://www.w3.org/2000/svg" xmlns:xlink="http://www.w3.org/1999/xlink" version="1.1">
 <!-- Generated by Pixelmator Pro 1.7 -->
 <g id="group">
  <path id="Путь" d="M243.822 40 L243.924 40 243.842 4 4.076 4 4.191 40 4.089 40 4.213 116 4.111 116 4.225 152 243.89 152 243.808 116 243.911 116 Z" fill="#ee5281" fill-opacity="1" stroke="#000000" stroke-width="8" stroke-opacity="1" stroke-linejoin="round"/>
  <path id="Путь-1" d="M154.849 57.852 L138.951 70.217 C136.941 71.78 129.772 62.321 130.032 59.787 130.314 57.045 134.374 56.03 134.374 56.03 135.485 56.03 136.396 55.896 137.144 55.678 139.866 54.883 139.961 51.021 137.327 49.973 128.979 46.652 124.078 58.089 124.078 58.089 124.078 58.089 119.177 46.652 110.829 49.973 108.194 51.021 108.29 54.882 111.012 55.678 111.759 55.896 112.67 56.03 113.782 56.03 113.782 56.03 117.842 57.045 118.124 59.787 118.384 62.32 111.215 71.78 109.205 70.217 L93.307 57.852 97.307 84.862 116.871 81.773 115.842 86.921 120.99 90.01 112.752 98.248 124.079 113.693 135.406 98.248 127.168 90.01 132.316 86.921 131.287 81.773 150.851 84.862 Z" fill="#000000" fill-opacity="1" stroke="#000000" stroke-width="8" stroke-opacity="1" stroke-linejoin="round"/>
 </g>
 <g id="group-1"/>
 <g id="group-2"/>
 <g id="group-3"/>
 <g id="group-4"/>
 <g id="group-5"/>
 <g id="group-6"/>
 <g id="group-7"/>
 <g id="group-8"/>
 <g id="group-9"/>
 <g id="group-10"/>
 <g id="group-11"/>
 <g id="group-12"/>
 <g id="group-13"/>
 <g id="group-14"/>
 <g id="group-15"/>
</svg>
