<?xml version="1.0" encoding="UTF-8"?>
<svg width="242px" height="156px" viewBox="0 0 242 156" xmlns="http://www.w3.org/2000/svg" xmlns:xlink="http://www.w3.org/1999/xlink" version="1.1">
 <!-- Generated by Pixelmator Pro 1.7.1 -->
 <g id="group">
  <path id="Путь" d="M237.774 3.9 L3.982 3.9 4.029 24.376 237.874 65.242 Z" fill="#feda38" fill-opacity="1" stroke="#000000" stroke-width="7.803" stroke-opacity="1" stroke-linejoin="round"/>
  <path id="Путь-1" d="M4.325 152.1 L238.018 152.1 237.978 127.861 4.174 87.002 Z" fill="#feda38" fill-opacity="1" stroke="#000000" stroke-width="7.803" stroke-opacity="1" stroke-linejoin="round"/>
  <path id="Путь-2" d="M4.106 57.74 L4.175 87.002 237.978 127.861 237.93 98.603 Z" fill="#000000" fill-opacity="1" stroke="#000000" stroke-width="7.803" stroke-opacity="1" stroke-linejoin="round"/>
  <path id="Путь-3" d="M237.874 65.242 L4.029 24.376 4.106 57.74 237.93 98.603 Z" fill="#ffffff" fill-opacity="1" stroke="#000000" stroke-width="7.803" stroke-opacity="1" stroke-linejoin="round"/>
  <path id="Путь-4" d="M148.402 79.95 C148.402 96.105 135.296 109.2 119.127 109.2 102.959 109.2 89.853 96.105 89.853 79.95 89.853 63.795 102.959 50.7 119.127 50.7 135.296 50.7 148.402 63.795 148.402 79.95 Z" fill="#ee5281" fill-opacity="1" stroke="#000000" stroke-width="7.803" stroke-opacity="1" stroke-linejoin="round"/>
 </g>
 <g id="group-1"/>
 <g id="group-2"/>
 <g id="group-3"/>
 <g id="group-4"/>
 <g id="group-5"/>
 <g id="group-6"/>
 <g id="group-7"/>
 <g id="group-8"/>
 <g id="group-9"/>
 <g id="group-10"/>
 <g id="group-11"/>
 <g id="group-12"/>
 <g id="group-13"/>
 <g id="group-14"/>
 <g id="group-15"/>
</svg>
