<?xml version="1.0" encoding="UTF-8"?>
<svg width="229px" height="156px" viewBox="0 0 229 156" xmlns="http://www.w3.org/2000/svg" xmlns:xlink="http://www.w3.org/1999/xlink" version="1.1">
 <!-- Generated by Pixelmator Pro 1.7.1 -->
 <g id="surface1">
  <path id="Путь" d="M33.473 148.507 L7.102 123.71 7.102 106.37 9.876 103.76 C10.615 103.064 11.582 102.681 12.596 102.681 13.692 102.681 14.749 103.139 15.499 103.94 17.003 105.541 16.92 108.072 15.322 109.576 L9.508 115.038 23.391 128.095 37.275 115.038 7.102 86.668 7.102 69.325 9.876 66.718 C10.615 66.022 11.582 65.639 12.596 65.639 13.692 65.639 14.749 66.097 15.499 66.898 16.228 67.673 16.61 68.686 16.574 69.75 16.542 70.817 16.098 71.805 15.322 72.534 L9.508 77.996 23.391 91.049 37.275 77.996 7.102 49.626 7.102 32.282 9.872 29.675 C10.615 28.98 11.582 28.597 12.596 28.597 13.692 28.597 14.749 29.055 15.499 29.856 16.228 30.631 16.61 31.644 16.574 32.708 16.542 33.775 16.098 34.76 15.322 35.492 L9.508 40.954 23.391 54.007 37.275 40.954 7.102 12.584 7.102 7.327 13.14 7.327 23.391 16.965 33.646 7.327 39.684 7.327 39.684 12.584 29.209 22.435 39.684 32.282 39.684 49.626 29.209 59.477 39.684 69.325 39.684 86.668 29.209 96.519 39.684 106.37 39.684 123.714 29.209 133.561 39.684 143.412 39.684 148.511 33.473 148.511 Z M33.473 148.507" fill="#ed1f34" fill-opacity="1" stroke="none"/>
  <path id="Путь-1" d="M76.046 102.873 L76.046 102.588 C76.046 100.706 74.52 99.173 72.641 99.173 L46.498 99.173 46.498 7.327 221.898 7.327 221.898 99.173 87.415 99.173 C85.536 99.173 84.007 100.706 84.007 102.588 L84.007 102.873 Z M76.046 102.873" fill="#ed1f34" fill-opacity="1" stroke="none"/>
  <path id="Путь-2" d="M46.498 148.507 L46.498 105.999 72.641 105.999 C74.52 105.999 76.046 104.47 76.046 102.588 L76.046 102.299 84.007 102.299 84.007 102.588 C84.007 104.47 85.536 105.999 87.415 105.999 L221.898 105.999 221.898 148.507 Z M46.498 148.507" fill="#259245" fill-opacity="1" stroke="none"/>
  <path id="Путь-3" d="M33.758 7.615 L13.028 7.615 23.391 17.362 Z M33.758 7.615" fill="#ffffff" fill-opacity="1" stroke="none"/>
  <path id="Путь-4" d="M15.29 30.05 C16.686 31.543 16.614 33.883 15.124 35.282 L9.09 40.954 23.391 54.4 37.693 40.954 7.387 12.462 7.387 32.409 10.071 29.885 C11.557 28.486 13.894 28.561 15.29 30.05 Z M15.29 30.05" fill="#ffffff" fill-opacity="1" stroke="none"/>
  <path id="Путь-5" d="M39.399 32.409 L39.399 12.462 28.791 22.435 Z M39.399 32.409" fill="#ffffff" fill-opacity="1" stroke="none"/>
  <path id="Путь-6" d="M39.399 69.451 L39.399 49.504 28.791 59.477 Z M39.399 69.451" fill="#ffffff" fill-opacity="1" stroke="none"/>
  <path id="Путь-7" d="M15.29 67.093 C16.686 68.582 16.614 70.925 15.124 72.325 L9.09 77.996 23.391 91.442 37.693 77.996 7.387 49.504 7.387 69.451 10.071 66.927 C11.557 65.528 13.894 65.603 15.29 67.093 Z M15.29 67.093" fill="#ffffff" fill-opacity="1" stroke="none"/>
  <path id="Путь-8" d="M39.399 106.493 L39.399 86.546 28.791 96.519 Z M39.399 106.493" fill="#ffffff" fill-opacity="1" stroke="none"/>
  <path id="Путь-9" d="M15.29 141.18 C16.69 142.669 16.614 145.013 15.128 146.409 L13.198 148.222 33.585 148.222 7.387 123.588 7.387 143.538 10.071 141.014 C11.56 139.615 13.898 139.691 15.29 141.18 Z M15.29 141.18" fill="#ffffff" fill-opacity="1" stroke="none"/>
  <path id="Путь-10" d="M15.29 104.135 C16.686 105.627 16.614 107.968 15.124 109.367 L9.09 115.038 23.391 128.488 37.693 115.038 7.387 86.546 7.387 106.493 10.071 103.969 C11.557 102.57 13.894 102.645 15.29 104.135 Z M15.29 104.135" fill="#ffffff" fill-opacity="1" stroke="none"/>
  <path id="Путь-11" d="M39.399 143.823 L39.399 123.876 28.791 133.85 Z M39.399 143.823" fill="#ffffff" fill-opacity="1" stroke="none"/>
  <path id="Путь-12" d="M42.014 155.621 C42.364 155.73 42.728 155.784 43.093 155.784 43.457 155.784 43.825 155.73 44.175 155.621 Z M42.014 155.621" fill="#ed1f34" fill-opacity="1" stroke="none"/>
  <path id="Путь-13" d="M39.399 148.222 L39.399 143.538 28.791 133.561 39.399 123.588 39.399 106.493 28.791 96.519 39.399 86.546 39.399 69.451 28.791 59.477 39.399 49.504 39.399 32.409 28.791 22.435 39.399 12.462 39.399 7.615 33.758 7.615 23.391 17.362 13.028 7.615 7.387 7.615 7.387 12.462 37.693 40.954 23.391 54.4 9.09 40.954 15.124 35.282 C16.614 33.883 16.686 31.543 15.29 30.05 13.894 28.561 11.557 28.486 10.071 29.885 L7.387 32.409 7.387 49.504 37.693 77.996 23.391 91.442 9.09 77.996 15.124 72.325 C16.614 70.925 16.686 68.582 15.29 67.093 13.894 65.603 11.557 65.528 10.071 66.927 L7.387 69.451 7.387 86.546 37.693 115.038 23.391 128.488 9.09 115.038 15.124 109.367 C16.614 107.968 16.686 105.627 15.29 104.135 13.894 102.645 11.557 102.57 10.071 103.969 L7.387 106.493 7.387 123.588 33.585 148.222 Z M39.399 148.222" fill="#ed1f34" fill-opacity="1" stroke="none"/>
  <path id="Путь-14" d="M0.004 151.962 C-0.029 152.91 0.299 153.869 0.999 154.619 1.728 155.394 2.709 155.784 3.694 155.784 4.058 155.784 4.419 155.73 4.772 155.621 L3.694 155.621 C1.666 155.621 0.025 153.988 0.004 151.962 Z M0.004 151.962" fill="#ed1f34" fill-opacity="1" stroke="none"/>
  <path id="Путь-15" d="M15.128 146.409 C16.614 145.013 16.69 142.669 15.29 141.18 13.898 139.691 11.56 139.615 10.071 141.014 L7.387 143.538 7.387 148.222 13.198 148.222 Z M15.128 146.409" fill="#ed1f34" fill-opacity="1" stroke="none"/>
  <path id="Путь-16" d="M0.498 2.066 C0.527 2.012 0.559 1.965 0.588 1.915 0.559 1.962 0.527 2.016 0.498 2.066 Z M0.498 2.066" fill="#ed1f34" fill-opacity="1" stroke="none"/>
  <path id="Путь-17" d="M0.332 2.387 C0.357 2.333 0.382 2.279 0.411 2.225 0.382 2.279 0.357 2.333 0.332 2.387 Z M0.332 2.387" fill="#ed1f34" fill-opacity="1" stroke="none"/>
  <path id="Путь-18" d="M0.696 1.756 C0.729 1.709 0.765 1.666 0.797 1.623 0.765 1.666 0.732 1.709 0.696 1.756 Z M0.696 1.756" fill="#ed1f34" fill-opacity="1" stroke="none"/>
  <path id="Путь-19" d="M0.198 2.722 C0.22 2.665 0.238 2.611 0.26 2.553 0.238 2.611 0.22 2.665 0.198 2.722 Z M0.198 2.722" fill="#ed1f34" fill-opacity="1" stroke="none"/>
  <path id="Путь-20" d="M2.063 0.599 C2.117 0.573 2.171 0.544 2.226 0.519 2.171 0.544 2.117 0.573 2.063 0.599 Z M2.063 0.599" fill="#ed1f34" fill-opacity="1" stroke="none"/>
  <path id="Путь-21" d="M0.999 1.381 C0.977 1.41 0.956 1.435 0.934 1.464 0.967 1.424 1.003 1.385 1.039 1.345 1.028 1.359 1.014 1.37 0.999 1.381 Z M0.999 1.381" fill="#ed1f34" fill-opacity="1" stroke="none"/>
  <path id="Путь-22" d="M1.187 1.201 C1.226 1.165 1.266 1.125 1.309 1.089 1.27 1.125 1.23 1.165 1.187 1.201 Z M1.187 1.201" fill="#ed1f34" fill-opacity="1" stroke="none"/>
  <path id="Путь-23" d="M0.101 3.072 C0.115 3.011 0.13 2.953 0.144 2.895 0.13 2.953 0.115 3.011 0.101 3.072 Z M0.101 3.072" fill="#ed1f34" fill-opacity="1" stroke="none"/>
  <path id="Путь-24" d="M1.454 0.977 C1.504 0.938 1.551 0.901 1.601 0.865 1.551 0.901 1.504 0.938 1.454 0.977 Z M1.454 0.977" fill="#ed1f34" fill-opacity="1" stroke="none"/>
  <path id="Путь-25" d="M3.091 0.267 C3.149 0.26 3.207 0.249 3.264 0.242 3.207 0.249 3.149 0.26 3.091 0.267 Z M3.091 0.267" fill="#ed1f34" fill-opacity="1" stroke="none"/>
  <path id="Путь-26" d="M0.036 3.433 C0.043 3.371 0.05 3.306 0.061 3.249 0.05 3.31 0.043 3.371 0.036 3.433 Z M0.036 3.433" fill="#ed1f34" fill-opacity="1" stroke="none"/>
  <path id="Путь-27" d="M0.007 3.808 C0.007 3.739 0.011 3.671 0.014 3.606 0.011 3.671 0.007 3.739 0.007 3.808 Z M0.007 3.808" fill="#ed1f34" fill-opacity="1" stroke="none"/>
  <path id="Путь-28" d="M3.441 0.227 C3.506 0.224 3.571 0.22 3.636 0.216 3.571 0.22 3.506 0.224 3.441 0.227 Z M3.441 0.227" fill="#ed1f34" fill-opacity="1" stroke="none"/>
  <path id="Путь-29" d="M1.746 0.775 C1.8 0.743 1.85 0.707 1.908 0.678 1.85 0.707 1.8 0.743 1.746 0.775 Z M1.746 0.775" fill="#ed1f34" fill-opacity="1" stroke="none"/>
  <path id="Путь-30" d="M2.745 0.916 C2.799 0.901 2.853 0.887 2.907 0.873 2.853 0.887 2.799 0.901 2.745 0.916 Z M2.745 0.916" fill="#ed1f34" fill-opacity="1" stroke="none"/>
  <path id="Путь-31" d="M2.399 0.451 C2.453 0.433 2.507 0.411 2.557 0.393 2.507 0.411 2.453 0.433 2.399 0.451 Z M2.399 0.451" fill="#ed1f34" fill-opacity="1" stroke="none"/>
  <path id="Путь-32" d="M87.415 98.885 L221.613 98.885 221.613 7.615 46.786 7.615 46.786 98.885 72.641 98.885 C74.679 98.885 76.335 100.543 76.335 102.588 L83.722 102.588 C83.722 100.543 85.374 98.885 87.415 98.885 Z M87.415 98.885" fill="#ed1f34" fill-opacity="1" stroke="none"/>
  <path id="Путь-33" d="M87.415 106.287 C85.374 106.287 83.722 104.629 83.722 102.588 L76.335 102.588 C76.335 104.629 74.679 106.287 72.641 106.287 L46.786 106.287 46.786 148.222 221.613 148.222 221.613 106.287 Z M87.415 106.287" fill="#259245" fill-opacity="1" stroke="none"/>
  <path id="Путь-34" d="M225.306 0.213 L3.694 0.213 C3.676 0.213 3.654 0.216 3.636 0.216 3.571 0.22 3.506 0.224 3.441 0.227 3.383 0.231 3.322 0.234 3.264 0.242 3.207 0.249 3.149 0.26 3.091 0.267 3.03 0.278 2.969 0.288 2.907 0.299 2.853 0.314 2.799 0.328 2.745 0.343 2.684 0.357 2.622 0.375 2.561 0.393 2.507 0.411 2.453 0.433 2.402 0.451 2.341 0.472 2.283 0.494 2.226 0.519 2.171 0.544 2.117 0.573 2.063 0.599 2.009 0.624 1.959 0.649 1.908 0.678 1.85 0.707 1.8 0.743 1.746 0.775 1.699 0.804 1.648 0.833 1.601 0.865 1.551 0.901 1.504 0.938 1.457 0.974 1.407 1.013 1.36 1.049 1.313 1.089 1.27 1.125 1.23 1.165 1.19 1.201 1.14 1.248 1.089 1.294 1.039 1.345 1.003 1.381 0.97 1.421 0.934 1.46 0.887 1.514 0.844 1.565 0.801 1.619 0.765 1.666 0.732 1.709 0.7 1.756 0.66 1.806 0.624 1.861 0.592 1.915 0.559 1.962 0.53 2.012 0.498 2.063 0.469 2.117 0.44 2.171 0.411 2.225 0.382 2.279 0.357 2.333 0.332 2.387 0.307 2.441 0.285 2.499 0.263 2.553 0.242 2.607 0.22 2.665 0.202 2.722 0.18 2.78 0.162 2.838 0.144 2.895 0.13 2.953 0.115 3.011 0.101 3.069 0.087 3.13 0.076 3.188 0.065 3.245 0.054 3.306 0.043 3.371 0.036 3.433 0.029 3.49 0.022 3.544 0.018 3.602 0.011 3.671 0.007 3.739 0.007 3.804 0.004 3.844 0 3.876 0 3.916 L0 151.922 C0 151.936 0.004 151.951 0.004 151.962 0.025 153.988 1.666 155.621 3.694 155.621 L225.306 155.621 C227.348 155.621 229 153.966 229 151.922 L229 3.916 C229 1.871 227.348 0.213 225.306 0.213 Z M7.387 143.538 L7.387 7.615 39.399 7.615 39.399 148.222 7.387 148.222 Z M46.786 148.222 L46.786 106.287 64.691 106.493 C66.733 106.493 127.954 104.629 127.954 102.588 L84.007 102.299 C84.007 100.255 90.207 99.173 88.165 99.173 L46.786 98.885 46.786 7.615 221.613 7.615 221.613 98.885 69.846 99.173 C67.804 99.173 83.722 100.543 83.722 102.588 83.722 104.629 65.802 106.493 67.84 106.493 L221.613 106.287 221.613 148.222 Z M46.786 148.222" fill="#000000" fill-opacity="1" stroke="none"/>
 </g>
</svg>
