<?xml version="1.0" encoding="UTF-8"?>
<svg width="242px" height="156px" viewBox="0 0 242 156" xmlns="http://www.w3.org/2000/svg" xmlns:xlink="http://www.w3.org/1999/xlink" version="1.1">
 <!-- Generated by Pixelmator Pro 1.7.1 -->
 <g id="group">
  <path id="Путь" d="M3.982 27.3 L4.216 128.7 237.979 128.7 237.812 27.3 Z" fill="#288eea" fill-opacity="1" stroke="#000000" stroke-width="7.803" stroke-opacity="1" stroke-linejoin="round"/>
  <path id="Путь-1" d="M4.326 152.1 L238.018 152.1 237.979 128.7 4.271 128.7 Z" fill="#ee5281" fill-opacity="1" stroke="#000000" stroke-width="7.803" stroke-opacity="1" stroke-linejoin="round"/>
  <path id="Путь-2" d="M237.773 3.9 L3.982 3.9 4.036 27.3 237.812 27.3 Z" fill="#ee5281" fill-opacity="1" stroke="#000000" stroke-width="7.803" stroke-opacity="1" stroke-linejoin="round"/>
  <path id="Путь-3" d="M152.304 78.017 C152.304 95.239 138.331 109.2 121.095 109.2 103.858 109.2 89.885 95.239 89.885 78.017 89.885 60.794 103.858 46.833 121.095 46.833 138.331 46.833 152.304 60.794 152.304 78.017 Z" fill="#ffffff" fill-opacity="1" stroke="#000000" stroke-width="7.803" stroke-opacity="1" stroke-linejoin="round"/>
  <path id="Путь-4" d="M133.928 78.017 C133.928 85.099 128.183 90.84 121.095 90.84 114.006 90.84 108.261 85.099 108.261 78.017 108.261 70.934 114.006 65.193 121.095 65.193 128.183 65.193 133.928 70.934 133.928 78.017 Z" fill="#8c6b37" fill-opacity="1" stroke="#000000" stroke-width="7.803" stroke-opacity="1" stroke-linejoin="round"/>
 </g>
 <g id="group-1"/>
 <g id="group-2"/>
 <g id="group-3"/>
 <g id="group-4"/>
 <g id="group-5"/>
 <g id="group-6"/>
 <g id="group-7"/>
 <g id="group-8"/>
 <g id="group-9"/>
 <g id="group-10"/>
 <g id="group-11"/>
 <g id="group-12"/>
 <g id="group-13"/>
 <g id="group-14"/>
 <g id="group-15"/>
</svg>
