<?xml version="1.0" encoding="UTF-8"?>
<svg width="242px" height="156px" viewBox="0 0 242 156" xmlns="http://www.w3.org/2000/svg" xmlns:xlink="http://www.w3.org/1999/xlink" version="1.1">
 <!-- Generated by Pixelmator Pro 1.7.1 -->
 <g id="group">
  <path id="Путь" d="M237.773 3.9 L3.982 3.9 4.326 152.1 238.018 152.1 Z" fill="#ee5281" fill-opacity="1" stroke="#000000" stroke-width="7.803" stroke-opacity="1" stroke-linejoin="round"/>
  <path id="Путь-1" d="M50.814 42.51 L67.542 43.175 54.399 53.536 58.935 69.637 45.012 60.351 31.087 69.635 35.625 53.535 22.484 43.172 39.211 42.509 45.014 26.818 Z" fill="#feda38" fill-opacity="1" stroke="#000000" stroke-width="7.803" stroke-opacity="1" stroke-linejoin="round"/>
  <path id="Путь-2" d="M70.337 78 L78.144 78 78.144 85.8 70.337 85.8 Z" fill="#feda38" fill-opacity="1" stroke="none"/>
  <path id="Путь-3" d="M85.95 58.5 L93.756 58.5 93.756 66.3 85.95 66.3 Z" fill="#feda38" fill-opacity="1" stroke="none"/>
  <path id="Путь-4" d="M85.95 35.1 L93.756 35.1 93.756 42.9 85.95 42.9 Z" fill="#feda38" fill-opacity="1" stroke="none"/>
  <path id="Путь-5" d="M70.337 15.6 L78.144 15.6 78.144 23.4 70.337 23.4 Z" fill="#feda38" fill-opacity="1" stroke="none"/>
 </g>
 <g id="group-1"/>
 <g id="group-2"/>
 <g id="group-3"/>
 <g id="group-4"/>
 <g id="group-5"/>
 <g id="group-6"/>
 <g id="group-7"/>
 <g id="group-8"/>
 <g id="group-9"/>
 <g id="group-10"/>
 <g id="group-11"/>
 <g id="group-12"/>
 <g id="group-13"/>
 <g id="group-14"/>
 <g id="group-15"/>
</svg>
