<?xml version="1.0" encoding="UTF-8"?>
<svg width="242px" height="156px" viewBox="0 0 242 156" xmlns="http://www.w3.org/2000/svg" xmlns:xlink="http://www.w3.org/1999/xlink" version="1.1">
 <!-- Generated by Pixelmator Pro 1.7.1 -->
 <g id="group">
  <path id="Путь" d="M237.695 3.9 L3.903 3.9 4.247 152.1 237.94 152.1 Z" fill="#288eea" fill-opacity="1" stroke="#000000" stroke-width="7.803" stroke-opacity="1" stroke-linejoin="round"/>
  <path id="Путь-1" d="M3.903 85.8 L238.097 85.8 238.097 120.9 3.903 120.9 Z" fill="#ffffff" fill-opacity="1" stroke="#000000" stroke-width="7.803" stroke-opacity="1" stroke-linejoin="round"/>
  <path id="Путь-2" d="M3.903 97.5 L238.097 97.5 238.097 109.2 3.903 109.2 Z" fill="#ee5281" fill-opacity="1" stroke="#000000" stroke-width="7.803" stroke-opacity="1" stroke-linejoin="round"/>
  <path id="Путь-3" d="M74.161 70.2 L81.968 70.2 81.968 78 74.161 78 Z" fill="#feda38" fill-opacity="1" stroke="none"/>
  <path id="Путь-4" d="M74.161 128.7 L81.968 128.7 81.968 136.5 74.161 136.5 Z" fill="#feda38" fill-opacity="1" stroke="none"/>
  <path id="Путь-5" d="M101.484 117 L109.29 117 109.29 124.8 101.484 124.8 Z" fill="#feda38" fill-opacity="1" stroke="none"/>
  <path id="Путь-6" d="M101.484 81.9 L109.29 81.9 109.29 89.7 101.484 89.7 Z" fill="#feda38" fill-opacity="1" stroke="none"/>
  <path id="Путь-7" d="M50.742 81.9 L58.548 81.9 58.548 89.7 50.742 89.7 Z" fill="#feda38" fill-opacity="1" stroke="none"/>
  <path id="Путь-8" d="M50.742 117 L58.548 117 58.548 124.8 50.742 124.8 Z" fill="#feda38" fill-opacity="1" stroke="none"/>
 </g>
 <g id="group-1"/>
 <g id="group-2"/>
 <g id="group-3"/>
 <g id="group-4"/>
 <g id="group-5"/>
 <g id="group-6"/>
 <g id="group-7"/>
 <g id="group-8"/>
 <g id="group-9"/>
 <g id="group-10"/>
 <g id="group-11"/>
 <g id="group-12"/>
 <g id="group-13"/>
 <g id="group-14"/>
 <g id="group-15"/>
</svg>
