<?xml version="1.0" encoding="UTF-8"?>
<svg width="244px" height="156px" viewBox="0 0 244 156" xmlns="http://www.w3.org/2000/svg" xmlns:xlink="http://www.w3.org/1999/xlink" version="1.1">
 <!-- Generated by Pixelmator Pro 1.7 -->
 <g id="group">
  <path id="Путь" d="M4 4 L4.353 152 124 152 124 4 Z" fill="#83d816" fill-opacity="1" stroke="#000000" stroke-width="8" stroke-opacity="1" stroke-linejoin="round"/>
  <path id="Путь-1" d="M239.758 4 L124 4 124 152 240 152 Z" fill="#ffffff" fill-opacity="1" stroke="#000000" stroke-width="8" stroke-opacity="1" stroke-linejoin="round"/>
  <path id="Путь-2" d="M135.76 116 C116.01 116 100 99.99 100 80.24 100 60.49 116.01 44.48 135.76 44.48 141.57 44.48 148.483 46.225 155.347 49.144 147.366 41.037 136.275 36 124 36 99.699 36 80 55.699 80 80 80 104.301 99.699 124 124 124 134.714 124 144.526 120.163 152.157 113.799 146.368 115.24 140.669 116 135.76 116 Z" fill="#ee5281" fill-opacity="1" stroke="#000000" stroke-width="8" stroke-opacity="1" stroke-linejoin="round"/>
  <path id="Путь-3" d="M148.261 90.247 L157.325 99.722 159.333 86.764 171.146 81.072 159.442 75.158 157.679 62.165 148.438 71.468 135.536 69.13 141.528 80.793 135.317 92.341 Z" fill="#ee5281" fill-opacity="1" stroke="#000000" stroke-width="8" stroke-opacity="1" stroke-linejoin="round"/>
 </g>
 <g id="group-1"/>
 <g id="group-2"/>
 <g id="group-3"/>
 <g id="group-4"/>
 <g id="group-5"/>
 <g id="group-6"/>
 <g id="group-7"/>
 <g id="group-8"/>
 <g id="group-9"/>
 <g id="group-10"/>
 <g id="group-11"/>
 <g id="group-12"/>
 <g id="group-13"/>
 <g id="group-14"/>
 <g id="group-15"/>
</svg>
