<?xml version="1.0" encoding="UTF-8"?>
<svg width="244px" height="156px" viewBox="0 0 244 156" xmlns="http://www.w3.org/2000/svg" xmlns:xlink="http://www.w3.org/1999/xlink" version="1.1">
 <!-- Generated by Pixelmator Pro 1.7 -->
 <g id="group">
  <path id="Путь" d="M240 76 L239.88 4 4 4 4.169 76 4.021 76 4.199 152 239.979 152 239.853 76 Z" fill="#ee5281" fill-opacity="1" stroke="#000000" stroke-width="8" stroke-opacity="1" stroke-linejoin="round"/>
  <path id="Путь-1" d="M215.109 32.408 L215.108 32 28.797 32 28.798 32.382 120 76 Z" fill="#feda38" fill-opacity="1" stroke="#000000" stroke-width="8" stroke-opacity="1" stroke-linejoin="round"/>
  <path id="Путь-2" d="M28 32.382 L28.133 74.811 28.015 74.811 28.156 119.544 120 76 Z" fill="#83d816" fill-opacity="1" stroke="#000000" stroke-width="8" stroke-opacity="1" stroke-linejoin="round"/>
  <path id="Путь-3" d="M28.953 119.544 L28.954 120 215.187 120 215.186 119.627 120 76 Z" fill="#feda38" fill-opacity="1" stroke="#000000" stroke-width="8" stroke-opacity="1" stroke-linejoin="round"/>
  <path id="Путь-4" d="M216 74.811 L215.905 32.408 120 76 215.982 119.627 215.882 74.811 Z" fill="#83d816" fill-opacity="1" stroke="#000000" stroke-width="8" stroke-opacity="1" stroke-linejoin="round"/>
  <path id="Путь-5" d="M136 74.077 C136 83.976 127.976 92 118.077 92 108.178 92 100.154 83.976 100.154 74.077 100.154 64.178 108.178 56.154 118.077 56.154 127.976 56.154 136 64.178 136 74.077 Z" fill="#ee5281" fill-opacity="1" stroke="#000000" stroke-width="8" stroke-opacity="1" stroke-linejoin="round"/>
 </g>
 <g id="group-1"/>
 <g id="group-2"/>
 <g id="group-3"/>
 <g id="group-4"/>
 <g id="group-5"/>
 <g id="group-6"/>
 <g id="group-7"/>
 <g id="group-8"/>
 <g id="group-9"/>
 <g id="group-10"/>
 <g id="group-11"/>
 <g id="group-12"/>
 <g id="group-13"/>
 <g id="group-14"/>
 <g id="group-15"/>
</svg>
