<?xml version="1.0" encoding="UTF-8"?>
<svg width="248px" height="156px" viewBox="0 0 248 156" xmlns="http://www.w3.org/2000/svg" xmlns:xlink="http://www.w3.org/1999/xlink" version="1.1">
 <!-- Generated by Pixelmator Pro 1.7 -->
 <g id="group">
  <path id="Путь" d="M243.845 4 L92.095 4 4.741 4 4.095 4 4.095 152 243.905 152 Z" fill="#ee5281" fill-opacity="1" stroke="#000000" stroke-width="8" stroke-opacity="1" stroke-linejoin="round"/>
  <path id="Путь-1" d="M123.835 76.712 C123.835 76.712 103.431 70.591 112.953 47.466 112.953 47.466 117.714 35.224 134.717 35.904 134.717 35.904 125.875 39.985 130.636 46.106 135.397 52.227 132.676 56.308 132.676 56.308 132.676 56.308 131.316 63.109 121.794 65.15 121.794 65.15 119.074 68.551 123.835 76.712 Z" fill="#feda38" fill-opacity="1" stroke="#000000" stroke-width="8" stroke-opacity="1" stroke-linejoin="round"/>
  <path id="Путь-2" d="M125.875 46.786 C125.875 48.289 124.657 49.507 123.154 49.507 121.651 49.507 120.433 48.289 120.433 46.786 120.433 45.283 121.651 44.065 123.154 44.065 124.657 44.065 125.875 45.283 125.875 46.786 Z" fill="#ee5281" fill-opacity="1" stroke="#000000" stroke-width="8" stroke-opacity="1" stroke-linejoin="round"/>
  <path id="Путь-3" d="M123.835 76.712 C123.835 76.712 103.431 70.591 112.953 47.466 112.953 47.466 117.714 35.224 134.717 35.904 134.717 35.904 125.875 39.985 130.636 46.106 135.397 52.227 132.676 56.308 132.676 56.308 132.676 56.308 131.316 63.109 121.794 65.15 121.794 65.15 119.074 68.551 123.835 76.712 Z" fill="#ffffff" fill-opacity="1" stroke="#000000" stroke-width="8" stroke-opacity="1" stroke-linejoin="round"/>
  <path id="Путь-4" d="M125.739 74.708 C125.739 74.708 127.023 53.444 151.714 57.415 151.714 57.415 164.722 59.245 167.955 75.952 167.955 75.952 161.957 68.28 157.089 74.317 152.221 80.354 147.626 78.64 147.626 78.64 147.626 78.64 140.694 78.874 136.526 70.073 136.526 70.073 132.593 68.204 125.739 74.708 Z" fill="#ffffff" fill-opacity="1" stroke="#000000" stroke-width="8" stroke-opacity="1" stroke-linejoin="round"/>
  <path id="Путь-5" d="M126.248 78.266 C126.248 78.266 146.429 71.444 152.053 95.812 152.053 95.812 155.259 108.55 141.001 117.84 141.001 117.84 145.848 109.394 138.422 107.159 130.996 104.924 130.852 100.022 130.852 100.022 130.852 100.022 128.024 93.689 134.606 86.513 134.606 86.512 134.856 82.164 126.248 78.266 Z" fill="#ffffff" fill-opacity="1" stroke="#000000" stroke-width="8" stroke-opacity="1" stroke-linejoin="round"/>
  <path id="Путь-6" d="M124.733 78.382 C124.733 78.382 137.924 95.109 116.851 108.575 116.851 108.575 105.924 115.865 92.393 105.545 92.393 105.545 101.975 107.28 101.592 99.535 101.209 91.79 105.779 90.011 105.779 90.011 105.779 90.011 110.798 85.223 119.765 89.02 119.765 89.021 123.945 87.798 124.733 78.382 Z" fill="#ffffff" fill-opacity="1" stroke="#000000" stroke-width="8" stroke-opacity="1" stroke-linejoin="round"/>
  <path id="Путь-7" d="M123.441 78.121 C123.441 78.121 111.298 95.623 92.262 79.404 92.262 79.404 82.098 71.083 88.014 55.128 88.014 55.128 89.154 64.799 96.449 62.17 103.744 59.541 106.781 63.392 106.781 63.392 106.781 63.392 112.826 66.793 111.815 76.479 111.815 76.477 114.205 80.118 123.441 78.121 Z" fill="#ffffff" fill-opacity="1" stroke="#000000" stroke-width="8" stroke-opacity="1" stroke-linejoin="round"/>
 </g>
 <g id="group-1"/>
 <g id="group-2"/>
 <g id="group-3"/>
 <g id="group-4"/>
 <g id="group-5"/>
 <g id="group-6"/>
 <g id="group-7"/>
 <g id="group-8"/>
 <g id="group-9"/>
 <g id="group-10"/>
 <g id="group-11"/>
 <g id="group-12"/>
 <g id="group-13"/>
 <g id="group-14"/>
 <g id="group-15"/>
</svg>
