<?xml version="1.0" encoding="UTF-8"?>
<svg width="242px" height="156px" viewBox="0 0 242 156" xmlns="http://www.w3.org/2000/svg" xmlns:xlink="http://www.w3.org/1999/xlink" version="1.1">
 <!-- Generated by Pixelmator Pro 1.7.1 -->
 <g id="group">
  <path id="Путь" d="M3.982 46.8 L4.216 109.2 237.979 109.2 237.812 46.8 Z" fill="#ee5281" fill-opacity="1" stroke="#000000" stroke-width="7.803" stroke-opacity="1" stroke-linejoin="round"/>
  <path id="Путь-1" d="M4.326 152.1 L238.018 152.1 237.979 128.7 4.271 128.7 Z" fill="#83d816" fill-opacity="1" stroke="#000000" stroke-width="7.803" stroke-opacity="1" stroke-linejoin="round"/>
  <path id="Путь-2" d="M237.773 3.9 L3.982 3.9 4.036 27.3 237.812 27.3 Z" fill="#000000" fill-opacity="1" stroke="#000000" stroke-width="7.803" stroke-opacity="1" stroke-linejoin="round"/>
  <path id="Путь-3" d="M237.773 27.3 L3.982 27.3 4.036 46.8 237.812 46.8 Z" fill="#feda38" fill-opacity="1" stroke="#000000" stroke-width="7.803" stroke-opacity="1" stroke-linejoin="round"/>
  <path id="Путь-4" d="M237.773 109.2 L3.982 109.2 4.036 128.7 237.812 128.7 Z" fill="#feda38" fill-opacity="1" stroke="#000000" stroke-width="7.803" stroke-opacity="1" stroke-linejoin="round"/>
  <path id="Путь-5" d="M148.402 35.1 L96.684 128.7" fill="none" stroke="#ffffff" stroke-width="7.803" stroke-opacity="1" stroke-linejoin="round"/>
  <path id="Путь-6" d="M148.402 128.7 L96.684 35.1" fill="none" stroke="#ffffff" stroke-width="7.803" stroke-opacity="1" stroke-linejoin="round"/>
  <path id="Путь-7" d="M140.881 78.017 C140.881 78.012 140.88 78.007 140.88 78.002 140.868 62.301 121.095 32.24 121.095 32.24 121.095 32.24 101.321 62.302 101.309 78.002 101.309 78.007 101.308 78.012 101.308 78.017 101.308 93.714 121.095 123.793 121.095 123.793 121.095 123.793 140.881 93.714 140.881 78.017 Z" fill="#ee5281" fill-opacity="1" stroke="#000000" stroke-width="7.803" stroke-opacity="1" stroke-linejoin="round"/>
 </g>
 <g id="group-1"/>
 <g id="group-2"/>
 <g id="group-3"/>
 <g id="group-4"/>
 <g id="group-5"/>
 <g id="group-6"/>
 <g id="group-7"/>
 <g id="group-8"/>
 <g id="group-9"/>
 <g id="group-10"/>
 <g id="group-11"/>
 <g id="group-12"/>
 <g id="group-13"/>
 <g id="group-14"/>
 <g id="group-15"/>
</svg>
