<?xml version="1.0" encoding="UTF-8"?>
<svg width="220px" height="156px" viewBox="0 0 220 156" xmlns="http://www.w3.org/2000/svg" xmlns:xlink="http://www.w3.org/1999/xlink" version="1.1">
 <!-- Generated by Pixelmator Pro 1.7.1 -->
 <g id="group">
  <path id="Путь" d="M3.548 3.545 L216.452 3.545 216.452 152.455 3.548 152.455 Z" fill="#ee5281" fill-opacity="1" stroke="#000000" stroke-width="7.094" stroke-opacity="1" stroke-linejoin="round"/>
  <path id="Путь-1" d="M141.935 74.455 C141.935 92.077 127.637 106.364 110 106.364 92.363 106.364 78.065 92.077 78.065 74.455 78.065 56.832 92.363 42.545 110 42.545 127.637 42.545 141.935 56.832 141.935 74.455 Z" fill="#feda38" fill-opacity="1" stroke="#000000" stroke-width="7.094" stroke-opacity="1" stroke-linejoin="round"/>
  <path id="Путь-2" d="M216.452 80.867 C212.255 82.276 208.462 84.371 205.581 86.886 192.17 98.588 179.143 101.931 159.876 85.222 143.607 71.113 127.97 80.718 115.661 88.358 102.194 96.717 87.932 97.933 73.273 85.222 61.285 74.826 43.021 78.873 33.838 86.886 24.342 95.174 15.018 99.199 3.548 94.935 L3.548 118.629 C15.018 122.893 24.342 118.868 33.839 110.58 43.021 102.567 61.286 98.52 73.274 108.916 87.932 121.629 102.194 120.412 115.662 112.052 127.971 104.413 143.607 94.807 159.877 108.916 179.144 125.625 192.171 122.284 205.582 110.58 208.464 108.065 212.257 105.969 216.452 104.562 L216.452 80.867 Z" fill="#ffffff" fill-opacity="1" stroke="#000000" stroke-width="7.094" stroke-opacity="1" stroke-linejoin="round"/>
  <path id="Путь-3" d="M216.452 95.677 C212.255 97.085 208.462 99.181 205.581 101.695 192.17 113.398 179.143 116.74 159.876 100.031 143.607 85.922 127.97 95.527 115.661 103.167 102.194 111.527 87.932 112.743 73.273 100.031 61.285 89.635 43.021 93.682 33.838 101.695 24.342 109.984 15.018 114.009 3.548 109.744 L3.548 133.439 C15.018 137.703 24.342 133.678 33.839 125.389 43.021 117.377 61.286 113.33 73.274 123.726 87.932 136.438 102.194 135.221 115.662 126.862 127.971 119.222 143.607 109.617 159.877 123.726 179.144 140.435 192.171 137.093 205.582 125.389 208.464 122.874 212.257 120.779 216.452 119.371 L216.452 95.677 Z" fill="#288eea" fill-opacity="1" stroke="#000000" stroke-width="7.094" stroke-opacity="1" stroke-linejoin="round"/>
  <path id="Путь-4" d="M216.452 110.486 C212.255 111.895 208.462 113.99 205.581 116.505 192.17 128.207 179.143 131.55 159.876 114.841 143.607 100.732 127.97 110.336 115.661 117.977 102.194 126.336 87.932 127.553 73.273 114.841 61.285 104.445 43.021 108.492 33.838 116.505 24.342 124.793 15.018 128.818 3.548 124.554 L3.548 144.377 28.486 144.377 C30.273 143.147 32.053 141.758 33.839 140.2 43.021 132.187 61.286 128.14 73.274 138.536 76.118 141.003 78.946 142.918 81.757 144.377 L110.664 144.377 C112.341 143.582 114.009 142.697 115.662 141.672 127.971 134.032 143.607 124.427 159.877 138.536 162.598 140.896 165.177 142.796 167.666 144.377 L200.229 144.377 C202.017 143.147 203.797 141.758 205.583 140.2 208.465 137.684 212.257 135.589 216.453 134.181 L216.453 110.486 Z" fill="#ffffff" fill-opacity="1" stroke="#000000" stroke-width="7.094" stroke-opacity="1" stroke-linejoin="round"/>
  <path id="Путь-5" d="M216.452 152.455 L216.452 140.338 216.452 125.295 C212.255 126.703 208.462 128.798 205.581 131.313 192.17 143.016 179.143 146.358 159.876 129.649 143.607 115.54 127.97 125.145 115.661 132.785 102.194 141.145 87.932 142.362 73.273 129.649 61.285 119.253 43.021 123.3 33.838 131.313 24.342 139.601 15.018 143.626 3.548 139.362 L3.548 148.203 3.548 152.455 Z" fill="#288eea" fill-opacity="1" stroke="#000000" stroke-width="7.094" stroke-opacity="1" stroke-linejoin="round"/>
 </g>
 <g id="group-1"/>
 <g id="group-2"/>
 <g id="group-3"/>
 <g id="group-4"/>
 <g id="group-5"/>
 <g id="group-6"/>
 <g id="group-7"/>
 <g id="group-8"/>
 <g id="group-9"/>
 <g id="group-10"/>
 <g id="group-11"/>
 <g id="group-12"/>
 <g id="group-13"/>
 <g id="group-14"/>
 <g id="group-15"/>
</svg>
