<?xml version="1.0" encoding="UTF-8"?>
<svg width="248px" height="176px" viewBox="0 0 248 176" xmlns="http://www.w3.org/2000/svg" xmlns:xlink="http://www.w3.org/1999/xlink" version="1.1">
 <!-- Generated by Pixelmator Pro 1.7 -->
 <g id="group">
  <path id="Путь" d="M4 4 L244 4 244 172 4 172 Z" fill="#ee5281" fill-opacity="1" stroke="#000000" stroke-width="8" stroke-opacity="1" stroke-linejoin="round"/>
  <path id="Путь-1" d="M160 84 C160 103.882 143.882 120 124 120 104.118 120 88 103.882 88 84 88 64.118 104.118 48 124 48 143.882 48 160 64.118 160 84 Z" fill="#feda38" fill-opacity="1" stroke="#000000" stroke-width="8" stroke-opacity="1" stroke-linejoin="round"/>
  <path id="Путь-2" d="M244 91.235 C239.269 92.824 234.994 95.188 231.746 98.025 216.628 111.228 201.943 114.999 180.224 96.148 161.884 80.23 144.257 91.066 130.382 99.686 115.2 109.117 99.123 110.489 82.599 96.148 69.085 84.419 48.496 88.985 38.145 98.025 27.44 107.376 16.929 111.917 4 107.106 L4 133.838 C16.929 138.649 27.44 134.108 38.146 124.757 48.496 115.717 69.086 111.151 82.6 122.88 99.123 137.222 115.201 135.849 130.383 126.418 144.258 117.799 161.884 106.962 180.225 122.88 201.944 141.731 216.629 137.961 231.747 124.757 234.996 121.919 239.271 119.555 244.001 117.967 L244.001 91.235 Z" fill="#ffffff" fill-opacity="1" stroke="#000000" stroke-width="8" stroke-opacity="1" stroke-linejoin="round"/>
  <path id="Путь-3" d="M244 107.943 C239.269 109.532 234.994 111.896 231.746 114.733 216.628 127.936 201.943 131.707 180.224 112.856 161.884 96.938 144.257 107.774 130.382 116.394 115.2 125.825 99.123 127.197 82.599 112.856 69.085 101.127 48.496 105.693 38.145 114.733 27.44 124.084 16.929 128.625 4 123.814 L4 150.546 C16.929 155.357 27.44 150.816 38.146 141.465 48.496 132.425 69.086 127.859 82.6 139.588 99.123 153.93 115.201 152.557 130.383 143.126 144.258 134.507 161.884 123.67 180.225 139.588 201.944 158.439 216.629 154.669 231.747 141.465 234.996 138.627 239.271 136.263 244.001 134.675 L244.001 107.943 Z" fill="#288eea" fill-opacity="1" stroke="#000000" stroke-width="8" stroke-opacity="1" stroke-linejoin="round"/>
  <path id="Путь-4" d="M244 124.651 C239.269 126.24 234.994 128.604 231.746 131.441 216.628 144.644 201.943 148.415 180.224 129.564 161.884 113.646 144.257 124.482 130.382 133.102 115.2 142.533 99.123 143.906 82.599 129.564 69.085 117.835 48.496 122.401 38.145 131.441 27.44 140.792 16.929 145.333 4 140.522 L4 162.887 32.111 162.887 C34.126 161.499 36.133 159.932 38.146 158.174 48.496 149.134 69.086 144.568 82.6 156.297 85.806 159.08 88.994 161.241 92.163 162.887 L124.749 162.887 C126.639 161.99 128.519 160.992 130.383 159.835 144.258 151.216 161.884 140.379 180.225 156.297 183.292 158.96 186.2 161.103 189.005 162.887 L225.713 162.887 C227.728 161.499 229.735 159.932 231.748 158.174 234.997 155.336 239.272 152.972 244.002 151.384 L244.002 124.651 Z" fill="#ffffff" fill-opacity="1" stroke="#000000" stroke-width="8" stroke-opacity="1" stroke-linejoin="round"/>
  <path id="Путь-5" d="M244 172 L244 158.33 244 141.358 C239.269 142.947 234.994 145.311 231.746 148.148 216.628 161.351 201.943 165.122 180.224 146.271 161.884 130.353 144.257 141.189 130.382 149.809 115.2 159.24 99.123 160.613 82.599 146.271 69.085 134.542 48.496 139.108 38.145 148.148 27.44 157.499 16.929 162.04 4 157.229 L4 167.203 4 172 Z" fill="#288eea" fill-opacity="1" stroke="#000000" stroke-width="8" stroke-opacity="1" stroke-linejoin="round"/>
 </g>
 <g id="group-1"/>
 <g id="group-2"/>
 <g id="group-3"/>
 <g id="group-4"/>
 <g id="group-5"/>
 <g id="group-6"/>
 <g id="group-7"/>
 <g id="group-8"/>
 <g id="group-9"/>
 <g id="group-10"/>
 <g id="group-11"/>
 <g id="group-12"/>
 <g id="group-13"/>
 <g id="group-14"/>
 <g id="group-15"/>
</svg>
