<?xml version="1.0" encoding="UTF-8"?>
<svg xmlns="http://www.w3.org/2000/svg" xmlns:xlink="http://www.w3.org/1999/xlink" width="247pt" height="168pt" viewBox="0 0 247 168" version="1.1">
<g id="surface1">
<path style=" stroke:none;fill-rule:nonzero;fill:rgb(23.921569%,70.588235%,91.764706%);fill-opacity:1;" d="M 35.40625 43.160156 L 30.511719 48.800781 L 35.40625 54.445312 L 40.304688 48.800781 Z M 35.40625 43.160156 "/>
<path style=" stroke:none;fill-rule:nonzero;fill:rgb(23.921569%,70.588235%,91.764706%);fill-opacity:1;" d="M 35.40625 66.621094 L 30.511719 72.265625 L 35.40625 77.910156 L 40.304688 72.265625 Z M 35.40625 66.621094 "/>
<path style=" stroke:none;fill-rule:nonzero;fill:rgb(23.921569%,70.588235%,91.764706%);fill-opacity:1;" d="M 35.40625 113.550781 L 30.511719 119.195312 L 35.40625 124.839844 L 40.304688 119.195312 Z M 35.40625 113.550781 "/>
<path style=" stroke:none;fill-rule:nonzero;fill:rgb(23.921569%,70.588235%,91.764706%);fill-opacity:1;" d="M 35.40625 90.085938 L 30.511719 95.730469 L 35.40625 101.371094 L 40.304688 95.730469 Z M 35.40625 90.085938 "/>
<path style=" stroke:none;fill-rule:nonzero;fill:rgb(23.921569%,70.588235%,91.764706%);fill-opacity:1;" d="M 198.882812 164.300781 L 198.882812 163.992188 C 198.882812 161.957031 197.234375 160.300781 195.210938 160.300781 L 7.660156 160.300781 L 7.660156 7.699219 L 239.339844 7.699219 L 239.339844 160.300781 L 211.144531 160.300781 C 209.121094 160.300781 207.46875 161.957031 207.46875 163.992188 L 207.46875 164.300781 Z M 42.816406 145.082031 C 43.515625 145.886719 44.527344 146.351562 45.589844 146.351562 C 46.476562 146.351562 47.332031 146.027344 48.003906 145.441406 C 49.53125 144.105469 49.691406 141.769531 48.359375 140.234375 L 40.28125 130.925781 L 48.359375 121.617188 C 49.558594 120.238281 49.558594 118.152344 48.359375 116.769531 L 40.28125 107.460938 L 48.359375 98.152344 C 49.558594 96.769531 49.558594 94.6875 48.359375 93.304688 L 40.28125 83.996094 L 48.359375 74.691406 C 49.558594 73.308594 49.558594 71.222656 48.359375 69.84375 L 40.28125 60.535156 L 48.359375 51.226562 C 49.558594 49.84375 49.558594 47.761719 48.359375 46.378906 L 40.28125 37.070312 L 48.359375 27.761719 C 49.691406 26.226562 49.53125 23.890625 48.003906 22.554688 C 47.332031 21.96875 46.476562 21.648438 45.589844 21.648438 C 44.527344 21.648438 43.515625 22.109375 42.820312 22.914062 L 35.40625 31.453125 L 27.996094 22.914062 C 27.300781 22.109375 26.289062 21.648438 25.226562 21.648438 C 24.339844 21.648438 23.480469 21.972656 22.8125 22.554688 C 22.070312 23.203125 21.628906 24.101562 21.558594 25.085938 C 21.492188 26.070312 21.8125 27.019531 22.457031 27.761719 L 30.535156 37.070312 L 22.457031 46.378906 C 21.257812 47.757812 21.257812 49.84375 22.453125 51.226562 L 30.53125 60.535156 L 22.453125 69.84375 C 21.257812 71.222656 21.257812 73.308594 22.457031 74.691406 L 30.53125 83.996094 L 22.457031 93.304688 C 21.257812 94.6875 21.257812 96.769531 22.453125 98.152344 L 30.53125 107.460938 L 22.453125 116.769531 C 21.257812 118.152344 21.257812 120.234375 22.453125 121.617188 L 30.53125 130.925781 L 22.453125 140.238281 C 21.125 141.769531 21.285156 144.105469 22.8125 145.441406 C 23.480469 146.027344 24.339844 146.351562 25.222656 146.351562 C 26.289062 146.351562 27.296875 145.886719 27.996094 145.082031 L 35.40625 136.542969 Z M 177.832031 63.75 C 175.804688 63.75 174.15625 65.40625 174.15625 67.4375 C 174.15625 83.816406 160.882812 97.140625 144.570312 97.140625 C 143.386719 97.140625 142.269531 97.71875 141.582031 98.683594 L 128.871094 116.550781 C 127.691406 118.203125 128.074219 120.511719 129.722656 121.695312 C 130.351562 122.144531 131.089844 122.382812 131.855469 122.382812 C 133.042969 122.382812 134.164062 121.804688 134.851562 120.835938 L 146.496094 104.46875 L 146.644531 104.460938 C 159.464844 103.746094 170.8125 96.527344 177 85.152344 L 177.085938 84.992188 L 191.296875 84.992188 C 193.324219 84.992188 194.972656 83.335938 194.972656 81.304688 C 194.972656 79.269531 193.324219 77.613281 191.296875 77.613281 L 180.082031 77.613281 L 180.191406 77.222656 C 180.710938 75.304688 181.082031 73.347656 181.289062 71.40625 L 181.320312 71.128906 L 202.453125 71.128906 C 204.480469 71.128906 206.128906 69.472656 206.128906 67.4375 C 206.128906 65.40625 204.480469 63.75 202.453125 63.75 Z M 97.84375 77.613281 C 95.816406 77.613281 94.167969 79.269531 94.167969 81.304688 C 94.167969 83.335938 95.816406 84.992188 97.84375 84.992188 L 112.054688 84.992188 L 112.140625 85.15625 C 115.957031 92.183594 122.03125 97.878906 129.242188 101.183594 C 129.726562 101.40625 130.238281 101.519531 130.769531 101.519531 C 132.203125 101.519531 133.515625 100.671875 134.113281 99.359375 C 134.519531 98.464844 134.558594 97.460938 134.214844 96.539062 C 133.871094 95.613281 133.191406 94.882812 132.296875 94.472656 C 121.78125 89.652344 114.984375 79.039062 114.984375 67.4375 C 114.984375 65.402344 113.335938 63.75 111.308594 63.75 L 86.6875 63.75 C 84.660156 63.75 83.011719 65.402344 83.011719 67.4375 C 83.011719 69.472656 84.660156 71.128906 86.6875 71.128906 L 107.820312 71.128906 L 107.847656 71.402344 C 108.058594 73.347656 108.429688 75.304688 108.957031 77.222656 L 109.0625 77.613281 Z M 144.570312 45.617188 C 132.585938 45.617188 122.835938 55.40625 122.835938 67.4375 C 122.835938 79.46875 132.585938 89.257812 144.570312 89.257812 C 156.554688 89.257812 166.304688 79.46875 166.304688 67.4375 C 166.304688 55.40625 156.554688 45.617188 144.570312 45.617188 Z M 144.570312 45.617188 "/>
<path style=" stroke:none;fill-rule:nonzero;fill:rgb(23.921569%,70.588235%,91.764706%);fill-opacity:1;" d="M 211.144531 159.992188 L 239.03125 159.992188 L 239.03125 8.007812 L 7.96875 8.007812 L 7.96875 159.992188 L 195.210938 159.992188 C 197.410156 159.992188 199.195312 161.78125 199.195312 163.992188 L 207.160156 163.992188 C 207.160156 161.78125 208.945312 159.992188 211.144531 159.992188 Z M 144.570312 45.308594 C 156.726562 45.308594 166.613281 55.234375 166.613281 67.4375 C 166.613281 79.640625 156.726562 89.570312 144.570312 89.570312 C 132.414062 89.570312 122.527344 79.640625 122.527344 67.4375 C 122.527344 55.234375 132.414062 45.308594 144.570312 45.308594 Z M 48.59375 140.03125 C 50.039062 141.699219 49.867188 144.222656 48.207031 145.675781 C 47.449219 146.335938 46.519531 146.660156 45.589844 146.660156 C 44.480469 146.660156 43.371094 146.195312 42.585938 145.285156 L 35.40625 137.015625 L 28.230469 145.285156 C 27.441406 146.195312 26.335938 146.660156 25.226562 146.660156 C 24.296875 146.660156 23.363281 146.335938 22.609375 145.675781 C 20.949219 144.222656 20.777344 141.699219 22.222656 140.03125 L 30.125 130.925781 L 22.222656 121.820312 C 20.914062 120.316406 20.914062 118.074219 22.222656 116.566406 L 30.125 107.460938 L 22.222656 98.355469 C 20.914062 96.847656 20.914062 94.605469 22.222656 93.101562 L 30.125 83.996094 L 22.222656 74.894531 C 20.914062 73.386719 20.914062 71.144531 22.222656 69.636719 L 30.125 60.535156 L 22.222656 51.429688 C 20.914062 49.921875 20.914062 47.679688 22.222656 46.175781 L 30.125 37.070312 L 22.222656 27.964844 C 20.777344 26.300781 20.949219 23.773438 22.609375 22.324219 C 24.269531 20.871094 26.785156 21.046875 28.230469 22.710938 L 35.410156 30.980469 L 42.585938 22.710938 C 44.03125 21.042969 46.546875 20.871094 48.207031 22.324219 C 49.867188 23.773438 50.039062 26.300781 48.59375 27.964844 L 40.691406 37.070312 L 48.59375 46.175781 C 49.902344 47.679688 49.902344 49.925781 48.59375 51.429688 L 40.691406 60.535156 L 48.59375 69.640625 C 49.902344 71.144531 49.902344 73.386719 48.59375 74.894531 L 40.691406 83.996094 L 48.59375 93.101562 C 49.902344 94.609375 49.902344 96.851562 48.59375 98.355469 L 40.691406 107.460938 L 48.59375 116.566406 C 49.902344 118.074219 49.902344 120.316406 48.59375 121.820312 L 40.691406 130.925781 Z M 97.84375 85.304688 C 95.640625 85.304688 93.859375 83.511719 93.859375 81.304688 C 93.859375 79.09375 95.640625 77.304688 97.84375 77.304688 L 108.660156 77.304688 C 108.136719 75.394531 107.757812 73.433594 107.542969 71.4375 L 86.6875 71.4375 C 84.488281 71.4375 82.703125 69.648438 82.703125 67.4375 C 82.703125 65.230469 84.488281 63.4375 86.6875 63.4375 L 111.308594 63.4375 C 113.511719 63.4375 115.292969 65.230469 115.292969 67.4375 C 115.292969 78.917969 122.019531 89.417969 132.425781 94.191406 C 134.425781 95.109375 135.308594 97.480469 134.394531 99.492188 C 133.726562 100.960938 132.28125 101.828125 130.769531 101.828125 C 130.214844 101.828125 129.652344 101.714844 129.117188 101.46875 C 121.640625 98.039062 115.660156 92.289062 111.871094 85.304688 Z M 202.453125 71.4375 L 181.597656 71.4375 C 181.382812 73.445312 181.007812 75.402344 180.488281 77.304688 L 191.296875 77.304688 C 193.5 77.304688 195.28125 79.09375 195.28125 81.304688 C 195.28125 83.511719 193.5 85.304688 191.296875 85.304688 L 177.269531 85.304688 C 171.261719 96.34375 159.875 104.03125 146.664062 104.769531 L 135.101562 121.019531 C 134.324219 122.109375 133.101562 122.691406 131.855469 122.691406 C 131.054688 122.691406 130.246094 122.449219 129.542969 121.949219 C 127.753906 120.664062 127.339844 118.167969 128.617188 116.367188 L 141.328125 98.503906 C 142.078125 97.453125 143.285156 96.828125 144.570312 96.828125 C 160.714844 96.828125 173.847656 83.644531 173.847656 67.4375 C 173.847656 65.230469 175.628906 63.441406 177.832031 63.441406 L 202.453125 63.441406 C 204.652344 63.441406 206.4375 65.230469 206.4375 67.4375 C 206.4375 69.648438 204.652344 71.4375 202.453125 71.4375 Z M 202.453125 71.4375 "/>
<path style=" stroke:none;fill-rule:nonzero;fill:rgb(0%,0%,0%);fill-opacity:1;" d="M 243.015625 0.0117188 L 3.984375 0.0117188 C 1.78125 0.0117188 0 1.800781 0 4.007812 L 0 163.992188 C 0 166.199219 1.78125 167.988281 3.984375 167.988281 L 195.210938 167.988281 C 197.410156 167.988281 209.949219 166.199219 209.949219 163.992188 C 209.949219 161.78125 217.089844 159.992188 214.890625 159.992188 L 7.96875 159.992188 L 7.96875 8.007812 L 239.03125 8.007812 L 239.03125 159.992188 L 211.144531 159.992188 C 208.945312 159.992188 207.160156 161.78125 207.160156 163.992188 C 207.160156 166.199219 190.152344 167.988281 192.351562 167.988281 L 243.015625 167.988281 C 245.21875 167.988281 247 166.199219 247 163.992188 L 247 4.007812 C 247 1.800781 245.21875 0.0117188 243.015625 0.0117188 Z M 243.015625 0.0117188 "/>
<path style=" stroke:none;fill-rule:nonzero;fill:rgb(100%,87.843137%,0%);fill-opacity:1;" d="M 144.570312 89.570312 C 156.726562 89.570312 166.613281 79.640625 166.613281 67.4375 C 166.613281 55.234375 156.726562 45.308594 144.570312 45.308594 C 132.414062 45.308594 122.527344 55.234375 122.527344 67.4375 C 122.527344 79.640625 132.414062 89.570312 144.570312 89.570312 Z M 144.570312 89.570312 "/>
<path style=" stroke:none;fill-rule:nonzero;fill:rgb(100%,87.843137%,0%);fill-opacity:1;" d="M 129.117188 101.464844 C 129.652344 101.710938 130.214844 101.828125 130.769531 101.828125 C 132.28125 101.828125 133.726562 100.960938 134.394531 99.488281 C 135.308594 97.480469 134.425781 95.109375 132.425781 94.191406 C 122.019531 89.417969 115.292969 78.917969 115.292969 67.4375 C 115.292969 65.230469 113.511719 63.4375 111.308594 63.4375 L 86.6875 63.4375 C 84.488281 63.4375 82.703125 65.230469 82.703125 67.4375 C 82.703125 69.648438 84.488281 71.4375 86.6875 71.4375 L 107.542969 71.4375 C 107.757812 73.433594 108.136719 75.394531 108.660156 77.304688 L 97.84375 77.304688 C 95.640625 77.304688 93.859375 79.09375 93.859375 81.300781 C 93.859375 83.511719 95.640625 85.300781 97.84375 85.300781 L 111.871094 85.300781 C 115.664062 92.289062 121.640625 98.039062 129.117188 101.464844 Z M 129.117188 101.464844 "/>
<path style=" stroke:none;fill-rule:nonzero;fill:rgb(100%,87.843137%,0%);fill-opacity:1;" d="M 202.453125 63.4375 L 177.832031 63.4375 C 175.628906 63.4375 173.847656 65.230469 173.847656 67.4375 C 173.847656 83.644531 160.714844 96.828125 144.570312 96.828125 C 143.285156 96.828125 142.078125 97.453125 141.328125 98.503906 L 128.617188 116.367188 C 127.339844 118.167969 127.753906 120.664062 129.542969 121.949219 C 130.246094 122.449219 131.054688 122.691406 131.855469 122.691406 C 133.101562 122.691406 134.324219 122.109375 135.101562 121.019531 L 146.660156 104.769531 C 159.875 104.03125 171.261719 96.34375 177.269531 85.300781 L 191.296875 85.300781 C 193.5 85.300781 195.28125 83.511719 195.28125 81.300781 C 195.28125 79.09375 193.5 77.304688 191.296875 77.304688 L 180.488281 77.304688 C 181.007812 75.402344 181.382812 73.445312 181.597656 71.4375 L 202.453125 71.4375 C 204.652344 71.4375 206.4375 69.648438 206.4375 67.4375 C 206.4375 65.230469 204.652344 63.4375 202.453125 63.4375 Z M 202.453125 63.4375 "/>
<path style=" stroke:none;fill-rule:nonzero;fill:rgb(100%,87.843137%,0%);fill-opacity:1;" d="M 48.59375 116.566406 L 40.691406 107.460938 L 48.59375 98.355469 C 49.898438 96.847656 49.898438 94.605469 48.59375 93.101562 L 40.691406 83.996094 L 48.59375 74.894531 C 49.898438 73.386719 49.898438 71.144531 48.59375 69.636719 L 40.691406 60.535156 L 48.59375 51.429688 C 49.898438 49.921875 49.898438 47.679688 48.59375 46.175781 L 40.691406 37.070312 L 48.59375 27.964844 C 50.039062 26.300781 49.867188 23.773438 48.207031 22.324219 C 46.546875 20.871094 44.03125 21.046875 42.585938 22.710938 L 35.40625 30.980469 L 28.230469 22.710938 C 26.785156 21.046875 24.265625 20.871094 22.609375 22.324219 C 20.949219 23.773438 20.777344 26.300781 22.222656 27.964844 L 30.125 37.070312 L 22.222656 46.175781 C 20.917969 47.679688 20.917969 49.925781 22.222656 51.429688 L 30.125 60.535156 L 22.222656 69.640625 C 20.917969 71.144531 20.917969 73.386719 22.222656 74.894531 L 30.125 83.996094 L 22.222656 93.101562 C 20.917969 94.609375 20.917969 96.851562 22.222656 98.355469 L 30.125 107.460938 L 22.222656 116.566406 C 20.917969 118.074219 20.917969 120.316406 22.222656 121.820312 L 30.125 130.925781 L 22.222656 140.03125 C 20.777344 141.699219 20.949219 144.222656 22.609375 145.675781 C 23.367188 146.335938 24.296875 146.660156 25.226562 146.660156 C 26.335938 146.660156 27.441406 146.195312 28.230469 145.285156 L 35.410156 137.015625 L 42.585938 145.285156 C 43.375 146.195312 44.480469 146.660156 45.589844 146.660156 C 46.519531 146.660156 47.453125 146.335938 48.207031 145.675781 C 49.867188 144.222656 50.039062 141.699219 48.59375 140.03125 L 40.691406 130.925781 L 48.59375 121.820312 C 49.898438 120.316406 49.898438 118.074219 48.59375 116.566406 Z M 30.511719 48.800781 L 35.40625 43.160156 L 40.304688 48.800781 L 35.40625 54.445312 Z M 30.511719 72.265625 L 35.40625 66.621094 L 40.304688 72.265625 L 35.40625 77.910156 Z M 30.511719 95.730469 L 35.40625 90.085938 L 40.304688 95.730469 L 35.40625 101.371094 Z M 30.511719 119.195312 L 35.40625 113.550781 L 40.304688 119.195312 L 35.40625 124.839844 Z M 30.511719 119.195312 "/>
</g>
</svg>
