<?xml version="1.0" encoding="UTF-8"?>
<svg width="229px" height="156px" viewBox="0 0 229 156" xmlns="http://www.w3.org/2000/svg" xmlns:xlink="http://www.w3.org/1999/xlink" version="1.1">
 <!-- Generated by Pixelmator Pro 1.7.1 -->
 <g id="surface1">
  <path id="Путь" d="M32.826 40.077 L28.288 45.315 32.826 50.556 37.368 45.315 Z M32.826 40.077" fill="#3db4ea" fill-opacity="1" stroke="none"/>
  <path id="Путь-1" d="M32.826 61.862 L28.288 67.104 32.826 72.345 37.368 67.104 Z M32.826 61.862" fill="#3db4ea" fill-opacity="1" stroke="none"/>
  <path id="Путь-2" d="M32.826 105.44 L28.288 110.681 32.826 115.923 37.368 110.681 Z M32.826 105.44" fill="#3db4ea" fill-opacity="1" stroke="none"/>
  <path id="Путь-3" d="M32.826 83.651 L28.288 88.893 32.826 94.13 37.368 88.893 Z M32.826 83.651" fill="#3db4ea" fill-opacity="1" stroke="none"/>
  <path id="Путь-4" d="M184.389 152.565 L184.389 152.278 C184.389 150.389 182.861 148.851 180.985 148.851 L7.102 148.851 7.102 7.149 221.898 7.149 221.898 148.851 195.757 148.851 C193.882 148.851 192.35 150.389 192.35 152.278 L192.35 152.565 Z M39.696 134.719 C40.344 135.466 41.282 135.898 42.268 135.898 43.09 135.898 43.883 135.597 44.506 135.053 45.922 133.812 46.07 131.643 44.835 130.218 L37.346 121.574 44.835 112.93 C45.947 111.65 45.947 109.713 44.835 108.429 L37.346 99.785 44.835 91.141 C45.947 89.857 45.947 87.924 44.835 86.64 L37.346 77.996 44.835 69.356 C45.947 68.072 45.947 66.135 44.835 64.855 L37.346 56.211 44.835 47.568 C45.947 46.283 45.947 44.35 44.835 43.066 L37.346 34.422 44.835 25.779 C46.07 24.353 45.922 22.184 44.506 20.944 43.883 20.4 43.09 20.102 42.268 20.102 41.282 20.102 40.344 20.53 39.7 21.277 L32.826 29.206 25.956 21.277 C25.311 20.53 24.373 20.102 23.388 20.102 22.566 20.102 21.769 20.403 21.15 20.944 20.462 21.546 20.053 22.38 19.988 23.294 19.926 24.208 20.223 25.09 20.82 25.779 L28.31 34.422 20.82 43.066 C19.709 44.347 19.709 46.283 20.817 47.568 L28.306 56.211 20.817 64.855 C19.709 66.135 19.709 68.072 20.82 69.356 L28.306 77.996 20.82 86.64 C19.709 87.924 19.709 89.857 20.817 91.141 L28.306 99.785 20.817 108.429 C19.709 109.713 19.709 111.646 20.817 112.93 L28.306 121.574 20.817 130.221 C19.586 131.643 19.734 133.812 21.15 135.053 21.769 135.597 22.566 135.898 23.385 135.898 24.373 135.898 25.308 135.466 25.956 134.719 L32.826 126.79 Z M164.873 59.196 C162.993 59.196 161.465 60.734 161.465 62.621 161.465 77.83 149.159 90.202 134.035 90.202 132.937 90.202 131.902 90.739 131.264 91.635 L119.48 108.226 C118.386 109.76 118.741 111.904 120.269 113.003 120.852 113.42 121.537 113.641 122.247 113.641 123.348 113.641 124.387 113.104 125.024 112.205 L135.82 97.007 135.958 96.999 C147.844 96.336 158.365 89.633 164.101 79.07 L164.181 78.921 177.356 78.921 C179.236 78.921 180.764 77.383 180.764 75.497 180.764 73.607 179.236 72.069 177.356 72.069 L166.959 72.069 167.06 71.707 C167.542 69.926 167.886 68.109 168.078 66.306 L168.107 66.048 187.699 66.048 C189.579 66.048 191.107 64.51 191.107 62.621 191.107 60.734 189.579 59.196 187.699 59.196 Z M90.713 72.069 C88.834 72.069 87.306 73.607 87.306 75.497 87.306 77.383 88.834 78.921 90.713 78.921 L103.889 78.921 103.968 79.074 C107.507 85.599 113.138 90.888 119.824 93.956 120.273 94.163 120.747 94.268 121.24 94.268 122.569 94.268 123.786 93.481 124.34 92.262 124.716 91.432 124.753 90.499 124.434 89.643 124.115 88.784 123.485 88.105 122.656 87.725 112.907 83.249 106.605 73.393 106.605 62.621 106.605 60.731 105.077 59.196 103.197 59.196 L80.37 59.196 C78.491 59.196 76.962 60.731 76.962 62.621 76.962 64.51 78.491 66.048 80.37 66.048 L99.963 66.048 99.988 66.302 C100.184 68.109 100.528 69.926 101.017 71.707 L101.115 72.069 Z M134.035 42.359 C122.924 42.359 113.884 51.449 113.884 62.621 113.884 73.792 122.924 82.882 134.035 82.882 145.146 82.882 154.185 73.792 154.185 62.621 154.185 51.449 145.146 42.359 134.035 42.359 Z M134.035 42.359" fill="#3db4ea" fill-opacity="1" stroke="none"/>
  <path id="Путь-5" d="M195.757 148.564 L221.612 148.564 221.612 7.436 7.388 7.436 7.388 148.564 180.985 148.564 C183.024 148.564 184.679 150.225 184.679 152.278 L192.063 152.278 C192.063 150.225 193.719 148.564 195.757 148.564 Z M134.035 42.072 C145.305 42.072 154.471 51.289 154.471 62.621 154.471 73.952 145.305 83.172 134.035 83.172 122.764 83.172 113.598 73.952 113.598 62.621 113.598 51.289 122.764 42.072 134.035 42.072 Z M45.053 130.029 C46.392 131.578 46.233 133.921 44.694 135.27 43.991 135.883 43.129 136.184 42.268 136.184 41.239 136.184 40.21 135.753 39.483 134.908 L32.826 127.229 26.173 134.908 C25.442 135.753 24.417 136.184 23.388 136.184 22.526 136.184 21.661 135.883 20.962 135.27 19.423 133.921 19.263 131.578 20.603 130.029 L27.93 121.574 20.603 113.119 C19.39 111.722 19.39 109.64 20.603 108.24 L27.93 99.785 20.603 91.33 C19.39 89.93 19.39 87.848 20.603 86.451 L27.93 77.996 20.603 69.545 C19.39 68.145 19.39 66.063 20.603 64.663 L27.93 56.211 20.603 47.756 C19.39 46.356 19.39 44.274 20.603 42.878 L27.93 34.422 20.603 25.967 C19.263 24.422 19.423 22.075 20.962 20.73 22.501 19.38 24.833 19.544 26.173 21.089 L32.83 28.768 39.483 21.089 C40.822 19.54 43.155 19.38 44.694 20.73 46.233 22.075 46.392 24.422 45.053 25.967 L37.726 34.422 45.053 42.878 C46.266 44.274 46.266 46.36 45.053 47.756 L37.726 56.211 45.053 64.666 C46.266 66.063 46.266 68.145 45.053 69.545 L37.726 77.996 45.053 86.451 C46.266 87.852 46.266 89.934 45.053 91.33 L37.726 99.785 45.053 108.24 C46.266 109.64 46.266 111.722 45.053 113.119 L37.726 121.574 Z M90.713 79.211 C88.671 79.211 87.019 77.547 87.019 75.497 87.019 73.444 88.671 71.783 90.713 71.783 L100.742 71.783 C100.256 70.009 99.905 68.188 99.706 66.335 L80.37 66.335 C78.331 66.335 76.676 64.674 76.676 62.621 76.676 60.571 78.331 58.906 80.37 58.906 L103.197 58.906 C105.24 58.906 106.891 60.571 106.891 62.621 106.891 73.281 113.127 83.031 122.775 87.463 124.63 88.316 125.448 90.518 124.601 92.386 123.981 93.749 122.641 94.555 121.24 94.555 120.726 94.555 120.204 94.449 119.708 94.221 112.776 91.036 107.231 85.697 103.719 79.211 Z M187.699 66.335 L168.364 66.335 C168.165 68.199 167.817 70.016 167.335 71.783 L177.356 71.783 C179.399 71.783 181.05 73.444 181.05 75.497 181.05 77.547 179.399 79.211 177.356 79.211 L164.351 79.211 C158.781 89.462 148.224 96.6 135.976 97.286 L125.256 112.375 C124.535 113.387 123.402 113.928 122.247 113.928 121.504 113.928 120.754 113.703 120.103 113.239 118.444 112.045 118.06 109.727 119.244 108.055 L131.029 91.468 C131.724 90.492 132.843 89.912 134.035 89.912 149.003 89.912 161.179 77.67 161.179 62.621 161.179 60.571 162.83 58.91 164.873 58.91 L187.699 58.91 C189.738 58.91 191.393 60.571 191.393 62.621 191.393 64.674 189.738 66.335 187.699 66.335 Z M187.699 66.335" fill="#3db4ea" fill-opacity="1" stroke="none"/>
  <path id="Путь-6" d="M225.306 0.011 L3.694 0.011 C1.651 0.011 0 1.672 0 3.722 L0 152.278 C0 154.328 1.651 155.989 3.694 155.989 L180.985 155.989 C183.024 155.989 194.649 154.328 194.649 152.278 194.649 150.225 201.27 148.564 199.231 148.564 L7.388 148.564 7.388 7.436 221.612 7.436 221.612 148.564 195.757 148.564 C193.719 148.564 192.063 150.225 192.063 152.278 192.063 154.328 176.295 155.989 178.334 155.989 L225.306 155.989 C227.349 155.989 229 154.328 229 152.278 L229 3.722 C229 1.672 227.349 0.011 225.306 0.011 Z M225.306 0.011" fill="#000000" fill-opacity="1" stroke="none"/>
  <path id="Путь-7" d="M134.035 83.172 C145.305 83.172 154.471 73.952 154.471 62.621 154.471 51.289 145.305 42.072 134.035 42.072 122.764 42.072 113.598 51.289 113.598 62.621 113.598 73.952 122.764 83.172 134.035 83.172 Z M134.035 83.172" fill="#ffe000" fill-opacity="1" stroke="none"/>
  <path id="Путь-8" d="M119.708 94.217 C120.204 94.446 120.726 94.555 121.24 94.555 122.641 94.555 123.981 93.749 124.601 92.382 125.448 90.518 124.63 88.316 122.775 87.463 113.127 83.031 106.891 73.281 106.891 62.621 106.891 60.571 105.24 58.906 103.197 58.906 L80.37 58.906 C78.331 58.906 76.676 60.571 76.676 62.621 76.676 64.674 78.331 66.335 80.37 66.335 L99.706 66.335 C99.905 68.188 100.256 70.009 100.742 71.783 L90.713 71.783 C88.671 71.783 87.019 73.444 87.019 75.494 87.019 77.547 88.671 79.208 90.713 79.208 L103.719 79.208 C107.235 85.697 112.776 91.036 119.708 94.217 Z M119.708 94.217" fill="#ffe000" fill-opacity="1" stroke="none"/>
  <path id="Путь-9" d="M187.699 58.906 L164.873 58.906 C162.83 58.906 161.179 60.571 161.179 62.621 161.179 77.67 149.003 89.912 134.035 89.912 132.843 89.912 131.724 90.492 131.029 91.468 L119.244 108.055 C118.06 109.727 118.444 112.045 120.103 113.239 120.754 113.703 121.504 113.928 122.247 113.928 123.402 113.928 124.535 113.387 125.256 112.375 L135.972 97.286 C148.224 96.6 158.781 89.462 164.351 79.208 L177.356 79.208 C179.399 79.208 181.05 77.547 181.05 75.494 181.05 73.444 179.399 71.783 177.356 71.783 L167.335 71.783 C167.817 70.016 168.165 68.199 168.364 66.335 L187.699 66.335 C189.738 66.335 191.393 64.674 191.393 62.621 191.393 60.571 189.738 58.906 187.699 58.906 Z M187.699 58.906" fill="#ffe000" fill-opacity="1" stroke="none"/>
  <path id="Путь-10" d="M45.053 108.24 L37.726 99.785 45.053 91.33 C46.262 89.93 46.262 87.848 45.053 86.451 L37.726 77.996 45.053 69.545 C46.262 68.145 46.262 66.063 45.053 64.663 L37.726 56.211 45.053 47.756 C46.262 46.356 46.262 44.274 45.053 42.878 L37.726 34.422 45.053 25.967 C46.392 24.422 46.233 22.075 44.694 20.73 43.155 19.38 40.822 19.544 39.483 21.089 L32.826 28.768 26.173 21.089 C24.833 19.544 22.497 19.38 20.962 20.73 19.423 22.075 19.263 24.422 20.603 25.967 L27.93 34.422 20.603 42.878 C19.394 44.274 19.394 46.36 20.603 47.756 L27.93 56.211 20.603 64.666 C19.394 66.063 19.394 68.145 20.603 69.545 L27.93 77.996 20.603 86.451 C19.394 87.852 19.394 89.934 20.603 91.33 L27.93 99.785 20.603 108.24 C19.394 109.64 19.394 111.722 20.603 113.119 L27.93 121.574 20.603 130.029 C19.263 131.578 19.423 133.921 20.962 135.27 21.664 135.883 22.526 136.184 23.388 136.184 24.417 136.184 25.442 135.753 26.173 134.908 L32.83 127.229 39.483 134.908 C40.214 135.753 41.239 136.184 42.268 136.184 43.129 136.184 43.995 135.883 44.694 135.27 46.233 133.921 46.392 131.578 45.053 130.029 L37.726 121.574 45.053 113.119 C46.262 111.722 46.262 109.64 45.053 108.24 Z M28.288 45.315 L32.826 40.077 37.368 45.315 32.826 50.556 Z M28.288 67.104 L32.826 61.862 37.368 67.104 32.826 72.345 Z M28.288 88.893 L32.826 83.651 37.368 88.893 32.826 94.13 Z M28.288 110.681 L32.826 105.44 37.368 110.681 32.826 115.923 Z M28.288 110.681" fill="#ffe000" fill-opacity="1" stroke="none"/>
 </g>
</svg>
