<?xml version="1.0" encoding="UTF-8"?>
<svg width="248px" height="156px" viewBox="0 0 248 156" xmlns="http://www.w3.org/2000/svg" xmlns:xlink="http://www.w3.org/1999/xlink" version="1.1">
 <!-- Generated by Pixelmator Pro 1.7 -->
 <g id="group">
  <path id="Путь" d="M243.845 4 L92.095 4 4.741 4 4.095 4 4.095 152 243.905 152 Z" fill="#ee5281" fill-opacity="1" stroke="#000000" stroke-width="8" stroke-opacity="1" stroke-linejoin="round"/>
  <path id="Путь-1" d="M128.095 48.67 C130.95 48.67 133.703 49.085 136.331 49.801 L148.822 4 107.367 4 119.858 49.801 C122.487 49.085 125.239 48.67 128.095 48.67 Z" fill="#feda38" fill-opacity="1" stroke="#000000" stroke-width="8" stroke-opacity="1" stroke-linejoin="round"/>
  <path id="Путь-2" d="M108.196 55.802 L65.599 4 4.741 4 4.095 4 4.095 4.222 101.389 63.68 C103.217 60.693 105.504 58.018 108.196 55.802 Z" fill="#feda38" fill-opacity="1" stroke="#000000" stroke-width="8" stroke-opacity="1" stroke-linejoin="round"/>
  <path id="Путь-3" d="M96.765 80 C96.765 78.337 96.932 76.716 97.182 75.123 L4.095 60.436 4.095 99.563 97.182 84.876 C96.932 83.284 96.765 81.663 96.765 80 Z" fill="#feda38" fill-opacity="1" stroke="#000000" stroke-width="8" stroke-opacity="1" stroke-linejoin="round"/>
  <path id="Путь-4" d="M100.953 95.604 L4.094 151.289 4.094 152 65.581 152 107.572 103.637 C104.943 101.352 102.703 98.641 100.953 95.604 Z" fill="#feda38" fill-opacity="1" stroke="#000000" stroke-width="8" stroke-opacity="1" stroke-linejoin="round"/>
  <path id="Путь-5" d="M128.095 111.33 C125.24 111.33 122.487 110.915 119.859 110.199 L108.458 152 147.731 152 136.331 110.199 C133.703 110.915 130.95 111.33 128.095 111.33 Z" fill="#feda38" fill-opacity="1" stroke="#000000" stroke-width="8" stroke-opacity="1" stroke-linejoin="round"/>
  <path id="Путь-6" d="M243.905 150.773 L154.801 96.32 C152.972 99.306 150.685 101.982 147.994 104.198 L187.301 152 243.905 152 Z" fill="#feda38" fill-opacity="1" stroke="#000000" stroke-width="8" stroke-opacity="1" stroke-linejoin="round"/>
  <path id="Путь-7" d="M159.425 80 C159.425 81.663 159.258 83.284 159.008 84.877 L243.884 98.268 243.869 61.734 159.008 75.123 C159.257 76.716 159.425 78.337 159.425 80 Z" fill="#feda38" fill-opacity="1" stroke="#000000" stroke-width="8" stroke-opacity="1" stroke-linejoin="round"/>
  <path id="Путь-8" d="M155.236 64.396 L243.848 13.452 243.845 4 194.081 4 148.617 56.363 C151.246 58.648 153.486 61.359 155.236 64.396 Z" fill="#feda38" fill-opacity="1" stroke="#000000" stroke-width="8" stroke-opacity="1" stroke-linejoin="round"/>
  <path id="Путь-9" d="M146.644 80 C146.644 90.244 138.339 98.549 128.095 98.549 117.851 98.549 109.546 90.244 109.546 80 109.546 69.756 117.851 61.451 128.095 61.451 138.339 61.451 146.644 69.756 146.644 80 Z" fill="#feda38" fill-opacity="1" stroke="#000000" stroke-width="8" stroke-opacity="1" stroke-linejoin="round"/>
 </g>
 <g id="group-1"/>
 <g id="group-2"/>
 <g id="group-3"/>
 <g id="group-4"/>
 <g id="group-5"/>
 <g id="group-6"/>
 <g id="group-7"/>
 <g id="group-8"/>
 <g id="group-9"/>
 <g id="group-10"/>
 <g id="group-11"/>
 <g id="group-12"/>
 <g id="group-13"/>
 <g id="group-14"/>
 <g id="group-15"/>
</svg>
