<?xml version="1.0" encoding="UTF-8"?>
<svg width="242px" height="156px" viewBox="0 0 242 156" xmlns="http://www.w3.org/2000/svg" xmlns:xlink="http://www.w3.org/1999/xlink" version="1.1">
 <!-- Generated by Pixelmator Pro 1.7.1 -->
 <g id="group">
  <path id="Путь" d="M237.971 78 L121.081 78 121.081 152.1 237.995 152.1 237.916 117 238.016 117 Z" fill="#ffffff" fill-opacity="1" stroke="#000000" stroke-width="7.803" stroke-opacity="1" stroke-linejoin="round"/>
  <path id="Путь-1" d="M4.021 78 L4.085 117 3.984 117 4.096 152.1 121.078 152.1 121.078 78 Z" fill="#26bbec" fill-opacity="1" stroke="#000000" stroke-width="7.803" stroke-opacity="1" stroke-linejoin="round"/>
  <path id="Путь-2" d="M180.742 126.776 L193.022 133.136 190.604 119.528 200.453 109.824 186.753 107.916 180.559 95.559 174.51 107.987 160.834 110.054 170.795 119.643 168.536 133.279 Z" fill="#ee5281" fill-opacity="1" stroke="#000000" stroke-width="7.803" stroke-opacity="1" stroke-linejoin="round"/>
  <path id="Путь-3" d="M4.029 3.9 L121.599 3.9 121.599 78 4.005 78 4.084 42.9 3.984 42.9 Z" fill="#ffffff" fill-opacity="1" stroke="#000000" stroke-width="7.803" stroke-opacity="1" stroke-linejoin="round"/>
  <path id="Путь-4" d="M237.979 3.9 L237.915 42.9 238.016 42.9 237.904 78 121.081 78 121.081 3.9 Z" fill="#ee5281" fill-opacity="1" stroke="#000000" stroke-width="7.803" stroke-opacity="1" stroke-linejoin="round"/>
  <path id="Путь-5" d="M61.937 52.676 L49.658 59.036 52.075 45.428 42.227 35.724 55.926 33.816 62.12 21.459 68.169 33.887 81.846 35.954 71.885 45.543 74.143 59.179 Z" fill="#26bbec" fill-opacity="1" stroke="#000000" stroke-width="7.803" stroke-opacity="1" stroke-linejoin="round"/>
 </g>
 <g id="group-1"/>
 <g id="group-2"/>
 <g id="group-3"/>
 <g id="group-4"/>
 <g id="group-5"/>
 <g id="group-6"/>
 <g id="group-7"/>
 <g id="group-8"/>
 <g id="group-9"/>
 <g id="group-10"/>
 <g id="group-11"/>
 <g id="group-12"/>
 <g id="group-13"/>
 <g id="group-14"/>
 <g id="group-15"/>
</svg>
