<?xml version="1.0" encoding="UTF-8"?>
<svg width="242px" height="156px" viewBox="0 0 242 156" xmlns="http://www.w3.org/2000/svg" xmlns:xlink="http://www.w3.org/1999/xlink" version="1.1">
 <!-- Generated by Pixelmator Pro 1.7.1 -->
 <g id="group">
  <path id="Путь" d="M237.809 25.116 L237.774 3.9 229.163 3.9 15.921 152.1 49.238 152.1 238.018 152.1 Z" fill="#83d816" fill-opacity="1" stroke="#000000" stroke-width="7.803" stroke-opacity="1" stroke-linejoin="round"/>
  <path id="Путь-1" d="M193.531 3.9 L3.982 3.9 4.277 131.344 4.325 152.1 15.921 152.1 229.163 3.9 Z" fill="#288eea" fill-opacity="1" stroke="#000000" stroke-width="7.803" stroke-opacity="1" stroke-linejoin="round"/>
  <path id="Путь-2" d="M4.325 152.1 L32.397 152.1 237.789 13.788 237.774 3.9 210.371 3.9 4.303 142.667 Z" fill="#feda38" fill-opacity="1" stroke="#000000" stroke-width="7.803" stroke-opacity="1" stroke-linejoin="round"/>
  <path id="Путь-3" d="M81.731 27.3 L81.731 42.9" fill="none" stroke="#ffffff" stroke-width="7.9" stroke-opacity="1" stroke-linejoin="round"/>
  <path id="Путь-4" d="M73.909 35.1 L89.553 35.1" fill="none" stroke="#ffffff" stroke-width="7.903" stroke-opacity="1" stroke-linejoin="round"/>
  <path id="Путь-5" d="M34.797 27.3 L34.797 42.9" fill="none" stroke="#ffffff" stroke-width="7.9" stroke-opacity="1" stroke-linejoin="round"/>
  <path id="Путь-6" d="M26.975 35.1 L42.619 35.1" fill="none" stroke="#ffffff" stroke-width="7.903" stroke-opacity="1" stroke-linejoin="round"/>
  <path id="Путь-7" d="M58.263 58.5 L58.263 74.1" fill="none" stroke="#ffffff" stroke-width="7.9" stroke-opacity="1" stroke-linejoin="round"/>
  <path id="Путь-8" d="M50.441 66.3 L66.086 66.3" fill="none" stroke="#ffffff" stroke-width="7.903" stroke-opacity="1" stroke-linejoin="round"/>
 </g>
 <g id="group-1"/>
 <g id="group-2"/>
 <g id="group-3"/>
 <g id="group-4"/>
 <g id="group-5"/>
 <g id="group-6"/>
 <g id="group-7"/>
 <g id="group-8"/>
 <g id="group-9"/>
 <g id="group-10"/>
 <g id="group-11"/>
 <g id="group-12"/>
 <g id="group-13"/>
 <g id="group-14"/>
 <g id="group-15"/>
</svg>
