<?xml version="1.0" encoding="UTF-8"?>
<svg width="242px" height="156px" viewBox="0 0 242 156" xmlns="http://www.w3.org/2000/svg" xmlns:xlink="http://www.w3.org/1999/xlink" version="1.1">
 <!-- Generated by Pixelmator Pro 1.7.1 -->
 <g id="group">
  <path id="Путь" d="M3.982 27.3 L4.216 128.7 237.979 128.7 237.812 27.3 Z" fill="#ee5281" fill-opacity="1" stroke="#000000" stroke-width="7.803" stroke-opacity="1" stroke-linejoin="round"/>
  <path id="Путь-1" d="M4.326 152.1 L238.018 152.1 237.979 128.7 4.271 128.7 Z" fill="#288eea" fill-opacity="1" stroke="#000000" stroke-width="7.803" stroke-opacity="1" stroke-linejoin="round"/>
  <path id="Путь-2" d="M237.773 3.9 L3.982 3.9 4.036 27.3 237.812 27.3 Z" fill="#288eea" fill-opacity="1" stroke="#000000" stroke-width="7.803" stroke-opacity="1" stroke-linejoin="round"/>
  <path id="Путь-3" d="M237.773 27.3 L3.982 27.3 4.036 39 237.812 39 Z" fill="#feda38" fill-opacity="1" stroke="#000000" stroke-width="7.803" stroke-opacity="1" stroke-linejoin="round"/>
  <path id="Путь-4" d="M237.773 117 L3.982 117 4.036 128.7 237.812 128.7 Z" fill="#feda38" fill-opacity="1" stroke="#000000" stroke-width="7.803" stroke-opacity="1" stroke-linejoin="round"/>
  <path id="Путь-5" d="M69.556 78.017 C69.556 78.017 103.401 97.774 121.078 97.786 L121.078 58.247 C103.401 58.258 69.556 78.017 69.556 78.017 Z" fill="#000000" fill-opacity="1" stroke="#000000" stroke-width="7.803" stroke-opacity="1" stroke-linejoin="round"/>
  <path id="Путь-6" d="M172.633 78.017 C172.633 78.017 138.768 58.246 121.095 58.246 121.09 58.246 121.084 58.247 121.078 58.247 L121.078 97.786 C121.083 97.786 121.089 97.787 121.095 97.787 138.768 97.786 172.633 78.017 172.633 78.017 Z" fill="#ffffff" fill-opacity="1" stroke="#000000" stroke-width="7.803" stroke-opacity="1" stroke-linejoin="round"/>
 </g>
 <g id="group-1"/>
 <g id="group-2"/>
 <g id="group-3"/>
 <g id="group-4"/>
 <g id="group-5"/>
 <g id="group-6"/>
 <g id="group-7"/>
 <g id="group-8"/>
 <g id="group-9"/>
 <g id="group-10"/>
 <g id="group-11"/>
 <g id="group-12"/>
 <g id="group-13"/>
 <g id="group-14"/>
 <g id="group-15"/>
</svg>
