<?xml version="1.0" encoding="UTF-8"?>
<svg width="242px" height="156px" viewBox="0 0 242 156" xmlns="http://www.w3.org/2000/svg" xmlns:xlink="http://www.w3.org/1999/xlink" version="1.1">
 <!-- Generated by Pixelmator Pro 1.7.1 -->
 <g id="group">
  <path id="Путь" d="M237.773 3.9 L3.982 3.9 4.326 152.1 238.018 152.1 Z" fill="#83d816" fill-opacity="1" stroke="#000000" stroke-width="7.803" stroke-opacity="1" stroke-linejoin="round"/>
  <path id="Путь-1" d="M27.402 3.9 L62.531 3.9 62.531 152.1 27.402 152.1 Z" fill="#ee5281" fill-opacity="1" stroke="#000000" stroke-width="7.803" stroke-opacity="1" stroke-linejoin="round"/>
  <path id="Путь-2" d="M139.976 28.785 C138.484 27.646 136.914 26.691 135.304 25.856 145.493 36.914 146.607 53.995 137.154 66.347 127.702 78.699 110.913 82.101 97.562 75.174 98.791 76.508 100.125 77.772 101.616 78.911 115.469 89.494 135.287 86.854 145.879 73.012 156.472 59.17 153.828 39.369 139.976 28.785 Z" fill="#ffffff" fill-opacity="1" stroke="#000000" stroke-width="7.803" stroke-opacity="1" stroke-linejoin="round"/>
  <path id="Путь-3" d="M75.065 48.53 L79.692 42.249 85.978 46.872 81.351 53.153 Z" fill="#ffffff" fill-opacity="1" stroke="none"/>
  <path id="Путь-4" d="M96.754 21.885 L101.382 15.604 107.669 20.227 103.041 26.509 Z" fill="#ffffff" fill-opacity="1" stroke="none"/>
  <path id="Путь-5" d="M92.196 39.832 L96.823 33.55 103.111 38.174 98.482 44.455 Z" fill="#ffffff" fill-opacity="1" stroke="none"/>
  <path id="Путь-6" d="M87.638 57.778 L92.265 51.496 98.553 56.12 93.924 62.401 Z" fill="#ffffff" fill-opacity="1" stroke="none"/>
  <path id="Путь-7" d="M109.327 31.134 L113.955 24.853 120.242 29.476 115.614 35.757 Z" fill="#ffffff" fill-opacity="1" stroke="none"/>
 </g>
 <g id="group-1"/>
 <g id="group-2"/>
 <g id="group-3"/>
 <g id="group-4"/>
 <g id="group-5"/>
 <g id="group-6"/>
 <g id="group-7"/>
 <g id="group-8"/>
 <g id="group-9"/>
 <g id="group-10"/>
 <g id="group-11"/>
 <g id="group-12"/>
 <g id="group-13"/>
 <g id="group-14"/>
 <g id="group-15"/>
</svg>
