<?xml version="1.0" encoding="UTF-8"?>
<svg width="220px" height="156px" viewBox="0 0 220 156" xmlns="http://www.w3.org/2000/svg" xmlns:xlink="http://www.w3.org/1999/xlink" version="1.1">
 <!-- Generated by Pixelmator Pro 1.7.1 -->
 <g id="group">
  <path id="Путь" d="M3.548 24.818 L216.452 24.818 216.452 131.182 3.548 131.182 Z" fill="#ffffff" fill-opacity="1" stroke="#000000" stroke-width="7.094" stroke-opacity="1" stroke-linejoin="round"/>
  <path id="Путь-1" d="M3.548 3.545 L216.452 3.545 216.452 24.818 3.548 24.818 Z" fill="#f97da3" fill-opacity="1" stroke="#000000" stroke-width="7.094" stroke-opacity="1" stroke-linejoin="round"/>
  <path id="Путь-2" d="M3.548 46.091 L216.452 46.091 216.452 67.364 3.548 67.364 Z" fill="#f97da3" fill-opacity="1" stroke="#000000" stroke-width="7.094" stroke-opacity="1" stroke-linejoin="round"/>
  <path id="Путь-3" d="M3.548 88.636 L216.452 88.636 216.452 109.909 3.548 109.909 Z" fill="#f97da3" fill-opacity="1" stroke="#000000" stroke-width="7.094" stroke-opacity="1" stroke-linejoin="round"/>
  <path id="Путь-4" d="M3.548 131.182 L216.452 131.182 216.452 152.455 3.548 152.455 Z" fill="#f97da3" fill-opacity="1" stroke="#000000" stroke-width="7.094" stroke-opacity="1" stroke-linejoin="round"/>
  <path id="Путь-5" d="M110 3.545 L3.548 3.545 3.705 88.636 110 88.636 Z" fill="#288eea" fill-opacity="1" stroke="#000000" stroke-width="7.094" stroke-opacity="1" stroke-linejoin="round"/>
  <path id="Путь-6" d="M28.387 24.818 L28.387 39" fill="none" stroke="#ffffff" stroke-width="7.545" stroke-opacity="1" stroke-linejoin="round"/>
  <path id="Путь-7" d="M21.29 31.909 L35.484 31.909" fill="none" stroke="#ffffff" stroke-width="7.548" stroke-opacity="1" stroke-linejoin="round"/>
  <path id="Путь-8" d="M56.774 24.818 L56.774 39" fill="none" stroke="#ffffff" stroke-width="7.545" stroke-opacity="1" stroke-linejoin="round"/>
  <path id="Путь-9" d="M49.677 31.909 L63.871 31.909" fill="none" stroke="#ffffff" stroke-width="7.548" stroke-opacity="1" stroke-linejoin="round"/>
  <path id="Путь-10" d="M85.161 24.818 L85.161 39" fill="none" stroke="#ffffff" stroke-width="7.545" stroke-opacity="1" stroke-linejoin="round"/>
  <path id="Путь-11" d="M78.065 31.909 L92.258 31.909" fill="none" stroke="#ffffff" stroke-width="7.548" stroke-opacity="1" stroke-linejoin="round"/>
  <path id="Путь-12" d="M56.774 53.182 L56.774 67.364" fill="none" stroke="#ffffff" stroke-width="7.545" stroke-opacity="1" stroke-linejoin="round"/>
  <path id="Путь-13" d="M49.677 60.273 L63.871 60.273" fill="none" stroke="#ffffff" stroke-width="7.548" stroke-opacity="1" stroke-linejoin="round"/>
  <path id="Путь-14" d="M85.161 53.182 L85.161 67.364" fill="none" stroke="#ffffff" stroke-width="7.545" stroke-opacity="1" stroke-linejoin="round"/>
  <path id="Путь-15" d="M78.065 60.273 L92.258 60.273" fill="none" stroke="#ffffff" stroke-width="7.548" stroke-opacity="1" stroke-linejoin="round"/>
  <path id="Путь-16" d="M28.387 53.182 L28.387 67.364" fill="none" stroke="#ffffff" stroke-width="7.545" stroke-opacity="1" stroke-linejoin="round"/>
  <path id="Путь-17" d="M21.29 60.273 L35.484 60.273" fill="none" stroke="#ffffff" stroke-width="7.548" stroke-opacity="1" stroke-linejoin="round"/>
 </g>
 <g id="group-1"/>
 <g id="group-2"/>
 <g id="group-3"/>
 <g id="group-4"/>
 <g id="group-5"/>
 <g id="group-6"/>
 <g id="group-7"/>
 <g id="group-8"/>
 <g id="group-9"/>
 <g id="group-10"/>
 <g id="group-11"/>
 <g id="group-12"/>
 <g id="group-13"/>
 <g id="group-14"/>
 <g id="group-15"/>
</svg>
