<?xml version="1.0" encoding="UTF-8"?>
<svg width="248px" height="176px" viewBox="0 0 248 176" xmlns="http://www.w3.org/2000/svg" xmlns:xlink="http://www.w3.org/1999/xlink" version="1.1">
 <!-- Generated by Pixelmator Pro 1.7 -->
 <g id="group">
  <path id="Путь" d="M4 28 L244 28 244 148 4 148 Z" fill="#ffffff" fill-opacity="1" stroke="#000000" stroke-width="8" stroke-opacity="1" stroke-linejoin="round"/>
  <path id="Путь-1" d="M4 4 L244 4 244 28 4 28 Z" fill="#f97da3" fill-opacity="1" stroke="#000000" stroke-width="8" stroke-opacity="1" stroke-linejoin="round"/>
  <path id="Путь-2" d="M4 52 L244 52 244 76 4 76 Z" fill="#f97da3" fill-opacity="1" stroke="#000000" stroke-width="8" stroke-opacity="1" stroke-linejoin="round"/>
  <path id="Путь-3" d="M4 100 L244 100 244 124 4 124 Z" fill="#f97da3" fill-opacity="1" stroke="#000000" stroke-width="8" stroke-opacity="1" stroke-linejoin="round"/>
  <path id="Путь-4" d="M4 148 L244 148 244 172 4 172 Z" fill="#f97da3" fill-opacity="1" stroke="#000000" stroke-width="8" stroke-opacity="1" stroke-linejoin="round"/>
  <path id="Путь-5" d="M124 4 L4 4 4.176 100 124 100 Z" fill="#288eea" fill-opacity="1" stroke="#000000" stroke-width="8" stroke-opacity="1" stroke-linejoin="round"/>
  <path id="Путь-6" d="M32 28 L32 44" fill="none" stroke="#ffffff" stroke-width="8" stroke-opacity="1" stroke-linejoin="round"/>
  <path id="Путь-7" d="M24 36 L40 36" fill="none" stroke="#ffffff" stroke-width="8" stroke-opacity="1" stroke-linejoin="round"/>
  <path id="Путь-8" d="M64 28 L64 44" fill="none" stroke="#ffffff" stroke-width="8" stroke-opacity="1" stroke-linejoin="round"/>
  <path id="Путь-9" d="M56 36 L72 36" fill="none" stroke="#ffffff" stroke-width="8" stroke-opacity="1" stroke-linejoin="round"/>
  <path id="Путь-10" d="M96 28 L96 44" fill="none" stroke="#ffffff" stroke-width="8" stroke-opacity="1" stroke-linejoin="round"/>
  <path id="Путь-11" d="M88 36 L104 36" fill="none" stroke="#ffffff" stroke-width="8" stroke-opacity="1" stroke-linejoin="round"/>
  <path id="Путь-12" d="M64 60 L64 76" fill="none" stroke="#ffffff" stroke-width="8" stroke-opacity="1" stroke-linejoin="round"/>
  <path id="Путь-13" d="M56 68 L72 68" fill="none" stroke="#ffffff" stroke-width="8" stroke-opacity="1" stroke-linejoin="round"/>
  <path id="Путь-14" d="M96 60 L96 76" fill="none" stroke="#ffffff" stroke-width="8" stroke-opacity="1" stroke-linejoin="round"/>
  <path id="Путь-15" d="M88 68 L104 68" fill="none" stroke="#ffffff" stroke-width="8" stroke-opacity="1" stroke-linejoin="round"/>
  <path id="Путь-16" d="M32 60 L32 76" fill="none" stroke="#ffffff" stroke-width="8" stroke-opacity="1" stroke-linejoin="round"/>
  <path id="Путь-17" d="M24 68 L40 68" fill="none" stroke="#ffffff" stroke-width="8" stroke-opacity="1" stroke-linejoin="round"/>
 </g>
 <g id="group-1"/>
 <g id="group-2"/>
 <g id="group-3"/>
 <g id="group-4"/>
 <g id="group-5"/>
 <g id="group-6"/>
 <g id="group-7"/>
 <g id="group-8"/>
 <g id="group-9"/>
 <g id="group-10"/>
 <g id="group-11"/>
 <g id="group-12"/>
 <g id="group-13"/>
 <g id="group-14"/>
 <g id="group-15"/>
</svg>
